<?xml version="1.0" encoding="UTF-8"?>
<svg version="1.1" xmlns="http://www.w3.org/2000/svg" width="200" height="200">
<path d="M0 0 C3.44419134 9.41002278 3.44419134 9.41002278 3 14 C4.98 14 6.96 14 9 14 C9.09087891 12.60974609 9.09087891 12.60974609 9.18359375 11.19140625 C9.26738281 9.99386719 9.35117187 8.79632813 9.4375 7.5625 C9.51871094 6.36753906 9.59992187 5.17257813 9.68359375 3.94140625 C10 1 10 1 11 0 C15.27110987 -0.24435961 19.54834767 -0.22861907 23.82568359 -0.24023438 C25.96362782 -0.24983664 28.10056726 -0.28079347 30.23828125 -0.3125 C37.71322888 -0.37074748 44.11679734 -0.10951699 51 3 C53.09382513 7.18765026 52.37446033 11.82981146 51 16.125 C47.25159974 21.51332538 42.13750415 24.81788755 36 27 C26.40526009 28.57638549 16.44565774 28.11836756 6.75 28.0625 C5.21484522 28.05747043 3.67968884 28.05291012 2.14453125 28.04882812 C-1.5703467 28.03794839 -5.28516259 28.02076577 -9 28 C-9.66 26.02 -10.32 24.04 -11 22 C-13.48039849 22.80889048 -15.95930212 23.62191901 -18.4375 24.4375 C-19.14455078 24.66759766 -19.85160156 24.89769531 -20.58007812 25.13476562 C-24.06306795 26.07421147 -24.06306795 26.07421147 -27 28 C-28.68608966 28.07205511 -30.37500659 28.08386068 -32.0625 28.0625 C-32.98160156 28.05347656 -33.90070312 28.04445313 -34.84765625 28.03515625 C-35.55792969 28.02355469 -36.26820312 28.01195313 -37 28 C-37 24.26520431 -36.21410691 23.81633661 -33.67578125 21.19921875 C-32.97646484 20.46896484 -32.27714844 19.73871094 -31.55664062 18.98632812 C-30.81607422 18.22771484 -30.07550781 17.46910156 -29.3125 16.6875 C-27.86951257 15.19293125 -26.42807358 13.69686575 -24.98828125 12.19921875 C-24.29984131 11.48507813 -23.61140137 10.7709375 -22.90209961 10.03515625 C-21.23745037 8.25406062 -19.67823084 6.43946799 -18.1484375 4.54296875 C-13.38539723 -1.09473891 -6.81037183 -0.24226619 0 0 Z M27 7 C26.16260219 9.1234016 25.33019717 11.2487728 24.5 13.375 C24.0359375 14.55835937 23.571875 15.74171875 23.09375 16.9609375 C21.88712206 19.7753244 21.88712206 19.7753244 22 22 C27.17532124 21.43646502 31.00511632 20.61473229 34.625 16.6875 C36.60502884 14.08735224 37.01803244 13.42376235 36.875 10.0625 C36.58625 9.381875 36.2975 8.70125 36 8 C33.03 7.67 30.06 7.34 27 7 Z M-14 12 C-14.33 12.66 -14.66 13.32 -15 14 C-14.34 14 -13.68 14 -13 14 C-13.33 13.34 -13.66 12.68 -14 12 Z M5 16 C4.67 16.99 4.34 17.98 4 19 C4.99 20.485 4.99 20.485 6 22 C6.66 20.02 7.32 18.04 8 16 C7.01 16 6.02 16 5 16 Z " fill="#211D1C" transform="translate(43,78)"/>
<path d="M0 0 C4.46570449 -0.0743839 8.93107684 -0.12871171 13.3972168 -0.16479492 C14.91518438 -0.17984353 16.43310876 -0.20028738 17.95092773 -0.22631836 C20.13796677 -0.26287653 22.32442896 -0.27976523 24.51171875 -0.29296875 C25.82615967 -0.3086792 27.14060059 -0.32438965 28.49487305 -0.34057617 C32.21007258 0.02041173 34.06463795 0.74446331 37 3 C38.1875 5.1875 38.1875 5.1875 38 8 C36.23717987 10.873931 34.19024742 13.44153707 32 16 C32.66 17.32 33.32 18.64 34 20 C34.6501709 19.29653442 34.6501709 19.29653442 35.31347656 18.57885742 C37.28895698 16.44526466 39.26941484 14.31635448 41.25 12.1875 C41.93191406 11.44951172 42.61382812 10.71152344 43.31640625 9.95117188 C43.98027344 9.23896484 44.64414063 8.52675781 45.328125 7.79296875 C45.9355957 7.1383667 46.54306641 6.48376465 47.16894531 5.80932617 C50.39677423 2.61980082 52.03746677 1.07679786 56.671875 0.70703125 C58.03156035 0.72683249 59.3910934 0.76240798 60.75 0.8125 C61.44738281 0.82603516 62.14476562 0.83957031 62.86328125 0.85351562 C64.57585541 0.8887055 66.28802941 0.94250845 68 1 C68.870957 4.55860938 69.71876925 8.12234592 70.5625 11.6875 C70.9327832 13.19860352 70.9327832 13.19860352 71.31054688 14.74023438 C71.53935547 15.71669922 71.76816406 16.69316406 72.00390625 17.69921875 C72.21861572 18.59471436 72.4333252 19.49020996 72.65454102 20.4128418 C73.02823115 23.21142436 72.70459974 25.28225814 72 28 C69.70858714 28.05384521 67.41681812 28.09272087 65.125 28.125 C63.84882813 28.14820312 62.57265625 28.17140625 61.2578125 28.1953125 C58 28 58 28 56 26 C55.38649958 23.8105352 54.85440188 21.59768143 54.375 19.375 C54.11460937 18.18648437 53.85421875 16.99796875 53.5859375 15.7734375 C53.39257812 14.85820313 53.19921875 13.94296875 53 13 C52.24074219 13.83144531 51.48148438 14.66289063 50.69921875 15.51953125 C49.69534886 16.61722075 48.6914406 17.71487516 47.6875 18.8125 C47.18798828 19.35970703 46.68847656 19.90691406 46.17382812 20.47070312 C44.78777469 21.98526483 43.39413878 23.49287747 42 25 C41.53891846 25.54696533 41.07783691 26.09393066 40.6027832 26.6574707 C38.52687835 28.39629793 37.33964783 28.38650876 34.65625 28.3984375 C33.82222656 28.40230469 32.98820312 28.40617187 32.12890625 28.41015625 C30.82759766 28.39275391 30.82759766 28.39275391 29.5 28.375 C28.63246094 28.38660156 27.76492187 28.39820312 26.87109375 28.41015625 C25.62005859 28.40435547 25.62005859 28.40435547 24.34375 28.3984375 C23.20196289 28.39336182 23.20196289 28.39336182 22.03710938 28.38818359 C19.44188893 27.89364854 18.62440338 27.05184675 17 25 C14 19.10714286 14 19.10714286 14 15.9375 C15.56690004 12.90163118 17.73604123 10.5542099 20 8 C18.35 8 16.7 8 15 8 C14.69763428 8.80219971 14.69763428 8.80219971 14.38916016 9.62060547 C13.47333617 12.04088471 12.54927878 14.45793764 11.625 16.875 C11.30789062 17.71675781 10.99078125 18.55851562 10.6640625 19.42578125 C10.3546875 20.23144531 10.0453125 21.03710938 9.7265625 21.8671875 C9.44377441 22.61081543 9.16098633 23.35444336 8.86962891 24.12060547 C8 26 8 26 6 28 C2.7421875 28.1953125 2.7421875 28.1953125 -1.125 28.125 C-3.04699219 28.09792969 -3.04699219 28.09792969 -5.0078125 28.0703125 C-6.48894531 28.03550781 -6.48894531 28.03550781 -8 28 C-9.40898627 24.23749927 -8.5539836 22.02943721 -7.12890625 18.359375 C-6.51499023 16.75449219 -6.51499023 16.75449219 -5.88867188 15.1171875 C-5.45103516 14.00601563 -5.01339844 12.89484375 -4.5625 11.75 C-3.9118457 10.06003906 -3.9118457 10.06003906 -3.24804688 8.3359375 C-2.17509988 5.5533497 -1.09212022 2.7751063 0 0 Z " fill="#1F1C1D" transform="translate(119,78)"/>
<path d="M0 0 C5.28 0 10.56 0 16 0 C17 2 17 2 16.3190918 4.3984375 C15.94953369 5.38070312 15.57997559 6.36296875 15.19921875 7.375 C14.59883789 8.97601563 14.59883789 8.97601563 13.98632812 10.609375 C13.55771484 11.72828125 13.12910156 12.8471875 12.6875 14 C12.27048828 15.11890625 11.85347656 16.2378125 11.42382812 17.390625 C8.26412172 25.73587828 8.26412172 25.73587828 6 28 C2.7421875 28.1953125 2.7421875 28.1953125 -1.125 28.125 C-3.04699219 28.09792969 -3.04699219 28.09792969 -5.0078125 28.0703125 C-6.48894531 28.03550781 -6.48894531 28.03550781 -8 28 C-9.26574484 24.20276547 -8.50371502 22.94838162 -7.12890625 19.23828125 C-6.51499023 17.56088867 -6.51499023 17.56088867 -5.88867188 15.84960938 C-5.45103516 14.68236328 -5.01339844 13.51511719 -4.5625 12.3125 C-3.9118457 10.54422852 -3.9118457 10.54422852 -3.24804688 8.74023438 C-2.17356663 5.823788 -1.08783349 2.91149198 0 0 Z " fill="#1F1B1C" transform="translate(100,78)"/>
<path d="M0 0 C0.50961846 1.39235043 1.00724909 2.78909118 1.5 4.1875 C1.7784375 4.96480469 2.056875 5.74210937 2.34375 6.54296875 C3.0353168 9.13222779 3.11370917 11.33257238 3 14 C-3.66666667 14 -10.33333333 14 -17 14 C-17.2578125 14.55171875 -17.515625 15.1034375 -17.78125 15.671875 C-20.21725946 20.3252777 -23.03855017 24.52070031 -27 28 C-30.49523581 28.82416072 -33.48583125 28.64810489 -37 28 C-37 24.26520431 -36.21410691 23.81633661 -33.67578125 21.19921875 C-32.97646484 20.46896484 -32.27714844 19.73871094 -31.55664062 18.98632812 C-30.81607422 18.22771484 -30.07550781 17.46910156 -29.3125 16.6875 C-27.86951257 15.19293125 -26.42807358 13.69686575 -24.98828125 12.19921875 C-24.29984131 11.48507813 -23.61140137 10.7709375 -22.90209961 10.03515625 C-21.23745037 8.25406062 -19.67823084 6.43946799 -18.1484375 4.54296875 C-13.38539723 -1.09473891 -6.81037183 -0.24226619 0 0 Z " fill="#201D1D" transform="translate(43,78)"/>
<path d="M0 0 C-3.27099531 1.70786481 -6.57182277 2.87172236 -10.0859375 4 C-12.43132187 4.8048504 -14.73073187 5.66012341 -17.0390625 6.5625 C-18.10882324 6.97773926 -18.10882324 6.97773926 -19.20019531 7.40136719 C-20.63740658 7.9621829 -22.07174466 8.53042454 -23.50292969 9.10644531 C-28.66745234 11.11084922 -28.66745234 11.11084922 -32 10 C-24.91998205 -3.3495288 -13.33142192 -1.07471465 0 0 Z " fill="#F1D100" transform="translate(49,93)"/>
<path d="M0 0 C4.875 0.875 4.875 0.875 6 2 C6.33 1.34 6.66 0.68 7 0 C7.99 0 8.98 0 10 0 C10 3.63 10 7.26 10 11 C6 10 6 10 5 9 C4.67 9.66 4.34 10.32 4 11 C2.68 10.67 1.36 10.34 0 10 C0 6.7 0 3.4 0 0 Z " fill="#181515" transform="translate(88,112)"/>
<path d="M0 0 C4 1 4 1 5 2 C5.33 1.34 5.66 0.68 6 0 C6.99 0 7.98 0 9 0 C9 3.63 9 7.26 9 11 C7.68 10.67 6.36 10.34 5 10 C4.67 9.34 4.34 8.68 4 8 C3.67 8.99 3.34 9.98 3 11 C2.01 11 1.02 11 0 11 C0 7.37 0 3.74 0 0 Z " fill="#1C1819" transform="translate(136,112)"/>
<path d="M0 0 C0.763125 0.20625 1.52625 0.4125 2.3125 0.625 C2.6425 1.945 2.9725 3.265 3.3125 4.625 C2.3225 4.625 1.3325 4.625 0.3125 4.625 C0.3125 3.965 0.3125 3.305 0.3125 2.625 C-0.6775 3.12 -0.6775 3.12 -1.6875 3.625 C-1.6875 4.945 -1.6875 6.265 -1.6875 7.625 C-1.0275 7.955 -0.3675 8.285 0.3125 8.625 C0.3125 7.965 0.3125 7.305 0.3125 6.625 C1.3025 6.625 2.2925 6.625 3.3125 6.625 C2.4375 10.5 2.4375 10.5 1.3125 11.625 C-1.0625 11.9375 -1.0625 11.9375 -3.6875 11.625 C-5.5625 10 -5.5625 10 -6.6875 7.625 C-6.5625 4.5 -6.5625 4.5 -5.6875 1.625 C-2.6875 -0.375 -2.6875 -0.375 0 0 Z " fill="#191616" transform="translate(165.6875,111.375)"/>
<path d="M0 0 C2.64 0 5.28 0 8 0 C8 1.98 8 3.96 8 6 C6.35 6 4.7 6 3 6 C3 6.66 3 7.32 3 8 C4.65 8 6.3 8 8 8 C8 8.99 8 9.98 8 11 C5.36 11 2.72 11 0 11 C0 7.37 0 3.74 0 0 Z " fill="#161414" transform="translate(184,112)"/>
<path d="M0 0 C1.32 0 2.64 0 4 0 C4.50615298 1.26839526 5.00469099 2.53983102 5.5 3.8125 C5.7784375 4.52019531 6.056875 5.22789063 6.34375 5.95703125 C7 8 7 8 7 11 C6.01 11 5.02 11 4 11 C3.67 10.34 3.34 9.68 3 9 C2.01 8.67 1.02 8.34 0 8 C0 8.99 0 9.98 0 11 C-0.99 11 -1.98 11 -3 11 C-2.53199289 6.94393835 -2.12046792 3.53411321 0 0 Z " fill="#1A1718" transform="translate(115,112)"/>
<path d="M0 0 C2.64 0 5.28 0 8 0 C8 0.66 8 1.32 8 2 C6.35 2 4.7 2 3 2 C3 2.66 3 3.32 3 4 C4.32 4 5.64 4 7 4 C7 4.66 7 5.32 7 6 C5.68 6 4.36 6 3 6 C3 7.65 3 9.3 3 11 C2.01 11 1.02 11 0 11 C0 7.37 0 3.74 0 0 Z " fill="#1E1A1B" transform="translate(49,112)"/>
<path d="M0 0 C0.99 0 1.98 0 3 0 C3 3.63 3 7.26 3 11 C2.01 11 1.02 11 0 11 C0 7.37 0 3.74 0 0 Z " fill="#1A1718" transform="translate(71,112)"/>
<path d="M0 0 C1.98 0 3.96 0 6 0 C6 0.66 6 1.32 6 2 C4.68 2 3.36 2 2 2 C2 2.66 2 3.32 2 4 C3.65 4 5.3 4 7 4 C7 4.66 7 5.32 7 6 C4.69 6 2.38 6 0 6 C0 4.02 0 2.04 0 0 Z " fill="#221E1F" transform="translate(185,116)"/>
</svg>
