<?xml version="1.0" encoding="UTF-8"?>
<svg version="1.1" xmlns="http://www.w3.org/2000/svg" width="200" height="200">
<path d="M0 0 C66 0 132 0 200 0 C200 22.44 200 44.88 200 68 C134 68 68 68 0 68 C0 45.56 0 23.12 0 0 Z " fill="#FDFDFD" transform="translate(0,66)"/>
<path d="M0 0 C5.94 0 11.88 0 18 0 C16.00898701 6.27262713 13.68364796 12.21118914 10.9375 18.1875 C8.70039659 23.07628929 6.65017624 27.87500331 5 33 C4.31500969 34.63497688 3.60853632 36.2612201 2.875 37.875 C2.34519531 39.04675781 2.34519531 39.04675781 1.8046875 40.2421875 C1.53914063 40.82226562 1.27359375 41.40234375 1 42 C0.67 42 0.34 42 0 42 C0 28.14 0 14.28 0 0 Z " fill="#7F7F7F" transform="translate(15,78)"/>
<path d="M0 0 C5.94 0 11.88 0 18 0 C18 13.53 18 27.06 18 41 C15.31209999 38.31209999 14.31317465 35.16189476 12.9375 31.6875 C9.69360441 23.63636441 6.2994138 15.65724178 2.84545898 7.6940918 C2.28967163 6.40692261 2.28967163 6.40692261 1.72265625 5.09375 C1.39015869 4.32740234 1.05766113 3.56105469 0.71508789 2.77148438 C0 1 0 1 0 0 Z " fill="#7F7F7F" transform="translate(46,78)"/>
<path d="M0 0 C1.65 0 3.3 0 5 0 C5 8.58 5 17.16 5 26 C-0.63106918 27.40776729 -4.22185273 27.96989851 -9.4375 25.125 C-12.05817695 22.65266326 -12.52179741 20.55571474 -12.75 17 C-12.5247317 13.40643425 -12.04468998 11.34693516 -9.375 8.875 C-5.81993166 6.89996203 -3.98727562 6.52532433 0 7 C0 4.69 0 2.38 0 0 Z " fill="#808080" transform="translate(117,87)"/>
<path d="M0 0 C1.65 0 3.3 0 5 0 C5 2.31 5 4.62 5 7 C6.051875 6.896875 7.10375 6.79375 8.1875 6.6875 C12 7 12 7 14.9375 9 C17.09294028 12.13518585 17.73471568 14.18204914 17.49609375 18 C16.5979832 21.62072915 14.68160588 23.44311997 12 26 C8.49852959 27.1671568 5.67329964 27.13357453 2 27 C1.34 26.67 0.68 26.34 0 26 C0 17.42 0 8.84 0 0 Z " fill="#828282" transform="translate(147,87)"/>
<path d="M0 0 C1.98 0 3.96 0 6 0 C8.83288506 5.14116177 10.90194518 10.32022596 12.75 15.875 C12.97260498 16.54152588 13.19520996 17.20805176 13.42456055 17.89477539 C15 22.72987262 15 22.72987262 15 25 C13.02 25 11.04 25 9 25 C8.67 23.02 8.34 21.04 8 19 C5.03 19 2.06 19 -1 19 C-1.33 20.32 -1.66 21.64 -2 23 C-2.33 23.66 -2.66 24.32 -3 25 C-4.65 25 -6.3 25 -8 25 C-6.8595654 19.10775457 -5.2670123 13.84292867 -2.953125 8.30859375 C-1.82725729 5.58159449 -0.88819182 2.81260744 0 0 Z " fill="#858585" transform="translate(89,88)"/>
<path d="M0 0 C2.75329021 1.79562405 4.52627461 3.05254922 6 6 C6.01953125 8.27734375 6.01953125 8.27734375 5.8125 10.9375 C5.75707031 11.81277344 5.70164063 12.68804687 5.64453125 13.58984375 C5 16 5 16 3.265625 17.79296875 C0.62274113 19.20098792 -1.0809688 19.40198218 -4.0625 19.375 C-4.91972656 19.38273437 -5.77695313 19.39046875 -6.66015625 19.3984375 C-9.45956846 18.92174293 -10.30942852 18.24356216 -12 16 C-13.20190901 12.39427296 -13.32670315 9.7897565 -13 6 C-9.30920537 0.34078157 -6.6962915 -0.56748233 0 0 Z " fill="#858585" transform="translate(138,94)"/>
<path d="M0 0 C2.9375 2.125 2.9375 2.125 5 5 C5 6.98 5 8.96 5 11 C1.04 11 -2.92 11 -7 11 C-6.01 12.485 -6.01 12.485 -5 14 C-3.02252878 14.36297936 -3.02252878 14.36297936 -0.875 14.1875 C0.40375 14.125625 1.6825 14.06375 3 14 C3 15.65 3 17.3 3 19 C-0.14911479 20.57455739 -2.52008816 20.34799118 -6 20 C-10.33764633 17.63401109 -10.33764633 17.63401109 -12 15 C-12.80208978 11.50518023 -12.75743355 8.50026112 -12 5 C-8.73184225 0.04824583 -5.81719541 -1.03878489 0 0 Z " fill="#838383" transform="translate(179,94)"/>
<path d="M0 0 C3.05943652 1.52971826 3.23553714 3.90176066 4.375 7.0625 C5.83014868 10.99312351 7.29866335 14.7896117 9.25 18.5 C10.73696347 21.47392693 11.59170698 23.73365588 12 27 C9.69 27 7.38 27 5 27 C4.8040625 26.43410156 4.608125 25.86820313 4.40625 25.28515625 C3.44879827 22.93692334 2.54985 21.01395343 1 19 C-1.83761177 17.9548491 -3.91790709 18 -7 18 C-5.06375702 11.79522136 -2.74390859 5.89174281 0 0 Z " fill="#828282" transform="translate(39,95)"/>
<path d="M0 0 C0 3.63 0 7.26 0 11 C-1.65 11 -3.3 11 -5 11 C-7.15502531 7.76746204 -7.46856135 6.74849077 -7 3 C-4.78150499 -0.21681777 -4.13734472 0 0 0 Z " fill="#EFEFEF" transform="translate(117,98)"/>
<path d="M0 0 C3.53571429 0.53571429 3.53571429 0.53571429 5 2 C5.1875 5.4375 5.1875 5.4375 5 9 C4.34 9.66 3.68 10.32 3 11 C1.68 11 0.36 11 -1 11 C-2.50662097 7.98675805 -2.17770373 5.31713623 -2 2 C-1.34 1.34 -0.68 0.68 0 0 Z " fill="#F8F8F8" transform="translate(133,98)"/>
<path d="M0 0 C1.99954746 -0.04254356 4.00041636 -0.04080783 6 0 C7 1 7 1 7.25 4.4375 C7.1675 5.613125 7.085 6.78875 7 8 C4 10 4 10 0 10 C0 6.7 0 3.4 0 0 Z " fill="#F5F5F5" transform="translate(152,99)"/>
<path d="M0 0 C0.66 0 1.32 0 2 0 C2.66 2.97 3.32 5.94 4 9 C2.02 9 0.04 9 -2 9 C-1.34 6.03 -0.68 3.06 0 0 Z " fill="#E2E2E2" transform="translate(91,94)"/>
<path d="M0 0 C1.65 0.33 3.3 0.66 5 1 C5.33 1.99 5.66 2.98 6 4 C3.69 4 1.38 4 -1 4 C-0.67 2.68 -0.34 1.36 0 0 Z " fill="#DCDCDC" transform="translate(173,98)"/>
</svg>
