<?xml version="1.0" encoding="UTF-8"?>
<svg version="1.1" xmlns="http://www.w3.org/2000/svg" width="200" height="200">
<path d="M0 0 C0.76210401 -0.00170885 1.52420803 -0.0034177 2.3094061 -0.00517833 C4.87061619 -0.00848033 7.431566 0.00254206 9.99275208 0.01345825 C11.82568353 0.01402221 13.65861544 0.0137061 15.49154663 0.01257324 C20.47472051 0.01199814 25.45779859 0.02377794 30.44095016 0.03772116 C35.64598213 0.05020227 40.85101616 0.05139695 46.05606079 0.05377197 C55.91578742 0.05999445 65.77546982 0.07641565 75.63517696 0.09647095 C86.85872692 0.11880607 98.08227897 0.12981737 109.30584562 0.13986182 C132.396574 0.16078122 155.4872631 0.19597211 178.57795715 0.24050903 C178.57795715 2.22050903 178.57795715 4.20050903 178.57795715 6.24050903 C116.20795715 6.24050903 53.83795715 6.24050903 -10.42204285 6.24050903 C-10.42204285 4.92050903 -10.42204285 3.60050903 -10.42204285 2.24050903 C-6.80006926 -0.17414003 -4.18228356 -0.0340775 0 0 Z " fill="#241715" transform="translate(15.422042846679688,110.75949096679688)"/>
<path d="M0 0 C2.5 2.625 2.5 2.625 4 5 C4.495 4.21625 4.99 3.4325 5.5 2.625 C8.71980003 -0.75579003 11.36518035 -1.77517666 16 -2 C19.63887618 -1.16484809 21.97626427 -0.50570066 24.13671875 2.671875 C26.40566092 7.80522832 26.34762353 12.60950588 25 18 C23.7153043 20.87527132 22.75148258 22.43638807 20.25 24.3125 C16.08037677 25.58655154 12.44430696 25.47023948 8.3125 24.125 C4.71426455 20.81851337 3.53162259 16.56064156 2 12 C0.35 13.32 -1.3 14.64 -3 16 C-1.02 16.33 0.96 16.66 3 17 C3 19.31 3 21.62 3 24 C-3.93 24 -10.86 24 -18 24 C-17 17 -17 17 -14.75 14.671875 C-13.8425 14.03765625 -12.935 13.4034375 -12 12.75 C-8.02558714 10.12426232 -8.02558714 10.12426232 -6 6 C-6.99 6 -7.98 6 -9 6 C-9.33 7.32 -9.66 8.64 -10 10 C-12.64 10 -15.28 10 -18 10 C-17.71120683 6.24568878 -17.51295789 3.69615714 -15.25 0.625 C-10.3597383 -2.90685567 -5.35837914 -2.32681182 0 0 Z M13 5 C11.73762269 7.52475462 11.90143596 9.31200466 11.9375 12.125 C11.94652344 13.03507812 11.95554688 13.94515625 11.96484375 14.8828125 C11.97644531 15.58148438 11.98804688 16.28015625 12 17 C13.94603274 17.59070014 13.94603274 17.59070014 16 18 C17.28612676 16.94021067 17.28612676 16.94021067 17.09765625 14.49609375 C17.08605469 13.48675781 17.07445312 12.47742188 17.0625 11.4375 C17.05347656 10.42558594 17.04445313 9.41367188 17.03515625 8.37109375 C17.02355469 7.58863281 17.01195312 6.80617188 17 6 C15.68 5.67 14.36 5.34 13 5 Z " fill="#C22820" transform="translate(123,84)"/>
<path d="M0 0 C1.27603592 -0.00412399 2.55207184 -0.00824799 3.86677551 -0.01249695 C5.27847502 -0.00188017 6.69017238 0.00902425 8.10186768 0.02018738 C9.59012332 0.0210337 11.07838022 0.0205584 12.56663513 0.01885986 C16.60563533 0.01799868 20.64436857 0.03564418 24.68330669 0.05658174 C28.90470211 0.07532814 33.12610356 0.07709737 37.34753418 0.08065796 C45.34084385 0.08998442 53.33403051 0.11460632 61.32728601 0.14470643 C70.42755103 0.17823175 79.5278219 0.19473174 88.6281333 0.20979273 C107.34763795 0.24115536 126.06702808 0.29392753 144.78643799 0.36076355 C145.11643799 2.01076355 145.44643799 3.66076355 145.78643799 5.36076355 C94.30643799 5.36076355 42.82643799 5.36076355 -10.21356201 5.36076355 C-10.21356201 4.70076355 -10.21356201 4.04076355 -10.21356201 3.36076355 C-6.98642716 0.15205075 -4.44229017 -0.01106883 0 0 Z " fill="#160F0E" transform="translate(49.21356201171875,75.63923645019531)"/>
<path d="M0 0 C2.64 0 5.28 0 8 0 C8.33 5.94 8.66 11.88 9 18 C9.99 18 10.98 18 12 18 C12.495 9.09 12.495 9.09 13 0 C21.25 0 29.5 0 38 0 C36.02 2.31 34.04 4.62 32 7 C31.12414232 9.36492238 31.12414232 9.36492238 31.1953125 11.62109375 C31.16953125 12.41064453 31.14375 13.20019531 31.1171875 14.01367188 C31.12105469 15.2134668 31.12105469 15.2134668 31.125 16.4375 C31.104375 17.26443359 31.08375 18.09136719 31.0625 18.94335938 C31.01583068 20.96180762 31.00427298 22.98101682 31 25 C28.03 25 25.06 25 22 25 C21.505 22.525 21.505 22.525 21 20 C20.29875 20.804375 19.5975 21.60875 18.875 22.4375 C15.63173687 25.32823453 14.2889193 25.91422161 10 26 C6.3125 25.4375 6.3125 25.4375 3 24 C-0.4249873 18.94143581 -0.36996501 14.4919519 -0.1875 8.625 C-0.17396484 7.79355469 -0.16042969 6.96210937 -0.14648438 6.10546875 C-0.11139059 4.07002934 -0.05759228 2.03492709 0 0 Z " fill="#070606" transform="translate(44,84)"/>
<path d="M0 0 C2.49056331 -0.29470065 4.73311348 -0.39143903 7.2258606 -0.36076355 C7.97894308 -0.36332682 8.73202556 -0.3658901 9.50792873 -0.36853105 C12.04472528 -0.37349328 14.58093358 -0.35693637 17.11767578 -0.34057617 C18.93075547 -0.33973042 20.74383619 -0.34020402 22.55691528 -0.34190369 C27.49061311 -0.34276711 32.4240937 -0.32508534 37.35774088 -0.30418181 C42.50938736 -0.2854727 47.66103841 -0.28366913 52.81271362 -0.28010559 C62.57333582 -0.27076813 72.33385764 -0.24613139 82.09443557 -0.21605712 C93.20429272 -0.18256595 104.31415458 -0.16604041 115.42404962 -0.15097082 C138.28275547 -0.11958329 161.14137212 -0.06678982 184 0 C184 0.99 184 1.98 184 3 C122.62 3 61.24 3 -2 3 C-1.34 2.01 -0.68 1.02 0 0 Z " fill="#000000" transform="translate(9,112)"/>
<path d="M0 0 C0 8.25 0 16.5 0 25 C-2.64 25 -5.28 25 -8 25 C-8 23.68 -8 22.36 -8 21 C-14.70610847 20.53122349 -17.72036576 20.66799242 -23 25 C-26.02909935 25.35030401 -28.9647557 25.23805838 -32 25 C-31.10698344 23.93513145 -30.2104053 22.87324959 -29.3125 21.8125 C-28.81363281 21.22082031 -28.31476562 20.62914063 -27.80078125 20.01953125 C-25.62658522 17.58122464 -23.31009367 15.31009367 -21 13 C-19.97954187 11.89256626 -18.96279035 10.7817088 -17.94921875 9.66796875 C-16.86224245 8.50756582 -15.77499918 7.34741292 -14.6875 6.1875 C-13.89182617 5.2912793 -13.89182617 5.2912793 -13.08007812 4.37695312 C-12.54189453 3.81298828 -12.00371094 3.24902344 -11.44921875 2.66796875 C-10.97830811 2.15516357 -10.50739746 1.6423584 -10.0222168 1.11401367 C-8 0 -8 0 0 0 Z M-9 10 C-9.66 11.32 -10.32 12.64 -11 14 C-10.01 14 -9.02 14 -8 14 C-8.33 12.68 -8.66 11.36 -9 10 Z " fill="#050404" transform="translate(43,84)"/>
<path d="M0 0 C2.62070044 2.1079547 4.46687842 3.76971944 5.8125 6.875 C6.35944061 13.07366027 6.09241321 17.4549832 3 23 C0.08028473 25.51419926 -1.65848838 25.96340947 -5.5 26.375 C-9.2486869 25.97335498 -11.07442224 25.3404622 -14 23 C-16.22251322 19.59214639 -16.32858548 16.5773556 -16.375 12.5625 C-16.40335938 11.45003906 -16.43171875 10.33757812 -16.4609375 9.19140625 C-15.90557557 5.34623086 -14.68358382 3.75277382 -12 1 C-7.84354426 -1.47140612 -4.61354699 -1.23577152 0 0 Z M-7 6 C-8.26237731 8.52475462 -8.09856404 10.31200466 -8.0625 13.125 C-8.05347656 14.03507812 -8.04445312 14.94515625 -8.03515625 15.8828125 C-8.02355469 16.58148438 -8.01195312 17.28015625 -8 18 C-6.05396726 18.59070014 -6.05396726 18.59070014 -4 19 C-2.71387324 17.94021067 -2.71387324 17.94021067 -2.90234375 15.49609375 C-2.91394531 14.48675781 -2.92554688 13.47742188 -2.9375 12.4375 C-2.94652344 11.42558594 -2.95554688 10.41367188 -2.96484375 9.37109375 C-2.97644531 8.58863281 -2.98804688 7.80617188 -3 7 C-4.32 6.67 -5.64 6.34 -7 6 Z " fill="#C32921" transform="translate(166,83)"/>
<path d="M0 0 C2.80857695 4.21286542 2.96972481 8.74491972 2.3359375 13.6953125 C1.54246635 17.33990033 0.79142812 20.28432888 -2.375 22.4375 C-6.92562413 23.95437471 -10.75734396 24.15645824 -15.1875 22.1875 C-17.58181769 20.27204585 -18.28115536 19.26607624 -19.375 16.4375 C-19.7109375 13.37890625 -19.7109375 13.37890625 -19.75 10 C-19.77835938 8.88753906 -19.80671875 7.77507812 -19.8359375 6.62890625 C-19.27912698 2.77370122 -18.08556923 1.18250477 -15.375 -1.5625 C-9.69290755 -4.46668059 -5.23745282 -3.44569264 0 0 Z M-10.375 3.4375 C-11.63737731 5.96225462 -11.47356404 7.74950466 -11.4375 10.5625 C-11.42847656 11.47257812 -11.41945312 12.38265625 -11.41015625 13.3203125 C-11.39855469 14.01898438 -11.38695312 14.71765625 -11.375 15.4375 C-9.42896726 16.02820014 -9.42896726 16.02820014 -7.375 16.4375 C-6.08887324 15.37771067 -6.08887324 15.37771067 -6.27734375 12.93359375 C-6.28894531 11.92425781 -6.30054688 10.91492188 -6.3125 9.875 C-6.32152344 8.86308594 -6.33054688 7.85117188 -6.33984375 6.80859375 C-6.35144531 6.02613281 -6.36304688 5.24367188 -6.375 4.4375 C-7.695 4.1075 -9.015 3.7775 -10.375 3.4375 Z " fill="#C42820" transform="translate(192.375,85.5625)"/>
<path d="M0 0 C4.08396864 1.52283576 5.48205519 2.66985272 7.6875 6.375 C9.45516555 11.67799665 9.3885976 16.622256 7.3125 21.8125 C4.56453176 26.14583453 4.56453176 26.14583453 1.69921875 26.89453125 C-2.0627428 27.36872808 -4.60462464 27.65199471 -8.1875 26.25 C-12.10272527 22.79538947 -13.54130389 19.79686905 -14.0625 14.625 C-13.92223407 9.96115789 -12.41897596 7.62069154 -9.3125 4.1875 C-6.25776185 1.46950464 -4.17971313 -0.27549898 0 0 Z M-4.3125 7.375 C-5.49556728 9.74113456 -5.44604608 11.24280736 -5.4375 13.875 C-5.44007812 14.6690625 -5.44265625 15.463125 -5.4453125 16.28125 C-5.44527996 18.43418534 -5.44527996 18.43418534 -4.3125 20.375 C-2.9925 20.045 -1.6725 19.715 -0.3125 19.375 C0.98366272 13.08648966 0.98366272 13.08648966 -1.3125 7.375 C-2.3025 7.375 -3.2925 7.375 -4.3125 7.375 Z " fill="#0A0909" transform="translate(89.3125,82.625)"/>
<path d="M0 0 C2.29160319 -0.02692484 4.58329546 -0.04636124 6.875 -0.0625 C8.15117187 -0.07410156 9.42734375 -0.08570312 10.7421875 -0.09765625 C14 0 14 0 16 1 C16.625 3.5625 16.625 3.5625 17 6 C17.66 4.02 18.32 2.04 19 0 C19.99 0 20.98 0 22 0 C25 6.625 25 6.625 25 10 C24.01 10 23.02 10 22 10 C22 9.34 22 8.68 22 8 C21.01 8 20.02 8 19 8 C19 8.66 19 9.32 19 10 C17.35 10 15.7 10 14 10 C13.67 9.01 13.34 8.02 13 7 C12.34 7 11.68 7 11 7 C11 7.99 11 8.98 11 10 C10.01 10 9.02 10 8 10 C7.67 7.69 7.34 5.38 7 3 C6.34 3 5.68 3 5 3 C5 5.31 5 7.62 5 10 C4.01 9.67 3.02 9.34 2 9 C1.26953125 6.93359375 1.26953125 6.93359375 0.8125 4.4375 C0.65394531 3.61121094 0.49539062 2.78492187 0.33203125 1.93359375 C0.16767578 0.97646484 0.16767578 0.97646484 0 0 Z " fill="#183970" transform="translate(169,118)"/>
<path d="M0 0 C8.25 0 16.5 0 25 0 C25 2.31 25 4.62 25 7 C23.35 7 21.7 7 20 7 C20 5.35 20 3.7 20 2 C19.34 2 18.68 2 18 2 C18 3.65 18 5.3 18 7 C12.06 7 6.12 7 0 7 C0 4.69 0 2.38 0 0 Z " fill="#1E345A" transform="translate(91,121)"/>
<path d="M0 0 C0.33 0 0.66 0 1 0 C1 8.25 1 16.5 1 25 C-1.64 25 -4.28 25 -7 25 C-7 23.68 -7 22.36 -7 21 C-10.96 21 -14.92 21 -19 21 C-17.68 19.68 -16.36 18.36 -15 17 C-13.66172696 15.33729713 -12.32810215 13.67083819 -11 12 C-9.375 10.1875 -9.375 10.1875 -8 9 C-7.34 9 -6.68 9 -6 9 C-6 10.98 -6 12.96 -6 15 C-6.78375 15.28875 -7.5675 15.5775 -8.375 15.875 C-11.09671632 16.84912254 -11.09671632 16.84912254 -13 19 C-10.69 19.33 -8.38 19.66 -6 20 C-6 21.32 -6 22.64 -6 24 C-4.02 24 -2.04 24 0 24 C0 16.08 0 8.16 0 0 Z M-8 10 C-8.66 11.32 -9.32 12.64 -10 14 C-9.01 14 -8.02 14 -7 14 C-7.33 12.68 -7.66 11.36 -8 10 Z " fill="#251F1E" transform="translate(42,84)"/>
<path d="M0 0 C4.62 0 9.24 0 14 0 C14 0.33 14 0.66 14 1 C12.35 1 10.7 1 9 1 C10.65 1.33 12.3 1.66 14 2 C14 4.31 14 6.62 14 9 C13.67 8.34 13.34 7.68 13 7 C12.34 7 11.68 7 11 7 C11 7.99 11 8.98 11 10 C10.01 10 9.02 10 8 10 C7.67 7.69 7.34 5.38 7 3 C6.34 3 5.68 3 5 3 C5 5.31 5 7.62 5 10 C4.01 9.67 3.02 9.34 2 9 C0.95888271 6.05480723 0.56463316 3.08376572 0 0 Z " fill="#1D2C46" transform="translate(169,118)"/>
<path d="M0 0 C0.66 0 1.32 0 2 0 C2 0.99 2 1.98 2 3 C5.72852449 3.95876344 8.26761694 3.82941846 12 3 C13 4 13 4 13.0625 6.5625 C13.041875 7.366875 13.02125 8.17125 13 9 C8.53585851 9.96521978 4.59306718 10 0 10 C0 6.7 0 3.4 0 0 Z M2 5 C2 5.99 2 6.98 2 8 C2.66 8 3.32 8 4 8 C4 7.01 4 6.02 4 5 C3.34 5 2.68 5 2 5 Z " fill="#1E3866" transform="translate(117,118)"/>
<path d="M0 0 C0.99 0.33 1.98 0.66 3 1 C2.67 3.97 2.34 6.94 2 10 C-1 10 -4 10 -7 10 C-8.125 5.25 -8.125 5.25 -7 3 C-5.02 3 -3.04 3 -1 3 C-0.67 2.01 -0.34 1.02 0 0 Z M-5 5 C-5 5.99 -5 6.98 -5 8 C-4.34 7.34 -3.68 6.68 -3 6 C-3.66 5.67 -4.32 5.34 -5 5 Z " fill="#20355A" transform="translate(146,118)"/>
<path d="M0 0 C0.625 3.375 0.625 3.375 1 7 C-1 9 -1 9 -3.625 9.125 C-4.40875 9.08375 -5.1925 9.0425 -6 9 C-6.70074844 5.846632 -7 3.27275026 -7 0 C-4.3333581 -1.33332095 -2.83319697 -0.67102033 0 0 Z M-4 1 C-4 1.66 -4 2.32 -4 3 C-3.34 2.67 -2.68 2.34 -2 2 C-2.66 1.67 -3.32 1.34 -4 1 Z M-5 5 C-5 5.66 -5 6.32 -5 7 C-4.01 6.67 -3.02 6.34 -2 6 C-2.99 5.67 -3.98 5.34 -5 5 Z " fill="#203F73" transform="translate(168,119)"/>
<path d="M0 0 C0.99 0 1.98 0 3 0 C4.31626692 3.61973402 5 6.09567131 5 10 C4.34 10 3.68 10 3 10 C3 9.34 3 8.68 3 8 C2.01 8 1.02 8 0 8 C0 8.66 0 9.32 0 10 C-0.99 10 -1.98 10 -3 10 C-1.125 2.25 -1.125 2.25 0 0 Z " fill="#1B386A" transform="translate(155,118)"/>
<path d="M0 0 C2.64 0 5.28 0 8 0 C8 2.31 8 4.62 8 7 C5.36 7 2.72 7 0 7 C0 4.69 0 2.38 0 0 Z " fill="#253E6B" transform="translate(91,121)"/>
<path d="M0 0 C1.65 0.33 3.3 0.66 5 1 C5 2.65 5 4.3 5 6 C3.35 6.33 1.7 6.66 0 7 C-0.66 5.68 -1.32 4.36 -2 3 C-1.34 2.01 -0.68 1.02 0 0 Z " fill="#283E68" transform="translate(125,121)"/>
<path d="M0 0 C2.31 0 4.62 0 7 0 C7 0.66 7 1.32 7 2 C6.34 2 5.68 2 5 2 C5 4.31 5 6.62 5 9 C4.01 8.67 3.02 8.34 2 8 C1.26953125 6.15234375 1.26953125 6.15234375 0.8125 3.9375 C0.65394531 3.20402344 0.49539062 2.47054687 0.33203125 1.71484375 C0.22246094 1.14894531 0.11289063 0.58304687 0 0 Z " fill="#203B69" transform="translate(169,119)"/>
<path d="M0 0 C1.65 0 3.3 0 5 0 C5 1.65 5 3.3 5 5 C3.35 5 1.7 5 0 5 C0 3.35 0 1.7 0 0 Z " fill="#214174" transform="translate(101,123)"/>
<path d="M0 0 C0.66 0 1.32 0 2 0 C2 0.99 2 1.98 2 3 C2.99 3.33 3.98 3.66 5 4 C4.01 4.33 3.02 4.66 2 5 C1.67 5.99 1.34 6.98 1 8 C0.17361624 5.10765685 0 3.11257569 0 0 Z " fill="#254375" transform="translate(161,119)"/>
<path d="M0 0 C1.32 0 2.64 0 4 0 C4 0.66 4 1.32 4 2 C3.34 2 2.68 2 2 2 C2 3.65 2 5.3 2 7 C1.34 7 0.68 7 0 7 C0 4.69 0 2.38 0 0 Z " fill="#1E3763" transform="translate(131,121)"/>
<path d="M0 0 C2.475 0.495 2.475 0.495 5 1 C4.67 2.32 4.34 3.64 4 5 C3.34 4.34 2.68 3.68 2 3 C1.01 3.495 1.01 3.495 0 4 C0 2.68 0 1.36 0 0 Z " fill="#1B3157" transform="translate(163,118)"/>
</svg>
