<?xml version="1.0" encoding="UTF-8"?>
<svg version="1.1" xmlns="http://www.w3.org/2000/svg" width="200" height="200">
<path d="M0 0 C4.2290362 -0.08725659 8.45784012 -0.1404789 12.6875 -0.1875 C13.88568359 -0.21263672 15.08386719 -0.23777344 16.31835938 -0.26367188 C17.47529297 -0.27333984 18.63222656 -0.28300781 19.82421875 -0.29296875 C20.88729248 -0.3086792 21.95036621 -0.32438965 23.0456543 -0.34057617 C26.4515233 0.05205148 28.26569571 0.96157034 31 3 C33.46630167 6.69945251 33.68440004 9.70620451 33 14 C31.125 17.25 31.125 17.25 29 20 C27.67206394 22.06700655 27.67206394 22.06700655 27 24 C27.495 25.485 27.495 25.485 28 27 C28.66 27 29.32 27 30 27 C29.87625 26.21625 29.7525 25.4325 29.625 24.625 C30.4881445 16.28126979 36.38285592 9.79368575 42.6640625 4.62890625 C50.20287752 -0.62809352 59.0253582 -1.17838204 68 0 C71.19744001 1.34432514 73.26297498 2.81037998 76 5 C72.535 11.93 72.535 11.93 69 19 C63 17 63 17 61 16 C56.59665535 15.95674514 52.91659457 16.52260699 49 18.5625 C46.64940613 21.42728627 45.97735355 23.37002855 45.73828125 27.03125 C45.88862117 29.32208957 45.88862117 29.32208957 48.0625 31.9375 C51.40085737 34.28145305 52.92854975 35 57 35 C60.08272207 34.19647081 63.03679358 33.16552786 66 32 C66.33 32.66 66.66 33.32 67 34 C67.23710693 33.49025635 67.47421387 32.9805127 67.71850586 32.45532227 C68.78925593 30.15665983 69.86333195 27.85956706 70.9375 25.5625 C71.31068359 24.76005859 71.68386719 23.95761719 72.06835938 23.13085938 C72.42607422 22.36708984 72.78378906 21.60332031 73.15234375 20.81640625 C73.48226318 20.10943604 73.81218262 19.40246582 74.15209961 18.67407227 C75 17 75 17 76 16 C75.01 15.505 75.01 15.505 74 15 C74.95520596 9.19166827 76.79901102 4.23654037 81 0 C85.18232596 -1.22921942 89.0613428 -0.95525644 93.375 -0.625 C94.49261719 -0.57988281 95.61023438 -0.53476563 96.76171875 -0.48828125 C99.5133319 -0.37069094 102.25388464 -0.20673789 105 0 C105.7213011 16.01058231 106.14453125 31.97308977 106 48 C100.72 48 95.44 48 90 48 C90 45.36 90 42.72 90 40 C87.03 40 84.06 40 81 40 C80.67 41.32 80.34 42.64 80 44 C79.36345658 45.3479743 78.70394612 46.68596724 78 48 C76.08574219 47.98259766 76.08574219 47.98259766 74.1328125 47.96484375 C72.46354313 47.95546583 70.79427217 47.94636563 69.125 47.9375 C67.86236328 47.92493164 67.86236328 47.92493164 66.57421875 47.91210938 C65.76855469 47.90888672 64.96289062 47.90566406 64.1328125 47.90234375 C63.01737061 47.89448853 63.01737061 47.89448853 61.87939453 47.88647461 C59.90867432 47.88213364 59.90867432 47.88213364 58 49 C42.19705201 49.99365574 42.19705201 49.99365574 36 46 C33.12805611 42.96850367 31.06756438 39.61823766 29 36 C28.608125 36.9075 28.21625 37.815 27.8125 38.75 C25.33295365 43.19608311 22.88341499 45.27541197 18.13671875 47.1015625 C12.56799241 48.61380378 6.78291196 48.20955413 1.0625 48.125 C-0.09830078 48.11597656 -1.25910156 48.10695312 -2.45507812 48.09765625 C-5.30360108 48.07421162 -8.15169078 48.04139522 -11 48 C-10.34461671 41.16762917 -8.77263017 34.74727875 -7 28.125 C-6.72671875 27.08085938 -6.4534375 26.03671875 -6.171875 24.9609375 C-4.14466003 17.28932005 -4.14466003 17.28932005 -3 15 C-3.99 15 -4.98 15 -6 15 C-5.27623543 11.50596417 -3.93714794 8.48001095 -2.4375 5.25 C-1.98246094 4.26515625 -1.52742188 3.2803125 -1.05859375 2.265625 C-0.70925781 1.51796875 -0.35992187 0.7703125 0 0 Z M12 13 C11.67 14.98 11.34 16.96 11 19 C12.98 18.67 14.96 18.34 17 18 C17.59070014 16.05396726 17.59070014 16.05396726 18 14 C16.93354885 12.70366379 16.93354885 12.70366379 14.4375 12.9375 C13.633125 12.958125 12.82875 12.97875 12 13 Z M89 21 C87.5393715 23.64738916 87 24.89448334 87 28 C87.99 28 88.98 28 90 28 C90 25.69 90 23.38 90 21 C89.67 21 89.34 21 89 21 Z M8 29 C7.67 30.65 7.34 32.3 7 34 C9.31 34 11.62 34 14 34 C14.33 32.35 14.66 30.7 15 29 C12.69 29 10.38 29 8 29 Z M65 35 C64.34 36.98 63.68 38.96 63 41 C63.99 40.01 64.98 39.02 66 38 C65.67 37.01 65.34 36.02 65 35 Z M61 43 C62 46 62 46 62 46 Z " fill="#005DAB" transform="translate(84,75)"/>
<path d="M0 0 C4.30750548 0.35895879 5.74111588 1.30361588 8.75 4.3125 C10.35725635 7.52701269 9.80748185 10.74862536 9.75 14.3125 C10.8328125 14.1578125 10.8328125 14.1578125 11.9375 14 C14.75 14.3125 14.75 14.3125 17.3984375 16.3203125 C20.34939909 20.07519053 20.39844513 22.92952225 20.1875 27.5 C20.18169922 28.22380859 20.17589844 28.94761719 20.16992188 29.69335938 C20.04613095 35.01636905 20.04613095 35.01636905 17.75 37.3125 C14.92622023 37.69597626 12.1262869 37.81901122 9.28125 37.96875 C6.58393203 38.07488675 6.58393203 38.07488675 4.75 40.3125 C2.5859375 40.5078125 2.5859375 40.5078125 0.125 40.4375 C-0.69226563 40.41945312 -1.50953125 40.40140625 -2.3515625 40.3828125 C-2.97804688 40.35960937 -3.60453125 40.33640625 -4.25 40.3125 C-4.745 38.8275 -4.745 38.8275 -5.25 37.3125 C-6.08144531 37.37050781 -6.91289062 37.42851563 -7.76953125 37.48828125 C-8.85621094 37.53339844 -9.94289063 37.57851562 -11.0625 37.625 C-12.68091797 37.71201172 -12.68091797 37.71201172 -14.33203125 37.80078125 C-17.25 37.3125 -17.25 37.3125 -19.13671875 35.19921875 C-21.16552903 29.93854929 -20.39015172 24.74212498 -19.25 19.3125 C-17.83037589 16.57699355 -16.97065193 15.98199095 -14.25 14.3125 C-11.4375 14 -11.4375 14 -9.25 14.3125 C-9.353125 13.095625 -9.45625 11.87875 -9.5625 10.625 C-9.588849 6.90979051 -9.35695202 6.4413909 -6.8125 3.375 C-5.966875 2.694375 -5.12125 2.01375 -4.25 1.3125 C-3.25 0.3125 -3.25 0.3125 0 0 Z " fill="#005DAB" transform="translate(37.25,74.6875)"/>
<path d="M0 0 C1.01964844 -0.00708984 2.03929688 -0.01417969 3.08984375 -0.02148438 C10.99412807 0.04446922 17.9681364 1.4767401 24.875 5.4375 C31.1016843 17.35715281 31.35472051 31.67166144 27.875 44.4375 C27.68808594 45.25734375 27.50117187 46.0771875 27.30859375 46.921875 C26.11364659 50.75071094 24.92454185 52.81647922 21.42578125 54.88671875 C8.89076413 59.46095675 -7.13593795 59.34382997 -19.671875 54.84375 C-22.99403512 52.939327 -24.30555582 50.98832672 -25.609375 47.4375 C-25.77953125 46.7775 -25.9496875 46.1175 -26.125 45.4375 C-26.29572021 44.85363525 -26.46644043 44.26977051 -26.64233398 43.66821289 C-27.68762646 38.83723801 -27.3963664 33.79732055 -27.4375 28.875 C-27.46650391 27.74513672 -27.49550781 26.61527344 -27.52539062 25.45117188 C-27.58029391 18.11524867 -27.45615432 10.64767565 -23.125 4.4375 C-16.29690943 -0.19910072 -7.97270495 -0.15742284 0 0 Z M-20.80859375 6.796875 C-28.08279041 15.86263938 -25.75241617 31.44938197 -24.78515625 42.22265625 C-24.05580385 45.70542187 -23.40000129 47.69164803 -21.125 50.4375 C-9.24167901 56.82887333 3.46412784 56.64268123 16.28125 53.38671875 C19.67736686 52.14386273 22.08143479 50.84692084 23.88671875 47.640625 C28.16669437 35.27075328 28.10152531 22.31044459 23.625 10 C20.17824994 4.95297313 14.56739487 3.8431016 8.875 2.4375 C6.11855418 2.14745506 3.39515105 2.10389469 0.625 2.125 C-0.11572754 2.12846436 -0.85645508 2.13192871 -1.61962891 2.13549805 C-8.08425231 2.26259959 -15.58799535 2.58163545 -20.80859375 6.796875 Z " fill="#005299" transform="translate(37.125,70.5625)"/>
<path d="M0 0 C2.70583756 0.25560029 5.37210774 0.56759978 8.0625 0.9375 C9.20041992 1.08735352 9.20041992 1.08735352 10.36132812 1.24023438 C12.24154246 1.48856457 14.12086128 1.74365751 16 2 C16 3.32 16 4.64 16 6 C15.34 6 14.68 6 14 6 C14 6.66 14 7.32 14 8 C12.5629191 8.05422947 11.12524538 8.09289723 9.6875 8.125 C8.88699219 8.14820312 8.08648437 8.17140625 7.26171875 8.1953125 C5 8 5 8 2 6 C0.68 6 -0.64 6 -2 6 C-1.125 1.125 -1.125 1.125 0 0 Z " fill="#00559E" transform="translate(23,116)"/>
<path d="M0 0 C1.37562854 1.28965176 2.70766393 2.62689293 4 4 C4 4.66 4 5.32 4 6 C2.58461283 6.33872513 1.16762037 6.67074624 -0.25 7 C-1.03890625 7.185625 -1.8278125 7.37125 -2.640625 7.5625 C-5 8 -5 8 -9 8 C-9 6.02 -9 4.04 -9 2 C-6.94921875 1.77213542 -4.8984375 1.54427083 -2.84765625 1.31640625 C-0.98859771 1.18113386 -0.98859771 1.18113386 0 0 Z " fill="#00539B" transform="translate(50,116)"/>
</svg>
