<?xml version="1.0" encoding="UTF-8"?>
<svg version="1.1" xmlns="http://www.w3.org/2000/svg" width="200" height="200">
<path d="M0 0 C0.66 0 1.32 0 2 0 C1.67 6.27 1.34 12.54 1 19 C3.31 18.34 5.62 17.68 8 17 C10.85381581 16.63678708 13.08810239 16.75322902 16 17 C16.66 17.99 17.32 18.98 18 20 C18.99 20 19.98 20 21 20 C21 20.66 21 21.32 21 22 C19.35 22 17.7 22 16 22 C15.505 23.485 15.505 23.485 15 25 C14.39414063 25.02578125 13.78828125 25.0515625 13.1640625 25.078125 C3.57058852 25.72752939 -3.99202899 29.18813147 -12.1875 34.046875 C-14 35 -14 35 -16 35 C-16 35.66 -16 36.32 -16 37 C-14.02 37 -12.04 37 -10 37 C-10 37.66 -10 38.32 -10 39 C-12.97 39 -15.94 39 -19 39 C-19.04125 40.423125 -19.0825 41.84625 -19.125 43.3125 C-19.14820312 44.11300781 -19.17140625 44.91351563 -19.1953125 45.73828125 C-19.15817322 48.28388576 -19.15817322 48.28388576 -17 51 C-10.91974356 51.84650277 -4.64674196 51.50966309 1 49 C0.44570313 48.79246094 -0.10859375 48.58492187 -0.6796875 48.37109375 C-6.64190239 45.83556108 -6.64190239 45.83556108 -8.5 41.5 C-9 38 -9 38 -9 34 C-5.53801233 30.53801233 -2.95297299 29.09222319 1.875 28.625 C5.06948727 28.6946979 5.83378065 28.87533549 8.5 30.875 C10.61183532 35.27465692 10.33528878 39.20350768 10 44 C10.66 44 11.32 44 12 44 C12.495 43.01 12.495 43.01 13 42 C13.99 41.34 14.98 40.68 16 40 C14.68 39.67 13.36 39.34 12 39 C12 38.34 12 37.68 12 37 C13.98 37 15.96 37 18 37 C18.33 36.01 18.66 35.02 19 34 C19.99 34 20.98 34 22 34 C22 33.34 22 32.68 22 32 C21.34 32 20.68 32 20 32 C20 31.01 20 30.02 20 29 C20.66 29 21.32 29 22 29 C22 28.34 22 27.68 22 27 C22.66 27 23.32 27 24 27 C24 27.66 24 28.32 24 29 C24.66 29 25.32 29 26 29 C26 28.34 26 27.68 26 27 C26.66 27 27.32 27 28 27 C28 25.35 28 23.7 28 22 C28.99 22 29.98 22 31 22 C31 22.66 31 23.32 31 24 C32.98 24 34.96 24 37 24 C37 25.98 37 27.96 37 30 C36.34 30 35.68 30 35 30 C35 31.32 35 32.64 35 34 C34.34 34 33.68 34 33 34 C33.33 34.66 33.66 35.32 34 36 C41.90159544 36.13067347 49.8031952 36.26108196 57.70480061 36.39115143 C61.37375921 36.45155503 65.04271627 36.51205018 68.71166992 36.57275391 C72.25186504 36.63132393 75.79206404 36.68965432 79.33226585 36.74781799 C81.3414118 36.78089001 83.35055364 36.81421073 85.35969543 36.84753418 C86.58073471 36.86755493 87.80177399 36.88757568 89.05981445 36.90820312 C90.67530937 36.93485046 90.67530937 36.93485046 92.32344055 36.96203613 C94.21547904 36.98887249 96.1077712 37 98 37 C97.67 38.32 97.34 39.64 97 41 C96.34 41 95.68 41 95 41 C95 40.34 95 39.68 95 39 C73.22 39 51.44 39 29 39 C29 39.99 29 40.98 29 42 C28.01 42 27.02 42 26 42 C26 41.34 26 40.68 26 40 C25.34 40 24.68 40 24 40 C23.855625 40.78375 23.71125 41.5675 23.5625 42.375 C23 45 23 45 22 47 C21.34 47 20.68 47 20 47 C19.505 47.99 19.505 47.99 19 49 C16.74019556 50.12844051 14.51149113 51.14869016 12.1875 52.125 C11.55779297 52.40214844 10.92808594 52.67929688 10.27929688 52.96484375 C6.89683899 54.40584889 4.74060973 55 1 55 C1.495 66.385 1.495 66.385 2 78 C1.01 77.505 1.01 77.505 0 77 C0 70.07 0 63.14 0 56 C-0.99 56.495 -0.99 56.495 -2 57 C-7.62728325 57.31262685 -13.52443669 57.44093771 -19 56 C-19.33 55.34 -19.66 54.68 -20 54 C-20.99 53.34 -21.98 52.68 -23 52 C-25.40616073 47.78921872 -24.91377136 44.66023391 -24 40 C-27.3 39.67 -30.6 39.34 -34 39 C-34 39.66 -34 40.32 -34 41 C-34.99 40.67 -35.98 40.34 -37 40 C-36.67 38.68 -36.34 37.36 -36 36 C-34.60587891 36.13921875 -34.60587891 36.13921875 -33.18359375 36.28125 C-26.01486415 36.90772605 -26.01486415 36.90772605 -19.58203125 34.32421875 C-17.83977109 32.29220103 -16.38295435 30.28887698 -15 28 C-12.89262764 24.83894147 -12.49298338 24.54956998 -9.125 23.4375 C-6.28250042 22.48099349 -3.6605023 21.38990367 -1 20 C-1.01160156 18.72382812 -1.02320313 17.44765625 -1.03515625 16.1328125 C-1.04453417 14.46354313 -1.05363437 12.79427217 -1.0625 11.125 C-1.07087891 10.28324219 -1.07925781 9.44148438 -1.08789062 8.57421875 C-1.09111328 7.76855469 -1.09433594 6.96289062 -1.09765625 6.1328125 C-1.10289307 5.38918457 -1.10812988 4.64555664 -1.11352539 3.87939453 C-1 2 -1 2 0 0 Z M31 30 C31 31.32 31 32.64 31 34 C31.66 34 32.32 34 33 34 C33 32.68 33 31.36 33 30 C32.34 30 31.68 30 31 30 Z M-4 32 C-4 33.32 -4 34.64 -4 36 C-3.34 35.67 -2.68 35.34 -2 35 C-2.33 34.01 -2.66 33.02 -3 32 C-3.33 32 -3.66 32 -4 32 Z M26 32 C26 32.66 26 33.32 26 34 C26.66 34 27.32 34 28 34 C28 33.34 28 32.68 28 32 C27.34 32 26.68 32 26 32 Z M26 36 C26.33 36.66 26.66 37.32 27 38 C27.33 37.34 27.66 36.68 28 36 C27.34 36 26.68 36 26 36 Z M21 38 C22 40 22 40 22 40 Z M5 46 C4.67 46.66 4.34 47.32 4 48 C4.99 47.67 5.98 47.34 7 47 C6.34 46.67 5.68 46.34 5 46 Z " fill="#807171" transform="translate(59,55)"/>
<path d="M0 0 C0.66 0 1.32 0 2 0 C1.67 6.27 1.34 12.54 1 19 C3.31 18.34 5.62 17.68 8 17 C10.85381581 16.63678708 13.08810239 16.75322902 16 17 C16.66 17.99 17.32 18.98 18 20 C18.99 20 19.98 20 21 20 C21 20.66 21 21.32 21 22 C19.35 22 17.7 22 16 22 C15.505 23.485 15.505 23.485 15 25 C14.39414063 25.02578125 13.78828125 25.0515625 13.1640625 25.078125 C3.57058852 25.72752939 -3.99202899 29.18813147 -12.1875 34.046875 C-14 35 -14 35 -16 35 C-16 35.66 -16 36.32 -16 37 C-14.02 37 -12.04 37 -10 37 C-10 37.66 -10 38.32 -10 39 C-17.92 39 -25.84 39 -34 39 C-34 39.66 -34 40.32 -34 41 C-34.99 40.67 -35.98 40.34 -37 40 C-36.67 38.68 -36.34 37.36 -36 36 C-34.60587891 36.13921875 -34.60587891 36.13921875 -33.18359375 36.28125 C-26.01486415 36.90772605 -26.01486415 36.90772605 -19.58203125 34.32421875 C-17.83977109 32.29220103 -16.38295435 30.28887698 -15 28 C-12.89262764 24.83894147 -12.49298338 24.54956998 -9.125 23.4375 C-6.28250042 22.48099349 -3.6605023 21.38990367 -1 20 C-1.01160156 18.72382812 -1.02320313 17.44765625 -1.03515625 16.1328125 C-1.04453417 14.46354313 -1.05363437 12.79427217 -1.0625 11.125 C-1.07087891 10.28324219 -1.07925781 9.44148438 -1.08789062 8.57421875 C-1.09111328 7.76855469 -1.09433594 6.96289062 -1.09765625 6.1328125 C-1.10289307 5.38918457 -1.10812988 4.64555664 -1.11352539 3.87939453 C-1 2 -1 2 0 0 Z " fill="#8A8889" transform="translate(59,55)"/>
<path d="M0 0 C0.99 0 1.98 0 3 0 C3 0.66 3 1.32 3 2 C4.98 2 6.96 2 9 2 C9 3.98 9 5.96 9 8 C8.34 8 7.68 8 7 8 C7 9.32 7 10.64 7 12 C6.34 12 5.68 12 5 12 C5.33 12.66 5.66 13.32 6 14 C13.90159544 14.13067347 21.8031952 14.26108196 29.70480061 14.39115143 C33.37375921 14.45155503 37.04271627 14.51205018 40.71166992 14.57275391 C44.25186504 14.63132393 47.79206404 14.68965432 51.33226585 14.74781799 C53.3414118 14.78089001 55.35055364 14.81421073 57.35969543 14.84753418 C58.58073471 14.86755493 59.80177399 14.88757568 61.05981445 14.90820312 C62.67530937 14.93485046 62.67530937 14.93485046 64.32344055 14.96203613 C66.21547904 14.98887249 68.1077712 15 70 15 C69.67 16.32 69.34 17.64 69 19 C68.34 19 67.68 19 67 19 C67 18.34 67 17.68 67 17 C45.22 17 23.44 17 1 17 C1 17.99 1 18.98 1 20 C0.01 20 -0.98 20 -2 20 C-2 19.34 -2 18.68 -2 18 C-2.598125 17.855625 -3.19625 17.71125 -3.8125 17.5625 C-5.56150404 17.1127561 -7.28677023 16.57107659 -9 16 C-9 14.68 -9 13.36 -9 12 C-8.01 12 -7.02 12 -6 12 C-6 11.34 -6 10.68 -6 10 C-6.66 10 -7.32 10 -8 10 C-8 9.01 -8 8.02 -8 7 C-7.34 7 -6.68 7 -6 7 C-6 6.34 -6 5.68 -6 5 C-5.34 5 -4.68 5 -4 5 C-4 5.66 -4 6.32 -4 7 C-3.34 7 -2.68 7 -2 7 C-2 6.34 -2 5.68 -2 5 C-1.34 5 -0.68 5 0 5 C0 3.35 0 1.7 0 0 Z M3 8 C3 9.32 3 10.64 3 12 C3.66 12 4.32 12 5 12 C5 10.68 5 9.36 5 8 C4.34 8 3.68 8 3 8 Z M-2 10 C-2 10.66 -2 11.32 -2 12 C-1.34 12 -0.68 12 0 12 C0 11.34 0 10.68 0 10 C-0.66 10 -1.32 10 -2 10 Z M-2 14 C-1.67 14.66 -1.34 15.32 -1 16 C-0.67 15.34 -0.34 14.68 0 14 C-0.66 14 -1.32 14 -2 14 Z " fill="#969495" transform="translate(87,77)"/>
<path d="M0 0 C2.80049435 2.17038312 3.80463761 3.71779395 4.33984375 7.23046875 C4.58649755 13.27841992 4.58649755 13.27841992 2.66015625 15.6484375 C0.14431223 17.69663052 -1.55648341 18.94086446 -4.8125 19.375 C-9.06335919 18.87489892 -10.92187709 18.00653866 -14 15 C-14.92091257 11.66101876 -15.28895384 8.45540637 -15 5 C-10.52741577 0.52741577 -6.274946 -1.05409172 0 0 Z M-10 3 C-10 4.32 -10 5.64 -10 7 C-9.34 6.67 -8.68 6.34 -8 6 C-8.33 5.01 -8.66 4.02 -9 3 C-9.33 3 -9.66 3 -10 3 Z " fill="#F28902" transform="translate(65,84)"/>
<path d="M0 0 C1.918125 -0.0825 3.83625 -0.165 5.8125 -0.25 C7.43091797 -0.31960937 7.43091797 -0.31960937 9.08203125 -0.390625 C12 0 12 0 13.91015625 1.87890625 C15 4 15 4 14.625 6.1875 C14.41875 6.785625 14.2125 7.38375 14 8 C14.33 8.33 14.66 8.66 15 9 C15.04092937 11.33297433 15.04241723 13.66705225 15 16 C10.73840618 18.13079691 4.59236298 17.04502317 0 17 C0 11.39 0 5.78 0 0 Z M5 5 C5 5.66 5 6.32 5 7 C6.32 7 7.64 7 9 7 C9 6.34 9 5.68 9 5 C7.68 5 6.36 5 5 5 Z M5 10 C5 10.99 5 11.98 5 13 C6.65 12.67 8.3 12.34 10 12 C9.67 11.34 9.34 10.68 9 10 C7.68 10 6.36 10 5 10 Z " fill="#000000" transform="translate(71,111)"/>
<path d="M0 0 C1.65 0 3.3 0 5 0 C7.3125 3 7.3125 3 9 6 C9.33 4.02 9.66 2.04 10 0 C11.65 0 13.3 0 15 0 C15 5.61 15 11.22 15 17 C13.35 17 11.7 17 10 17 C10 16.34 10 15.68 10 15 C9.34 15 8.68 15 8 15 C7.34 14.01 6.68 13.02 6 12 C5.67 13.65 5.34 15.3 5 17 C3.35 17 1.7 17 0 17 C0 11.39 0 5.78 0 0 Z " fill="#010101" transform="translate(95,111)"/>
<path d="M0 0 C1.98 0 3.96 0 6 0 C6.33 3.96 6.66 7.92 7 12 C7.66 11.67 8.32 11.34 9 11 C9.4683265 8.41394668 9.4683265 8.41394668 9.625 5.4375 C9.69976562 4.42558594 9.77453125 3.41367188 9.8515625 2.37109375 C9.90054688 1.58863281 9.94953125 0.80617188 10 0 C11.98 0 13.96 0 16 0 C16.05449838 1.72880982 16.09301688 3.45812712 16.125 5.1875 C16.14820313 6.15042969 16.17140625 7.11335938 16.1953125 8.10546875 C15.98690765 11.19402868 15.46250015 13.27573502 14 16 C10.10636788 17.72218344 7.81018065 18.1650368 3.625 17.3125 C1 16 1 16 0 13 C-0.06937062 10.77181559 -0.08457084 8.54165476 -0.0625 6.3125 C-0.05347656 5.13300781 -0.04445313 3.95351562 -0.03515625 2.73828125 C-0.02355469 1.83464844 -0.01195313 0.93101563 0 0 Z " fill="#020202" transform="translate(112,111)"/>
<path d="M0 0 C0.66 0.33 1.32 0.66 2 1 C1.34 2.65 0.68 4.3 0 6 C-1.32 6 -2.64 6 -4 6 C-2.68 6.33 -1.36 6.66 0 7 C0 7.66 0 8.32 0 9 C0.66 9 1.32 9 2 9 C1.5152439 15.54420732 1.5152439 15.54420732 -0.625 17.4375 C-3.79137601 18.18743116 -6.75997731 18.12461626 -10 18 C-10.66 16.68 -11.32 15.36 -12 14 C-10.6875 12.5 -10.6875 12.5 -9 11 C-8.01 11 -7.02 11 -6 11 C-7.65 10.67 -9.3 10.34 -11 10 C-11.8125 6.75 -11.8125 6.75 -12 3 C-8.35433482 -1.55708148 -5.42131871 -1.32975742 0 0 Z " fill="#030303" transform="translate(141,111)"/>
<path d="M0 0 C1.43836751 0.11458693 2.87570966 0.24209116 4.3125 0.375 C5.51326172 0.47941406 5.51326172 0.47941406 6.73828125 0.5859375 C9 1 9 1 12 3 C11.125 7.75 11.125 7.75 10 10 C9.34 10 8.68 10 8 10 C7.67 10.66 7.34 11.32 7 12 C4.71934364 13.12574598 2.46777824 14.14767335 0.125 15.125 C-0.51308594 15.40214844 -1.15117188 15.67929688 -1.80859375 15.96484375 C-4.70323613 17.19159198 -6.8245104 18 -10 18 C-10.33 16.02 -10.66 14.04 -11 12 C-9.730447 11.35165346 -8.45930294 10.70642185 -7.1875 10.0625 C-6.47980469 9.70285156 -5.77210937 9.34320313 -5.04296875 8.97265625 C-3 8 -3 8 0 7 C0.33 6.34 0.66 5.68 1 5 C1.99 4.34 2.98 3.68 4 3 C2.68 2.67 1.36 2.34 0 2 C0 1.34 0 0.68 0 0 Z " fill="#868485" transform="translate(71,92)"/>
<path d="M0 0 C1.2113562 0.02009628 2.4227124 0.04019257 3.67077637 0.06089783 C4.98018188 0.08793289 6.2895874 0.11496796 7.63867188 0.14282227 C8.9948241 0.16713697 10.35098485 0.19097985 11.70715332 0.21437073 C15.27680985 0.27717256 18.8463188 0.34622687 22.41583252 0.41662598 C26.04603593 0.48719389 29.67633886 0.55215495 33.30664062 0.61743164 C39.68820405 0.73257287 46.06965462 0.85286057 52.4510498 0.97703552 C54.3362992 1.00875451 56.22190566 1.02172852 58.10742188 1.02172852 C57.77742188 2.34172852 57.44742188 3.66172852 57.10742188 5.02172852 C56.44742188 5.02172852 55.78742188 5.02172852 55.10742188 5.02172852 C55.10742188 4.36172852 55.10742188 3.70172852 55.10742188 3.02172852 C33.32742187 3.02172852 11.54742187 3.02172852 -10.89257812 3.02172852 C-7.53591025 -0.33493936 -4.5197601 -0.08458247 0 0 Z " fill="#190A0A" transform="translate(98.892578125,90.978271484375)"/>
<path d="M0 0 C0.66 0 1.32 0 2 0 C1.67 6.27 1.34 12.54 1 19 C3.31 18.34 5.62 17.68 8 17 C10.85381581 16.63678708 13.08810239 16.75322902 16 17 C16.66 17.99 17.32 18.98 18 20 C18.99 20 19.98 20 21 20 C21 20.66 21 21.32 21 22 C19.35 22 17.7 22 16 22 C15.67 22.99 15.34 23.98 15 25 C14.30132812 25.06058594 13.60265625 25.12117188 12.8828125 25.18359375 C11.97273438 25.26738281 11.06265625 25.35117188 10.125 25.4375 C9.22007813 25.51871094 8.31515625 25.59992188 7.3828125 25.68359375 C4.98889139 25.86989285 4.98889139 25.86989285 3 27 C2.34 26.67 1.68 26.34 1 26 C-0.17823606 21.0042791 -0.34473845 15.86065186 -0.625 10.75 C-0.6765625 9.9353125 -0.728125 9.120625 -0.78125 8.28125 C-1.12118676 2.24237351 -1.12118676 2.24237351 0 0 Z " fill="#888687" transform="translate(59,55)"/>
<path d="M0 0 C2.27024968 -0.08097324 4.54132075 -0.13917704 6.8125 -0.1875 C8.07707031 -0.22230469 9.34164062 -0.25710937 10.64453125 -0.29296875 C14 0 14 0 15.94921875 1.51171875 C16.29597656 2.00285156 16.64273438 2.49398437 17 3 C17.66 2.01 18.32 1.02 19 0 C20.32 0.33 21.64 0.66 23 1 C22 4 22 4 19 6 C18.26656572 9.06556598 18.26656572 9.06556598 18 12 C17.01 12 16.02 12 15 12 C14.566875 10.63875 14.566875 10.63875 14.125 9.25 C13.23468224 6.67797092 12.28505587 4.38653234 11 2 C9.68 2.33 8.36 2.66 7 3 C7 5.97 7 8.94 7 12 C6.01 12 5.02 12 4 12 C4 9.03 4 6.06 4 3 C2.68 3 1.36 3 0 3 C0 2.01 0 1.02 0 0 Z " fill="#0487C5" transform="translate(154,135)"/>
<path d="M0 0 C1.65 0 3.3 0 5 0 C5.33 1.65 5.66 3.3 6 5 C6.66 5 7.32 5 8 5 C8 3.35 8 1.7 8 0 C8.99 0 9.98 0 11 0 C11 3.96 11 7.92 11 12 C9.68 11.67 8.36 11.34 7 11 C6.67 9.68 6.34 8.36 6 7 C5.34 7 4.68 7 4 7 C4 8.65 4 10.3 4 12 C2.68 12 1.36 12 0 12 C0 8.04 0 4.08 0 0 Z " fill="#0191D5" transform="translate(83,135)"/>
<path d="M0 0 C1.98 0 3.96 0 6 0 C6 5.61 6 11.22 6 17 C4.02 17 2.04 17 0 17 C0 11.39 0 5.78 0 0 Z " fill="#000000" transform="translate(87,111)"/>
<path d="M0 0 C1.423125 -0.061875 2.84625 -0.12375 4.3125 -0.1875 C5.51326172 -0.23970703 5.51326172 -0.23970703 6.73828125 -0.29296875 C9.47851584 0.06198392 10.29171079 0.89366282 12 3 C11.649375 3.7425 11.29875 4.485 10.9375 5.25 C9.95490707 8.1322726 9.9673198 9.21176345 11 12 C9.68 12 8.36 12 7 12 C6.71125 11.360625 6.4225 10.72125 6.125 10.0625 C5.17176549 7.84793921 5.17176549 7.84793921 3 7 C3 8.65 3 10.3 3 12 C2.01 12 1.02 12 0 12 C0 8.04 0 4.08 0 0 Z M3 3 C3 3.66 3 4.32 3 5 C4.65 5 6.3 5 8 5 C7.67 4.34 7.34 3.68 7 3 C5.68 3 4.36 3 3 3 Z " fill="#0893D5" transform="translate(125,135)"/>
<path d="M0 0 C1.32 0 2.64 0 4 0 C4 2.97 4 5.94 4 9 C4.99 9 5.98 9 7 9 C7 6.03 7 3.06 7 0 C7.99 0 8.98 0 10 0 C10.02712066 1.43739513 10.04645067 2.87493863 10.0625 4.3125 C10.07410156 5.11300781 10.08570312 5.91351563 10.09765625 6.73828125 C10 9 10 9 9 12 C6.36 12 3.72 12 1 12 C0.03929566 9.11788698 -0.10581883 7.30149956 -0.0625 4.3125 C-0.05347656 3.50425781 -0.04445313 2.69601563 -0.03515625 1.86328125 C-0.02355469 1.24839844 -0.01195313 0.63351563 0 0 Z " fill="#179BD6" transform="translate(71,135)"/>
<path d="M0 0 C1.23556641 0.01740234 1.23556641 0.01740234 2.49609375 0.03515625 C3.32238281 0.04417969 4.14867188 0.05320313 5 0.0625 C5.63808594 0.07410156 6.27617188 0.08570313 6.93359375 0.09765625 C6.93359375 1.08765625 6.93359375 2.07765625 6.93359375 3.09765625 C5.28359375 3.09765625 3.63359375 3.09765625 1.93359375 3.09765625 C1.93359375 3.75765625 1.93359375 4.41765625 1.93359375 5.09765625 C2.92359375 5.09765625 3.91359375 5.09765625 4.93359375 5.09765625 C4.93359375 5.75765625 4.93359375 6.41765625 4.93359375 7.09765625 C3.94359375 7.09765625 2.95359375 7.09765625 1.93359375 7.09765625 C1.93359375 7.75765625 1.93359375 8.41765625 1.93359375 9.09765625 C3.58359375 9.09765625 5.23359375 9.09765625 6.93359375 9.09765625 C6.93359375 10.08765625 6.93359375 11.07765625 6.93359375 12.09765625 C3.96359375 12.09765625 0.99359375 12.09765625 -2.06640625 12.09765625 C-2.26042258 10.2858422 -2.44645 8.47317093 -2.62890625 6.66015625 C-2.73332031 5.65082031 -2.83773437 4.64148438 -2.9453125 3.6015625 C-2.98527344 2.77527344 -3.02523437 1.94898438 -3.06640625 1.09765625 C-2.06640625 0.09765625 -2.06640625 0.09765625 0 0 Z " fill="#0191D5" transform="translate(116.06640625,134.90234375)"/>
<path d="M0 0 C2.31 0 4.62 0 7 0 C7.66 1.32 8.32 2.64 9 4 C7.35 4 5.7 4 4 4 C6.475 4.99 6.475 4.99 9 6 C8.125 10.875 8.125 10.875 7 12 C4.66055264 11.71269945 2.3260857 11.38063221 0 11 C-0.33 10.01 -0.66 9.02 -1 8 C-0.34 7.67 0.32 7.34 1 7 C0.67 6.67 0.34 6.34 0 6 C-0.04080783 4.00041636 -0.04254356 1.99954746 0 0 Z M2 7 C3.98 7.99 3.98 7.99 6 9 C5.67 8.34 5.34 7.68 5 7 C4.01 7 3.02 7 2 7 Z " fill="#0C8BC9" transform="translate(138,135)"/>
<path d="M0 0 C1.32 0 2.64 0 4 0 C3.96519531 0.58007812 3.93039063 1.16015625 3.89453125 1.7578125 C3.71255476 7.009134 4.16622289 10.39511219 7 15 C6.34 15 5.68 15 5 15 C4.67 15.66 4.34 16.32 4 17 C3.67 16.34 3.34 15.68 3 15 C2.01 14.34 1.02 13.68 0 13 C-2.40129953 8.79772582 -1.98311567 5.64745588 -1 1 C-0.67 0.67 -0.34 0.34 0 0 Z " fill="#8D8B8C" transform="translate(36,94)"/>
<path d="M0 0 C1.32 0 2.64 0 4 0 C4.66 1.65 5.32 3.3 6 5 C6.66 3.35 7.32 1.7 8 0 C9.32 0.33 10.64 0.66 12 1 C11.32902328 5.19360449 9.1441606 8.40334352 7 12 C6.01 12 5.02 12 4 12 C3.3291288 10.3767313 2.66342971 8.75132422 2 7.125 C1.62875 6.22007812 1.2575 5.31515625 0.875 4.3828125 C0 2 0 2 0 0 Z " fill="#0290D3" transform="translate(101,135)"/>
<path d="M0 0 C1.32 0.99 2.64 1.98 4 3 C4.66 2.01 5.32 1.02 6 0 C7.32 0.33 8.64 0.66 10 1 C9 4 9 4 6 6 C5.26656572 9.06556598 5.26656572 9.06556598 5 12 C4.01 12 3.02 12 2 12 C-0.55 4.52 -0.55 4.52 -1 2 C-0.67 1.34 -0.34 0.68 0 0 Z " fill="#0791D2" transform="translate(167,135)"/>
<path d="M0 0 C0.87140625 0.0721875 1.7428125 0.144375 2.640625 0.21875 C10.44799618 0.82711659 18.170063 1.1290649 26 1 C26 1.66 26 2.32 26 3 C18.08 3 10.16 3 2 3 C2 3.66 2 4.32 2 5 C1.01 4.67 0.02 4.34 -1 4 C-0.67 2.68 -0.34 1.36 0 0 Z " fill="#552423" transform="translate(23,91)"/>
<path d="M0 0 C1.27875 -0.061875 2.5575 -0.12375 3.875 -0.1875 C4.95394531 -0.23970703 4.95394531 -0.23970703 6.0546875 -0.29296875 C6.69664063 -0.19628906 7.33859375 -0.09960938 8 0 C8.66 0.99 9.32 1.98 10 3 C10.99 3 11.98 3 13 3 C13 3.66 13 4.32 13 5 C11.35 5 9.7 5 8 5 C8 5.66 8 6.32 8 7 C6.35 7 4.7 7 3 7 C2.67 6.34 2.34 5.68 2 5 C2.66 4.34 3.32 3.68 4 3 C2.68 2.67 1.36 2.34 0 2 C0 1.34 0 0.68 0 0 Z " fill="#969394" transform="translate(67,72)"/>
<path d="M0 0 C1.65 0 3.3 0 5 0 C4.125 4.875 4.125 4.875 3 6 C0.66055264 5.71269945 -1.6739143 5.38063221 -4 5 C-4.33 4.01 -4.66 3.02 -5 2 C-2 1 -2 1 0 1 C0 0.67 0 0.34 0 0 Z " fill="#0C94D4" transform="translate(142,141)"/>
<path d="M0 0 C0.99 0 1.98 0 3 0 C3.02712066 1.43739513 3.04645067 2.87493863 3.0625 4.3125 C3.07410156 5.11300781 3.08570312 5.91351563 3.09765625 6.73828125 C3 9 3 9 2 12 C0.68 12 -0.64 12 -2 12 C-1.34 8.04 -0.68 4.08 0 0 Z " fill="#008CD5" transform="translate(78,135)"/>
<path d="M0 0 C0.99 0 1.98 0 3 0 C3 3.96 3 7.92 3 12 C2.01 12 1.02 12 0 12 C0 8.04 0 4.08 0 0 Z " fill="#0091D6" transform="translate(149,135)"/>
<path d="M0 0 C0.99 0 1.98 0 3 0 C3 3.96 3 7.92 3 12 C2.01 12 1.02 12 0 12 C0 8.04 0 4.08 0 0 Z " fill="#0078B2" transform="translate(97,135)"/>
<path d="M0 0 C1.23556641 0.01740234 1.23556641 0.01740234 2.49609375 0.03515625 C3.32238281 0.04417969 4.14867188 0.05320313 5 0.0625 C5.63808594 0.07410156 6.27617188 0.08570313 6.93359375 0.09765625 C6.93359375 1.08765625 6.93359375 2.07765625 6.93359375 3.09765625 C4.29359375 3.09765625 1.65359375 3.09765625 -1.06640625 3.09765625 C-1.06640625 6.06765625 -1.06640625 9.03765625 -1.06640625 12.09765625 C-1.39640625 12.09765625 -1.72640625 12.09765625 -2.06640625 12.09765625 C-2.26042258 10.2858422 -2.44645 8.47317093 -2.62890625 6.66015625 C-2.73332031 5.65082031 -2.83773437 4.64148438 -2.9453125 3.6015625 C-2.98527344 2.77527344 -3.02523437 1.94898438 -3.06640625 1.09765625 C-2.06640625 0.09765625 -2.06640625 0.09765625 0 0 Z " fill="#0787CD" transform="translate(116.06640625,134.90234375)"/>
<path d="M0 0 C0.66 0 1.32 0 2 0 C1.67 6.6 1.34 13.2 1 20 C0.67 20 0.34 20 0 20 C-0.19421438 17.04196565 -0.38066186 14.08379837 -0.5625 11.125 C-0.61857422 10.28324219 -0.67464844 9.44148438 -0.73242188 8.57421875 C-0.78076172 7.76855469 -0.82910156 6.96289062 -0.87890625 6.1328125 C-0.9260376 5.38918457 -0.97316895 4.64555664 -1.02172852 3.87939453 C-1 2 -1 2 0 0 Z " fill="#4C1817" transform="translate(59,55)"/>
<path d="M0 0 C0.66 0 1.32 0 2 0 C2.66 1.98 3.32 3.96 4 6 C2.68 6 1.36 6 0 6 C-0.38218767 4.34385343 -0.71395102 2.67542976 -1 1 C-0.67 0.67 -0.34 0.34 0 0 Z " fill="#1799D7" transform="translate(132,141)"/>
<path d="M0 0 C0.99 0.33 1.98 0.66 3 1 C2.34 2.65 1.68 4.3 1 6 C0.01 5.34 -0.98 4.68 -2 4 C-1.34 2.68 -0.68 1.36 0 0 Z " fill="#0288D5" transform="translate(134,136)"/>
<path d="M0 0 C0.99 0 1.98 0 3 0 C3 0.99 3 1.98 3 3 C2.34 3 1.68 3 1 3 C1 4.32 1 5.64 1 7 C0.01 7 -0.98 7 -2 7 C-1.125 2.25 -1.125 2.25 0 0 Z " fill="#8D8B8C" transform="translate(87,90)"/>
<path d="M0 0 C1.98 0.495 1.98 0.495 4 1 C4 1.99 4 2.98 4 4 C2.35 4.33 0.7 4.66 -1 5 C-0.67 3.35 -0.34 1.7 0 0 Z " fill="#11A5DC" transform="translate(109,135)"/>
<path d="M0 0 C0.99 0.33 1.98 0.66 3 1 C3.33 1.99 3.66 2.98 4 4 C3.01 4.33 2.02 4.66 1 5 C0.01 4.01 -0.98 3.02 -2 2 C-1.34 1.34 -0.68 0.68 0 0 Z " fill="#1585D8" transform="translate(139,142)"/>
<path d="M0 0 C1.98 0.495 1.98 0.495 4 1 C3.67 1.99 3.34 2.98 3 4 C0.9375 4.6875 0.9375 4.6875 -1 5 C-0.67 3.35 -0.34 1.7 0 0 Z " fill="#0388D7" transform="translate(173,135)"/>
<path d="M0 0 C0.66 0 1.32 0 2 0 C1.67 2.64 1.34 5.28 1 8 C0.34 8 -0.32 8 -1 8 C-1.125 2.25 -1.125 2.25 0 0 Z " fill="#747273" transform="translate(99,69)"/>
<path d="M0 0 C0.99 0 1.98 0 3 0 C3 0.99 3 1.98 3 3 C2.01 3 1.02 3 0 3 C0 2.01 0 1.02 0 0 Z " fill="#989595" transform="translate(101,84)"/>
<path d="M0 0 C0.99 0 1.98 0 3 0 C3 0.66 3 1.32 3 2 C2.01 2 1.02 2 0 2 C0 1.34 0 0.68 0 0 Z " fill="#908E8F" transform="translate(103,75)"/>
<path d="M0 0 C0.66 0 1.32 0 2 0 C2 0.66 2 1.32 2 2 C1.34 2 0.68 2 0 2 C0 1.34 0 0.68 0 0 Z " fill="#949393" transform="translate(94,89)"/>
<path d="M0 0 C0.66 0 1.32 0 2 0 C2 0.66 2 1.32 2 2 C1.34 2 0.68 2 0 2 C0 1.34 0 0.68 0 0 Z " fill="#6E6C6D" transform="translate(98,79)"/>
<path d="" fill="#0000FF" transform="translate(0,0)"/>
<path d="" fill="#00FFFF" transform="translate(0,0)"/>
<path d="" fill="#00FFFF" transform="translate(0,0)"/>
<path d="" fill="#000000" transform="translate(0,0)"/>
<path d="" fill="#0000FF" transform="translate(0,0)"/>
<path d="" fill="#000000" transform="translate(0,0)"/>
<path d="" fill="#000000" transform="translate(0,0)"/>
<path d="" fill="#000000" transform="translate(0,0)"/>
<path d="" fill="#000000" transform="translate(0,0)"/>
<path d="" fill="#FFFFFF" transform="translate(0,0)"/>
<path d="" fill="#FFFFFF" transform="translate(0,0)"/>
<path d="" fill="#000000" transform="translate(0,0)"/>
<path d="" fill="#000000" transform="translate(0,0)"/>
<path d="" fill="#FF0000" transform="translate(0,0)"/>
<path d="" fill="#000000" transform="translate(0,0)"/>
<path d="" fill="#FFFFFF" transform="translate(0,0)"/>
<path d="" fill="#FFFFFF" transform="translate(0,0)"/>
<path d="" fill="#FFFFFF" transform="translate(0,0)"/>
<path d="" fill="#000000" transform="translate(0,0)"/>
<path d="" fill="#FFFFFF" transform="translate(0,0)"/>
<path d="" fill="#FFFFFF" transform="translate(0,0)"/>
</svg>
