<?xml version="1.0" encoding="UTF-8"?>
<svg version="1.1" xmlns="http://www.w3.org/2000/svg" width="200" height="200">
<path d="M0 0 C1.65 0 3.3 0 5 0 C5.33 1.98 5.66 3.96 6 6 C6.66 5.34 7.32 4.68 8 4 C10.71484375 3.55078125 10.71484375 3.55078125 13.9375 3.3125 C14.99839844 3.22613281 16.05929688 3.13976562 17.15234375 3.05078125 C20 3 20 3 23 4 C23.99 5.485 23.99 5.485 25 7 C25.33 6.01 25.66 5.02 26 4 C32.4 2.76923077 32.4 2.76923077 35.4375 3.9375 C35.953125 4.288125 36.46875 4.63875 37 5 C37.33 3.35 37.66 1.7 38 0 C39.32 0 40.64 0 42 0 C42 5.94 42 11.88 42 18 C40.68 18 39.36 18 38 18 C37.505 17.01 37.505 17.01 37 16 C36.34 16.66 35.68 17.32 35 18 C32.375 18.125 32.375 18.125 30 18 C30 18.99 30 19.98 30 21 C28.68 21.33 27.36 21.66 26 22 C25.67 19.36 25.34 16.72 25 14 C24.6390625 14.65097656 24.278125 15.30195312 23.90625 15.97265625 C22 18 22 18 18.96875 18.49609375 C17.8240625 18.47675781 16.679375 18.45742187 15.5 18.4375 C13.78296875 18.43556641 13.78296875 18.43556641 12.03125 18.43359375 C9 18 9 18 7.09375 16.47265625 C6.7328125 15.98667969 6.371875 15.50070313 6 15 C5.01 16.485 5.01 16.485 4 18 C2.68 18 1.36 18 0 18 C0 12.06 0 6.12 0 0 Z M12 6 C10.64172029 7.64639965 9.30745749 9.31295807 8 11 C10.475 12.98 10.475 12.98 13 15 C13 12.03 13 9.06 13 6 C12.67 6 12.34 6 12 6 Z M18 7 C16.64381501 8.12534105 16.64381501 8.12534105 16.9375 11.0625 C16.958125 12.031875 16.97875 13.00125 17 14 C17.99 14 18.98 14 20 14 C20.33 12.35 20.66 10.7 21 9 C20.01 8.34 19.02 7.68 18 7 Z M31 7 C29.64381501 8.12534105 29.64381501 8.12534105 29.9375 11.0625 C29.958125 12.031875 29.97875 13.00125 30 14 C31.32 13.67 32.64 13.34 34 13 C34 11.35 34 9.7 34 8 C33.01 7.67 32.02 7.34 31 7 Z " fill="#78756B" transform="translate(124,90)"/>
<path d="M0 0 C0.66 0.33 1.32 0.66 2 1 C2 2.98 2 4.96 2 7 C2.44730469 6.6390625 2.89460938 6.278125 3.35546875 5.90625 C8.35506003 2.06861063 8.35506003 2.06861063 11.9375 1.6875 C12.618125 1.790625 13.29875 1.89375 14 2 C13.625 3.9375 13.625 3.9375 13 6 C12.01 6.495 12.01 6.495 11 7 C11.66 7.33 12.32 7.66 13 8 C13.33 8.99 13.66 9.98 14 11 C15.1446875 10.938125 15.1446875 10.938125 16.3125 10.875 C19 11 19 11 22 13 C22.5 15.375 22.5 15.375 22 18 C19.59081023 20.55090681 17.51382176 21.80147796 14.25 23.0625 C9.38773966 22.96899499 6.01875402 20.58093314 2 18 C1.67 20.64 1.34 23.28 1 26 C0.01 26 -0.98 26 -2 26 C-3.60725635 22.78548731 -3.05748185 19.56387464 -3 16 C-3.721875 16.495 -4.44375 16.99 -5.1875 17.5 C-8.14848659 19.07919285 -9.71253029 19.28178312 -13 19 C-11.88820837 15.66462511 -10.52588702 14.36292656 -8 12 C-9.32 11.01 -10.64 10.02 -12 9 C-11.67 7.68 -11.34 6.36 -11 5 C-6.25 6.875 -6.25 6.875 -4 8 C-3.71125 6.865625 -3.4225 5.73125 -3.125 4.5625 C-2.75375 3.386875 -2.3825 2.21125 -2 1 C-1.34 0.67 -0.68 0.34 0 0 Z M2 11 C2 11.66 2 12.32 2 13 C5.465 14.98 5.465 14.98 9 17 C9.33 14.03 9.66 11.06 10 8 C6.91990121 8 4.68864864 9.5972268 2 11 Z M15 15 C14.01 16.485 14.01 16.485 13 18 C14.32 17.67 15.64 17.34 17 17 C17 16.34 17 15.68 17 15 C16.34 15 15.68 15 15 15 Z " fill="#E1AB2A" transform="translate(29,86)"/>
<path d="M0 0 C1.32 0 2.64 0 4 0 C4.33 1.65 4.66 3.3 5 5 C5.886875 4.175 6.77375 3.35 7.6875 2.5 C10.01307407 0.53900524 10.74787194 0.02740522 13.875 -0.3125 C14.926875 -0.1578125 14.926875 -0.1578125 16 0 C15.67 0.99 15.34 1.98 15 3 C12.4375 4.1875 12.4375 4.1875 10 5 C10 5.66 10 6.32 10 7 C9.34 7 8.68 7 8 7 C8.825 7.78375 9.65 8.5675 10.5 9.375 C13 12 13 12 13 14 C13.99 14.33 14.98 14.66 16 15 C16.33 10.05 16.66 5.1 17 0 C29.45443031 -0.36993357 29.45443031 -0.36993357 31.94140625 1.31640625 C33.59360187 3.94406792 32.63432727 6.08209456 32 9 C32.495 9.495 32.495 9.495 33 10 C33.46168699 14.38602643 33.46168699 14.38602643 31.76245117 16.64575195 C29.52932718 18.3616598 28.34220958 18.349172 25.55078125 18.29296875 C24.70322266 18.28330078 23.85566406 18.27363281 22.98242188 18.26367188 C22.10134766 18.23853516 21.22027344 18.21339844 20.3125 18.1875 C19.41982422 18.17396484 18.52714844 18.16042969 17.60742188 18.14648438 C15.40433834 18.11114079 13.20247418 18.06180493 11 18 C11 17.34 11 16.68 11 16 C10.01 15.67 9.02 15.34 8 15 C8 14.34 8 13.68 8 13 C7.01 12.67 6.02 12.34 5 12 C4.67 13.98 4.34 15.96 4 18 C2.68 18 1.36 18 0 18 C0 12.06 0 6.12 0 0 Z M21 4 C21 4.99 21 5.98 21 7 C22.98 7 24.96 7 27 7 C27.33 6.01 27.66 5.02 28 4 C25.69 4 23.38 4 21 4 Z M21 10 C21 11.32 21 12.64 21 14 C23.31 14 25.62 14 28 14 C28 13.01 28 12.02 28 11 C26.87465895 9.64381501 26.87465895 9.64381501 23.9375 9.9375 C22.968125 9.958125 21.99875 9.97875 21 10 Z " fill="#918D83" transform="translate(57,90)"/>
<path d="M0 0 C9.1796875 -0.1953125 9.1796875 -0.1953125 12 0 C14 2 14 2 14.125 5.625 C14.08375 6.73875 14.0425 7.8525 14 9 C14.33 7.35 14.66 5.7 15 4 C16.32 4 17.64 4 19 4 C19.33 6.97 19.66 9.94 20 13 C20.66 13 21.32 13 22 13 C22.33 10.03 22.66 7.06 23 4 C24.32 4 25.64 4 27 4 C27 8.62 27 13.24 27 18 C17.89285714 18.26785714 17.89285714 18.26785714 14 16 C13.34 16.66 12.68 17.32 12 18 C7.98805634 18.27783543 4.02552638 18.0856495 0 18 C0 12.06 0 6.12 0 0 Z M4 4 C4 4.99 4 5.98 4 7 C5.65 7 7.3 7 9 7 C9.33 6.01 9.66 5.02 10 4 C8.02 4 6.04 4 4 4 Z M4 10 C4 11.32 4 12.64 4 14 C5.98 14 7.96 14 10 14 C9.67 12.68 9.34 11.36 9 10 C7.35 10 5.7 10 4 10 Z " fill="#7C796E" transform="translate(96,90)"/>
<path d="M0 0 C1.65 0 3.3 0 5 0 C5.33 1.98 5.66 3.96 6 6 C6.66 5.34 7.32 4.68 8 4 C10.625 3.875 10.625 3.875 13 4 C13.28875 4.7425 13.5775 5.485 13.875 6.25 C14.82395826 8.56967575 15.8497518 10.77618682 17 13 C17.33 13.66 17.66 14.32 18 15 C17.67 15.66 17.34 16.32 17 17 C17.99 17.33 18.98 17.66 20 18 C18.22992286 18.08114106 16.45877902 18.13925505 14.6875 18.1875 C13.70136719 18.22230469 12.71523437 18.25710937 11.69921875 18.29296875 C9 18 9 18 7.14453125 16.48828125 C6.76683594 15.99714844 6.38914063 15.50601563 6 15 C5.01 16.485 5.01 16.485 4 18 C2.68 18 1.36 18 0 18 C0 12.06 0 6.12 0 0 Z M12 6 C10.64172029 7.64639965 9.30745749 9.31295807 8 11 C10.475 12.98 10.475 12.98 13 15 C13 12.03 13 9.06 13 6 C12.67 6 12.34 6 12 6 Z " fill="#858177" transform="translate(124,90)"/>
<path d="M0 0 C1.32 0 2.64 0 4 0 C4.33 1.65 4.66 3.3 5 5 C5.886875 4.175 6.77375 3.35 7.6875 2.5 C10.01307407 0.53900524 10.74787194 0.02740522 13.875 -0.3125 C14.926875 -0.1578125 14.926875 -0.1578125 16 0 C15.67 0.99 15.34 1.98 15 3 C12.4375 4.1875 12.4375 4.1875 10 5 C10 5.66 10 6.32 10 7 C9.34 7 8.68 7 8 7 C8.825 7.78375 9.65 8.5675 10.5 9.375 C13 12 13 12 13 14 C13.99 14.33 14.98 14.66 16 15 C16 15.66 16 16.32 16 17 C14.35 17.33 12.7 17.66 11 18 C11 17.34 11 16.68 11 16 C10.01 15.67 9.02 15.34 8 15 C8 14.34 8 13.68 8 13 C7.01 12.67 6.02 12.34 5 12 C4.67 13.98 4.34 15.96 4 18 C2.68 18 1.36 18 0 18 C0 12.06 0 6.12 0 0 Z " fill="#828276" transform="translate(57,90)"/>
<path d="M0 0 C0.66 0.33 1.32 0.66 2 1 C2 2.98 2 4.96 2 7 C2.44730469 6.6390625 2.89460938 6.278125 3.35546875 5.90625 C8.35506003 2.06861063 8.35506003 2.06861063 11.9375 1.6875 C12.618125 1.790625 13.29875 1.89375 14 2 C13.62609468 4.57334835 13.3032769 5.73073547 11.328125 7.484375 C4.42124655 11.69081977 4.42124655 11.69081977 0 11 C0.33 8.03 0.66 5.06 1 2 C0.34 2 -0.32 2 -1 2 C-1.33 4.64 -1.66 7.28 -2 10 C-4.31 9.67 -6.62 9.34 -9 9 C-8.175 9.45375 -7.35 9.9075 -6.5 10.375 C-5.675 10.91125 -4.85 11.4475 -4 12 C-4 12.66 -4 13.32 -4 14 C-3.34 14 -2.68 14 -2 14 C-1.67 16.97 -1.34 19.94 -1 23 C-0.67 21.02 -0.34 19.04 0 17 C0.33 17 0.66 17 1 17 C1 19.97 1 22.94 1 26 C0.01 26 -0.98 26 -2 26 C-3.60725635 22.78548731 -3.05748185 19.56387464 -3 16 C-3.721875 16.495 -4.44375 16.99 -5.1875 17.5 C-8.14848659 19.07919285 -9.71253029 19.28178312 -13 19 C-11.88820837 15.66462511 -10.52588702 14.36292656 -8 12 C-9.32 11.01 -10.64 10.02 -12 9 C-11.67 7.68 -11.34 6.36 -11 5 C-6.25 6.875 -6.25 6.875 -4 8 C-3.71125 6.865625 -3.4225 5.73125 -3.125 4.5625 C-2.75375 3.386875 -2.3825 2.21125 -2 1 C-1.34 0.67 -0.68 0.34 0 0 Z " fill="#DBB454" transform="translate(29,86)"/>
<path d="M0 0 C1.60875 -0.061875 3.2175 -0.12375 4.875 -0.1875 C5.77992188 -0.22230469 6.68484375 -0.25710937 7.6171875 -0.29296875 C8.79667969 -0.14794922 8.79667969 -0.14794922 10 0 C12.28062828 3.42094242 12.21925007 4.68187222 12.125 8.6875 C12.10695312 9.68136719 12.08890625 10.67523438 12.0703125 11.69921875 C12.03550781 12.83810547 12.03550781 12.83810547 12 14 C10.68 14 9.36 14 8 14 C7.95101562 13.36191406 7.90203125 12.72382812 7.8515625 12.06640625 C7.77679688 11.24011719 7.70203125 10.41382812 7.625 9.5625 C7.52058594 8.32693359 7.52058594 8.32693359 7.4140625 7.06640625 C7.27742187 6.38449219 7.14078125 5.70257813 7 5 C6.34 4.67 5.68 4.34 5 4 C4.67 7.3 4.34 10.6 4 14 C2.68 14 1.36 14 0 14 C0 9.38 0 4.76 0 0 Z " fill="#767267" transform="translate(168,94)"/>
<path d="M0 0 C1.32 0 2.64 0 4 0 C4 5.94 4 11.88 4 18 C2.68 18 1.36 18 0 18 C-0.33 16.35 -0.66 14.7 -1 13 C-1.66 13 -2.32 13 -3 13 C-3 11.02 -3 9.04 -3 7 C-4.32 7.33 -5.64 7.66 -7 8 C-7.33 9.65 -7.66 11.3 -8 13 C-8.99 13 -9.98 13 -11 13 C-11 10.36 -11 7.72 -11 5 C-3.25 4.875 -3.25 4.875 -1 6 C-0.67 4.02 -0.34 2.04 0 0 Z " fill="#6A665B" transform="translate(162,90)"/>
<path d="M0 0 C9.1796875 -0.1953125 9.1796875 -0.1953125 12 0 C14.40346379 2.40346379 14.32083747 3.13900195 14.375 6.4375 C14.30673342 10.68368116 14.30673342 10.68368116 12 13.0625 C11.34 13.371875 10.68 13.68125 10 14 C9.67 13.01 9.34 12.02 9 11 C7.35 10.67 5.7 10.34 4 10 C4 11.65 4 13.3 4 15 C3.67 15 3.34 15 3 15 C3 10.71 3 6.42 3 2 C2.34 1.67 1.68 1.34 1 1 C1 6.28 1 11.56 1 17 C3.64 17 6.28 17 9 17 C9 17.33 9 17.66 9 18 C6.03 18 3.06 18 0 18 C0 12.06 0 6.12 0 0 Z M4 4 C4 4.99 4 5.98 4 7 C5.65 7 7.3 7 9 7 C9.33 6.01 9.66 5.02 10 4 C8.02 4 6.04 4 4 4 Z " fill="#888478" transform="translate(96,90)"/>
<path d="M0 0 C3.3 0 6.6 0 10 0 C9.67 0.99 9.34 1.98 9 3 C7.02 3 5.04 3 3 3 C3 4.32 3 5.64 3 7 C5.31 7 7.62 7 10 7 C10 7.33 10 7.66 10 8 C7.36 8 4.72 8 2 8 C2.33 9.65 2.66 11.3 3 13 C5.97 13 8.94 13 12 13 C12 14.32 12 15.64 12 17 C8.04 16.67 4.08 16.34 0 16 C0 10.72 0 5.44 0 0 Z M11 9 C11.99 9.33 12.98 9.66 14 10 C14 10.99 14 11.98 14 13 C13.34 13 12.68 13 12 13 C11.67 11.68 11.34 10.36 11 9 Z " fill="#726C5E" transform="translate(75,91)"/>
<path d="M0 0 C2.47342266 3.71013399 2.38503486 5.61060262 2 10 C0.5 12.4375 0.5 12.4375 -1 14 C-2.65 13.67 -4.3 13.34 -6 13 C-5.67 12.01 -5.34 11.02 -5 10 C-4.34 10 -3.68 10 -3 10 C-3 8.35 -3 6.7 -3 5 C-3.66 4.67 -4.32 4.34 -5 4 C-5.33 5.65 -5.66 7.3 -6 9 C-6.99 8.67 -7.98 8.34 -9 8 C-9.33 5.36 -9.66 2.72 -10 0 C-6.42030426 -1.23912545 -3.64409679 -0.95063395 0 0 Z " fill="#888379" transform="translate(147,94)"/>
<path d="M0 0 C2.64 0 5.28 0 8 0 C8 0.33 8 0.66 8 1 C6.02 1 4.04 1 2 1 C2 2.98 2 4.96 2 7 C3.98 7 5.96 7 8 7 C8 7.33 8 7.66 8 8 C6.02 8 4.04 8 2 8 C2.33 9.65 2.66 11.3 3 13 C5.31 13 7.62 13 10 13 C10.66 11.68 11.32 10.36 12 9 C12.66 9 13.32 9 14 9 C14.33 10.65 14.66 12.3 15 14 C12.63310671 16.19219402 11.48272731 16.9871902 8.203125 17.07421875 C5.46875 16.71614583 2.734375 16.35807292 0 16 C0 10.72 0 5.44 0 0 Z " fill="#6D6759" transform="translate(97,91)"/>
<path d="M0 0 C3.71599191 -0.20086443 4.77208445 -0.1519437 8 2 C8.5 4.375 8.5 4.375 8 7 C5.47725112 9.67114588 3.50449567 10.8423451 0 11.9375 C-3.5823856 12.01213303 -5.15232474 11.09387887 -8 9 C-4.33333333 9 -0.66666667 9 3 9 C3 7.35 3 5.7 3 4 C2.01 4.66 1.02 5.32 0 6 C0.66 6.66 1.32 7.32 2 8 C0.68 8 -0.64 8 -2 8 C-2 6.02 -2 4.04 -2 2 C-1.34 2 -0.68 2 0 2 C0 1.34 0 0.68 0 0 Z " fill="#BC9A44" transform="translate(43,97)"/>
<path d="M0 0 C1.32 0 2.64 0 4 0 C4 5.94 4 11.88 4 18 C2.68 18 1.36 18 0 18 C0 12.06 0 6.12 0 0 Z " fill="#726D62" transform="translate(57,90)"/>
<path d="M0 0 C0.66 0 1.32 0 2 0 C1.34 3.3 0.68 6.6 0 10 C1.32 10.66 2.64 11.32 4 12 C4 12.66 4 13.32 4 14 C2.68 13.67 1.36 13.34 0 13 C0.33 15.97 0.66 18.94 1 22 C0.34 21.67 -0.32 21.34 -1 21 C-1 18.03 -1 15.06 -1 12 C-1.66 12 -2.32 12 -3 12 C-3.66 11.01 -4.32 10.02 -5 9 C-7.05003955 7.80767387 -7.05003955 7.80767387 -9 7 C-5.37673261 5.7922442 -4.35853631 6.45688872 -1 8 C-0.67 5.36 -0.34 2.72 0 0 Z " fill="#F4AD15" transform="translate(28,88)"/>
<path d="M0 0 C1.32 0 2.64 0 4 0 C4.16873478 1.43725871 4.33490737 2.87481838 4.5 4.3125 C4.5928125 5.11300781 4.685625 5.91351563 4.78125 6.73828125 C5 9 5 9 5 12 C5.66 12.66 6.32 13.32 7 14 C4.625 13.75 4.625 13.75 2 13 C0.05253551 10.05248618 -0.22748966 7.73464831 -0.125 4.25 C-0.10695313 3.45078125 -0.08890625 2.6515625 -0.0703125 1.828125 C-0.04710938 1.22484375 -0.02390625 0.6215625 0 0 Z " fill="#848175" transform="translate(111,94)"/>
<path d="M0 0 C0.99 0 1.98 0 3 0 C3 5.94 3 11.88 3 18 C2.01 18 1.02 18 0 18 C0 12.06 0 6.12 0 0 Z " fill="#807C70" transform="translate(163,90)"/>
<path d="M0 0 C0.66 0 1.32 0 2 0 C2 0.66 2 1.32 2 2 C2.598125 2.12375 3.19625 2.2475 3.8125 2.375 C6 3 6 3 9 5 C9 5.66 9 6.32 9 7 C9.99 7.33 10.98 7.66 12 8 C12 8.66 12 9.32 12 10 C10.35 10.33 8.7 10.66 7 11 C7 10.34 7 9.68 7 9 C6.01 8.67 5.02 8.34 4 8 C4 7.34 4 6.68 4 6 C3.01 5.67 2.02 5.34 1 5 C0.67 3.35 0.34 1.7 0 0 Z " fill="#737165" transform="translate(61,97)"/>
<path d="M0 0 C0.99 0 1.98 0 3 0 C4.26264601 4.29299643 3.62950412 6.87831311 2 11 C3.32 11 4.64 11 6 11 C6.33 10.34 6.66 9.68 7 9 C7 9.99 7 10.98 7 12 C3.625 12.1875 3.625 12.1875 0 12 C-2.79921583 7.80117625 -1.86558093 5.87872887 -1 1 C-0.67 0.67 -0.34 0.34 0 0 Z " fill="#E6B542" transform="translate(39,94)"/>
<path d="M0 0 C3.08946256 2.52774209 4.02451306 5.17934281 5 9 C4.67 9.66 4.34 10.32 4 11 C4.99 11.33 5.98 11.66 7 12 C3.37 12 -0.26 12 -4 12 C-3.01 11.01 -2.02 10.02 -1 9 C-0.83330682 5.45828022 -0.83330682 5.45828022 -1 2 C-0.67 1.34 -0.34 0.68 0 0 Z " fill="#8A897F" transform="translate(137,96)"/>
<path d="M0 0 C0 1.65 0 3.3 0 5 C-2.475 4.01 -2.475 4.01 -5 3 C-5.33 4.98 -5.66 6.96 -6 9 C-6.99 8.67 -7.98 8.34 -9 8 C-9.33 5.36 -9.66 2.72 -10 0 C-6.42355152 -1.2380014 -3.66305234 -0.74926071 0 0 Z " fill="#6F6D63" transform="translate(147,94)"/>
<path d="M0 0 C0.66 0 1.32 0 2 0 C2 1.98 2 3.96 2 6 C2.66 6 3.32 6 4 6 C4 4.35 4 2.7 4 1 C4.33 1 4.66 1 5 1 C5.36923077 6.41538462 5.36923077 6.41538462 3.5 9.375 C3.005 9.91125 2.51 10.4475 2 11 C0.68 10.67 -0.64 10.34 -2 10 C-1.67 9.46375 -1.34 8.9275 -1 8.375 C0.22699204 5.4608939 0.14233286 3.13132292 0 0 Z " fill="#8C887E" transform="translate(157,97)"/>
<path d="M0 0 C0.66 0.33 1.32 0.66 2 1 C1.67 3.31 1.34 5.62 1 8 C1.99 8 2.98 8 4 8 C4.33 8.99 4.66 9.98 5 11 C3.35 11 1.7 11 0 11 C0.33 8.03 0.66 5.06 1 2 C0.34 2 -0.32 2 -1 2 C-1 2.99 -1 3.98 -1 5 C-1.66 5 -2.32 5 -3 5 C-2.625 3.0625 -2.625 3.0625 -2 1 C-1.34 0.67 -0.68 0.34 0 0 Z " fill="#D1AA4A" transform="translate(29,86)"/>
<path d="M0 0 C3.40320742 1.01176437 4.75725331 1.64843582 6.8125 4.625 C7.204375 5.40875 7.59625 6.1925 8 7 C5.6875 7.3125 5.6875 7.3125 3 7 C1.18116991 4.6167054 0 3.04181663 0 0 Z " fill="#787567" transform="translate(129,100)"/>
<path d="M0 0 C0.99 0.33 1.98 0.66 3 1 C3 1.99 3 2.98 3 4 C-0.22791555 6.1519437 -1.28400809 6.20086443 -5 6 C-3.86525052 2.59575156 -3.03188696 1.78346291 0 0 Z " fill="#CAA74B" transform="translate(21,99)"/>
<path d="M0 0 C0.99 0.33 1.98 0.66 3 1 C3 1.99 3 2.98 3 4 C2.34 4 1.68 4 1 4 C0.67 2.68 0.34 1.36 0 0 Z M-8 4 C-5.03 4 -2.06 4 1 4 C1 5.32 1 6.64 1 8 C-0.32 7.67 -1.64 7.34 -3 7 C-3 6.34 -3 5.68 -3 5 C-4.65 5 -6.3 5 -8 5 C-8 4.67 -8 4.34 -8 4 Z " fill="#686459" transform="translate(86,100)"/>
<path d="M0 0 C0.99 0 1.98 0 3 0 C3.33 1.65 3.66 3.3 4 5 C2.1875 5.625 2.1875 5.625 0 6 C-0.99 5.34 -1.98 4.68 -3 4 C-2.34 4 -1.68 4 -1 4 C-0.67 2.68 -0.34 1.36 0 0 Z " fill="#6C6B60" transform="translate(108,100)"/>
<path d="M0 0 C0 1.65 0 3.3 0 5 C-3 6 -3 6 -6 5 C-5 2 -5 2 -3 0.8125 C-1 0 -1 0 0 0 Z " fill="#6C685B" transform="translate(147,102)"/>
<path d="M0 0 C2.475 0.495 2.475 0.495 5 1 C5 2.65 5 4.3 5 6 C4.34 6 3.68 6 3 6 C2.67 4.68 2.34 3.36 2 2 C1.34 2 0.68 2 0 2 C0 1.34 0 0.68 0 0 Z " fill="#F0B93F" transform="translate(44,99)"/>
<path d="M0 0 C0.33 0.66 0.66 1.32 1 2 C1.66 2 2.32 2 3 2 C3 2.66 3 3.32 3 4 C4.32 4.66 5.64 5.32 7 6 C6.01 6.66 5.02 7.32 4 8 C4 7.01 4 6.02 4 5 C1.525 4.01 1.525 4.01 -1 3 C-0.67 2.01 -0.34 1.02 0 0 Z " fill="#D7A836" transform="translate(28,95)"/>
<path d="M0 0 C0.33 0 0.66 0 1 0 C1.33 2.64 1.66 5.28 2 8 C1.01 8.33 0.02 8.66 -1 9 C-1.09765625 2.84765625 -1.09765625 2.84765625 -1 1 C-0.67 0.67 -0.34 0.34 0 0 Z " fill="#77736C" transform="translate(128,90)"/>
</svg>
