<?xml version="1.0" encoding="UTF-8"?>
<svg version="1.1" xmlns="http://www.w3.org/2000/svg" width="200" height="200">
<path d="M0 0 C3.18414113 0.34205114 4.89383649 1.50533384 7.1640625 3.6875 C7.72867188 4.22117187 8.29328125 4.75484375 8.875 5.3046875 C9.4525 5.86414063 10.03 6.42359375 10.625 7 C14.48721484 10.94126037 14.48721484 10.94126037 19 14 C19 14.66 19 15.32 19 16 C19.928125 16.433125 19.928125 16.433125 20.875 16.875 C23 18 23 18 25 20 C25 20.99 25 21.98 25 23 C24.34 23 23.68 23 23 23 C21.08705954 26.2793265 20.37625757 29.5105193 19.66015625 33.1953125 C19 35 19 35 16 37 C14.34450469 37.38499891 12.6777567 37.72793135 11 38 C11.34417969 39.01320313 11.34417969 39.01320313 11.6953125 40.046875 C12.10908284 44.05726443 10.66111738 46.77859444 8.875 50.25 C8.57851563 50.88679688 8.28203125 51.52359375 7.9765625 52.1796875 C7.0546875 54.015625 7.0546875 54.015625 5 57 C2.3203125 57.796875 2.3203125 57.796875 0 58 C-0.495 58.99 -0.495 58.99 -1 60 C-1.66 60 -2.32 60 -3 60 C-3.33 60.99 -3.66 61.98 -4 63 C-5.32 62.67 -6.64 62.34 -8 62 C-8 61.34 -8 60.68 -8 60 C-8.556875 60.37125 -9.11375 60.7425 -9.6875 61.125 C-12 62 -12 62 -14.625 61.125 C-15.40875 60.75375 -16.1925 60.3825 -17 60 C-17.66 60 -18.32 60 -19 60 C-19 60.66 -19 61.32 -19 62 C-19.66 62 -20.32 62 -21 62 C-21 62.66 -21 63.32 -21 64 C-23.58090767 65.31746333 -26.16450458 66.62909617 -28.75 67.9375 C-29.47960938 68.31068359 -30.20921875 68.68386719 -30.9609375 69.06835938 C-31.66992188 69.42607422 -32.37890625 69.78378906 -33.109375 70.15234375 C-33.75874023 70.48226318 -34.40810547 70.81218262 -35.07714844 71.15209961 C-37.0499757 72.02203728 -38.87667899 72.62417332 -41 73 C-41.33 72.67 -41.66 72.34 -42 72 C-41.45546401 62.19835226 -38.11428795 53.64285994 -32 46 C-32.28875 45.46375 -32.5775 44.9275 -32.875 44.375 C-35.07573849 39.72899653 -36.7731551 36.04667219 -35 31 C-34 30 -33 29 -32 28 C-31.92265625 27.23429687 -31.8453125 26.46859375 -31.765625 25.6796875 C-30.66234297 21.8182004 -28.55868202 20.7958182 -25.25 18.625 C-23.67992187 17.56152344 -23.67992187 17.56152344 -22.078125 16.4765625 C-18.71376981 14.86269669 -17.4623513 14.80741233 -14 16 C-13.773125 14.741875 -13.54625 13.48375 -13.3125 12.1875 C-12.52991075 9.05714299 -12.31021308 8.24313998 -9.6875 6.1875 C-8.800625 5.795625 -7.91375 5.40375 -7 5 C-4.33629676 3.45133533 -2.18115464 2.18115464 0 0 Z " fill="#0F161B" transform="translate(45,60)"/>
<path d="M0 0 C0 0.66 0 1.32 0 2 C-0.99 2 -1.98 2 -3 2 C-3.2475 2.70125 -3.495 3.4025 -3.75 4.125 C-5.16088026 7.37002459 -6.97895398 10.10316737 -9 13 C-5.47618313 10.45395403 -5.47618313 10.45395403 -3 7 C-2.01 7 -1.02 7 0 7 C2.44328447 10.6649267 2 12.69043086 2 17 C2.66 17.66 3.32 18.32 4 19 C3.62718021 22.3625477 2.05313525 24.87591025 0.25 27.6875 C-0.23984375 28.47511719 -0.7296875 29.26273438 -1.234375 30.07421875 C-3.40077911 32.43713296 -4.86599911 32.68553392 -8 33 C-8.20551329 29.30076076 -7.68248981 27.25281363 -6 24 C-6.33 23.34 -6.66 22.68 -7 22 C-7 22.99 -7 23.98 -7 25 C-7.99 25.66 -8.98 26.32 -10 27 C-10.57993699 29.19454681 -10.57993699 29.19454681 -10.6875 31.625 C-10.78611328 32.85089844 -10.78611328 32.85089844 -10.88671875 34.1015625 C-10.92410156 34.72804687 -10.96148437 35.35453125 -11 36 C-9.54052295 35.93993922 -8.08220728 35.8511311 -6.625 35.75 C-5.81289063 35.70359375 -5.00078125 35.6571875 -4.1640625 35.609375 C-1.81161073 35.2077908 -1.81161073 35.2077908 -0.7109375 32.953125 C-0.47632812 32.30859375 -0.24171875 31.6640625 0 31 C2.47128202 31.9566253 3.72986449 32.45972898 4.9375 34.875 C5.0225942 37.76820282 3.88243538 38.89167237 2 41 C1.45859375 40.68289062 0.9171875 40.36578125 0.359375 40.0390625 C-2.4157149 38.81692026 -4.73208098 38.59056564 -7.75 38.375 C-8.73484375 38.30023438 -9.7196875 38.22546875 -10.734375 38.1484375 C-11.48203125 38.09945312 -12.2296875 38.05046875 -13 38 C-13 34.7 -13 31.4 -13 28 C-13.928125 28.99 -13.928125 28.99 -14.875 30 C-17 32 -17 32 -19 32 C-19.185625 30.88625 -19.185625 30.88625 -19.375 29.75 C-19.85730426 27.06936523 -19.85730426 27.06936523 -21 25.125 C-22.45635344 22.03024895 -22.87814989 19.41180316 -23 16 C-21.125 13.875 -21.125 13.875 -19 12 C-18.90847656 11.2265625 -18.81695313 10.453125 -18.72265625 9.65625 C-17.67593529 5.80884323 -15.58692075 4.79183685 -12.3125 2.625 C-11.27738281 1.91601562 -10.24226563 1.20703125 -9.17578125 0.4765625 C-5.52368528 -1.22145998 -3.81843895 -1.06481206 0 0 Z " fill="#121212" transform="translate(32,76)"/>
<path d="M0 0 C2.80881509 1.28721504 4.92788567 2.65863741 7.1640625 4.78515625 C8.01097656 5.58083008 8.01097656 5.58083008 8.875 6.39257812 C9.4525 6.94365234 10.03 7.49472656 10.625 8.0625 C14.49326309 11.96570729 14.49326309 11.96570729 19 15 C19 18 19 18 16.9375 20.25 C15.96151557 21.17005409 14.9819297 22.0862937 14 23 C12.74461686 24.2236682 11.49474946 25.45301651 10.25 26.6875 C9.36054687 27.55955078 9.36054687 27.55955078 8.453125 28.44921875 C6.90358196 29.95513974 6.90358196 29.95513974 6 32 C2.40654069 30.4563893 -0.08188204 28.27381666 -2.9375 25.625 C-6.19900533 22.61050203 -9.50340351 19.73973034 -13 17 C-12.14664243 12.52288603 -9.56802253 10.01576282 -6.5 6.8125 C-5.98824219 6.26658203 -5.47648437 5.72066406 -4.94921875 5.15820312 C-3.31755577 3.42106325 -1.68537825 1.68537825 0 0 Z " fill="#0494D3" transform="translate(46,65)"/>
<path d="M0 0 C1.859375 0.24609375 1.859375 0.24609375 4 1 C5.265625 2.84765625 5.265625 2.84765625 6.25 5.0625 C6.75273438 6.16271484 6.75273438 6.16271484 7.265625 7.28515625 C7.50796875 7.85105469 7.7503125 8.41695312 8 9 C8.66 7.35 9.32 5.7 10 4 C12.375 3.8125 12.375 3.8125 15 4 C17 7 17 7 17 10 C17.66 10 18.32 10 19 10 C19.103125 9.278125 19.20625 8.55625 19.3125 7.8125 C20.05986932 4.75508007 21.28045189 2.61670365 23 0 C24.32 0.66 25.64 1.32 27 2 C25.17778624 8.61242722 22.94776396 14.80520671 20 21 C18.109375 20.69140625 18.109375 20.69140625 16 20 C14.25 16.9375 14.25 16.9375 13 14 C11.68 16.31 10.36 18.62 9 21 C7.20703125 20.953125 7.20703125 20.953125 5 20 C3.67168413 17.55231682 2.65808203 15.33335367 1.6875 12.75 C1.41099609 12.08097656 1.13449219 11.41195312 0.84960938 10.72265625 C-0.68960272 6.77575975 -1.3481372 4.06806312 0 0 Z " fill="#565656" transform="translate(82,99)"/>
<path d="M0 0 C0.33 1.32 0.66 2.64 1 4 C1.66 3.01 2.32 2.02 3 1 C3.66 1 4.32 1 5 1 C5 3.64 5 6.28 5 9 C9.455 8.505 9.455 8.505 14 8 C14.33 8.66 14.66 9.32 15 10 C15.99 9.67 16.98 9.34 18 9 C18 9.66 18 10.32 18 11 C16.68 11.33 15.36 11.66 14 12 C14 12.66 14 13.32 14 14 C13.34 14 12.68 14 12 14 C12 14.66 12 15.32 12 16 C9.41909233 17.31746333 6.83549542 18.62909617 4.25 19.9375 C3.52039062 20.31068359 2.79078125 20.68386719 2.0390625 21.06835938 C0.97558594 21.60493164 0.97558594 21.60493164 -0.109375 22.15234375 C-0.75874023 22.48226318 -1.40810547 22.81218262 -2.07714844 23.15209961 C-4.0499757 24.02203728 -5.87667899 24.62417332 -8 25 C-8.33 24.67 -8.66 24.34 -9 24 C-8.52134288 15.38417183 -6.11809592 6.33659935 0 0 Z " fill="#4C4B43" transform="translate(12,108)"/>
<path d="M0 0 C1.40053506 2.80107012 1.2075504 5.18891681 1.25 8.3125 C1.27578125 9.44300781 1.3015625 10.57351562 1.328125 11.73828125 C0.96569891 15.34096914 0.21243962 17.15908446 -2 20 C-6.02488541 21.74664839 -8.16195084 22.2133216 -12.4375 21.125 C-13.283125 20.75375 -14.12875 20.3825 -15 20 C-14.6596875 18.8553125 -14.6596875 18.8553125 -14.3125 17.6875 C-14.209375 16.800625 -14.10625 15.91375 -14 15 C-14.474375 14.54625 -14.94875 14.0925 -15.4375 13.625 C-17 12 -17 12 -17.5 8.625 C-17 5 -17 5 -15.25 2.0625 C-10.35168217 -1.04604785 -5.64980028 -0.40548806 0 0 Z M-10 5 C-10.66 5.66 -11.32 6.32 -12 7 C-11.6814823 9.10820797 -11.6814823 9.10820797 -11 11 C-9.35 11 -7.7 11 -6 11 C-5.67 9.35 -5.34 7.7 -5 6 C-7.39719432 5.32041397 -7.39719432 5.32041397 -10 5 Z " fill="#4D4D4D" transform="translate(133,74)"/>
<path d="M0 0 C0.66 0 1.32 0 2 0 C1.46747987 4.90844646 -2.22679599 7.63233011 -5.58203125 10.93359375 C-7.13432213 12.48757717 -7.13432213 12.48757717 -9 15 C-9.10063101 17.27219608 -9.10063101 17.27219608 -8 19 C-7.34 19.33 -6.68 19.66 -6 20 C-5.375 22.0625 -5.375 22.0625 -5 24 C-5.66 24 -6.32 24 -7 24 C-6.21869929 26.49552484 -6.21869929 26.49552484 -5 29 C-4.01 29.33 -3.02 29.66 -2 30 C-2 30.66 -2 31.32 -2 32 C-2.66 32 -3.32 32 -4 32 C-6.11779003 36.84754447 -6.11779003 36.84754447 -7 42 C-5.1687189 44.81099414 -5.1687189 44.81099414 -3 47 C-5.92879371 46.37240135 -8.36095629 45.41377341 -11 44 C-11.66 44.99 -12.32 45.98 -13 47 C-15.99460004 47.7081094 -18.91735789 47.77981128 -22 48 C-22 45.03 -22 42.06 -22 39 C-20.68 38.34 -19.36 37.68 -18 37 C-18 36.01 -18 35.02 -18 34 C-17.34 34.33 -16.68 34.66 -16 35 C-16.78697325 38.41021743 -17.87119943 41.68885166 -19 45 C-14.81533624 43.68115367 -13.03238481 42.25251253 -10.6875 38.5625 C-10.17574219 37.78003906 -9.66398437 36.99757812 -9.13671875 36.19140625 C-7.76977214 33.96760566 -7.76977214 33.96760566 -8 31 C-8.66 30.34 -9.32 29.68 -10 29 C-10.04241723 26.66705225 -10.04092937 24.33297433 -10 22 C-10.33 21.01 -10.66 20.02 -11 19 C-11.99 19 -12.98 19 -14 19 C-14.2475 19.598125 -14.495 20.19625 -14.75 20.8125 C-16.16370012 23.28647521 -17.65055383 24.43370255 -20 26 C-20 23 -20 23 -18.0625 20.625 C-15.94167723 17.92577102 -15.38322263 16.35319799 -15 13 C-13.68 13.33 -12.36 13.66 -11 14 C-11 13.34 -11 12.68 -11 12 C-10.34 12 -9.68 12 -9 12 C-9.04125 10.88625 -9.0825 9.7725 -9.125 8.625 C-9 5 -9 5 -7 3 C-3.875 2.875 -3.875 2.875 -1 3 C-0.67 2.01 -0.34 1.02 0 0 Z " fill="#090C0F" transform="translate(43,64)"/>
<path d="M0 0 C2.0625 -0.04125 4.125 -0.0825 6.25 -0.125 C7.99023438 -0.15980469 7.99023438 -0.15980469 9.765625 -0.1953125 C12.87586236 -0.00749623 14.48048934 0.22937615 17 2 C19.36444606 6.01955829 20.14849387 8.10903676 19.375 12.75 C17.48893805 17.2079646 17.48893805 17.2079646 15 19 C10.09931037 20.63356321 5.14261524 20.05529694 0 20 C0 13.4 0 6.8 0 0 Z M5 5 C5 8.3 5 11.6 5 15 C6.299375 14.855625 7.59875 14.71125 8.9375 14.5625 C9.66839844 14.48128906 10.39929688 14.40007812 11.15234375 14.31640625 C13.01140229 14.18113386 13.01140229 14.18113386 14 13 C14.33340471 10.04195427 14.33340471 10.04195427 14 7 C10.5647952 4.70986347 9.014669 4.82157027 5 5 Z " fill="#272727" transform="translate(83,70)"/>
<path d="M0 0 C3.17796217 0.4282302 4.88084759 1.49284877 7.1640625 3.6875 C7.72867188 4.22117187 8.29328125 4.75484375 8.875 5.3046875 C9.4525 5.86414063 10.03 6.42359375 10.625 7 C14.48721484 10.94126037 14.48721484 10.94126037 19 14 C19 14.66 19 15.32 19 16 C19.928125 16.433125 19.928125 16.433125 20.875 16.875 C23 18 23 18 25 20 C25 20.99 25 21.98 25 23 C24.34 23 23.68 23 23 23 C20.78600697 26.79541663 19.99019802 30.75629421 19 35 C17 34 17 34 16 32 C15.01 32.66 14.02 33.32 13 34 C10.8125 33.625 10.8125 33.625 9 33 C9.48210938 32.52949219 9.96421875 32.05898437 10.4609375 31.57421875 C11.09257813 30.95160156 11.72421875 30.32898438 12.375 29.6875 C13.31472656 28.76517578 13.31472656 28.76517578 14.2734375 27.82421875 C16.18086607 25.91187472 16.18086607 25.91187472 18 23 C18.66 23 19.32 23 20 23 C20 22.01 20 21.02 20 20 C19.40453369 19.72816895 18.80906738 19.45633789 18.19555664 19.17626953 C16.04742873 18.02540994 14.60638573 16.87258771 12.87109375 15.1796875 C12.31099609 14.64472656 11.75089844 14.10976562 11.17382812 13.55859375 C10.01035646 12.43045812 8.84891488 11.30022525 7.68945312 10.16796875 C4.42878692 6.79696964 4.42878692 6.79696964 0 6 C0 5.34 0 4.68 0 4 C-0.350625 4.45375 -0.70125 4.9075 -1.0625 5.375 C-3.77096206 7.64661334 -6.60795328 8.16798854 -10 9 C-10.33 11.31 -10.66 13.62 -11 16 C-11.66 16 -12.32 16 -13 16 C-13.21219778 12.88776587 -13.31552396 10.64960815 -11.9375 7.8125 C-9.29135885 5.33707763 -6.33189184 4.36845558 -3 3 C-2.443125 2.4225 -1.88625 1.845 -1.3125 1.25 C-0.6628125 0.63125 -0.6628125 0.63125 0 0 Z " fill="#3A4043" transform="translate(45,60)"/>
<path d="M0 0 C3 1.9375 3 1.9375 5 5 C5.31138458 8.16847468 5.17437171 11.02609353 4 14 C0.42682281 16.42492574 -2.75632163 16.30311988 -7 16 C-10.38031589 14.81232145 -10.93216817 14.10174775 -13 11 C-13.36017958 7.61431194 -13.38185838 5.6727981 -11.6875 2.6875 C-8.35605348 -0.64394652 -4.46205981 -0.46159239 0 0 Z M-6 10 C-6 10.33 -6 10.66 -6 11 C-4.02 11 -2.04 11 0 11 C0 10.67 0 10.34 0 10 C-1.98 10 -3.96 10 -6 10 Z " fill="#2D2D2D" transform="translate(178,104)"/>
<path d="M0 0 C1.36538938 2.73077876 1.13231826 4.95560367 1.125 8 C1.12886719 9.60875 1.12886719 9.60875 1.1328125 11.25 C1 14 1 14 0 16 C-10.71978116 16.61548983 -10.71978116 16.61548983 -15.25 14.4375 C-17 12 -17 12 -17.625 8.5625 C-17 5 -17 5 -15.25 2.0625 C-10.35168217 -1.04604785 -5.64980028 -0.40548806 0 0 Z M-10 5 C-10.66 5.66 -11.32 6.32 -12 7 C-12 7.99 -12 8.98 -12 10 C-9.03 10.495 -9.03 10.495 -6 11 C-5.67 9.35 -5.34 7.7 -5 6 C-7.39719432 5.32041397 -7.39719432 5.32041397 -10 5 Z " fill="#2C2C2C" transform="translate(180,74)"/>
<path d="M0 0 C1.65 0.33 3.3 0.66 5 1 C5 3.64 5 6.28 5 9 C5.721875 8.34 6.44375 7.68 7.1875 7 C10.21597933 4.8464147 11.39703406 4.58823246 15 5 C15.33 5.99 15.66 6.98 16 8 C12.25 11 12.25 11 10 11 C10.44472656 11.47050781 10.88945312 11.94101563 11.34765625 12.42578125 C11.91355469 13.04839844 12.47945312 13.67101562 13.0625 14.3125 C13.63097656 14.92738281 14.19945312 15.54226562 14.78515625 16.17578125 C15.18605469 16.77777344 15.58695313 17.37976563 16 18 C15.67 18.99 15.34 19.98 15 21 C10.59885603 20.49701212 8.28804981 18.91227269 5 16 C4.67 17.65 4.34 19.3 4 21 C2.0625 20.625 2.0625 20.625 0 20 C-1.50938632 16.98122735 -1.14366437 13.86920415 -1.125 10.5625 C-1.12886719 9.88123047 -1.13273438 9.19996094 -1.13671875 8.49804688 C-1.1306374 5.39351954 -0.98890312 2.96670935 0 0 Z " fill="#4D4D4D" transform="translate(148,99)"/>
<path d="M0 0 C2.72466785 2.22927369 2.93171915 3.53178843 3.4375 7 C2.90330528 10.6630495 1.8550293 11.73277085 -1 14 C-4.13871188 15.56935594 -6.53855822 15.35201103 -10 15 C-12.70394808 12.88386672 -14.41575569 11.06538668 -16.0625 8.0625 C-15.95801081 4.61435673 -14.09598973 2.61998717 -12 0 C-7.83567807 -1.38810731 -4.2455869 -1.01198347 0 0 Z M-8 4 C-9.10836423 5.88316159 -9.10836423 5.88316159 -10 8 C-9.67 8.66 -9.34 9.32 -9 10 C-6.58354218 10.16687448 -6.58354218 10.16687448 -4 10 C-3.34 9.34 -2.68 8.68 -2 8 C-2 7.01 -2 6.02 -2 5 C-4.97 4.505 -4.97 4.505 -8 4 Z " fill="#5D5D5D" transform="translate(125,105)"/>
<path d="M0 0 C0.12375 0.5775 0.2475 1.155 0.375 1.75 C1.00648824 4.02335767 1.88858191 5.9253529 3 8 C5.24362573 8.2284549 5.24362573 8.2284549 7.125 6 C8.053125 5.01 8.053125 5.01 9 4 C10.9375 4.75 10.9375 4.75 13 6 C13.875 8 13.875 8 14 10 C13.34 10.66 12.68 11.32 12 12 C11.53993654 14.20250992 11.53993654 14.20250992 11.375 16.625 C11.30023438 17.44226563 11.22546875 18.25953125 11.1484375 19.1015625 C11.09945313 19.72804688 11.05046875 20.35453125 11 21 C12.45947705 20.93993922 13.91779272 20.8511311 15.375 20.75 C16.18710937 20.70359375 16.99921875 20.6571875 17.8359375 20.609375 C20.18838927 20.2077908 20.18838927 20.2077908 21.2890625 17.953125 C21.52367188 17.30859375 21.75828125 16.6640625 22 16 C24.47128202 16.9566253 25.72986449 17.45972898 26.9375 19.875 C27.0225942 22.76820282 25.88243538 23.89167237 24 26 C23.18789063 25.52433594 23.18789063 25.52433594 22.359375 25.0390625 C19.5842851 23.81692026 17.26791902 23.59056564 14.25 23.375 C13.26515625 23.30023438 12.2803125 23.22546875 11.265625 23.1484375 C10.51796875 23.09945312 9.7703125 23.05046875 9 23 C9 19.7 9 16.4 9 13 C8.071875 13.99 8.071875 13.99 7.125 15 C5 17 5 17 3 17 C2.814375 15.88625 2.814375 15.88625 2.625 14.75 C2.14269574 12.06936523 2.14269574 12.06936523 1 10.125 C-0.40367014 7.14220096 -0.69232913 4.26131121 -1 1 C-0.67 0.67 -0.34 0.34 0 0 Z " fill="#7A7A7A" transform="translate(10,91)"/>
<path d="M0 0 C2.0625 0.4375 2.0625 0.4375 4 1 C3.01 1.66 2.02 2.32 1 3 C1.34417969 3.76763672 1.34417969 3.76763672 1.6953125 4.55078125 C2.15608859 8.25471213 0.50786417 10.97115263 -1.125 14.1875 C-1.42148437 14.82880859 -1.71796875 15.47011719 -2.0234375 16.13085938 C-2.9453125 17.98046875 -2.9453125 17.98046875 -5 21 C-7.6796875 21.80078125 -7.6796875 21.80078125 -10 22 C-10.33 22.66 -10.66 23.32 -11 24 C-11.66 24 -12.32 24 -13 24 C-13.33 24.99 -13.66 25.98 -14 27 C-15.32 26.67 -16.64 26.34 -18 26 C-18 25.34 -18 24.68 -18 24 C-19.98 24.99 -19.98 24.99 -22 26 C-22.99 25.01 -23.98 24.02 -25 23 C-22.03 23 -19.06 23 -16 23 C-16.33 21.68 -16.66 20.36 -17 19 C-15.1875 16.75 -15.1875 16.75 -13 15 C-12.34 15 -11.68 15 -11 15 C-11 15.99 -11 16.98 -11 18 C-9.68 18 -8.36 18 -7 18 C-6.67 17.34 -6.34 16.68 -6 16 C-6.99 16 -7.98 16 -9 16 C-9.8125 13.8125 -9.8125 13.8125 -10 11 C-7.75 8.1875 -7.75 8.1875 -5 6 C-4.01 6 -3.02 6 -2 6 C-2 6.66 -2 7.32 -2 8 C-1.34 8 -0.68 8 0 8 C-0.185625 6.865625 -0.37125 5.73125 -0.5625 4.5625 C-0.706875 3.386875 -0.85125 2.21125 -1 1 C-0.67 0.67 -0.34 0.34 0 0 Z " fill="#464C51" transform="translate(55,96)"/>
<path d="M0 0 C4.12417063 1.6616804 7.06554039 4.62338018 10.25 7.625 C10.80429687 8.140625 11.35859375 8.65625 11.9296875 9.1875 C13.2902712 10.45425035 14.64565837 11.72657815 16 13 C15.36578125 13.28617188 14.7315625 13.57234375 14.078125 13.8671875 C11.58438799 15.22655542 11.03567876 16.41080309 10 19 C9.34 17.68 8.68 16.36 8 15 C6.35 15 4.7 15 3 15 C2.67 13.02 2.34 11.04 2 9 C-0.31 9 -2.62 9 -5 9 C-4.5206753 4.68607774 -3.2542015 2.83430453 0 0 Z " fill="#0497D8" transform="translate(46,65)"/>
<path d="M0 0 C3 1 3 1 4 3 C6.01669827 4.13350534 6.01669827 4.13350534 8 5 C8 6.32 8 7.64 8 9 C6.68 9 5.36 9 4 9 C4 12.3 4 15.6 4 19 C2.34385343 19.38218767 0.67542976 19.71395102 -1 20 C-2.91683709 18.08316291 -2.42750305 14.63442708 -2.62109375 12.03125 C-2.74613281 11.3609375 -2.87117187 10.690625 -3 10 C-3.66 9.67 -4.32 9.34 -5 9 C-4.67 7.35 -4.34 5.7 -4 4 C-3.34 4 -2.68 4 -2 4 C-1.34 2.68 -0.68 1.36 0 0 Z " fill="#191919" transform="translate(153,70)"/>
<path d="M0 0 C1.32 0.66 2.64 1.32 4 2 C2.17778624 8.61242722 -0.05223604 14.80520671 -3 21 C-3.99 21 -4.98 21 -6 21 C-6.65134925 19.43979133 -7.29582964 17.87671421 -7.9375 16.3125 C-8.29714844 15.44238281 -8.65679687 14.57226562 -9.02734375 13.67578125 C-9.9570312 11.11820735 -10.54162625 8.6778677 -11 6 C-8 7 -8 7 -7 9 C-6.01 9.33 -5.02 9.66 -4 10 C-3.8453125 8.9171875 -3.8453125 8.9171875 -3.6875 7.8125 C-2.94013068 4.75508007 -1.71954811 2.61670365 0 0 Z " fill="#0B0B0B" transform="translate(105,99)"/>
<path d="M0 0 C0.66 0 1.32 0 2 0 C1.46747987 4.90844646 -2.22679599 7.63233011 -5.58203125 10.93359375 C-7.13432213 12.48757717 -7.13432213 12.48757717 -9 15 C-8.90227188 18.0838651 -8.20014676 18.79985324 -6 21 C-6.66 21 -7.32 21 -8 21 C-8 22.65 -8 24.3 -8 26 C-9.20628008 23.66785852 -10.1654738 21.50357861 -11 19 C-11.99 19 -12.98 19 -14 19 C-14.2475 19.598125 -14.495 20.19625 -14.75 20.8125 C-16.16370012 23.28647521 -17.65055383 24.43370255 -20 26 C-20 23 -20 23 -18.0625 20.625 C-15.94167723 17.92577102 -15.38322263 16.35319799 -15 13 C-13.68 13.33 -12.36 13.66 -11 14 C-11 13.34 -11 12.68 -11 12 C-10.34 12 -9.68 12 -9 12 C-9.04125 10.88625 -9.0825 9.7725 -9.125 8.625 C-9 5 -9 5 -7 3 C-3.875 2.875 -3.875 2.875 -1 3 C-0.67 2.01 -0.34 1.02 0 0 Z " fill="#091218" transform="translate(43,64)"/>
<path d="M0 0 C0.66 0 1.32 0 2 0 C2 2.64 2 5.28 2 8 C4.31 8 6.62 8 9 8 C5.60640564 13.39890011 0.73620862 15.65155222 -5 18 C-5.66 18 -6.32 18 -7 18 C-6.7362658 10.87917647 -4.3696036 5.65614471 0 0 Z " fill="#E9DB0B" transform="translate(15,109)"/>
<path d="M0 0 C1.32 0 2.64 0 4 0 C5.1482685 2.296537 5.11561175 3.58313167 5.09765625 6.1328125 C5.09282227 7.34130859 5.09282227 7.34130859 5.08789062 8.57421875 C5.07951172 9.41597656 5.07113281 10.25773437 5.0625 11.125 C5.05798828 11.97449219 5.05347656 12.82398437 5.04882812 13.69921875 C5.03702874 15.79950909 5.01909306 17.8997633 5 20 C3.35 20.33 1.7 20.66 0 21 C-1.64072259 17.71855481 -1.14274434 14.10210004 -1.125 10.5 C-1.12886719 9.71496094 -1.13273438 8.92992188 -1.13671875 8.12109375 C-1.12665394 2.25330787 -1.12665394 2.25330787 0 0 Z " fill="#222222" transform="translate(186,69)"/>
<path d="M0 0 C0.66 0 1.32 0 2 0 C2.33 0.99 2.66 1.98 3 3 C4.134375 3.12375 5.26875 3.2475 6.4375 3.375 C7.613125 3.58125 8.78875 3.7875 10 4 C10.33 4.66 10.66 5.32 11 6 C11.66 5.34 12.32 4.68 13 4 C13.99 4.33 14.98 4.66 16 5 C14.68 8.3 13.36 11.6 12 15 C10.35 15 8.7 15 7 15 C7 13 7 13 9 11 C8.071875 11.350625 7.14375 11.70125 6.1875 12.0625 C3 13 3 13 0 12 C0 8.04 0 4.08 0 0 Z M3 6 C3 7.32 3 8.64 3 10 C3.66 10 4.32 10 5 10 C5 8.68 5 7.36 5 6 C4.34 6 3.68 6 3 6 Z " fill="#121315" transform="translate(82,125)"/>
<path d="M0 0 C1.37478516 0.01740234 1.37478516 0.01740234 2.77734375 0.03515625 C3.69644531 0.04417969 4.61554688 0.05320312 5.5625 0.0625 C6.27277344 0.07410156 6.98304688 0.08570312 7.71484375 0.09765625 C8.04484375 1.74765625 8.37484375 3.39765625 8.71484375 5.09765625 C6.73484375 5.75765625 4.75484375 6.41765625 2.71484375 7.09765625 C2.38484375 9.73765625 2.05484375 12.37765625 1.71484375 15.09765625 C-0.22265625 15.66015625 -0.22265625 15.66015625 -2.28515625 16.09765625 C-3.28515625 15.09765625 -3.28515625 15.09765625 -3.41796875 11.97265625 C-3.41539062 10.69390625 -3.4128125 9.41515625 -3.41015625 8.09765625 C-3.41273438 6.81890625 -3.4153125 5.54015625 -3.41796875 4.22265625 C-3.24439846 0.13864951 -3.24439846 0.13864951 0 0 Z " fill="#686868" transform="translate(135.28515625,103.90234375)"/>
<path d="M0 0 C3.63 0 7.26 0 11 0 C12 4 12 4 11 6 C9.02 6 7.04 6 5 6 C5 8.97 5 11.94 5 15 C3.35 15.33 1.7 15.66 0 16 C0 10.72 0 5.44 0 0 Z " fill="#6F6F6F" transform="translate(187,104)"/>
<path d="M0 0 C3.4375 0.4375 3.4375 0.4375 5.4375 2.4375 C5.4375 6.4375 5.4375 6.4375 3.0625 9.0625 C2.19625 9.84625 1.33 10.63 0.4375 11.4375 C-0.2225 12.0975 -0.8825 12.7575 -1.5625 13.4375 C-4.49703261 13.07068342 -5.42687246 12.57312754 -7.5625 10.4375 C-7.11862794 4.96307791 -5.80067913 0.7123641 0 0 Z " fill="#0592CF" transform="translate(42.5625,95.5625)"/>
<path d="M0 0 C0.99 0.33 1.98 0.66 3 1 C3 5.29 3 9.58 3 14 C-3.625 16.125 -3.625 16.125 -7 15 C-8.375 12.25 -8.375 12.25 -9 9 C-7.9375 6.125 -7.9375 6.125 -6 4 C-3.3125 3.6875 -3.3125 3.6875 -1 4 C-0.67 2.68 -0.34 1.36 0 0 Z M-4 7 C-4.33 8.65 -4.66 10.3 -5 12 C-3.68 12 -2.36 12 -1 12 C-1 10.35 -1 8.7 -1 7 C-1.99 7 -2.98 7 -4 7 Z " fill="#000000" transform="translate(110,123)"/>
<path d="M0 0 C2.8345687 0.42467365 4.33459253 1.09703791 6.1640625 3.32421875 C6.1640625 4.64421875 6.1640625 5.96421875 6.1640625 7.32421875 C2.2040625 7.32421875 -1.7559375 7.32421875 -5.8359375 7.32421875 C-5.8359375 8.31421875 -5.8359375 9.30421875 -5.8359375 10.32421875 C-6.8259375 10.65421875 -7.8159375 10.98421875 -8.8359375 11.32421875 C-9.8359375 10.32421875 -9.8359375 10.32421875 -10.0859375 7.51171875 C-9.8359375 4.32421875 -9.8359375 4.32421875 -8.8984375 1.94921875 C-5.98700545 -0.3446368 -3.62518745 -0.17122221 0 0 Z " fill="#3E3E3E" transform="translate(174.8359375,104.67578125)"/>
<path d="M0 0 C1.32 0.33 2.64 0.66 4 1 C4 7.6 4 14.2 4 21 C2.35 21.33 0.7 21.66 -1 22 C-1.22595954 18.89685213 -1.42770896 15.79259193 -1.625 12.6875 C-1.68945312 11.80642578 -1.75390625 10.92535156 -1.8203125 10.01757812 C-1.871875 9.17001953 -1.9234375 8.32246094 -1.9765625 7.44921875 C-2.02893066 6.66893311 -2.08129883 5.88864746 -2.13525391 5.0847168 C-2 3 -2 3 0 0 Z " fill="#4F4F4F" transform="translate(108,68)"/>
<path d="M0 0 C1.98 0.495 1.98 0.495 4 1 C4 7.93 4 14.86 4 22 C2.35 22 0.7 22 -1 22 C-1.02887814 18.52085059 -1.04675687 15.04173169 -1.0625 11.5625 C-1.07087891 10.56927734 -1.07925781 9.57605469 -1.08789062 8.55273438 C-1.09111328 7.60849609 -1.09433594 6.66425781 -1.09765625 5.69140625 C-1.10289307 4.81685791 -1.10812988 3.94230957 -1.11352539 3.04125977 C-1 1 -1 1 0 0 Z " fill="#505050" transform="translate(140,68)"/>
<path d="M0 0 C2.35048538 3.52572807 2.66397817 4.85013645 2 9 C0.17656305 11.32665819 -1.42492075 12.36581509 -4 14 C-7.10513115 13.91374636 -7.78572897 13.21427103 -10 11 C-9.65811291 7.69053295 -8.25693921 5.73195908 -6.125 3.25 C-5.61195312 2.63640625 -5.09890625 2.0228125 -4.5703125 1.390625 C-3 0 -3 0 0 0 Z " fill="#0692D0" transform="translate(32,83)"/>
<path d="M0 0 C3.3 0 6.6 0 10 0 C10.1079859 2.43868168 10.18726589 4.87259133 10.25 7.3125 C10.30027344 8.34793945 10.30027344 8.34793945 10.3515625 9.40429688 C10.44991135 14.49384973 10.44991135 14.49384973 8.25 16.96875 C4.67929601 18.60532266 1.89352913 18.19467646 -2 18 C-2 17.01 -2 16.02 -2 15 C0.97 15 3.94 15 7 15 C7 14.01 7 13.02 7 12 C6.05125 12.20625 5.1025 12.4125 4.125 12.625 C3.09375 12.74875 2.0625 12.8725 1 13 C0.34 12.34 -0.32 11.68 -1 11 C1.31 10.34 3.62 9.68 6 9 C6 7.02 6 5.04 6 3 C3.03 2.505 3.03 2.505 0 2 C0 1.34 0 0.68 0 0 Z " fill="#0E0E0E" transform="translate(122,76)"/>
<path d="M0 0 C1.875 1.625 1.875 1.625 3 4 C2.875 7.125 2.875 7.125 2 10 C-1 12 -1 12 -3.5625 11.8125 C-6 11 -6 11 -8 8 C-8.35840349 5.13277207 -8.41121458 3.62764331 -6.8125 1.1875 C-4.32762734 -0.44052002 -2.91288568 -0.50975499 0 0 Z " fill="#000000" transform="translate(152,127)"/>
<path d="M0 0 C1.09570312 0.00902344 2.19140625 0.01804687 3.3203125 0.02734375 C4.16335937 0.03894531 5.00640625 0.05054687 5.875 0.0625 C7.23771133 2.78792267 7.04423601 5.02337274 7.0625 8.0625 C7.07667969 9.135 7.09085938 10.2075 7.10546875 11.3125 C6.875 14.0625 6.875 14.0625 4.875 16.0625 C4.875 11.4425 4.875 6.8225 4.875 2.0625 C4.215 2.0625 3.555 2.0625 2.875 2.0625 C2.545 5.0325 2.215 8.0025 1.875 11.0625 C0.225 11.3925 -1.425 11.7225 -3.125 12.0625 C-2.135 11.4025 -1.145 10.7425 -0.125 10.0625 C-0.125 8.7425 -0.125 7.4225 -0.125 6.0625 C-2.56217258 6.33284634 -2.56217258 6.33284634 -5.125 7.0625 C-6.115 8.5475 -6.115 8.5475 -7.125 10.0625 C-6.25 5.3125 -6.25 5.3125 -5.125 3.0625 C-6.115 3.0625 -7.105 3.0625 -8.125 3.0625 C-8.125 3.7225 -8.125 4.3825 -8.125 5.0625 C-8.785 5.0625 -9.445 5.0625 -10.125 5.0625 C-7.72498228 -0.25182494 -5.65089468 -0.0601159 0 0 Z " fill="#5D5D5D" transform="translate(174.125,73.9375)"/>
<path d="M0 0 C0.66 0 1.32 0 2 0 C2 2.64 2 5.28 2 8 C3.45947705 7.93993922 4.91779272 7.8511311 6.375 7.75 C7.18710937 7.70359375 7.99921875 7.6571875 8.8359375 7.609375 C11.18838927 7.2077908 11.18838927 7.2077908 12.2890625 4.953125 C12.52367187 4.30859375 12.75828125 3.6640625 13 3 C15.47128202 3.9566253 16.72986449 4.45972898 17.9375 6.875 C18.0225942 9.76820282 16.88243538 10.89167237 15 13 C14.45859375 12.68289062 13.9171875 12.36578125 13.359375 12.0390625 C10.5842851 10.81692026 8.26791902 10.59056564 5.25 10.375 C4.26515625 10.30023438 3.2803125 10.22546875 2.265625 10.1484375 C1.51796875 10.09945312 0.7703125 10.05046875 0 10 C0 6.7 0 3.4 0 0 Z " fill="#6E6F6E" transform="translate(19,104)"/>
<path d="M0 0 C0 0.66 0 1.32 0 2 C-0.99 2 -1.98 2 -3 2 C-3.2475 2.721875 -3.495 3.44375 -3.75 4.1875 C-5.10983674 7.24713266 -6.82917754 9.4673738 -9 12 C-10.32 11.34 -11.64 10.68 -13 10 C-13 9.34 -13 8.68 -13 8 C-13.99 7.34 -14.98 6.68 -16 6 C-14.47486297 4.79134397 -12.92904031 3.60876047 -11.375 2.4375 C-10.51648438 1.77621094 -9.65796875 1.11492187 -8.7734375 0.43359375 C-5.35931027 -1.33117342 -3.64428365 -0.97786497 0 0 Z " fill="#2C3437" transform="translate(32,76)"/>
<path d="M0 0 C0 0.99 0 1.98 0 3 C2.97 3.495 2.97 3.495 6 4 C6 4.66 6 5.32 6 6 C5.195625 6.12375 4.39125 6.2475 3.5625 6.375 C2.716875 6.58125 1.87125 6.7875 1 7 C0.67 7.66 0.34 8.32 0 9 C-0.66 9 -1.32 9 -2 9 C-2.33 9.99 -2.66 10.98 -3 12 C-4.32 11.67 -5.64 11.34 -7 11 C-7 10.34 -7 9.68 -7 9 C-8.98 9.99 -8.98 9.99 -11 11 C-11.99 10.01 -12.98 9.02 -14 8 C-11.03 8 -8.06 8 -5 8 C-5.33 6.68 -5.66 5.36 -6 4 C-2.77777778 0 -2.77777778 0 0 0 Z " fill="#4A4A4A" transform="translate(44,111)"/>
<path d="M0 0 C0.66 0.33 1.32 0.66 2 1 C1.35352137 4.3632281 0.09430564 6.81171414 -1.75 9.6875 C-2.48476563 10.86892578 -2.48476563 10.86892578 -3.234375 12.07421875 C-5.40077911 14.43713296 -6.86599911 14.68553392 -10 15 C-10.3125 12.83203125 -10.3125 12.83203125 -10 10 C-7.8125 7.32421875 -7.8125 7.32421875 -5 4.6875 C-4.071875 3.80449219 -3.14375 2.92148438 -2.1875 2.01171875 C-1.1046875 1.01591797 -1.1046875 1.01591797 0 0 Z " fill="#333332" transform="translate(34,94)"/>
<path d="M0 0 C0.99 0 1.98 0 3 0 C3 3.96 3 7.92 3 12 C3.66 12 4.32 12 5 12 C5 12.66 5 13.32 5 14 C4.34 14 3.68 14 3 14 C3 15.65 3 17.3 3 19 C2.01 19 1.02 19 0 19 C-1.51714839 15.96570323 -1.14363916 12.82398333 -1.125 9.5 C-1.12886719 8.81035156 -1.13273438 8.12070313 -1.13671875 7.41015625 C-1.12666646 2.25333293 -1.12666646 2.25333293 0 0 Z " fill="#050505" transform="translate(148,100)"/>
<path d="M0 0 C7.30434783 -0.48695652 7.30434783 -0.48695652 10.5 1.75 C12 4 12 4 12 8 C12.66 8 13.32 8 14 8 C13.67 5.36 13.34 2.72 13 0 C13.66 0.33 14.32 0.66 15 1 C16.65782473 6.35604911 15.39433385 9.21133231 13 14 C12.34 13.01 11.68 12.02 11 11 C10.01 11.33 9.02 11.66 8 12 C6.60560336 12.06665376 5.20830125 12.08538199 3.8125 12.0625 C1.9253125 12.0315625 1.9253125 12.0315625 0 12 C0 8.04 0 4.08 0 0 Z M1 1 C1 4.3 1 7.6 1 11 C2.299375 10.855625 3.59875 10.71125 4.9375 10.5625 C5.66839844 10.48128906 6.39929688 10.40007812 7.15234375 10.31640625 C9.01140229 10.18113386 9.01140229 10.18113386 10 9 C10.33340471 6.04195427 10.33340471 6.04195427 10 3 C6.5647952 0.70986347 5.014669 0.82157027 1 1 Z " fill="#626262" transform="translate(87,74)"/>
<path d="M0 0 C0.66 0 1.32 0 2 0 C2 3.3 2 6.6 2 10 C5.63 10 9.26 10 13 10 C13 10.99 13 11.98 13 13 C11.02 13.99 11.02 13.99 9 15 C9 14.01 9 13.02 9 12 C4.545 12.495 4.545 12.495 0 13 C0 10.36 0 7.72 0 5 C-0.66 5 -1.32 5 -2 5 C-2.66 6.32 -3.32 7.64 -4 9 C-4.33 8.01 -4.66 7.02 -5 6 C-4.67 5.34 -4.34 4.68 -4 4 C-3.34 4 -2.68 4 -2 4 C-1.34 2.68 -0.68 1.36 0 0 Z " fill="#202020" transform="translate(17,104)"/>
<path d="M0 0 C1.38967717 2.77935434 0.78549604 3.98893185 0 7 C-0.94395426 9.69201769 -1.96350585 12.34116719 -3 15 C-3.99 15 -4.98 15 -6 15 C-6.66 17.64 -7.32 20.28 -8 23 C-6.02 22.67 -4.04 22.34 -2 22 C-4.13324818 24.13324818 -5.1007774 24.53238345 -8 25 C-8.33 24.67 -8.66 24.34 -9 24 C-8.52134288 15.38417183 -6.11809592 6.33659935 0 0 Z " fill="#4B4A47" transform="translate(12,108)"/>
<path d="M0 0 C3 1 3 1 4 3 C6.01669827 4.13350534 6.01669827 4.13350534 8 5 C8 6.32 8 7.64 8 9 C6.68 9 5.36 9 4 9 C4 12.3 4 15.6 4 19 C3.67 19 3.34 19 3 19 C3 15.37 3 11.74 3 8 C3.99 8 4.98 8 6 8 C6 7.34 6 6.68 6 6 C4.68 6 3.36 6 2 6 C2 4.68 2 3.36 2 2 C1.34 2 0.68 2 0 2 C0 3.32 0 4.64 0 6 C-1.32 6 -2.64 6 -4 6 C-4 6.66 -4 7.32 -4 8 C-3.01 8 -2.02 8 -1 8 C-1 11.63 -1 15.26 -1 19 C-1.33 19 -1.66 19 -2 19 C-2.07347656 18.04287109 -2.07347656 18.04287109 -2.1484375 17.06640625 C-2.22320312 16.24011719 -2.29796875 15.41382812 -2.375 14.5625 C-2.44460937 13.73878906 -2.51421875 12.91507813 -2.5859375 12.06640625 C-2.79089844 11.04353516 -2.79089844 11.04353516 -3 10 C-3.66 9.67 -4.32 9.34 -5 9 C-4.67 7.35 -4.34 5.7 -4 4 C-3.34 4 -2.68 4 -2 4 C-1.34 2.68 -0.68 1.36 0 0 Z " fill="#929292" transform="translate(153,70)"/>
<path d="M0 0 C2.375 -0.1875 2.375 -0.1875 5 0 C5.66 0.99 6.32 1.98 7 3 C6.67 3.99 6.34 4.98 6 6 C4.68 4.68 3.36 3.36 2 2 C2.37253906 2.75925781 2.74507813 3.51851563 3.12890625 4.30078125 C3.83853516 5.79158203 3.83853516 5.79158203 4.5625 7.3125 C5.03816406 8.29863281 5.51382813 9.28476563 6.00390625 10.30078125 C7 13 7 13 6 16 C5.01 14.02 4.02 12.04 3 10 C2.01 10.99 1.02 11.98 0 13 C0.33 10.69 0.66 8.38 1 6 C0.34 6 -0.32 6 -1 6 C-1.33 6.99 -1.66 7.98 -2 9 C-2.66 8.67 -3.32 8.34 -4 8 C-3.67 6.68 -3.34 5.36 -3 4 C-2.67 4.33 -2.34 4.66 -2 5 C-1.34 3.35 -0.68 1.7 0 0 Z " fill="#4B4B4B" transform="translate(92,103)"/>
<path d="M0 0 C11.35319149 -0.49361702 11.35319149 -0.49361702 14.375 1.8125 C16.4922606 4.66265851 16.31517357 6.53309073 16 10 C15.34 10 14.68 10 14 10 C13.71125 9.21625 13.4225 8.4325 13.125 7.625 C12.15087746 4.90328368 12.15087746 4.90328368 10 3 C7.79749008 2.53993654 7.79749008 2.53993654 5.375 2.375 C3.93125 2.25125 2.4875 2.1275 1 2 C1 5.96 1 9.92 1 14 C0.67 14 0.34 14 0 14 C0 9.38 0 4.76 0 0 Z " fill="#0A0A0A" transform="translate(85,72)"/>
<path d="M0 0 C0.99 0 1.98 0 3 0 C3 2.31 3 4.62 3 7 C2.34 7 1.68 7 1 7 C1 9.64 1 12.28 1 15 C0.01 15 -0.98 15 -2 15 C-2 12.36 -2 9.72 -2 7 C-2.66 7 -3.32 7 -4 7 C-4 6.01 -4 5.02 -4 4 C-3.34 4 -2.68 4 -2 4 C-1.34 2.68 -0.68 1.36 0 0 Z " fill="#000000" transform="translate(138,123)"/>
<path d="M0 0 C0.99 0.33 1.98 0.66 3 1 C3 5.62 3 10.24 3 15 C1.68 15 0.36 15 -1 15 C-1.02685412 12.68756208 -1.04632841 10.3750373 -1.0625 8.0625 C-1.07410156 6.77472656 -1.08570312 5.48695313 -1.09765625 4.16015625 C-1 1 -1 1 0 0 Z " fill="#000000" transform="translate(128,123)"/>
<path d="M0 0 C3.29014997 -0.22432841 5.42277246 -0.30380397 8.375 1.25 C10 3 10 3 10 7 C6.04 7 2.08 7 -2 7 C-2 7.99 -2 8.98 -2 10 C-2.66 10 -3.32 10 -4 10 C-4 8.35 -4 6.7 -4 5 C-3.34 4.67 -2.68 4.34 -2 4 C-2 4.66 -2 5.32 -2 6 C1.3 6 4.6 6 8 6 C8 5.34 8 4.68 8 4 C5.03 3.67 2.06 3.34 -1 3 C-0.67 2.01 -0.34 1.02 0 0 Z " fill="#131313" transform="translate(171,105)"/>
<path d="M0 0 C0.86367187 -0.01675781 1.72734375 -0.03351563 2.6171875 -0.05078125 C5.63667287 0.38662084 7.0048633 1.12826614 9.125 3.3125 C9.125 4.6325 9.125 5.9525 9.125 7.3125 C8.135 7.3125 7.145 7.3125 6.125 7.3125 C5.795 5.9925 5.465 4.6725 5.125 3.3125 C1.0946972 2.96603874 1.0946972 2.96603874 -2.875 3.3125 C-5.4154226 5.65080958 -5.4154226 5.65080958 -6.875 8.3125 C-7 5.4375 -7 5.4375 -6.875 2.3125 C-4.37490913 -0.18759087 -3.4537141 0.01537261 0 0 Z " fill="#0F0F0F" transform="translate(118.875,105.6875)"/>
<path d="M0 0 C2.97 0 5.94 0 9 0 C9 0.66 9 1.32 9 2 C7.02 2.66 5.04 3.32 3 4 C2.67 7.3 2.34 10.6 2 14 C1.01 14 0.02 14 -1 14 C-1.08333357 9.1666528 -0.95261487 4.76307437 0 0 Z " fill="#171717" transform="translate(134,106)"/>
<path d="M0 0 C0.66 0 1.32 0 2 0 C2 1.32 2 2.64 2 4 C2.928125 3.505 3.85625 3.01 4.8125 2.5 C8 1 8 1 11 1 C10 4 10 4 7.78515625 5.16796875 C6.88667969 5.50441406 5.98820313 5.84085938 5.0625 6.1875 C4.16660156 6.53167969 3.27070313 6.87585938 2.34765625 7.23046875 C-0 8 -0 8 -2 8 C-1.125 2.25 -1.125 2.25 0 0 Z " fill="#2C2A12" transform="translate(6,123)"/>
<path d="M0 0 C2.31 0.33 4.62 0.66 7 1 C7 2.32 7 3.64 7 5 C7.78375 4.938125 8.5675 4.87625 9.375 4.8125 C10.674375 4.9053125 10.674375 4.9053125 12 5 C14 8 14 8 14 12 C13.34 12 12.68 12 12 12 C12 10.68 12 9.36 12 8 C11.236875 8.226875 10.47375 8.45375 9.6875 8.6875 C7 9 7 9 5.1875 7.875 C3.65918128 5.46186517 3.77267884 3.80362763 4 1 C2.68 0.67 1.36 0.34 0 0 Z " fill="#0C4561" transform="translate(42,75)"/>
<path d="M0 0 C4.23129241 -0.41483259 6.37926643 -0.40089043 10 1.9375 C12.52289277 5.80067955 12.1635031 7.80161306 11.39453125 12.20703125 C11.26433594 12.79871094 11.13414062 13.39039062 11 14 C10.34 14 9.68 14 9 14 C9 13.34 9 12.68 9 12 C6.03 12 3.06 12 0 12 C0 11.01 0 10.02 0 9 C2.31 9.66 4.62 10.32 7 11 C7 10.34 7 9.68 7 9 C7.99 9 8.98 9 10 9 C9.61147442 5.99428144 9.61147442 5.99428144 8 3 C5.31689039 1.81724148 2.9318711 1.47288244 0 1 C0 0.67 0 0.34 0 0 Z " fill="#767676" transform="translate(171,104)"/>
<path d="M0 0 C2.31 0 4.62 0 7 0 C7 0.99 7 1.98 7 3 C6.01 3.66 5.02 4.32 4 5 C3.26656572 8.06556598 3.26656572 8.06556598 3 11 C2.01 11 1.02 11 0 11 C0 7.37 0 3.74 0 0 Z " fill="#000000" transform="translate(117,127)"/>
<path d="M0 0 C0.66 0 1.32 0 2 0 C2 4.62 2 9.24 2 14 C1.34 14 0.68 14 0 14 C0 13.01 0 12.02 0 11 C-2.31 11.33 -4.62 11.66 -7 12 C-4 10 -4 10 -2 9 C-1.31270746 6.88153715 -1.31270746 6.88153715 -0.875 4.4375 C-0.70742187 3.61121094 -0.53984375 2.78492187 -0.3671875 1.93359375 C-0.24601563 1.29550781 -0.12484375 0.65742187 0 0 Z " fill="#0C0C0C" transform="translate(177,76)"/>
<path d="M0 0 C1.32 0.66 2.64 1.32 4 2 C2.17778624 8.61242722 -0.05223604 14.80520671 -3 21 C-3.99 20.67 -4.98 20.34 -6 20 C-5.34 19.67 -4.68 19.34 -4 19 C-3.26000315 17.08930501 -2.60590375 15.14485315 -2 13.1875 C-0.88862464 9.62328448 0.21754195 6.28640704 2 3 C0.02 3.99 0.02 3.99 -2 5 C-1.125 1.125 -1.125 1.125 0 0 Z " fill="#505050" transform="translate(105,99)"/>
<path d="M0 0 C3.96 0 7.92 0 12 0 C13.36271133 2.72542267 13.16923601 4.96087274 13.1875 8 C13.20167969 9.0725 13.21585938 10.145 13.23046875 11.25 C13 14 13 14 11 16 C11 11.38 11 6.76 11 2 C9.68 2.33 8.36 2.66 7 3 C4.645752 2.411438 2.30657014 1.75407101 0 1 C0 0.67 0 0.34 0 0 Z " fill="#8C8C8C" transform="translate(168,74)"/>
<path d="M0 0 C0.5775 0.680625 1.155 1.36125 1.75 2.0625 C3.76595576 4.23939709 3.76595576 4.23939709 6.0625 3.9375 C8.18234182 2.91177008 9.46186836 1.76885138 11 0 C11.66 0.33 12.32 0.66 13 1 C11.50902342 4.7952131 9.24299151 6.61042731 6 9 C5.34 8.01 4.68 7.02 4 6 C3.67 6.99 3.34 7.98 3 9 C0.70620251 5.55930376 0 4.27709699 0 0 Z " fill="#0B171E" transform="translate(21,92)"/>
<path d="M0 0 C0.12375 0.5775 0.2475 1.155 0.375 1.75 C1.75995181 6.73582652 4.24448341 9.44214218 8 13 C6.625 15 6.625 15 5 17 C4.34 17 3.68 17 3 17 C2.814375 15.88625 2.814375 15.88625 2.625 14.75 C2.14269574 12.06936523 2.14269574 12.06936523 1 10.125 C-0.40367014 7.14220096 -0.69232913 4.26131121 -1 1 C-0.67 0.67 -0.34 0.34 0 0 Z " fill="#535353" transform="translate(10,91)"/>
<path d="M0 0 C1.46726798 3.81489674 0.43336419 6.29011622 -1 10 C-2.32 10 -3.64 10 -5 10 C-8 4.375 -8 4.375 -8 1 C-5 2 -5 2 -4 4 C-3.01 4.33 -2.02 4.66 -1 5 C-0.67 3.35 -0.34 1.7 0 0 Z " fill="#2A2A2A" transform="translate(102,104)"/>
<path d="M0 0 C0.66 0.33 1.32 0.66 2 1 C2 2.65 2 4.3 2 6 C3.32 6.33 4.64 6.66 6 7 C4.71937515 8.7074998 3.38232443 10.37373596 2 12 C1.34 12 0.68 12 0 12 C0 10.68 0 9.36 0 8 C-0.99 7.67 -1.98 7.34 -3 7 C-2.690625 6.401875 -2.38125 5.80375 -2.0625 5.1875 C-0.89790296 2.91043228 -0.89790296 2.91043228 0 0 Z " fill="#454545" transform="translate(14,83)"/>
<path d="M0 0 C0.66 0.33 1.32 0.66 2 1 C1.21302675 4.41021743 0.12880057 7.68885166 -1 11 C-0.34 11.33 0.32 11.66 1 12 C-0.32 12.33 -1.64 12.66 -3 13 C-1.35 13 0.3 13 2 13 C2 13.33 2 13.66 2 14 C0.02 14 -1.96 14 -4 14 C-4 11.03 -4 8.06 -4 5 C-2.68 4.34 -1.36 3.68 0 3 C0 2.01 0 1.02 0 0 Z " fill="#161616" transform="translate(25,98)"/>
<path d="M0 0 C0.66 0 1.32 0 2 0 C3.32229189 2.64458379 3.09677194 4.67761301 3.0625 7.625 C3.05347656 8.62789062 3.04445312 9.63078125 3.03515625 10.6640625 C3.02355469 11.43492188 3.01195312 12.20578125 3 13 C2.01 13 1.02 13 0 13 C0 8.71 0 4.42 0 0 Z " fill="#0E0E0E" transform="translate(188,106)"/>
<path d="M0 0 C0.66 0.99 1.32 1.98 2 3 C1.01 4.485 1.01 4.485 0 6 C-2 6 -4 6 -6 6 C-6.66 6.99 -7.32 7.98 -8 9 C-8.33 7.35 -8.66 5.7 -9 4 C-3.25 1 -3.25 1 -1 1 C-0.67 0.67 -0.34 0.34 0 0 Z " fill="#1B2328" transform="translate(61,91)"/>
<path d="M0 0 C0 0.99 0 1.98 0 3 C2.97 3.495 2.97 3.495 6 4 C6 4.66 6 5.32 6 6 C4.02 6.33 2.04 6.66 0 7 C0 6.34 0 5.68 0 5 C-1.98 5.33 -3.96 5.66 -6 6 C-6 4 -6 4 -4.125 1.875 C-2 0 -2 0 0 0 Z " fill="#5B5B5B" transform="translate(44,111)"/>
<path d="M0 0 C2.125 0.375 2.125 0.375 4 1 C3.38722388 3.96175123 2.74627478 5.38058783 1 8 C-0.32 7.34 -1.64 6.68 -3 6 C-2.42655063 3.13275314 -2.1385485 2.1385485 0 0 Z " fill="#7A7A7A" transform="translate(33,109)"/>
<path d="M0 0 C3.3 0 6.6 0 10 0 C10 0.99 10 1.98 10 3 C3.25 4.125 3.25 4.125 1 3 C1 3.99 1 4.98 1 6 C0.34 6 -0.32 6 -1 6 C-0.67 4.02 -0.34 2.04 0 0 Z " fill="#5D5D5D" transform="translate(119,88)"/>
<path d="M0 0 C1.9375 0.1875 1.9375 0.1875 4 1 C6.02755186 3.93995019 6 5.27704003 6 9 C5.67 8.01 5.34 7.02 5 6 C3.02 6.33 1.04 6.66 -1 7 C-1.04254356 5.00045254 -1.04080783 2.99958364 -1 1 C-0.67 0.67 -0.34 0.34 0 0 Z " fill="#0A0C0F" transform="translate(16,83)"/>
<path d="M0 0 C-1.37154504 2.95409701 -2.98863724 5.44008376 -5 8 C-6.32 7.34 -7.64 6.68 -9 6 C-9 5.34 -9 4.68 -9 4 C-3.70588235 0 -3.70588235 0 0 0 Z " fill="#0C85B8" transform="translate(28,80)"/>
<path d="M0 0 C0.66 0 1.32 0 2 0 C1.67 2.64 1.34 5.28 1 8 C1.99 8 2.98 8 4 8 C3.67 8.99 3.34 9.98 3 11 C1.68 10.67 0.36 10.34 -1 10 C-1 9.01 -1 8.02 -1 7 C-1.66 7 -2.32 7 -3 7 C-2.25 2.25 -2.25 2.25 0 0 Z " fill="#080D11" transform="translate(45,104)"/>
<path d="M0 0 C0.99 0.33 1.98 0.66 3 1 C3.35412344 2.32796291 3.68521554 3.66216607 4 5 C5.47890069 6.73026102 5.47890069 6.73026102 7 8 C5.02 8.33 3.04 8.66 1 9 C-0.4783226 6.04335481 -0.06032783 3.25770263 0 0 Z " fill="#393939" transform="translate(116,79)"/>
<path d="M0 0 C0.66 0 1.32 0 2 0 C2.33 0.99 2.66 1.98 3 3 C2.34 3 1.68 3 1 3 C1.78130071 5.49552484 1.78130071 5.49552484 3 8 C3.99 8.33 4.98 8.66 6 9 C6 9.66 6 10.32 6 11 C4.68 11.33 3.36 11.66 2 12 C2 11.34 2 10.68 2 10 C0.68 9.34 -0.64 8.68 -2 8 C-1.34 5.36 -0.68 2.72 0 0 Z " fill="#060607" transform="translate(35,85)"/>
<path d="M0 0 C-0.4793247 4.31392226 -1.7457985 6.16569547 -5 9 C-5.66 8.67 -6.32 8.34 -7 8 C-6.44414399 4.1090079 -4.34122117 0 0 0 Z " fill="#0C8AC1" transform="translate(52,102)"/>
<path d="M0 0 C0.33 0 0.66 0 1 0 C1 1.98 1 3.96 1 6 C6.94 5.505 6.94 5.505 13 5 C13 5.99 13 6.98 13 8 C11.02 8.99 11.02 8.99 9 10 C9 9.01 9 8.02 9 7 C4.545 7.495 4.545 7.495 0 8 C0 5.36 0 2.72 0 0 Z " fill="#0E0D0A" transform="translate(17,109)"/>
<path d="M0 0 C1.67542976 0.28604898 3.34385343 0.61781233 5 1 C4.34 1.66 3.68 2.32 3 3 C2.34 2.67 1.68 2.34 1 2 C0.67 6.29 0.34 10.58 0 15 C-0.33 15 -0.66 15 -1 15 C-1.02685412 12.68756208 -1.04632841 10.3750373 -1.0625 8.0625 C-1.07410156 6.77472656 -1.08570313 5.48695312 -1.09765625 4.16015625 C-1 1 -1 1 0 0 Z " fill="#707070" transform="translate(133,104)"/>
<path d="M0 0 C2.31 0 4.62 0 7 0 C7 0.66 7 1.32 7 2 C6.01 2 5.02 2 4 2 C4 2.66 4 3.32 4 4 C3.34 4 2.68 4 2 4 C2 6.97 2 9.94 2 13 C1.67 13 1.34 13 1 13 C0.67 8.71 0.34 4.42 0 0 Z " fill="#3F3F3F" transform="translate(190,106)"/>
<path d="M0 0 C0.66 0 1.32 0 2 0 C2 2.64 2 5.28 2 8 C1.67 7.34 1.34 6.68 1 6 C-0.65 6.66 -2.3 7.32 -4 8 C-2.87548273 5.0280615 -1.77706209 2.66559313 0 0 Z " fill="#BEB316" transform="translate(15,109)"/>
<path d="M0 0 C0.66 0 1.32 0 2 0 C1.67 1.32 1.34 2.64 1 4 C-2.3 4 -5.6 4 -9 4 C-9 3.34 -9 2.68 -9 2 C-6.94921875 1.77213542 -4.8984375 1.54427083 -2.84765625 1.31640625 C-0.98859771 1.18113386 -0.98859771 1.18113386 0 0 Z " fill="#0F0F0F" transform="translate(123,114)"/>
<path d="M0 0 C0.66 0 1.32 0 2 0 C1.125 6.75 1.125 6.75 0 9 C-0.99 9 -1.98 9 -3 9 C-2.5020163 5.26512223 -2.12508244 3.18762365 0 0 Z " fill="#131313" transform="translate(91,109)"/>
<path d="M0 0 C1.32 0 2.64 0 4 0 C4.33 3.3 4.66 6.6 5 10 C1.65094547 6.65094547 1.10529715 4.50621146 0 0 Z " fill="#101010" transform="translate(82,101)"/>
<path d="M0 0 C0.33 0.66 0.66 1.32 1 2 C6.94 1.505 6.94 1.505 13 1 C13 1.66 13 2.32 13 3 C9.04 3 5.08 3 1 3 C1 3.99 1 4.98 1 6 C0.34 6 -0.32 6 -1 6 C-1.042721 4.33388095 -1.04063832 2.66617115 -1 1 C-0.67 0.67 -0.34 0.34 0 0 Z " fill="#060606" transform="translate(168,109)"/>
<path d="M0 0 C0.763125 0.0825 1.52625 0.165 2.3125 0.25 C2.6425 1.24 2.9725 2.23 3.3125 3.25 C1.9925 4.24 0.6725 5.23 -0.6875 6.25 C-1.3475 5.92 -2.0075 5.59 -2.6875 5.25 C-2.0275 4.59 -1.3675 3.93 -0.6875 3.25 C-2.3375 3.58 -3.9875 3.91 -5.6875 4.25 C-3.34903846 0.31153846 -3.34903846 0.31153846 0 0 Z " fill="#7A7A7A" transform="translate(160.6875,103.75)"/>
<path d="M0 0 C0.33 0.66 0.66 1.32 1 2 C1.66 2.33 2.32 2.66 3 3 C2.54625 3.5775 2.0925 4.155 1.625 4.75 C0.15886484 6.7800333 -0.94857784 8.73539843 -2 11 C-2.66 10.01 -3.32 9.02 -4 8 C-2.68 5.36 -1.36 2.72 0 0 Z " fill="#0D181F" transform="translate(36,95)"/>
<path d="M0 0 C5.75 -0.125 5.75 -0.125 8 1 C8 1.66 8 2.32 8 3 C5.03 3 2.06 3 -1 3 C-0.67 2.01 -0.34 1.02 0 0 Z " fill="#5B5B5B" transform="translate(171,108)"/>
<path d="M0 0 C1.32 0.33 2.64 0.66 4 1 C4 2.32 4 3.64 4 5 C2.35 5 0.7 5 -1 5 C-1.33 4.34 -1.66 3.68 -2 3 C-1.34 2.01 -0.68 1.02 0 0 Z " fill="#404040" transform="translate(108,68)"/>
<path d="M0 0 C1.98 0 3.96 0 6 0 C6.33 0.66 6.66 1.32 7 2 C7.99 1.67 8.98 1.34 10 1 C10 1.66 10 2.32 10 3 C8.02 3.66 6.04 4.32 4 5 C3.34 4.34 2.68 3.68 2 3 C2.33 2.67 2.66 2.34 3 2 C2.01 1.34 1.02 0.68 0 0 Z " fill="#53513B" transform="translate(20,116)"/>
<path d="M0 0 C2.475 0.495 2.475 0.495 5 1 C4.01 1.495 4.01 1.495 3 2 C3 2.99 3 3.98 3 5 C3.99 5 4.98 5 6 5 C6.33 4.34 6.66 3.68 7 3 C6.67 4.32 6.34 5.64 6 7 C4.125 6.875 4.125 6.875 2 6 C0.75 2.9375 0.75 2.9375 0 0 Z " fill="#4A4A4A" transform="translate(85,113)"/>
<path d="M0 0 C0.2475 0.61875 0.495 1.2375 0.75 1.875 C2.22770762 4.38710296 3.43955177 4.76107344 6 6 C6.33 6.99 6.66 7.98 7 9 C5.25 8.9375 5.25 8.9375 3 8 C1.40498463 5.75835678 0.25456982 3.46433357 -1 1 C-0.67 0.67 -0.34 0.34 0 0 Z " fill="#101010" transform="translate(155,110)"/>
<path d="M0 0 C1.65 0 3.3 0 5 0 C3.68 0.33 2.36 0.66 1 1 C0.34 3.31 -0.32 5.62 -1 8 C-1.99 8 -2.98 8 -4 8 C-3.67 6.68 -3.34 5.36 -3 4 C-2.67 4.33 -2.34 4.66 -2 5 C-1.34 3.35 -0.68 1.7 0 0 Z " fill="#868686" transform="translate(92,103)"/>
<path d="M0 0 C1.32 0.66 2.64 1.32 4 2 C3.071875 2.4021875 3.071875 2.4021875 2.125 2.8125 C-0.2995233 3.95556848 -0.2995233 3.95556848 -2 7 C-2.99 6.67 -3.98 6.34 -5 6 C-5 5.34 -5 4.68 -5 4 C-4.01 4 -3.02 4 -2 4 C-1.34 2.68 -0.68 1.36 0 0 Z " fill="#676867" transform="translate(32,107)"/>
<path d="M0 0 C0.33 0.99 0.66 1.98 1 3 C-0.43359375 5.04296875 -0.43359375 5.04296875 -2.4375 7.1875 C-3.09621094 7.90292969 -3.75492188 8.61835937 -4.43359375 9.35546875 C-4.95050781 9.89816406 -5.46742187 10.44085938 -6 11 C-6.33 10.01 -6.66 9.02 -7 8 C-5.56640625 5.95703125 -5.56640625 5.95703125 -3.5625 3.8125 C-2.90378906 3.09707031 -2.24507812 2.38164063 -1.56640625 1.64453125 C-1.04949219 1.10183594 -0.53257813 0.55914062 0 0 Z " fill="#0D83B8" transform="translate(40,71)"/>
<path d="M0 0 C1.32 0.66 2.64 1.32 4 2 C2.35 3.65 0.7 5.3 -1 7 C-1.625 4.625 -1.625 4.625 -2 2 C-1.34 1.34 -0.68 0.68 0 0 Z " fill="#0F3041" transform="translate(37,69)"/>
<path d="M0 0 C0.66 0 1.32 0 2 0 C1.67 1.65 1.34 3.3 1 5 C1.66 5.33 2.32 5.66 3 6 C1.35 6.66 -0.3 7.32 -2 8 C-1.125 2.25 -1.125 2.25 0 0 Z " fill="#10100F" transform="translate(6,123)"/>
<path d="M0 0 C0.66 1.32 1.32 2.64 2 4 C2.99 4 3.98 4 5 4 C4.34 5.65 3.68 7.3 3 9 C2.34 8.67 1.68 8.34 1 8 C1.33 7.01 1.66 6.02 2 5 C1.34 5 0.68 5 0 5 C0 3.35 0 1.7 0 0 Z " fill="#353535" transform="translate(123,109)"/>
<path d="M0 0 C1.33332095 2.6666419 0.67102033 4.16680303 0 7 C-0.99 6.67 -1.98 6.34 -3 6 C-3.33 6.99 -3.66 7.98 -4 9 C-4.33 8.34 -4.66 7.68 -5 7 C-3.35 4.69 -1.7 2.38 0 0 Z " fill="#5A5954" transform="translate(12,108)"/>
<path d="M0 0 C0.33 1.32 0.66 2.64 1 4 C-1.97 6.475 -1.97 6.475 -5 9 C-4.67 7.35 -4.34 5.7 -4 4 C-3.34 4 -2.68 4 -2 4 C-1.34 2.68 -0.68 1.36 0 0 Z " fill="#0D0C0A" transform="translate(17,104)"/>
<path d="M0 0 C0.33 0.66 0.66 1.32 1 2 C1.66 2.33 2.32 2.66 3 3 C1.25 4.5625 1.25 4.5625 -1 6 C-3.25 5.6875 -3.25 5.6875 -5 5 C-3.35 3.35 -1.7 1.7 0 0 Z " fill="#0E3348" transform="translate(59,88)"/>
<path d="M0 0 C0.66 0.99 1.32 1.98 2 3 C-0.97 5.475 -0.97 5.475 -4 8 C-4 4.09161134 -2.49432124 2.88405893 0 0 Z " fill="#0A2331" transform="translate(27,82)"/>
<path d="M0 0 C1.36125 0.37125 1.36125 0.37125 2.75 0.75 C2.75 1.41 2.75 2.07 2.75 2.75 C2.028125 2.729375 1.30625 2.70875 0.5625 2.6875 C-2.16925138 2.74820559 -4.59256091 3.14258535 -7.25 3.75 C-4.05 -0.31153846 -4.05 -0.31153846 0 0 Z " fill="#706D70" transform="translate(29.25,75.25)"/>
<path d="M0 0 C0.1875 2.375 0.1875 2.375 0 5 C-0.99 5.66 -1.98 6.32 -3 7 C-3 6.34 -3 5.68 -3 5 C-3.66 5 -4.32 5 -5 5 C-5 4.34 -5 3.68 -5 3 C-1.42307692 0 -1.42307692 0 0 0 Z " fill="#1A2024" transform="translate(42,108)"/>
<path d="M0 0 C3.96 0 7.92 0 12 0 C12 0.66 12 1.32 12 2 C7.48281619 3.36884358 4.41225737 2.47075246 0 1 C0 0.67 0 0.34 0 0 Z " fill="#777777" transform="translate(168,74)"/>
<path d="M0 0 C3.96 0 7.92 0 12 0 C12 0.66 12 1.32 12 2 C7.48281619 3.36884358 4.41225737 2.47075246 0 1 C0 0.67 0 0.34 0 0 Z " fill="#757575" transform="translate(121,74)"/>
<path d="M0 0 C2.94887797 0.50842724 5.37371875 1.59306362 8 3 C5.10765685 3.82638376 3.11257569 4 0 4 C-0.33 3.01 -0.66 2.02 -1 1 C-0.67 0.67 -0.34 0.34 0 0 Z " fill="#1B2328" transform="translate(45,62)"/>
<path d="M0 0 C1.98 0 3.96 0 6 0 C6 0.66 6 1.32 6 2 C5.21625 2.309375 4.4325 2.61875 3.625 2.9375 C1.07669872 3.92875038 1.07669872 3.92875038 -1 5 C-0.67 3.35 -0.34 1.7 0 0 Z " fill="#098AC6" transform="translate(39,96)"/>
<path d="M0 0 C0.598125 0.61875 1.19625 1.2375 1.8125 1.875 C4.00811144 4.13676954 4.00811144 4.13676954 7 6 C6.01 6 5.02 6 4 6 C3.67 6.99 3.34 7.98 3 9 C0.70620251 5.55930376 0 4.27709699 0 0 Z " fill="#152731" transform="translate(21,92)"/>
<path d="M0 0 C2.72107452 2.3500189 3.96702492 4.55674975 5 8 C4.67 8.99 4.34 9.98 4 11 C0 4.5 0 4.5 0 0 Z " fill="#6E6E6E" transform="translate(94,108)"/>
<path d="M0 0 C2.86724686 0.57344937 3.8614515 0.8614515 6 3 C4.02 3.33 2.04 3.66 0 4 C-0.33 3.34 -0.66 2.68 -1 2 C-0.67 1.34 -0.34 0.68 0 0 Z " fill="#292929" transform="translate(167,84)"/>
<path d="M0 0 C0.66 0 1.32 0 2 0 C1.67 1.98 1.34 3.96 1 6 C0.67 5.01 0.34 4.02 0 3 C-0.99 3 -1.98 3 -3 3 C-3.33 3.99 -3.66 4.98 -4 6 C-4 4.35 -4 2.7 -4 1 C-2.68 1.33 -1.36 1.66 0 2 C0 1.34 0 0.68 0 0 Z " fill="#142029" transform="translate(32,76)"/>
</svg>
