<?xml version="1.0" encoding="UTF-8"?>
<svg version="1.1" xmlns="http://www.w3.org/2000/svg" width="200" height="200">
<path d="M0 0 C6.03883737 4.49442207 11.06763848 9.57714285 15 16 C15 16.66 15 17.32 15 18 C16.11375 17.896875 17.2275 17.79375 18.375 17.6875 C25.06614938 17.73478727 30.45561092 20.69308723 35.34375 25.125 C41.75116561 31.99672109 43.56830759 37.54048669 43.37109375 46.90234375 C42.40144185 54.99638542 38.16561174 60.50626112 32.0625 65.625 C25.25369314 70.16420458 16.8983059 70.12889827 9 69 C1.25371775 66.39811975 -3.37818675 61.15528959 -7 54 C-9.55492568 48.00147883 -9.45798179 42.28053695 -8 36 C-5.04843059 28.89172212 -0.66037209 23.84853057 6 20 C6.99 19.67 7.98 19.34 9 19 C1.32968772 18.86543312 -3.43803306 21.68438858 -9.68188477 25.76147461 C-13.0947625 27.97075336 -15.83988514 29.67271824 -20 30 C-25.2608756 28.79438267 -29.12367947 26.76864235 -32.19921875 22.23046875 C-35.73738121 15.5389966 -35.82036727 8.42146203 -35 1 C-28.64686614 -8.52970079 -8.65148982 -4.99329814 0 0 Z M-27 13 C-27 16.54361243 -26.65850044 18.86591591 -24.875 21.9375 C-21.81547541 23.6712306 -19.43182475 23.42145216 -16 23 C-13.41666667 21.58333333 -13.41666667 21.58333333 -12 19 C-11.43216055 15.02512383 -11.37659481 12.93510779 -13.625 9.5625 C-19.23139398 5.87408291 -23.34097005 7.78865431 -27 13 Z " fill="#44AA43" transform="translate(122,70)"/>
<path d="M0 0 C0.99 0.33 1.98 0.66 3 1 C2.60167969 1.46148437 2.20335937 1.92296875 1.79296875 2.3984375 C1.26316406 3.05070312 0.73335937 3.70296875 0.1875 4.375 C-0.33457031 5.00148438 -0.85664062 5.62796875 -1.39453125 6.2734375 C-5.64338884 13.48925891 -6.53388551 21.20071337 -6.4375 29.4375 C-6.42920166 30.35764893 -6.42090332 31.27779785 -6.41235352 32.22583008 C-6.24107239 39.113038 -5.41401637 44.91150197 -2 51 C-1.27103516 52.30130859 -1.27103516 52.30130859 -0.52734375 53.62890625 C7.24664285 65.96069114 21.02968093 72.40088542 34.8125 75.875 C36.53867109 76.26355598 38.26682271 76.64399602 40 77 C40 77.33 40 77.66 40 78 C29.54261235 78.09275265 19.08532285 78.1637918 8.62760735 78.20724869 C3.77144701 78.22810775 -1.08443152 78.2563947 -5.94042969 78.30175781 C-10.62831256 78.34527551 -15.31592468 78.36914976 -20.00399399 78.37950897 C-21.79095598 78.38688971 -23.57790344 78.40130271 -25.36474991 78.42292023 C-27.87125718 78.45203345 -30.37665115 78.45595277 -32.88330078 78.45410156 C-33.61913895 78.46848267 -34.35497711 78.48286377 -35.1131134 78.49768066 C-40.98038895 78.45091001 -44.42645995 76.44236446 -48.609375 72.47265625 C-52.88565057 67.18589091 -54.49915529 63.08405806 -54.30859375 56.3359375 C-53.42735551 49.66529865 -49.81374646 45.3264658 -44.78125 41.12890625 C-42.86156614 39.91226451 -41.22097948 39.42373951 -39 39 C-39.185625 37.2365625 -39.185625 37.2365625 -39.375 35.4375 C-39.39959071 30.83083994 -37.64735012 28.64490544 -34.60546875 25.34765625 C-31.11737911 22.41969779 -27.33763404 22.77170347 -23 23 C-20.77734375 24.01171875 -20.77734375 24.01171875 -19 25 C-18.85304687 24.443125 -18.70609375 23.88625 -18.5546875 23.3125 C-15.47228272 12.82523775 -8.96433405 5.9762227 0 0 Z " fill="#2288C6" transform="translate(89,61)"/>
<path d="M0 0 C6.03883737 4.49442207 11.06763848 9.57714285 15 16 C15 16.66 15 17.32 15 18 C14.09121094 18.03996094 13.18242187 18.07992187 12.24609375 18.12109375 C2.55897147 18.92587006 -3.72575411 21.60011893 -11.7578125 27.00390625 C-15.87155818 29.53658582 -18.29732853 30.39019555 -23 29.3125 C-28.85708834 26.75002385 -31.86744987 23.63524323 -34.27734375 17.78125 C-35.69996925 12.30606431 -35.61891401 6.59901275 -35 1 C-28.64686614 -8.52970079 -8.65148982 -4.99329814 0 0 Z M-27 13 C-27 16.54361243 -26.65850044 18.86591591 -24.875 21.9375 C-21.81547541 23.6712306 -19.43182475 23.42145216 -16 23 C-13.41666667 21.58333333 -13.41666667 21.58333333 -12 19 C-11.43216055 15.02512383 -11.37659481 12.93510779 -13.625 9.5625 C-19.23139398 5.87408291 -23.34097005 7.78865431 -27 13 Z " fill="#2080C1" transform="translate(122,70)"/>
<path d="M0 0 C3.92660732 0.81804319 5.44578533 2.62004157 8 5.625 C4.30458414 6.57524979 1.69541586 6.57524979 -2 5.625 C-2.67801034 8.52573181 -2.67801034 8.52573181 -3 11.625 C-1.16116119 13.91228734 -1.16116119 13.91228734 1.625 13.75 C2.40875 13.70875 3.1925 13.6675 4 13.625 C4 12.965 4 12.305 4 11.625 C3.01 11.625 2.02 11.625 1 11.625 C1 10.635 1 9.645 1 8.625 C3.64 8.625 6.28 8.625 9 8.625 C8.39067524 14.10892283 8.39067524 14.10892283 6.734375 16.296875 C3.97318295 18.41130134 1.53094218 18.10193168 -1.8359375 17.96484375 C-4 17.625 -4 17.625 -6.5625 16.125 C-8.5746689 12.62557583 -8.88254888 9.50054073 -8 5.625 C-5.56226471 2.18349135 -4.14182881 0.862881 0 0 Z " fill="#F5FAF4" transform="translate(129,104.375)"/>
<path d="M0 0 C3.63 0 7.26 0 11 0 C11 0.99 11 1.98 11 3 C9.68 3 8.36 3 7 3 C7 7.29 7 11.58 7 16 C5.68 16 4.36 16 3 16 C3 11.71 3 7.42 3 3 C2.01 3 1.02 3 0 3 C0 2.01 0 1.02 0 0 Z " fill="#FAFCFA" transform="translate(147,106)"/>
<path d="M0 0 C1.65 0 3.3 0 5 0 C5 5.28 5 10.56 5 16 C3.35 16 1.7 16 0 16 C0 10.72 0 5.44 0 0 Z " fill="#E0F1E1" transform="translate(140,106)"/>
<path d="M0 0 C3.82118677 0.54588382 7.36378667 1.73155349 11 3 C11 3.33 11 3.66 11 4 C8.36 4 5.72 4 3 4 C3 4.99 3 5.98 3 7 C3.99 7 4.98 7 6 7 C6 7.66 6 8.32 6 9 C3.6875 9.6875 3.6875 9.6875 1 10 C-0.875 8.9375 -0.875 8.9375 -2 7 C-1.56521739 1.56521739 -1.56521739 1.56521739 0 0 Z " fill="#63B74D" transform="translate(127,109)"/>
<path d="M0 0 C0.99 0.33 1.98 0.66 3 1 C-1.50379107 6.87994945 -1.50379107 6.87994945 -3.9375 7.46875 C-6.67649137 8.17424778 -7.82330695 9.52465159 -9.75 11.5625 C-10.36359375 12.20316406 -10.9771875 12.84382813 -11.609375 13.50390625 C-12.06828125 13.99761719 -12.5271875 14.49132812 -13 15 C-13.66 14.67 -14.32 14.34 -15 14 C-5.2173913 2.60869565 -5.2173913 2.60869565 0 0 Z " fill="#1F7BBA" transform="translate(89,61)"/>
<path d="M0 0 C-0.845625 0.515625 -1.69125 1.03125 -2.5625 1.5625 C-6.54229113 4.19353136 -9.72851673 7.55429572 -13 11 C-13 7.36561171 -11.77744211 6.09615237 -9.43359375 3.43359375 C-6.29342567 0.29342567 -4.338673 -1.44622433 0 0 Z " fill="#88C53E" transform="translate(131,91)"/>
<path d="M0 0 C0.99 0.33 1.98 0.66 3 1 C3.33 2.32 3.66 3.64 4 5 C0.7 5 -2.6 5 -6 5 C-6 4.67 -6 4.34 -6 4 C-4.02 3.67 -2.04 3.34 0 3 C0 2.01 0 1.02 0 0 Z " fill="#0E3F9E" transform="translate(133,83)"/>
<path d="M0 0 C0.99 0.33 1.98 0.66 3 1 C1.35830472 3.02054804 -0.30911778 5.02043058 -2 7 C-2.33 7 -2.66 7 -3 7 C-3.1875 4.625 -3.1875 4.625 -3 2 C-2.01 1.34 -1.02 0.68 0 0 Z " fill="#1A6CBC" transform="translate(89,61)"/>
<path d="M0 0 C2.96404505 2.80804268 5.44499019 5.18315774 7 9 C3.17475764 7.549046 1.80909034 5.61818068 0 2 C0 1.34 0 0.68 0 0 Z " fill="#229EDC" transform="translate(89,88)"/>
</svg>
