<?xml version="1.0" encoding="UTF-8"?>
<svg version="1.1" xmlns="http://www.w3.org/2000/svg" width="200" height="200">
<path d="M0 0 C3.63 0 7.26 0 11 0 C11 2.31 11 4.62 11 7 C11.83772949 6.98952637 12.67545898 6.97905273 13.53857422 6.96826172 C16.64338164 6.93419981 19.74809392 6.90911089 22.85302734 6.89013672 C24.8591136 6.87511893 26.86511324 6.84971019 28.87109375 6.82421875 C30.12792969 6.81777344 31.38476562 6.81132813 32.6796875 6.8046875 C33.84226074 6.79421387 35.00483398 6.78374023 36.20263672 6.77294922 C39 7 39 7 41 9 C41.125 12.125 41.125 12.125 41 15 C41.66 15 42.32 15 43 15 C43 12.36 43 9.72 43 7 C48.94 7 54.88 7 61 7 C61 9.97 61 12.94 61 16 C57.04 16.495 57.04 16.495 53 17 C53 22.28 53 27.56 53 33 C41.78 33 30.56 33 19 33 C19 32.34 19 31.68 19 31 C18.34 31 17.68 31 17 31 C17 31.66 17 32.32 17 33 C12.38 33 7.76 33 3 33 C3 32.34 3 31.68 3 31 C2.34 31 1.68 31 1 31 C-0.14077657 27.57767028 -0.09815117 24.91326783 -0.0625 21.3125 C-0.05347656 20.13300781 -0.04445313 18.95351562 -0.03515625 17.73828125 C-0.02355469 16.83464844 -0.01195313 15.93101563 0 15 C-2.64 15.33 -5.28 15.66 -8 16 C-7.67 16.99 -7.34 17.98 -7 19 C-4.98491642 19.73323796 -4.98491642 19.73323796 -3 20 C-2.94608007 21.79133978 -2.90724429 23.58313899 -2.875 25.375 C-2.85179688 26.37273437 -2.82859375 27.37046875 -2.8046875 28.3984375 C-3 31 -3 31 -5 33 C-7.24658203 33.22705078 -7.24658203 33.22705078 -10.0078125 33.1953125 C-10.99394531 33.18886719 -11.98007813 33.18242188 -12.99609375 33.17578125 C-14.02863281 33.15902344 -15.06117187 33.14226562 -16.125 33.125 C-17.16527344 33.11597656 -18.20554687 33.10695312 -19.27734375 33.09765625 C-21.85179092 33.07403747 -24.42578212 33.04110149 -27 33 C-27 30.36 -27 27.72 -27 25 C-25.02 24.67 -23.04 24.34 -21 24 C-21.99 23.67 -22.98 23.34 -24 23 C-26.10493912 21.36115454 -26.8956961 20.41796062 -27.546875 17.80859375 C-27.64742188 16.63490234 -27.64742188 16.63490234 -27.75 15.4375 C-27.82734375 14.65246094 -27.9046875 13.86742188 -27.984375 13.05859375 C-28 11 -28 11 -27 9 C-26.34 9 -25.68 9 -25 9 C-25 8.34 -25 7.68 -25 7 C-16.75 7 -8.5 7 0 7 C0 4.69 0 2.38 0 0 Z M17 13 C17 13.66 17 14.32 17 15 C15.02 15 13.04 15 11 15 C11 17.97 11 20.94 11 24 C12.65 24 14.3 24 16 24 C16 22.35 16 20.7 16 19 C16.99 19 17.98 19 19 19 C19 18.01 19 17.02 19 16 C20.32 15.67 21.64 15.34 23 15 C21.68 15 20.36 15 19 15 C19 14.34 19 13.68 19 13 C18.34 13 17.68 13 17 13 Z " fill="#535454" transform="translate(108,76)"/>
<path d="M0 0 C6.373125 -0.0309375 6.373125 -0.0309375 12.875 -0.0625 C14.2141748 -0.071604 15.55334961 -0.08070801 16.93310547 -0.09008789 C18.50922607 -0.09383423 18.50922607 -0.09383423 20.1171875 -0.09765625 C21.73536377 -0.10551147 21.73536377 -0.10551147 23.38623047 -0.11352539 C26 0 26 0 28 1 C28 1.99 28 2.98 28 4 C28.99 4 29.98 4 31 4 C33.22377264 8.44754528 32.31953162 14.4287609 32.375 19.3125 C32.43107422 21.1677832 32.43107422 21.1677832 32.48828125 23.06054688 C32.58732283 33.2453232 32.58732283 33.2453232 29.71484375 36.3359375 C26.28028989 38.44114605 23.95752427 38.38799258 20 38 C20 38.66 20 39.32 20 40 C20.66 40 21.32 40 22 40 C22 40.66 22 41.32 22 42 C23.98 42 25.96 42 28 42 C28 42.66 28 43.32 28 44 C29.32 44 30.64 44 32 44 C32 43.34 32 42.68 32 42 C33.32 42 34.64 42 36 42 C36 42.66 36 43.32 36 44 C37.32 44.33 38.64 44.66 40 45 C40 47.97 40 50.94 40 54 C38.68 54 37.36 54 36 54 C36 54.66 36 55.32 36 56 C34.35 56 32.7 56 31 56 C31 55.34 31 54.68 31 54 C30.01 54 29.02 54 28 54 C28 54.66 28 55.32 28 56 C26.02 56 24.04 56 22 56 C22 55.34 22 54.68 22 54 C21.34 54 20.68 54 20 54 C20 54.66 20 55.32 20 56 C19.34 56 18.68 56 18 56 C18 55.34 18 54.68 18 54 C17.01 54 16.02 54 15 54 C15 54.66 15 55.32 15 56 C14.01 56 13.02 56 12 56 C9.8480563 52.77208445 9.79913557 51.71599191 10 48 C9.34 48 8.68 48 8 48 C8 50.64 8 53.28 8 56 C4.7 56 1.4 56 -2 56 C-2 55.34 -2 54.68 -2 54 C-2.99 54 -3.98 54 -5 54 C-5 54.66 -5 55.32 -5 56 C-7.31 56 -9.62 56 -12 56 C-12 55.34 -12 54.68 -12 54 C-12.66 54 -13.32 54 -14 54 C-14 50.7 -14 47.4 -14 44 C-13.34 44 -12.68 44 -12 44 C-12 43.34 -12 42.68 -12 42 C-10.02 42 -8.04 42 -6 42 C-6 42.66 -6 43.32 -6 44 C-4.68 44 -3.36 44 -2 44 C-2 43.34 -2 42.68 -2 42 C2.29 42 6.58 42 11 42 C11.33 43.32 11.66 44.64 12 46 C12.66 46 13.32 46 14 46 C14 45.34 14 44.68 14 44 C14.66 44 15.32 44 16 44 C16 42.68 16 41.36 16 40 C11.38 40 6.76 40 2 40 C2 39.34 2 38.68 2 38 C1.34 38 0.68 38 0 38 C0 25.46 0 12.92 0 0 Z M12 9 C12 15.6 12 22.2 12 29 C14.31 29 16.62 29 19 29 C19.33 28.01 19.66 27.02 20 26 C20.66 26 21.32 26 22 26 C22 21.38 22 16.76 22 12 C21.34 12 20.68 12 20 12 C20 11.34 20 10.68 20 10 C17.47825081 8.5527864 17.47825081 8.5527864 12 9 Z M24 46 C24 47.98 24 49.96 24 52 C24.66 52 25.32 52 26 52 C26 50.02 26 48.04 26 46 C25.34 46 24.68 46 24 46 Z M0 50 C0 50.66 0 51.32 0 52 C0.66 52 1.32 52 2 52 C2 51.34 2 50.68 2 50 C1.34 50 0.68 50 0 50 Z M34 50 C35 52 35 52 35 52 Z " fill="#EA2329" transform="translate(45,71)"/>
<path d="M0 0 C1.98 0 3.96 0 6 0 C6 0.66 6 1.32 6 2 C7.98 2 9.96 2 12 2 C12 2.66 12 3.32 12 4 C13.32 4 14.64 4 16 4 C16 3.34 16 2.68 16 2 C17.32 2 18.64 2 20 2 C20 2.66 20 3.32 20 4 C21.32 4.33 22.64 4.66 24 5 C24 7.97 24 10.94 24 14 C22.68 14 21.36 14 20 14 C20 14.66 20 15.32 20 16 C18.35 16 16.7 16 15 16 C15 15.34 15 14.68 15 14 C14.01 14 13.02 14 12 14 C12 14.66 12 15.32 12 16 C10.02 16 8.04 16 6 16 C6 15.34 6 14.68 6 14 C5.34 14 4.68 14 4 14 C4 14.66 4 15.32 4 16 C3.34 16 2.68 16 2 16 C2 15.34 2 14.68 2 14 C1.01 14 0.02 14 -1 14 C-1 14.66 -1 15.32 -1 16 C-1.99 16 -2.98 16 -4 16 C-6.1519437 12.77208445 -6.20086443 11.71599191 -6 8 C-6.66 8 -7.32 8 -8 8 C-8 10.64 -8 13.28 -8 16 C-11.3 16 -14.6 16 -18 16 C-18 15.34 -18 14.68 -18 14 C-18.99 14 -19.98 14 -21 14 C-21 14.66 -21 15.32 -21 16 C-23.31 16 -25.62 16 -28 16 C-28 15.34 -28 14.68 -28 14 C-28.66 14 -29.32 14 -30 14 C-30 10.7 -30 7.4 -30 4 C-29.34 4 -28.68 4 -28 4 C-28 3.34 -28 2.68 -28 2 C-26.02 2 -24.04 2 -22 2 C-22 2.66 -22 3.32 -22 4 C-20.68 4 -19.36 4 -18 4 C-18 3.34 -18 2.68 -18 2 C-13.71 2 -9.42 2 -5 2 C-4.67 3.32 -4.34 4.64 -4 6 C-3.34 6 -2.68 6 -2 6 C-2 5.34 -2 4.68 -2 4 C-1.34 4 -0.68 4 0 4 C0 2.68 0 1.36 0 0 Z M8 6 C8 7.98 8 9.96 8 12 C8.66 12 9.32 12 10 12 C10 10.02 10 8.04 10 6 C9.34 6 8.68 6 8 6 Z M-16 10 C-16 10.66 -16 11.32 -16 12 C-15.34 12 -14.68 12 -14 12 C-14 11.34 -14 10.68 -14 10 C-14.66 10 -15.32 10 -16 10 Z M18 10 C19 12 19 12 19 12 Z " fill="#6C6E71" transform="translate(61,111)"/>
<path d="M0 0 C3.96 0 7.92 0 12 0 C12 0.66 12 1.32 12 2 C12.66 2 13.32 2 14 2 C14.495 2.99 14.495 2.99 15 4 C15.99 4.33 16.98 4.66 18 5 C18 4.01 18 3.02 18 2 C18.66 2 19.32 2 20 2 C20.05429959 3.74965358 20.09292823 5.49979787 20.125 7.25 C20.14820313 8.22453125 20.17140625 9.1990625 20.1953125 10.203125 C19.99480354 13.07441338 19.6810245 14.67242762 18 17 C14.375 17.75 14.375 17.75 11 18 C10.505 16.02 10.505 16.02 10 14 C9.34 14 8.68 14 8 14 C8 14.66 8 15.32 8 16 C0.74 16 -6.52 16 -14 16 C-14 15.34 -14 14.68 -14 14 C-14.66 14 -15.32 14 -16 14 C-16 15.32 -16 16.64 -16 18 C-17.32 18 -18.64 18 -20 18 C-20 17.34 -20 16.68 -20 16 C-21.65 16 -23.3 16 -25 16 C-25.33 14.68 -25.66 13.36 -26 12 C-26.66 12 -27.32 12 -28 12 C-28 10.02 -28 8.04 -28 6 C-27.34 6 -26.68 6 -26 6 C-26 5.34 -26 4.68 -26 4 C-25.34 4 -24.68 4 -24 4 C-24 3.34 -24 2.68 -24 2 C-22.68 2 -21.36 2 -20 2 C-20 2.66 -20 3.32 -20 4 C-19.34 4 -18.68 4 -18 4 C-18 3.34 -18 2.68 -18 2 C-17.34 2 -16.68 2 -16 2 C-16 2.66 -16 3.32 -16 4 C-15.01 4 -14.02 4 -13 4 C-13 5.98 -13 7.96 -13 10 C-12.01 10 -11.02 10 -10 10 C-10 8.02 -10 6.04 -10 4 C-8.68 4 -7.36 4 -6 4 C-6 3.34 -6 2.68 -6 2 C-4.02 2 -2.04 2 0 2 C0 1.34 0 0.68 0 0 Z M0 2 C0 2.66 0 3.32 0 4 C0.66 4 1.32 4 2 4 C2 3.34 2 2.68 2 2 C1.34 2 0.68 2 0 2 Z M-22 6 C-22 7.98 -22 9.96 -22 12 C-21.34 11.01 -20.68 10.02 -20 9 C-20.66 8.01 -21.32 7.02 -22 6 Z " fill="#6D6E71" transform="translate(149,111)"/>
<path d="M0 0 C3.96 0 7.92 0 12 0 C12 13.2 12 26.4 12 40 C8.37 40 4.74 40 1 40 C-0.63945963 36.72108075 -0.12030178 33.09386466 -0.09765625 29.4921875 C-0.0962413 28.65156769 -0.09482635 27.81094788 -0.09336853 26.94485474 C-0.08776237 24.25486725 -0.07520886 21.56496241 -0.0625 18.875 C-0.05748579 17.05338662 -0.05292275 15.23177193 -0.04882812 13.41015625 C-0.03779094 8.94007223 -0.0205222 4.47005014 0 0 Z " fill="#EA242A" transform="translate(31,71)"/>
<path d="M0 0 C4.29 0 8.58 0 13 0 C13 0.66 13 1.32 13 2 C13.99 2 14.98 2 16 2 C16 2.66 16 3.32 16 4 C16.99 4 17.98 4 19 4 C19 7.96 19 11.92 19 16 C17.68 16 16.36 16 15 16 C15 12.7 15 9.4 15 6 C14.34 6 13.68 6 13 6 C13.020625 7.27875 13.04125 8.5575 13.0625 9.875 C13.125 13.75 13.125 13.75 12 16 C10.35 16 8.7 16 7 16 C7 15.34 7 14.68 7 14 C6.34 14 5.68 14 5 14 C5 14.66 5 15.32 5 16 C2.03 16 -0.94 16 -4 16 C-4 15.34 -4 14.68 -4 14 C-4.99 14 -5.98 14 -7 14 C-7 14.66 -7 15.32 -7 16 C-7.66 16 -8.32 16 -9 16 C-9 15.34 -9 14.68 -9 14 C-9.66 14 -10.32 14 -11 14 C-12.59138085 9.82262526 -13.21278058 6.46839215 -13 2 C-12.34 2 -11.68 2 -11 2 C-11 2.66 -11 3.32 -11 4 C-8.36 4 -5.72 4 -3 4 C-3 4.66 -3 5.32 -3 6 C-2.34 6 -1.68 6 -1 6 C-0.67 4.02 -0.34 2.04 0 0 Z " fill="#6D6E71" transform="translate(100,111)"/>
</svg>
