<?xml version="1.0" encoding="UTF-8"?>
<svg version="1.1" xmlns="http://www.w3.org/2000/svg" width="200" height="200">
<path d="M0 0 C0.99 0 1.98 0 3 0 C3.23521219 4.46903157 3.3688737 7.7007675 1.375 11.75 C0.92125 12.8225 0.4675 13.895 0 15 C0.79117904 16.99983534 0.79117904 16.99983534 2 19 C2.34492417 24.34632462 1.82957515 27.94176282 0 33 C-0.103125 34.155 -0.20625 35.31 -0.3125 36.5 C-1.40265339 42.0498718 -4.95226639 45.165305 -9 49 C-8.401875 49.680625 -7.80375 50.36125 -7.1875 51.0625 C-3.00407889 56.68023692 -0.72667373 62.9585947 -1 70 C-1.98828125 72.26953125 -1.98828125 72.26953125 -3 74 C-6 73 -6 73 -7.09765625 71.07421875 C-7.41605469 70.28660156 -7.73445313 69.49898438 -8.0625 68.6875 C-9.28006215 65.72916626 -10.53502129 62.84531421 -12 60 C-12.66 60 -13.32 60 -14 60 C-14 59.34 -14 58.68 -14 58 C-16.64738916 56.5393715 -17.89448334 56 -21 56 C-21.66 56 -22.32 56 -23 56 C-23.268125 56.53625 -23.53625 57.0725 -23.8125 57.625 C-25 60 -25 60 -26.53125 62.5625 C-28.39197945 66.91739872 -28.55672419 70.68948947 -28.6875 75.375 C-28.72166016 76.20644531 -28.75582031 77.03789062 -28.79101562 77.89453125 C-28.87287146 79.92923351 -28.93812701 81.96459208 -29 84 C-30.89233398 83.65869141 -30.89233398 83.65869141 -33 83 C-36.19012542 78.29800108 -36.51275286 74.11299664 -36.4375 68.625 C-36.43137695 67.87130127 -36.42525391 67.11760254 -36.41894531 66.34106445 C-36.22404375 59.42880552 -34.89811638 54.74146144 -29.6875 49.8125 C-29.130625 49.214375 -28.57375 48.61625 -28 48 C-28.19601908 45.25573284 -28.77605246 43.44789508 -30 41 C-30.38848698 35.89546184 -30.79629025 30.47406439 -28 26 C-27.38898437 25.71253906 -26.77796875 25.42507812 -26.1484375 25.12890625 C-23.56753484 23.77275922 -22.22267375 22.17994105 -20.375 19.9375 C-17.19444444 16.09722222 -17.19444444 16.09722222 -15 15 C-14.67 14.01 -14.34 13.02 -14 12 C-15.175625 11.62875 -15.175625 11.62875 -16.375 11.25 C-19 10 -19 10 -20.3125 8.0625 C-21 6 -21 6 -21 3 C-18.06803463 3.62687901 -15.69753714 4.58073247 -13.0625 6 C-10.04934437 7.55445038 -7.39983381 8.57502077 -4 9 C-3.71125 8.2575 -3.4225 7.515 -3.125 6.75 C-2.17697356 4.43260203 -1.15154089 2.22082885 0 0 Z M-13.5625 22 C-15.08037109 22.8353125 -15.08037109 22.8353125 -16.62890625 23.6875 C-17.41136719 24.120625 -18.19382812 24.55375 -19 25 C-19 25.66 -19 26.32 -19 27 C-19.99 27.33 -20.98 27.66 -22 28 C-22.33 28.66 -22.66 29.32 -23 30 C-23.99 30 -24.98 30 -26 30 C-25.46760392 34.52536666 -23.72876727 37.38839627 -21 41 C-18.32673999 43.28810552 -18.32673999 43.28810552 -16.1328125 42.64453125 C-15.47023438 42.36996094 -14.80765625 42.09539062 -14.125 41.8125 C-13.46757812 41.55082031 -12.81015625 41.28914063 -12.1328125 41.01953125 C-11.42898437 40.68308594 -10.72515625 40.34664062 -10 40 C-9.11054687 39.59910156 -8.22109375 39.19820312 -7.3046875 38.78515625 C-4.72400823 37.15518024 -4.72400823 37.15518024 -4.1875 34.0390625 C-4.0946875 32.34910156 -4.0946875 32.34910156 -4 30.625 C-3.9175 29.50351563 -3.835 28.38203125 -3.75 27.2265625 C-4.02671302 23.65523505 -4.87001414 21.84353112 -7 19 C-9.22684337 19 -11.69221738 20.96811993 -13.5625 22 Z " fill="#076132" transform="translate(43,58)"/>
<path d="M0 0 C3.58875 -0.0928125 3.58875 -0.0928125 7.25 -0.1875 C8.37003418 -0.22846802 8.37003418 -0.22846802 9.51269531 -0.27026367 C12.53751363 -0.30809424 14.74826949 -0.12249563 17.48046875 1.20703125 C19 3 19 3 19.28515625 5.3046875 C19.21167969 6.15289062 19.13820312 7.00109375 19.0625 7.875 C18.85496898 12.35637295 19.62861109 14.18515698 22 18 C21.93428441 21.74578842 21.62256083 24.09431073 19.48828125 27.19921875 C15.82455722 29.85067366 12.64179199 29.43791083 8.25 29.25 C5.5275 29.1675 2.805 29.085 0 29 C0 19.43 0 9.86 0 0 Z M8 7 C8 7.99 8 8.98 8 10 C9.32 9.67 10.64 9.34 12 9 C11.67 8.34 11.34 7.68 11 7 C10.01 7 9.02 7 8 7 Z M8 18 C8 19.32 8 20.64 8 22 C9.65 22 11.3 22 13 22 C13.33 21.01 13.66 20.02 14 19 C11.03 18.505 11.03 18.505 8 18 Z " fill="#000000" transform="translate(147,102)"/>
<path d="M0 0 C1.134375 0.020625 2.26875 0.04125 3.4375 0.0625 C3.7675 2.3725 4.0975 4.6825 4.4375 7.0625 C4.76621094 6.5571875 5.09492187 6.051875 5.43359375 5.53125 C9.27245146 0.28793216 9.27245146 0.28793216 12.83984375 -0.40234375 C15.07594091 -0.37761598 17.22377681 -0.24742125 19.4375 0.0625 C18.90573005 4.20063705 16.65817834 6.33332318 13.875 9.3125 C13.04871094 10.20453125 12.22242187 11.0965625 11.37109375 12.015625 C10.73300781 12.69109375 10.09492187 13.3665625 9.4375 14.0625 C9.81261719 14.49820313 10.18773438 14.93390625 10.57421875 15.3828125 C11.64130055 16.62460542 12.70628773 17.86820035 13.76953125 19.11328125 C14.82348625 20.34495231 15.88271928 21.57214377 16.94921875 22.79296875 C20.4375 26.84097421 20.4375 26.84097421 20.4375 29.0625 C17.00854524 29.4894252 13.85120549 29.66701035 10.4375 29.0625 C7.88016598 27.06957759 6.15395338 24.79766149 4.4375 22.0625 C4.1075 24.3725 3.7775 26.6825 3.4375 29.0625 C1.10455225 29.10491723 -1.22952567 29.10342937 -3.5625 29.0625 C-5.36529191 27.25970809 -4.69286605 24.52202299 -4.6953125 22.09375 C-4.69660156 20.88332031 -4.69789062 19.67289063 -4.69921875 18.42578125 C-4.69535156 17.15089844 -4.69148438 15.87601563 -4.6875 14.5625 C-4.69136719 13.28761719 -4.69523437 12.01273438 -4.69921875 10.69921875 C-4.69792969 9.48878906 -4.69664063 8.27835938 -4.6953125 7.03125 C-4.69418457 5.91169922 -4.69305664 4.79214844 -4.69189453 3.63867188 C-4.4909154 -0.36270878 -4.1576059 0.07294045 0 0 Z " fill="#000000" transform="translate(66.5625,101.9375)"/>
<path d="M0 0 C2.64 0 5.28 0 8 0 C10.66666667 6.66666667 13.33333333 13.33333333 16 20 C16.37012207 20.84280518 16.74024414 21.68561035 17.12158203 22.55395508 C18 25 18 25 18 29 C15.36 29 12.72 29 10 29 C9.505 26.525 9.505 26.525 9 24 C7.54052295 24.06006078 6.08220728 24.1488689 4.625 24.25 C3.81289062 24.29640625 3.00078125 24.3428125 2.1640625 24.390625 C-0.18838927 24.7922092 -0.18838927 24.7922092 -1.2890625 27.046875 C-1.52367188 27.69140625 -1.75828125 28.3359375 -2 29 C-4.64 29 -7.28 29 -10 29 C-7.13078728 19.17512007 -4.24192706 9.33223954 0 0 Z M3 12 C3 13.32 3 14.64 3 16 C3.99 15.67 4.98 15.34 6 15 C5.67 14.01 5.34 13.02 5 12 C4.34 12 3.68 12 3 12 Z " fill="#000000" transform="translate(99,102)"/>
<path d="M0 0 C0.99 0 1.98 0 3 0 C3.28792938 5.56663461 3.22557511 9.2172507 0 14 C-2.3125 15.5625 -2.3125 15.5625 -5 17 C-5.969375 17.825 -6.93875 18.65 -7.9375 19.5 C-14.675 25 -14.675 25 -19 25 C-19 25.66 -19 26.32 -19 27 C-20.875 29.125 -20.875 29.125 -23 31 C-23.66 31 -24.32 31 -25 31 C-24.02193105 34.50474706 -23.12953659 36.84085504 -20.8125 39.6875 C-20.214375 40.450625 -19.61625 41.21375 -19 42 C-20 45 -20 45 -23 47 C-24.32 47 -25.64 47 -27 47 C-30.36592815 41.67061376 -30.58108207 37.10645891 -30 31 C-29.25 28 -29.25 28 -28 26 C-27.08347656 25.56880859 -27.08347656 25.56880859 -26.1484375 25.12890625 C-23.56753484 23.77275922 -22.22267375 22.17994105 -20.375 19.9375 C-17.19444444 16.09722222 -17.19444444 16.09722222 -15 15 C-14.67 14.01 -14.34 13.02 -14 12 C-14.78375 11.7525 -15.5675 11.505 -16.375 11.25 C-19 10 -19 10 -20.3125 8.0625 C-21 6 -21 6 -21 3 C-18.06803463 3.62687901 -15.69753714 4.58073247 -13.0625 6 C-10.04934437 7.55445038 -7.39983381 8.57502077 -4 9 C-3.71125 8.2575 -3.4225 7.515 -3.125 6.75 C-2.17697356 4.43260203 -1.15154089 2.22082885 0 0 Z " fill="#80B43D" transform="translate(43,58)"/>
<path d="M0 0 C5.61 0 11.22 0 17 0 C17 2.31 17 4.62 17 7 C16 8 16 8 14.15234375 8.09765625 C12.1015625 8.06510417 10.05078125 8.03255208 8 8 C8 8.99 8 9.98 8 11 C10.64 11 13.28 11 16 11 C16.04254356 12.99954746 16.04080783 15.00041636 16 17 C15 18 15 18 11.4375 18.0625 C10.303125 18.041875 9.16875 18.02125 8 18 C8 19.32 8 20.64 8 22 C10.97 22 13.94 22 17 22 C17 24.31 17 26.62 17 29 C11.39 29 5.78 29 0 29 C0 19.43 0 9.86 0 0 Z " fill="#000000" transform="translate(176,102)"/>
<path d="M0 0 C2.31 0 4.62 0 7 0 C7 7.26 7 14.52 7 22 C10.3 22 13.6 22 17 22 C17 24.31 17 26.62 17 29 C11.39 29 5.78 29 0 29 C0 19.43 0 9.86 0 0 Z " fill="#000000" transform="translate(123,102)"/>
<path d="M0 0 C4.94124881 2.80004099 7.07163524 7.91002927 8.875 13.0625 C9.90249172 18.0399394 10.51508853 21.54682735 7.875 26.0625 C4.875 25.0625 4.875 25.0625 3.77734375 23.13671875 C3.45894531 22.34910156 3.14054687 21.56148437 2.8125 20.75 C1.59493785 17.79166626 0.33997871 14.90781421 -1.125 12.0625 C-1.785 12.0625 -2.445 12.0625 -3.125 12.0625 C-3.125 11.4025 -3.125 10.7425 -3.125 10.0625 C-3.764375 9.815 -4.40375 9.5675 -5.0625 9.3125 C-7.125 8.0625 -7.125 8.0625 -7.875 5.9375 C-7.9575 5.31875 -8.04 4.7 -8.125 4.0625 C-2.81887755 0.08290816 -2.81887755 0.08290816 0 0 Z " fill="#7FB33C" transform="translate(32.125,105.9375)"/>
<path d="M0 0 C2.95360757 0.63433183 5.39025724 1.59951825 8.0625 3 C10.39883016 4.21973475 12.4830547 5.16101823 15 6 C14.375 7.875 14.375 7.875 13 10 C9.875 11.25 9.875 11.25 7 12 C7 11.01 7 10.02 7 9 C5.824375 8.62875 5.824375 8.62875 4.625 8.25 C2 7 2 7 0.6875 5.0625 C0 3 0 3 0 0 Z " fill="#075F31" transform="translate(22,61)"/>
<path d="M0 0 C2.5 0.125 2.5 0.125 3.5 1.125 C3.625 4.125 3.625 4.125 3.5 7.125 C2.5 8.125 2.5 8.125 0.0625 8.375 C-0.783125 8.2925 -1.62875 8.21 -2.5 8.125 C-4.5 5.125 -4.5 5.125 -4.1875 3 C-3.16882662 0.22179988 -3.0543102 0.15271551 0 0 Z " fill="#066333" transform="translate(26.5,89.875)"/>
<path d="M0 0 C1.65 0 3.3 0 5 0 C5.625 2.375 5.625 2.375 6 5 C5.34 5.66 4.68 6.32 4 7 C1.875 6.625 1.875 6.625 0 6 C-1.125 2.25 -1.125 2.25 0 0 Z " fill="#066032" transform="translate(33,59)"/>
</svg>
