<?xml version="1.0" encoding="UTF-8"?>
<svg version="1.1" xmlns="http://www.w3.org/2000/svg" width="300" height="99">
<path d="M0 0 C1.98 0 3.96 0 6 0 C6 1.65 6 3.3 6 5 C7.98 5 9.96 5 12 5 C12 6.98 12 8.96 12 11 C10.02 11 8.04 11 6 11 C6.495 15.455 6.495 15.455 7 20 C8.65 20.33 10.3 20.66 12 21 C12.185625 19.824375 12.185625 19.824375 12.375 18.625 C13 16 13 16 15 14 C17.8203125 13.3671875 17.8203125 13.3671875 21.125 12.875 C22.22070312 12.70742188 23.31640625 12.53984375 24.4453125 12.3671875 C25.28835937 12.24601562 26.13140625 12.12484375 27 12 C24.64632287 11.3121764 24.64632287 11.3121764 22 11 C21.01 11.66 20.02 12.32 19 13 C15.8125 13.125 15.8125 13.125 13 13 C13.2604696 9.78754157 13.57490372 8.3852435 16 6.1875 C20.08551359 4.57031754 23.65957197 4.40240484 28 5 C32.54054054 7.08108108 32.54054054 7.08108108 34 10 C34.07033769 11.87379605 34.0843022 13.75001102 34.0625 15.625 C34.05347656 16.62789062 34.04445313 17.63078125 34.03515625 18.6640625 C34.02355469 19.43492188 34.01195313 20.20578125 34 21 C34.66 21 35.32 21 36 21 C36 22.65 36 24.3 36 26 C34.700625 25.979375 33.40125 25.95875 32.0625 25.9375 C28.72278714 25.92172183 25.55445344 26.15293522 22.25 26.625 C18.5422652 27.10946012 16.44207363 26.5185619 13 25 C12.01 25.66 11.02 26.32 10 27 C8.02734375 27.08203125 8.02734375 27.08203125 5.9375 26.8125 C5.24527344 26.73644531 4.55304688 26.66039063 3.83984375 26.58203125 C2 26 2 26 0 23 C-0.1953125 20.08203125 -0.1953125 20.08203125 -0.125 16.8125 C-0.10695312 15.72582031 -0.08890625 14.63914062 -0.0703125 13.51953125 C-0.04710937 12.68808594 -0.02390625 11.85664062 0 11 C-1.65 11 -3.3 11 -5 11 C-5 15.95 -5 20.9 -5 26 C-6.98 26 -8.96 26 -11 26 C-11.33 20.06 -11.66 14.12 -12 8 C-13.24284249 10.14033909 -13.24284249 10.14033909 -13.125 13.4375 C-14 17 -14 17 -17.125 18.9375 C-20.76167201 20.17231203 -24.1693964 20.23452675 -28 20 C-26.08247047 20.06029967 -24.16582574 20.14916707 -22.25 20.25 C-21.18265625 20.29640625 -20.1153125 20.3428125 -19.015625 20.390625 C-15.43682719 21.11380176 -14.21653435 22.15017012 -12 25 C-11.3696677 28.15166152 -11.69694145 29.48047105 -13.3125 32.25 C-18.0528078 35.33671206 -23.72543604 35.59433622 -29.23828125 34.59375 C-31.125 33.9375 -31.125 33.9375 -34 32 C-34.9375 29.25 -34.9375 29.25 -35 26 C-35.04125 24.783125 -35.0825 23.56625 -35.125 22.3125 C-35 19 -35 19 -34 16 C-34.04125 14.845 -34.0825 13.69 -34.125 12.5 C-34 9 -34 9 -32.6875 7.125 C-28.73091202 4.48727468 -25.00915517 4.98909671 -20.47265625 5.16015625 C-17.82271521 4.9885171 -16.26584669 4.34058215 -14 3 C-13.01 3.66 -12.02 4.32 -11 5 C-8.25481679 5.24187651 -8.25481679 5.24187651 -5.3125 5.125 C-4.31863281 5.10695313 -3.32476562 5.08890625 -2.30078125 5.0703125 C-1.54152344 5.04710937 -0.78226563 5.02390625 0 5 C0 3.35 0 1.7 0 0 Z M-28 11 C-27.67 11.99 -27.34 12.98 -27 14 C-24.05610218 15.17755913 -23.10046087 15.03348696 -20 14 C-20.33 12.68 -20.66 11.36 -21 10 C-24.62885324 9.84850702 -24.62885324 9.84850702 -28 11 Z M20 18 C19.01 19.485 19.01 19.485 18 21 C21.34844914 22.05236973 22.59079889 22.20005388 25.8125 20.625 C26.8953125 19.820625 26.8953125 19.820625 28 19 C28 18.67 28 18.34 28 18 C26.72125 17.938125 25.4425 17.87625 24.125 17.8125 C23.40570313 17.77769531 22.68640625 17.74289063 21.9453125 17.70703125 C20.98238281 17.85205078 20.98238281 17.85205078 20 18 Z M-27 26 C-27.33 26.99 -27.66 27.98 -28 29 C-24.62182575 29.84454356 -22.32534757 30.10844919 -19 29 C-19 28.01 -19 27.02 -19 26 C-21.64 26 -24.28 26 -27 26 Z " fill="#4D426E" transform="translate(75,26)"/>
<path d="M0 0 C1.98 0 3.96 0 6 0 C6 1.65 6 3.3 6 5 C7.98 5 9.96 5 12 5 C12.495 6.485 12.495 6.485 13 8 C13.825 7.505 14.65 7.01 15.5 6.5 C19.58537287 4.74912591 22.62705617 4.21600609 27 5 C30.55289618 6.77644809 32.45489888 8.05199806 34.4375 11.5 C35 14 35 14 34 18 C28.72 18 23.44 18 18 18 C18 18.66 18 19.32 18 20 C19.47906892 20.02689216 20.95827483 20.04634621 22.4375 20.0625 C23.67306641 20.07990234 23.67306641 20.07990234 24.93359375 20.09765625 C26.99163938 20.23267348 26.99163938 20.23267348 28 19 C30.33297433 18.95907063 32.66705225 18.95758277 35 19 C33.60616572 22.56202095 32.78963757 24.56757942 29.375 26.4375 C23.66543293 27.38909451 18.9338816 27.2489652 14 24.0625 C11.08566507 21.05709211 10.87931719 19.44779645 10.9375 15.375 C10.94652344 14.55773438 10.95554688 13.74046875 10.96484375 12.8984375 C10.97644531 12.27195312 10.98804688 11.64546875 11 11 C9.35 11 7.7 11 6 11 C6 14.3 6 17.6 6 21 C7.65 21 9.3 21 11 21 C11 22.65 11 24.3 11 26 C7.8125 26.8125 7.8125 26.8125 4 27 C1.0625 25.25 1.0625 25.25 -1 22 C-1.40539783 18.29424801 -1.29248153 14.71126561 -1 11 C-2.32 11 -3.64 11 -5 11 C-5 15.95 -5 20.9 -5 26 C-6.98 26 -8.96 26 -11 26 C-11.04898438 25.24074219 -11.09796875 24.48148438 -11.1484375 23.69921875 C-11.22320312 22.70535156 -11.29796875 21.71148437 -11.375 20.6875 C-11.44460937 19.70136719 -11.51421875 18.71523438 -11.5859375 17.69921875 C-11.83865472 14.78471567 -11.83865472 14.78471567 -14 12 C-16.5 11.58333333 -16.5 11.58333333 -19 12 C-21.68092691 14.68092691 -21.38670257 16.39167363 -21.625 20.125 C-21.69976562 21.22070312 -21.77453125 22.31640625 -21.8515625 23.4453125 C-21.90054688 24.28835937 -21.94953125 25.13140625 -22 26 C-23.98 26 -25.96 26 -28 26 C-28 19.07 -28 12.14 -28 5 C-24.66666667 5 -21.33333333 5 -18 5 C-16.845 4.95875 -15.69 4.9175 -14.5 4.875 C-11.23687008 4.99154035 -9.63866825 5.17322967 -7 7 C-6.67 7.66 -6.34 8.32 -6 9 C-5.67 7.68 -5.34 6.36 -5 5 C-3.68 4.67 -2.36 4.34 -1 4 C-0.67 2.68 -0.34 1.36 0 0 Z M18 12 C18 12.33 18 12.66 18 13 C21.3 13 24.6 13 28 13 C27.67 12.34 27.34 11.68 27 11 C23.26793158 9.78959943 21.31957615 9.9098965 18 12 Z " fill="#4B416D" transform="translate(206,26)"/>
<path d="M0 0 C1.62890625 1.16796875 1.62890625 1.16796875 3.62890625 4.16796875 C3.62890625 5.48796875 3.62890625 6.80796875 3.62890625 8.16796875 C1.31890625 8.16796875 -0.99109375 8.16796875 -3.37109375 8.16796875 C-3.70109375 7.17796875 -4.03109375 6.18796875 -4.37109375 5.16796875 C-11.16524563 3.80099589 -11.16524563 3.80099589 -17.37109375 6.16796875 C-19.16959907 10.50073156 -19.73838035 13.65592298 -18.37109375 18.16796875 C-15.61061832 19.08812723 -13.73747106 19.3606412 -10.87109375 19.41796875 C-9.7109375 19.45664062 -9.7109375 19.45664062 -8.52734375 19.49609375 C-5.83966112 19.08709857 -5.2386462 18.05523151 -3.37109375 16.16796875 C-0.64601577 15.77718319 1.86012581 16.03179922 4.62890625 16.16796875 C4.71140625 15.26046875 4.79390625 14.35296875 4.87890625 13.41796875 C5.73263165 9.71849204 6.69543631 8.497489 9.62890625 6.16796875 C14.43755539 4.5650857 18.79962036 4.3956036 23.44140625 6.35546875 C25.97151059 8.45184092 27.27443663 10.17387801 28.62890625 13.16796875 C28.62890625 14.81796875 28.62890625 16.46796875 28.62890625 18.16796875 C23.01890625 18.16796875 17.40890625 18.16796875 11.62890625 18.16796875 C11.62890625 18.82796875 11.62890625 19.48796875 11.62890625 20.16796875 C13.10797517 20.19486091 14.58718108 20.21431496 16.06640625 20.23046875 C17.30197266 20.24787109 17.30197266 20.24787109 18.5625 20.265625 C20.62054563 20.40064223 20.62054563 20.40064223 21.62890625 19.16796875 C23.96188058 19.12703938 26.2959585 19.12555152 28.62890625 19.16796875 C27.7167161 22.9180838 26.91421124 23.99329222 23.56640625 26.04296875 C19.18394412 27.64407704 15.08676139 27.42017525 10.62890625 26.16796875 C7.80897908 24.34676579 6.12545147 23.16105919 4.62890625 20.16796875 C3.76265625 20.95171875 2.89640625 21.73546875 2.00390625 22.54296875 C-3.01258853 26.69009441 -7.90388462 27.7352678 -14.37109375 27.16796875 C-18.87017865 25.77170102 -22.58654039 24.0265399 -25.48046875 20.16796875 C-27.48782156 15.6602291 -27.27709251 10.93403264 -26.37109375 6.16796875 C-24.35800375 2.30843528 -21.71684305 0.00451562 -18.05859375 -2.26953125 C-11.28640495 -3.68696611 -6.145842 -3.24053487 0 0 Z M11.62890625 12.16796875 C11.62890625 12.49796875 11.62890625 12.82796875 11.62890625 13.16796875 C14.92890625 13.16796875 18.22890625 13.16796875 21.62890625 13.16796875 C21.29890625 12.50796875 20.96890625 11.84796875 20.62890625 11.16796875 C16.89683783 9.95756818 14.9484824 10.07786525 11.62890625 12.16796875 Z " fill="#4E4470" transform="translate(148.37109375,25.83203125)"/>
<path d="M0 0 C4.764375 -0.1546875 4.764375 -0.1546875 9.625 -0.3125 C11.1092749 -0.38078003 11.1092749 -0.38078003 12.62353516 -0.45043945 C17.00960771 -0.51915193 20.07195019 -0.46520527 23.5625 2.375 C27.56265219 6.6828562 28.43552374 10.09481729 28.24609375 16.01171875 C27.68613413 20.53583694 25.89773242 23.22570579 22.5 26.15625 C17.8671922 28.59674697 14.25673041 28.44937615 9.125 28.25 C4.608125 28.12625 4.608125 28.12625 0 28 C0 18.76 0 9.52 0 0 Z M6 6 C6 11.28 6 16.56 6 22 C13.35196396 22.78845479 13.35196396 22.78845479 19.6875 19.9375 C21.32225917 16.27875329 21.57702173 13.96702438 21 10 C19.84074462 7.33822159 19.84074462 7.33822159 17 6 C13.26598404 5.67226622 9.7630972 5.8208049 6 6 Z " fill="#3E3363" transform="translate(3,24)"/>
<path d="M0 0 C0.33 0 0.66 0 1 0 C1 1.65 1 3.3 1 5 C2.98 5 4.96 5 7 5 C7.33 5.99 7.66 6.98 8 8 C8.825 7.505 9.65 7.01 10.5 6.5 C14.58537287 4.74912591 17.62705617 4.21600609 22 5 C25.55289618 6.77644809 27.45489888 8.05199806 29.4375 11.5 C30 14 30 14 29 18 C23.72 18 18.44 18 13 18 C13 18.66 13 19.32 13 20 C14.47906892 20.02689216 15.95827483 20.04634621 17.4375 20.0625 C18.67306641 20.07990234 18.67306641 20.07990234 19.93359375 20.09765625 C21.99163938 20.23267348 21.99163938 20.23267348 23 19 C25.33297433 18.95907063 27.66705225 18.95758277 30 19 C28.60616572 22.56202095 27.78963757 24.56757942 24.375 26.4375 C18.66543293 27.38909451 13.9338816 27.2489652 9 24.0625 C6.08566507 21.05709211 5.87931719 19.44779645 5.9375 15.375 C5.95103516 14.14910156 5.95103516 14.14910156 5.96484375 12.8984375 C5.97644531 12.27195312 5.98804688 11.64546875 6 11 C4.35 11 2.7 11 1 11 C1 14.3 1 17.6 1 21 C0.67 21 0.34 21 0 21 C0 17.37 0 13.74 0 10 C1.98 10 3.96 10 6 10 C6 8.68 6 7.36 6 6 C4.02 6 2.04 6 0 6 C0 4.02 0 2.04 0 0 Z M13 12 C13 12.33 13 12.66 13 13 C16.3 13 19.6 13 23 13 C22.67 12.34 22.34 11.68 22 11 C18.26793158 9.78959943 16.31957615 9.9098965 13 12 Z " fill="#4F4470" transform="translate(211,26)"/>
<path d="M0 0 C4 0 8 0 12 0 C12.639375 -0.02320312 13.27875 -0.04640625 13.9375 -0.0703125 C14.618125 -0.08835937 15.29875 -0.10640625 16 -0.125 C17.0209375 -0.15980469 17.0209375 -0.15980469 18.0625 -0.1953125 C20 0 20 0 23 2 C23.33 1.34 23.66 0.68 24 0 C25.32 0 26.64 0 28 0 C28.33 2.97 28.66 5.94 29 9 C30.65 8.67 32.3 8.34 34 8 C34.33 5.36 34.66 2.72 35 0 C35.99 0 36.98 0 38 0 C38 4.29 38 8.58 38 13 C31.30569948 14.05699482 31.30569948 14.05699482 28 14 C25.375 12.0625 25.375 12.0625 24 10 C23.4740625 10.7115625 23.4740625 10.7115625 22.9375 11.4375 C20.04394157 13.77101487 17.6666057 13.87356532 14 14 C11.62366207 12.86349056 9.85558971 11.85558971 8 10 C7.95919217 8.00041636 7.95745644 5.99954746 8 4 C7.01 4.33 6.02 4.66 5 5 C4.67 7.64 4.34 10.28 4 13 C2.68 13 1.36 13 0 13 C0 8.71 0 4.42 0 0 Z M14 3 C13.34 3.66 12.68 4.32 12 5 C12.32041397 7.60280568 12.32041397 7.60280568 13 10 C14.98 10 16.96 10 19 10 C19.67958603 7.60280568 19.67958603 7.60280568 20 5 C19.34 4.34 18.68 3.68 18 3 C16.68 3 15.36 3 14 3 Z " fill="#8E7AE5" transform="translate(24,70)"/>
<path d="M0 0 C1.56039777 11.73632513 1.56039777 11.73632513 0 17 C-3.2279169 21.12772883 -8.21386412 23.18520555 -13 25 C-13.66 25 -14.32 25 -15 25 C-16.436639 12.42940877 -16.436639 12.42940877 -15 7 C-10.96919769 2.67470985 -5.98215595 0 0 0 Z " fill="#593AD9" transform="translate(278,10)"/>
<path d="M0 0 C1.98 0 3.96 0 6 0 C6 1.65 6 3.3 6 5 C7.98 5 9.96 5 12 5 C12 6.98 12 8.96 12 11 C10.02 11 8.04 11 6 11 C6 14.63 6 18.26 6 22 C7.65 22 9.3 22 11 22 C10.67 23.65 10.34 25.3 10 27 C2.125 26.125 2.125 26.125 1 25 C0.92686433 22.46950598 0.90752473 19.96695163 0.9375 17.4375 C0.94201172 16.72658203 0.94652344 16.01566406 0.95117188 15.28320312 C0.96299136 13.52209987 0.98092737 11.76103964 1 10 C-0.65 10 -2.3 10 -4 10 C-4 8.68 -4 7.36 -4 6 C-2.68 6 -1.36 6 0 6 C0 4.02 0 2.04 0 0 Z " fill="#3C3060" transform="translate(75,26)"/>
<path d="M0 0 C1.65 0 3.3 0 5 0 C5 1.98 5 3.96 5 6 C6.98 6 8.96 6 11 6 C11 7.32 11 8.64 11 10 C9.02 10 7.04 10 5 10 C5 13.63 5 17.26 5 21 C6.98 21 8.96 21 11 21 C11 22.65 11 24.3 11 26 C4.71085302 27.33039648 4.71085302 27.33039648 1.78125 25.96875 C-0.88003492 23.02732983 -0.39250447 20.69574673 -0.25 16.8125 C-0.21390625 15.54019531 -0.1778125 14.26789062 -0.140625 12.95703125 C-0.07101563 11.49330078 -0.07101563 11.49330078 0 10 C-1.65 10 -3.3 10 -5 10 C-5 8.35 -5 6.7 -5 5 C-3.68 4.67 -2.36 4.34 -1 4 C-0.67 2.68 -0.34 1.36 0 0 Z " fill="#392D5E" transform="translate(206,26)"/>
<path d="M0 0 C2.5625 1.3125 2.5625 1.3125 4 3 C4 3.99 4 4.98 4 6 C1.44249889 5.48849978 -1.05728899 4.98323249 -3.5625 4.25 C-6.05913764 3.77761716 -6.05913764 3.77761716 -8.3125 5.125 C-10.22786947 6.90483483 -10.22786947 6.90483483 -10.375 9.5625 C-10.21896136 12.17528109 -10.21896136 12.17528109 -8 14 C-4.5 14.41666667 -4.5 14.41666667 -1 14 C-0.34 13.01 0.32 12.02 1 11 C-0.98 11 -2.96 11 -5 11 C-5 10.01 -5 9.02 -5 8 C-2.03 8 0.94 8 4 8 C4 11.3 4 14.6 4 18 C2.10688117 18.25060425 0.21022961 18.47460633 -1.6875 18.6875 C-2.74324219 18.81511719 -3.79898437 18.94273438 -4.88671875 19.07421875 C-8.53439171 18.98726042 -10.12730879 18.19853951 -13 16 C-15.50055571 12.24916643 -15.21525559 10.47870148 -14.58984375 6.1640625 C-14 4 -14 4 -12 1.4375 C-7.91180246 -0.52142799 -4.45705646 -0.69849392 0 0 Z " fill="#785FE0" transform="translate(18,65)"/>
<path d="M0 0 C5 0 10 0 15 0 C15 2.31 15 4.62 15 7 C13.865625 7.12375 12.73125 7.2475 11.5625 7.375 C9.7990625 7.684375 9.7990625 7.684375 8 8 C6.71553081 10.56893838 6.67022856 12.76576337 6.4375 15.625 C6.31181641 17.12933594 6.31181641 17.12933594 6.18359375 18.6640625 C6.12300781 19.43492188 6.06242188 20.20578125 6 21 C4.02 21 2.04 21 0 21 C0 14.07 0 7.14 0 0 Z " fill="#463B69" transform="translate(242,31)"/>
<path d="M0 0 C1.98 0 3.96 0 6 0 C6 9.57 6 19.14 6 29 C4.02 29 2.04 29 0 29 C0 19.43 0 9.86 0 0 Z " fill="#3B2F60" transform="translate(112,23)"/>
<path d="M0 0 C11.625 -0.25 11.625 -0.25 15 2 C16 5.3125 16 5.3125 16 9 C14 12 14 12 11 14 C7.1875 13.8125 7.1875 13.8125 4 13 C4 14.65 4 16.3 4 18 C2.68 18 1.36 18 0 18 C0 12.06 0 6.12 0 0 Z M6 3 C5.34 3.66 4.68 4.32 4 5 C4.32041397 7.60280568 4.32041397 7.60280568 5 10 C6.98 10 8.96 10 11 10 C11.67958603 7.60280568 11.67958603 7.60280568 12 5 C11.34 4.34 10.68 3.68 10 3 C8.68 3 7.36 3 6 3 Z " fill="#9683E7" transform="translate(63,70)"/>
<path d="M0 0 C4.29 0 8.58 0 13 0 C11.68 0.33 10.36 0.66 9 1 C9 2.32 9 3.64 9 5 C10.65 5 12.3 5 14 5 C14 9.29 14 13.58 14 18 C13.67 18 13.34 18 13 18 C13 14.04 13 10.08 13 6 C11.35 6 9.7 6 8 6 C8 10.95 8 15.9 8 21 C6.02 21 4.04 21 2 21 C1.93941406 19.73542969 1.87882812 18.47085938 1.81640625 17.16796875 C1.73199096 15.50780129 1.64734345 13.84764563 1.5625 12.1875 C1.52318359 11.35412109 1.48386719 10.52074219 1.44335938 9.66210938 C1.40146484 8.85966797 1.35957031 8.05722656 1.31640625 7.23046875 C1.26141968 6.12288208 1.26141968 6.12288208 1.20532227 4.99291992 C1.05157859 2.792505 1.05157859 2.792505 0 0 Z " fill="#807898" transform="translate(62,31)"/>
<path d="M0 0 C2.31 0 4.62 0 7 0 C7 6.93 7 13.86 7 21 C4.69 21 2.38 21 0 21 C0 14.07 0 7.14 0 0 Z " fill="#5E547C" transform="translate(32,31)"/>
<path d="M0 0 C4.24640078 0.84928016 5.92519063 1.32343109 9.3125 3.5625 C10.00988281 4.01753906 10.70726562 4.47257813 11.42578125 4.94140625 C11.94527344 5.29074219 12.46476562 5.64007813 13 6 C11.56356879 9.65353155 9.94164969 10.93978166 6.5 12.75 C5.30890625 13.39195313 5.30890625 13.39195313 4.09375 14.046875 C2 15 2 15 0 15 C0 10.05 0 5.1 0 0 Z " fill="#8DC8D1" transform="translate(281,10)"/>
<path d="M0 0 C0 4.95 0 9.9 0 15 C-3.49397942 14.12650515 -5.68637013 13.19458184 -8.75 11.4375 C-9.54921875 10.98246094 -10.3484375 10.52742188 -11.171875 10.05859375 C-11.77515625 9.70925781 -12.3784375 9.35992187 -13 9 C-13 8.01 -13 7.02 -13 6 C-11.21118264 4.99491199 -9.41885304 3.99607264 -7.625 3 C-6.62726563 2.443125 -5.62953125 1.88625 -4.6015625 1.3125 C-2 0 -2 0 0 0 Z " fill="#64B4C2" transform="translate(296,20)"/>
<path d="M0 0 C4.24640078 0.84928016 5.92519063 1.32343109 9.3125 3.5625 C10.00988281 4.01753906 10.70726562 4.47257812 11.42578125 4.94140625 C11.94527344 5.29074219 12.46476562 5.64007813 13 6 C11.78604047 9.64187858 10.90993923 9.91745993 7.625 11.6875 C6.83351563 12.12449219 6.04203125 12.56148437 5.2265625 13.01171875 C3 14 3 14 0 14 C0 9.38 0 4.76 0 0 Z " fill="#5587C7" transform="translate(281,31)"/>
<path d="M0 0 C0 4.62 0 9.24 0 14 C-4.24640078 13.15071984 -5.92519063 12.67656891 -9.3125 10.4375 C-10.00988281 9.98246094 -10.70726562 9.52742188 -11.42578125 9.05859375 C-11.94527344 8.70925781 -12.46476562 8.35992187 -13 8 C-11.78604047 4.35812142 -10.90993923 4.08254007 -7.625 2.3125 C-6.83351563 1.87550781 -6.04203125 1.43851563 -5.2265625 0.98828125 C-3 0 -3 0 0 0 Z " fill="#9A6BE4" transform="translate(278,31)"/>
<path d="M0 0 C0.99 0 1.98 0 3 0 C3 4.29 3 8.58 3 13 C-6.625 14.25 -6.625 14.25 -10 12 C-10.29296875 9.3984375 -10.29296875 9.3984375 -10.1875 6.375 C-10.16042969 5.37210937 -10.13335937 4.36921875 -10.10546875 3.3359375 C-10.07066406 2.56507812 -10.03585938 1.79421875 -10 1 C-9.34 1 -8.68 1 -8 1 C-8 3.64 -8 6.28 -8 9 C-6.00045254 9.04254356 -3.99958364 9.04080783 -2 9 C-0.50256881 7.50256881 -0.66797307 6.01175761 -0.4375 3.9375 C-0.293125 2.638125 -0.14875 1.33875 0 0 Z " fill="#6448DC" transform="translate(59,70)"/>
<path d="M0 0 C1.32 0 2.64 0 4 0 C4 6.27 4 12.54 4 19 C2.68 19 1.36 19 0 19 C0 12.73 0 6.46 0 0 Z " fill="#26194F" transform="translate(65,32)"/>
<path d="M0 0 C2.64 0 5.28 0 8 0 C8 0.99 8 1.98 8 3 C7.01 3.66 6.02 4.32 5 5 C4.42251197 6.96361864 4.42251197 6.96361864 4.3125 9.125 C4.1578125 11.043125 4.1578125 11.043125 4 13 C2.68 13 1.36 13 0 13 C0 8.71 0 4.42 0 0 Z " fill="#7E67E2" transform="translate(24,70)"/>
<path d="M0 0 C0.99 0.33 1.98 0.66 3 1 C3.66 4.3 4.32 7.6 5 11 C4.01 11 3.02 11 2 11 C2 12.98 2 14.96 2 17 C1.34 17 0.68 17 0 17 C0 11.39 0 5.78 0 0 Z " fill="#5030D8" transform="translate(64,71)"/>
<path d="M0 0 C2.97 0 5.94 0 9 0 C9 3.3 9 6.6 9 10 C8.34 10 7.68 10 7 10 C7 9.34 7 8.68 7 8 C6.34 7.67 5.68 7.34 5 7 C5.33 5.68 5.66 4.36 6 3 C4.02 3 2.04 3 0 3 C0 2.01 0 1.02 0 0 Z " fill="#6245DB" transform="translate(13,73)"/>
<path d="M0 0 C1.98 0 3.96 0 6 0 C6.625 2.375 6.625 2.375 7 5 C6.34 5.66 5.68 6.32 5 7 C2.375 6.625 2.375 6.625 0 6 C-1.125 2.25 -1.125 2.25 0 0 Z " fill="#5C527A" transform="translate(64,23)"/>
<path d="M0 0 C2.5 0.125 2.5 0.125 3.5 1.125 C3.625 3.625 3.625 3.625 3.5 6.125 C2.5 7.125 2.5 7.125 0 7.25 C-2.5 7.125 -2.5 7.125 -3.5 6.125 C-3.625 3.625 -3.625 3.625 -3.5 1.125 C-2.5 0.125 -2.5 0.125 0 0 Z " fill="#584E77" transform="translate(35.5,22.875)"/>
<path d="M0 0 C0.33 0 0.66 0 1 0 C1 1.65 1 3.3 1 5 C3.31 5.33 5.62 5.66 8 6 C8 7.32 8 8.64 8 10 C1.25 9.25 1.25 9.25 -1 7 C-1.1875 3.9375 -1.1875 3.9375 -1 1 C-0.67 0.67 -0.34 0.34 0 0 Z " fill="#7359DF" transform="translate(34,74)"/>
<path d="M0 0 C1.45792884 -0.05399736 2.91642712 -0.09279177 4.375 -0.125 C5.18710937 -0.14820312 5.99921875 -0.17140625 6.8359375 -0.1953125 C9 0 9 0 11 2 C11 2.99 11 3.98 11 5 C6.91621717 4.25749403 2.98060777 3.17076699 -1 2 C-0.67 1.34 -0.34 0.68 0 0 Z " fill="#7259DF" transform="translate(11,66)"/>
<path d="M0 0 C0.33 0 0.66 0 1 0 C1 1.65 1 3.3 1 5 C2.98 5 4.96 5 7 5 C7.625 7.875 7.625 7.875 8 11 C7.34 11.66 6.68 12.32 6 13 C6 12.34 6 11.68 6 11 C4.35 11 2.7 11 1 11 C1 14.3 1 17.6 1 21 C0.67 21 0.34 21 0 21 C0 17.37 0 13.74 0 10 C1.98 10 3.96 10 6 10 C6 8.68 6 7.36 6 6 C4.02 6 2.04 6 0 6 C0 4.02 0 2.04 0 0 Z " fill="#BBB7C8" transform="translate(211,26)"/>
<path d="M0 0 C0.99 0.495 0.99 0.495 2 1 C2.66 0.67 3.32 0.34 4 0 C6.6723621 -0.13415472 9.32250488 -0.04318541 12 0 C12 0.33 12 0.66 12 1 C9.69 1.33 7.38 1.66 5 2 C5 2.99 5 3.98 5 5 C4 7.1875 4 7.1875 3 9 C2.67 7.68 2.34 6.36 2 5 C1.67 6.65 1.34 8.3 1 10 C0.67 10 0.34 10 0 10 C0 6.7 0 3.4 0 0 Z " fill="#A08FE9" transform="translate(32,70)"/>
<path d="M0 0 C1.21236328 0.02707031 1.21236328 0.02707031 2.44921875 0.0546875 C3.37154297 0.08949219 3.37154297 0.08949219 4.3125 0.125 C4.3125 0.455 4.3125 0.785 4.3125 1.125 C2.0025 1.455 -0.3075 1.785 -2.6875 2.125 C-2.3575 2.785 -2.0275 3.445 -1.6875 4.125 C-4 5.6875 -4 5.6875 -6.6875 7.125 C-7.6775 6.795 -8.6675 6.465 -9.6875 6.125 C-7.58496928 1.27300604 -5.24222142 -0.15194845 0 0 Z " fill="#937FE6" transform="translate(13.6875,64.875)"/>
<path d="M0 0 C0.66 0 1.32 0 2 0 C2.66 3.96 3.32 7.92 4 12 C2.68 11.67 1.36 11.34 0 11 C0 7.37 0 3.74 0 0 Z " fill="#5839D9" transform="translate(49,71)"/>
<path d="M0 0 C2.64 0.66 5.28 1.32 8 2 C8 2.66 8 3.32 8 4 C5.36 4.33 2.72 4.66 0 5 C0 3.35 0 1.7 0 0 Z " fill="#8F7BE6" transform="translate(52,79)"/>
<path d="M0 0 C0 0.66 0 1.32 0 2 C-2.31 1.67 -4.62 1.34 -7 1 C-7 2.65 -7 4.3 -7 6 C-7.33 6 -7.66 6 -8 6 C-8 4.02 -8 2.04 -8 0 C-4.71023192 -1.09658936 -3.28696233 -0.79953138 0 0 Z " fill="#866FE3" transform="translate(74,82)"/>
<path d="M0 0 C2.97 0 5.94 0 9 0 C9 0.99 9 1.98 9 3 C5.58900832 3 2.36911686 2.50854594 -1 2 C-0.67 1.34 -0.34 0.68 0 0 Z " fill="#7157DF" transform="translate(37,71)"/>
<path d="M0 0 C0.66 0.33 1.32 0.66 2 1 C0.68 2.32 -0.64 3.64 -2 5 C-0.68 5.66 0.64 6.32 2 7 C0.02 7 -1.96 7 -4 7 C-3.6875 4.625 -3.6875 4.625 -3 2 C-2.01 1.34 -1.02 0.68 0 0 Z " fill="#787091" transform="translate(92,32)"/>
<path d="M0 0 C0.66 0.99 1.32 1.98 2 3 C1.67 3.66 1.34 4.32 1 5 C0.01 5 -0.98 5 -2 5 C-2 4.34 -2 3.68 -2 3 C-3.98 3 -5.96 3 -8 3 C-8 2.67 -8 2.34 -8 2 C-6.865625 1.855625 -5.73125 1.71125 -4.5625 1.5625 C-1.19222799 1.38828522 -1.19222799 1.38828522 0 0 Z " fill="#9480E6" transform="translate(18,78)"/>
<path d="M0 0 C0.99 0.33 1.98 0.66 3 1 C2.67 2.32 2.34 3.64 2 5 C1.01 4.67 0.02 4.34 -1 4 C-0.67 2.68 -0.34 1.36 0 0 Z " fill="#937FE6" transform="translate(80,79)"/>
</svg>
