<?xml version="1.0" encoding="UTF-8"?>
<svg version="1.1" xmlns="http://www.w3.org/2000/svg" width="200" height="200">
<path d="M0 0 C2.31 0 4.62 0 7 0 C7 2.31 7 4.62 7 7 C8.093125 7.103125 9.18625 7.20625 10.3125 7.3125 C14.93509434 8.17433962 14.93509434 8.17433962 17 11 C17.99 12.485 17.99 12.485 19 14 C19.66 13.67 20.32 13.34 21 13 C20.505 12.54625 20.01 12.0925 19.5 11.625 C18 10 18 10 18 8 C20.42961179 6.7851941 22.16384116 6.76392733 24.875 6.6875 C25.73867187 6.65011719 26.60234375 6.61273438 27.4921875 6.57421875 C30.89863168 7.15257142 32.0022162 8.20586459 34 11 C34.390625 14.015625 34.390625 14.015625 34.25 17.25 C34.21390625 18.32765625 34.1778125 19.4053125 34.140625 20.515625 C34.09421875 21.33546875 34.0478125 22.1553125 34 23 C30.08729537 24.95635231 25.2758022 24.3696659 21 24 C17.8125 22.5 17.8125 22.5 16 21 C15.44570312 21.48984375 14.89140625 21.9796875 14.3203125 22.484375 C11.57190692 24.27962982 10.1194807 24.34685017 6.875 24.25 C6.00617188 24.23453125 5.13734375 24.2190625 4.2421875 24.203125 C2 24 2 24 0 23 C-0.60383547 19.34850439 -0.74506916 15.69649725 -1 12 C-3.64 17.94 -6.28 23.88 -9 30 C-11.31 30 -13.62 30 -16 30 C-15.89300781 29.41992188 -15.78601563 28.83984375 -15.67578125 28.2421875 C-14.84918137 22.85595601 -14.94337569 19.76833393 -18 15 C-18.185625 16.9490625 -18.185625 16.9490625 -18.375 18.9375 C-18.5859375 21.15234375 -18.5859375 21.15234375 -19 23 C-21.58753156 24.29376578 -23.54958985 24.16832397 -26.4375 24.1875 C-27.40558594 24.20167969 -28.37367187 24.21585938 -29.37109375 24.23046875 C-32 24 -32 24 -35 22 C-35.33 22.66 -35.66 23.32 -36 24 C-37.98 24 -39.96 24 -42 24 C-42.66 21.03 -43.32 18.06 -44 15 C-44.99 17.97 -45.98 20.94 -47 24 C-48.65 24 -50.3 24 -52 24 C-53.32 21.03 -54.64 18.06 -56 15 C-56.144375 16.299375 -56.28875 17.59875 -56.4375 18.9375 C-56.875 22.875 -56.875 22.875 -58 24 C-59.99958364 24.04080783 -62.00045254 24.04254356 -64 24 C-63.69003741 21.27052356 -63.37712025 18.54144015 -63.0625 15.8125 C-62.97548828 15.04357422 -62.88847656 14.27464844 -62.79882812 13.48242188 C-62.35035579 9.61227172 -61.8470999 5.80813376 -61 2 C-58.36 2 -55.72 2 -53 2 C-52.01 4.97 -51.02 7.94 -50 11 C-48.68 8.03 -47.36 5.06 -46 2 C-43.36 2 -40.72 2 -38 2 C-37.34 6.29 -36.68 10.58 -36 15 C-34.68 14.34 -33.36 13.68 -32 13 C-32.495 12.54625 -32.99 12.0925 -33.5 11.625 C-35 10 -35 10 -35 8 C-32.38322622 6.69161311 -30.41798478 6.90294492 -27.5 6.9375 C-26.03046875 6.95103516 -26.03046875 6.95103516 -24.53125 6.96484375 C-23.6959375 6.97644531 -22.860625 6.98804687 -22 7 C-21.34 7 -20.68 7 -20 7 C-17.66666667 7 -15.33333333 7 -13 7 C-12.01 9.64 -11.02 12.28 -10 15 C-9.01 12.36 -8.02 9.72 -7 7 C-4.69 7 -2.38 7 0 7 C0 4.69 0 2.38 0 0 Z M7 12 C7 14.31 7 16.62 7 19 C7.99 19 8.98 19 10 19 C11.00217064 15.41672247 11.00217064 15.41672247 10 12 C9.01 12 8.02 12 7 12 Z M-29 17 C-28.67 17.99 -28.34 18.98 -28 20 C-27.01 20 -26.02 20 -25 20 C-25 19.01 -25 18.02 -25 17 C-26.32 17 -27.64 17 -29 17 Z M24 17 C23.67 17.66 23.34 18.32 23 19 C24.32 19.33 25.64 19.66 27 20 C27 19.01 27 18.02 27 17 C26.01 17 25.02 17 24 17 Z " fill="#000000" transform="translate(112,75)"/>
<path d="M0 0 C5.00867283 2.41489583 8.71573549 5.75454339 10.79296875 11.00390625 C12.50281734 16.96246952 11.8504367 21.51264246 9 27 C5.63046724 31.30551408 2.23973661 33.45384821 -3 35 C-9.31889044 35.25074962 -14.15011478 34.27251793 -19 30 C-22.61375652 25.70255981 -24.23535031 21.61770956 -24 16 C-22.98238063 9.6907599 -20.64717214 5.98490746 -15.62109375 2.09375 C-10.90018295 -1.09144283 -5.50748303 -0.51902981 0 0 Z M-17.8125 7.625 C-20.70458908 11.41851944 -21.39820805 15.2931809 -21 20 C-19.72904841 24.44833056 -17.71163351 27.3222538 -14.375 30.5 C-9.82972293 32.52012314 -5.89665366 32.34837852 -1 32 C-1.66 30.68 -2.32 29.36 -3 28 C-3.99 28 -4.98 28 -6 28 C-6.33 27.34 -6.66 26.68 -7 26 C-7 26.66 -7 27.32 -7 28 C-9.4375 27.1875 -9.4375 27.1875 -12 26 C-12.33 25.01 -12.66 24.02 -13 23 C-14.32467746 22.3162955 -15.65863633 21.65035814 -17 21 C-19 18 -19 18 -18.9375 16.1875 C-17.19804096 12.12876225 -14.48185564 8.88110335 -10.6875 6.625 C-10.130625 6.41875 -9.57375 6.2125 -9 6 C-9 5.34 -9 4.68 -9 4 C-8.01 4.33 -7.02 4.66 -6 5 C-6 4.01 -6 3.02 -6 2 C-11.08894858 2 -14.15798177 4.21411632 -17.8125 7.625 Z M0 4 C0 4.66 0 5.32 0 6 C1.32 6.33 2.64 6.66 4 7 C3.34 6.01 2.68 5.02 2 4 C1.34 4 0.68 4 0 4 Z M-5 8 C-4 10 -4 10 -4 10 Z M5 8 C5 11.3 5 14.6 5 18 C5.33 18 5.66 18 6 18 C6.33 15.03 6.66 12.06 7 9 C6.34 8.67 5.68 8.34 5 8 Z M-13 11 C-13.33 11.66 -13.66 12.32 -14 13 C-13.34 13 -12.68 13 -12 13 C-12.33 12.34 -12.66 11.68 -13 11 Z M7 11 C8 13 8 13 8 13 Z M-5 12 C-5 15 -5 15 -5 15 Z M-1 12 C-1.33 14.31 -1.66 16.62 -2 19 C-1.01 18.67 -0.02 18.34 1 18 C0.67 16.02 0.34 14.04 0 12 C-0.33 12 -0.66 12 -1 12 Z M-16 13 C-16.33 13.66 -16.66 14.32 -17 15 C-16.01 14.67 -15.02 14.34 -14 14 C-14.66 13.67 -15.32 13.34 -16 13 Z M8 14 C8 15.98 8 17.96 8 20 C8.33 20 8.66 20 9 20 C9 18.02 9 16.04 9 14 C8.67 14 8.34 14 8 14 Z M-12 20 C-12 20.99 -12 21.98 -12 23 C-11.34 22.01 -10.68 21.02 -10 20 C-10.66 20 -11.32 20 -12 20 Z M-6 20 C-6 20.66 -6 21.32 -6 22 C-5.01 21.67 -4.02 21.34 -3 21 C-3.99 20.67 -4.98 20.34 -6 20 Z M-1 21 C-1 24 -1 24 -1 24 Z M7 21 C8 23 8 23 8 23 Z M-6 24 C-5.67 24.66 -5.34 25.32 -5 26 C-4.67 25.34 -4.34 24.68 -4 24 C-4.66 24 -5.32 24 -6 24 Z " fill="#000000" transform="translate(33,71)"/>
<path d="M0 0 C1.98 0 3.96 0 6 0 C6.33 3.63 6.66 7.26 7 11 C7.99 9.68 8.98 8.36 10 7 C12.76142303 6.47200324 15.16365545 6.81401019 18 7 C17.319375 7.9075 16.63875 8.815 15.9375 9.75 C13.80002584 12.6739974 13.80002584 12.6739974 14.0625 15.125 C15.14654163 17.29308326 16.52776148 19.07968888 18 21 C18 21.66 18 22.32 18 23 C14.75 23.3125 14.75 23.3125 11 23 C8.5625 20.5 8.5625 20.5 7 18 C6.67 19.65 6.34 21.3 6 23 C4.02 23 2.04 23 0 23 C0 15.41 0 7.82 0 0 Z " fill="#000000" transform="translate(165,76)"/>
<path d="M0 0 C0.95648438 -0.03738281 1.91296875 -0.07476562 2.8984375 -0.11328125 C5.625 0.3125 5.625 0.3125 7.9609375 1.91015625 C10.18164103 5.11610148 10.02944649 7.20133775 9.875 11.0625 C9.83890625 12.23296875 9.8028125 13.4034375 9.765625 14.609375 C9.69601563 15.94742188 9.69601563 15.94742188 9.625 17.3125 C7.315 17.3125 5.005 17.3125 2.625 17.3125 C2.625 13.3525 2.625 9.3925 2.625 5.3125 C1.635 5.3125 0.645 5.3125 -0.375 5.3125 C-0.36339844 6.09496094 -0.35179687 6.87742187 -0.33984375 7.68359375 C-0.33082031 8.69550781 -0.32179687 9.70742187 -0.3125 10.75 C-0.30089844 11.75933594 -0.28929687 12.76867187 -0.27734375 13.80859375 C-0.375 16.3125 -0.375 16.3125 -1.375 17.3125 C-3.355 17.3125 -5.335 17.3125 -7.375 17.3125 C-7.375 12.0325 -7.375 6.7525 -7.375 1.3125 C-4.81683084 0.03341542 -2.85652006 0.07275319 0 0 Z " fill="#000000" transform="translate(154.375,81.6875)"/>
<path d="M0 0 C2.97 0 5.94 0 9 0 C9.33 0.66 9.66 1.32 10 2 C10.66 1.34 11.32 0.68 12 0 C15.5 -0.125 15.5 -0.125 19 0 C20.6876286 0 22.37522274 -0.02806577 24.0625 -0.0625 C27 0 27 0 28 1 C28.04063832 2.66617115 28.042721 4.33388095 28 6 C27.01 6.495 27.01 6.495 26 7 C26.66 7.33 27.32 7.66 28 8 C27.67 8.99 27.34 9.98 27 11 C24 11 21 11 18 11 C16.7315625 11.061875 16.7315625 11.061875 15.4375 11.125 C13 11 13 11 11 9 C10.67 9.66 10.34 10.32 10 11 C8.68 11 7.36 11 6 11 C6 8.36 6 5.72 6 3 C5.34 3 4.68 3 4 3 C4 5.64 4 8.28 4 11 C2.68 11 1.36 11 0 11 C0 7.37 0 3.74 0 0 Z M14 3 C14.33 4.65 14.66 6.3 15 8 C16.32 8 17.64 8 19 8 C19 6.02 19 4.04 19 2 C17.27917076 2 15.65771414 2.5722028 14 3 Z " fill="#000000" transform="translate(81,110)"/>
<path d="M0 0 C0 5.28 0 10.56 0 16 C-0.99 16 -1.98 16 -3 16 C-3 12.37 -3 8.74 -3 5 C-4.98 5 -6.96 5 -9 5 C-9 5.66 -9 6.32 -9 7 C-7.68 7 -6.36 7 -5 7 C-5 7.99 -5 8.98 -5 10 C-6.32 10 -7.64 10 -9 10 C-9 11.98 -9 13.96 -9 16 C-10.32 16 -11.64 16 -13 16 C-13 11.05 -13 6.1 -13 1 C-3.375 0 -3.375 0 0 0 Z " fill="#000000" transform="translate(60,105)"/>
<path d="M0 0 C6.15234375 -0.09765625 6.15234375 -0.09765625 8 0 C9 1 9 1 9.09765625 3.28515625 C9.08605469 4.20167969 9.07445313 5.11820312 9.0625 6.0625 C9.05347656 6.98160156 9.04445313 7.90070313 9.03515625 8.84765625 C9.02355469 9.55792969 9.01195313 10.26820312 9 11 C7.68 11 6.36 11 5 11 C4.67 8.69 4.34 6.38 4 4 C3.67 6.31 3.34 8.62 3 11 C2.01 11 1.02 11 0 11 C0 7.37 0 3.74 0 0 Z " fill="#000000" transform="translate(62,110)"/>
<path d="M0 0 C1.99954746 -0.04254356 4.00041636 -0.04080783 6 0 C7 1 7 1 7.09765625 3.28515625 C7.08605469 4.20167969 7.07445313 5.11820312 7.0625 6.0625 C7.05347656 6.98160156 7.04445313 7.90070313 7.03515625 8.84765625 C7.02355469 9.55792969 7.01195313 10.26820312 7 11 C4.66705225 11.04241723 2.33297433 11.04092937 0 11 C-1 10 -1 10 -1.125 7.75 C-1.00294277 5.06474086 -0.59803839 2.61641797 0 0 Z " fill="#000000" transform="translate(73,110)"/>
</svg>
