<?xml version="1.0" encoding="UTF-8"?>
<svg version="1.1" xmlns="http://www.w3.org/2000/svg" width="200" height="200">
<path d="M0 0 C7.24539726 -0.53449652 11.72912263 0.28392452 18 4 C18 4.66 18 5.32 18 6 C18.598125 6.2475 19.19625 6.495 19.8125 6.75 C22.31626919 8.18072525 23.48072388 9.5691582 25 12 C25 12.66 25 13.32 25 14 C24.34 14 23.68 14 23 14 C23 15.65 23 17.3 23 19 C24.32 18.67 25.64 18.34 27 18 C29.20808081 23.19548425 28.93402724 26.58264203 28 32 C27.401875 31.814375 26.80375 31.62875 26.1875 31.4375 C23.83591238 30.77906313 23.83591238 30.77906313 21 32 C21.495 34.475 21.495 34.475 22 37 C22.99 37.33 23.98 37.66 25 38 C25 38.99 25 39.98 25 41 C24.34 41 23.68 41 23 41 C22.6596875 41.928125 22.6596875 41.928125 22.3125 42.875 C20.61044153 45.63071371 18.97290314 45.88516132 16 47 C15.34 47.99 14.68 48.98 14 50 C10.38132441 51.2062252 7.07493749 51.10816918 3.3125 51.0625 C2.2596582 51.05573242 2.2596582 51.05573242 1.18554688 51.04882812 C-0.54300538 51.03706927 -2.27151365 51.01913454 -4 51 C-4 50.34 -4 49.68 -4 49 C-5.09441406 49.34417969 -5.09441406 49.34417969 -6.2109375 49.6953125 C-9 50 -9 50 -11.3515625 48.7421875 C-19.60835509 41.96083551 -19.60835509 41.96083551 -21 38 C-20.1875 35.6875 -20.1875 35.6875 -19 34 C-16.625 33.8125 -16.625 33.8125 -14 34 C-13.34 34.99 -12.68 35.98 -12 37 C-9.43717258 37.72965366 -9.43717258 37.72965366 -7 38 C-7.061875 36.906875 -7.12375 35.81375 -7.1875 34.6875 C-7 31 -7 31 -5.8125 29.125 C-3.58163509 27.74032523 -1.57674415 27.40685434 1 27 C1.33 26.67 1.66 26.34 2 26 C4.3125 25.6875 4.3125 25.6875 7 26 C9.3125 28 9.3125 28 11 30 C11.99 29.67 12.98 29.34 14 29 C13.505 26.03 13.505 26.03 13 23 C12.484375 23.33 11.96875 23.66 11.4375 24 C8.13775866 25.35374004 5.52986508 25.32683936 2 25 C1.34 24.01 0.68 23.02 0 22 C-0.99 21.67 -1.98 21.34 -3 21 C-4.26264601 16.70700357 -3.62950412 14.12168689 -2 10 C-4.31 10 -6.62 10 -9 10 C-9.79953138 6.71303767 -10.09658936 5.28976808 -9 2 C-6.9375 1.3125 -6.9375 1.3125 -5 1 C-5 1.99 -5 2.98 -5 4 C-3.68 4 -2.36 4 -1 4 C-0.67 2.68 -0.34 1.36 0 0 Z M8 3 C7.67 3.99 7.34 4.98 7 6 C9.475 6.495 9.475 6.495 12 7 C11.67 5.68 11.34 4.36 11 3 C10.01 3 9.02 3 8 3 Z M0 6 C-0.33 7.32 -0.66 8.64 -1 10 C0.32 10.33 1.64 10.66 3 11 C3.66 9.68 4.32 8.36 5 7 C3.35 6.67 1.7 6.34 0 6 Z M13 8 C13 8.99 13 9.98 13 11 C13.99 10.67 14.98 10.34 16 10 C16 9.34 16 8.68 16 8 C15.01 8 14.02 8 13 8 Z M16 14 C14.70366379 15.06645115 14.70366379 15.06645115 14.9375 17.5625 C14.958125 18.366875 14.97875 19.17125 15 20 C16.32 19.67 17.64 19.34 19 19 C19 18.34 19 17.68 19 17 C19.66 16.67 20.32 16.34 21 16 C18.525 15.01 18.525 15.01 16 14 Z M20 20 C19.67 20.99 19.34 21.98 19 23 C20.32 23 21.64 23 23 23 C23 22.01 23 21.02 23 20 C22.01 20 21.02 20 20 20 Z M22 25 C23 29 23 29 23 29 Z M12 31 C11.32326553 34.40320934 11.32326553 34.40320934 11 38 C11.66 38.66 12.32 39.32 13 40 C14.32 38.68 15.64 37.36 17 36 C15.68 35.67 14.36 35.34 13 35 C12.67 33.68 12.34 32.36 12 31 Z M-5 42 C-4.67 43.98 -4.34 45.96 -4 48 C-2.02 47.67 -0.04 47.34 2 47 C2 46.34 2 45.68 2 45 C2.66 44.67 3.32 44.34 4 44 C2.71034824 42.62437146 1.37310707 41.29233607 0 40 C-2.32357511 39.81509993 -2.32357511 39.81509993 -5 42 Z M8.9375 42 C8.298125 42.66 7.65875 43.32 7 44 C7.66 44.66 8.32 45.32 9 46 C10.32 46 11.64 46 13 46 C12.67 44.02 12.34 42.04 12 40 C10.64082319 39.88397569 10.64082319 39.88397569 8.9375 42 Z " fill="#7ABB50" transform="translate(54,75)"/>
<path d="M0 0 C9 0 9 0 11.5625 2.5 C12.036875 3.325 12.51125 4.15 13 5 C13.33 3.35 13.66 1.7 14 0 C17.96 0 21.92 0 26 0 C26 8.58 26 17.16 26 26 C20.96546751 27.0069065 19.5197885 26.90835515 15 25 C14.34 24.34 13.68 23.68 13 23 C13 23.99 13 24.98 13 26 C8.71 26 4.42 26 0 26 C0 17.42 0 8.84 0 0 Z " fill="#7CBE52" transform="translate(118,84)"/>
<path d="M0 0 C3.77356732 2.20468813 6.33084041 4.95491955 8 9 C8.76018385 12.95441791 8.84385478 16.50420391 6.83203125 20.0703125 C4.06077226 23.47561274 1.42606069 26.15694082 -3 27 C-9.52026832 26.89650368 -12.45291132 25.6553527 -17 21 C-19.30584081 17.96048256 -19.41881923 14.80578061 -19.3203125 11.02734375 C-18.6464408 6.76222897 -16.08355978 3.9522192 -12.9375 1.1875 C-8.66365159 -1.43195548 -4.70857079 -1.30843082 0 0 Z M-6 10 C-6.33 11.32 -6.66 12.64 -7 14 C-5.68 13.67 -4.36 13.34 -3 13 C-3.99 12.01 -4.98 11.02 -6 10 Z " fill="#7DBF53" transform="translate(107,84)"/>
<path d="M0 0 C7.26 0 14.52 0 22 0 C22 2.31 22 4.62 22 7 C17.545 7.495 17.545 7.495 13 8 C15.97 8.495 15.97 8.495 19 9 C19 11.64 19 14.28 19 17 C19.99 17.33 20.98 17.66 22 18 C22 20.64 22 23.28 22 26 C14.74 26 7.48 26 0 26 C0 17.42 0 8.84 0 0 Z " fill="#7FBF55" transform="translate(148,84)"/>
<path d="M0 0 C1.4540625 0.0309375 1.4540625 0.0309375 2.9375 0.0625 C4.05591368 2.15020553 4.9083176 3.91658801 5.375 6.25 C5.560625 6.848125 5.74625 7.44625 5.9375 8.0625 C6.9275 8.3925 7.9175 8.7225 8.9375 9.0625 C10.09866579 13.32010791 9.83157005 16.75470795 8.9375 21.0625 C6.40550028 23.59449972 4.39190665 24.18196497 0.9375 25.0625 C-3.00918116 24.77371845 -6.16785006 23.79174137 -9.0625 21.0625 C-10.83464646 13.548599 -7.95098079 7.37331309 -4.0625 1.0625 C-3.0625 0.0625 -3.0625 0.0625 0 0 Z " fill="#78BB4D" transform="translate(40.0625,82.9375)"/>
<path d="M0 0 C5.15107171 -0.09001873 9.95139593 -0.12191202 15 1 C19.0187391 1.16801733 19.0187391 1.16801733 22.9375 0.4375 C27.23921397 -0.47498478 31.81920283 0.82937679 36 2 C36 3.65 36 5.3 36 7 C31.03377651 7.02465098 26.06758834 7.04283649 21.10131836 7.05493164 C19.41055684 7.0599719 17.71979971 7.06680405 16.02905273 7.07543945 C13.60399293 7.08751857 11.17899056 7.09323123 8.75390625 7.09765625 C7.61327477 7.10539818 7.61327477 7.10539818 6.44960022 7.11329651 C4.6326743 7.11349238 2.81586873 7.06197277 1 7 C0 6 0 6 -0.0625 2.9375 C-0.041875 1.968125 -0.02125 0.99875 0 0 Z " fill="#B7D699" transform="translate(134,112)"/>
<path d="M0 0 C0.60328125 0.08378906 1.2065625 0.16757813 1.828125 0.25390625 C3.02695313 0.40666016 3.02695313 0.40666016 4.25 0.5625 C5.03890625 0.66691406 5.8278125 0.77132812 6.640625 0.87890625 C9.02124465 1.00109037 10.71634812 0.60296006 13 0 C13.928125 0.165 14.85625 0.33 15.8125 0.5 C19.4457456 1.06992088 22.38003818 0.53629064 26 0 C28.4375 0.4375 28.4375 0.4375 30 1 C30 2.65 30 4.3 30 6 C27.10765685 6.82638376 25.11257569 7 22 7 C20.3502559 7.01106525 18.70051647 7.02283898 17.05078125 7.03515625 C15.13802162 7.04443506 13.22526117 7.05354393 11.3125 7.0625 C9.84973633 7.07506836 9.84973633 7.07506836 8.35742188 7.08789062 C7.43123047 7.09111328 6.50503906 7.09433594 5.55078125 7.09765625 C4.27714722 7.10551147 4.27714722 7.10551147 2.9777832 7.11352539 C1 7 1 7 0 6 C-0.04080783 4.00041636 -0.04254356 1.99954746 0 0 Z " fill="#AED08E" transform="translate(103,112)"/>
<path d="M0 0 C3.35620271 1.38877354 5.07298728 2.91677965 7 6 C7 6.66 7 7.32 7 8 C6.34 8 5.68 8 5 8 C5.10699219 8.67546875 5.21398437 9.3509375 5.32421875 10.046875 C5.44410156 10.93890625 5.56398438 11.8309375 5.6875 12.75 C5.81511719 13.63171875 5.94273438 14.5134375 6.07421875 15.421875 C5.98397191 18.55676517 5.07384637 19.71823587 3 22 C3.52268466 19.23723823 4.10869587 16.6739124 5 14 C3.68 14.33 2.36 14.66 1 15 C1 13.35 1 11.7 1 10 C-0.32 9.67 -1.64 9.34 -3 9 C-3.75 7.3125 -3.75 7.3125 -4 5 C-2.0625 2.25 -2.0625 2.25 0 0 Z " fill="#81B959" transform="translate(72,81)"/>
<path d="M0 0 C4.29 0.33 8.58 0.66 13 1 C12.34 2.98 11.68 4.96 11 7 C9.37536158 7.05395478 7.75021459 7.09277195 6.125 7.125 C5.22007813 7.14820312 4.31515625 7.17140625 3.3828125 7.1953125 C1 7 1 7 -1 5 C-0.67 3.35 -0.34 1.7 0 0 Z " fill="#B7D59B" transform="translate(89,112)"/>
<path d="M0 0 C0 1.65 0 3.3 0 5 C-4.20504758 6.20144217 -7.79495242 6.20144217 -12 5 C-11.67 3.35 -11.34 1.7 -11 0 C-7.18243176 -1.37432457 -3.92744671 -0.67975039 0 0 Z " fill="#C0DAA4" transform="translate(133,113)"/>
<path d="M0 0 C2.625 0.375 2.625 0.375 5 1 C4.125 5.875 4.125 5.875 3 7 C0.66702567 7.04092937 -1.66705225 7.04241723 -4 7 C-2.92598892 4.08482708 -2.22189824 2.22189824 0 0 Z " fill="#76BC4B" transform="translate(72,113)"/>
<path d="M0 0 C0.12375 0.639375 0.2475 1.27875 0.375 1.9375 C0.684375 2.9584375 0.684375 2.9584375 1 4 C1.66 4.33 2.32 4.66 3 5 C3 5.99 3 6.98 3 8 C0.69 8.33 -1.62 8.66 -4 9 C-4.79953138 5.71303767 -5.09658936 4.28976808 -4 1 C-2 0 -2 0 0 0 Z " fill="#79B94F" transform="translate(49,76)"/>
<path d="M0 0 C2.33294775 -0.04241723 4.66702567 -0.04092937 7 0 C8 1 8 1 8.0625 3.5625 C8.041875 4.366875 8.02125 5.17125 8 6 C5.36 6 2.72 6 0 6 C-1.125 2.25 -1.125 2.25 0 0 Z " fill="#AFD18F" transform="translate(162,113)"/>
<path d="M0 0 C1.98 0 3.96 0 6 0 C6.6875 1.8125 6.6875 1.8125 7 4 C5.8125 5.8125 5.8125 5.8125 4 7 C1.8125 6.6875 1.8125 6.6875 0 6 C0 4.02 0 2.04 0 0 Z " fill="#B5D596" transform="translate(103,112)"/>
<path d="M0 0 C1.65 0 3.3 0 5 0 C5.33 1.98 5.66 3.96 6 6 C4.35 6.33 2.7 6.66 1 7 C-0.0625 4.625 -0.0625 4.625 -1 2 C-0.67 1.34 -0.34 0.68 0 0 Z " fill="#BBD89E" transform="translate(156,112)"/>
<path d="M0 0 C1.65 0 3.3 0 5 0 C6.24546405 2.49092811 5.7767578 3.41080733 5 6 C5.99 6.66 6.98 7.32 8 8 C6.68 8 5.36 8 4 8 C4.33 8.99 4.66 9.98 5 11 C3.68 12.32 2.36 13.64 1 15 C1.66 12.03 2.32 9.06 3 6 C2.34 5.67 1.68 5.34 1 5 C1.66 5 2.32 5 3 5 C3 4.01 3 3.02 3 2 C2.01 1.67 1.02 1.34 0 1 C0 0.67 0 0.34 0 0 Z " fill="#89B863" transform="translate(49,79)"/>
<path d="M0 0 C1.98 0 3.96 0 6 0 C6 1.65 6 3.3 6 5 C4.35 5 2.7 5 1 5 C0.67 3.35 0.34 1.7 0 0 Z " fill="#A3C981" transform="translate(94,114)"/>
<path d="M0 0 C0.99 0 1.98 0 3 0 C3 1.65 3 3.3 3 5 C1.68 5.33 0.36 5.66 -1 6 C-1.042721 4.33388095 -1.04063832 2.66617115 -1 1 C-0.67 0.67 -0.34 0.34 0 0 Z " fill="#AFD390" transform="translate(130,113)"/>
<path d="M0 0 C1.32 0.33 2.64 0.66 4 1 C4 2.65 4 4.3 4 6 C2.68 6 1.36 6 0 6 C0 4.02 0 2.04 0 0 Z " fill="#A5CD83" transform="translate(134,112)"/>
<path d="M0 0 C0.66 0.33 1.32 0.66 2 1 C0.63016497 4.16115776 0.0109362 4.9927092 -3 7 C-3 3 -3 3 -1.5 1.25 C-1.005 0.8375 -0.51 0.425 0 0 Z " fill="#86C05D" transform="translate(94,85)"/>
<path d="M0 0 C0.66 0 1.32 0 2 0 C2.33 1.98 2.66 3.96 3 6 C2.01 6 1.02 6 0 6 C-1 3 -1 3 0 0 Z " fill="#A2CA7E" transform="translate(153,113)"/>
</svg>
