<?xml version="1.0" encoding="UTF-8"?>
<svg version="1.1" xmlns="http://www.w3.org/2000/svg" width="200" height="200">
<path d="M0 0 C1.02867188 -0.01417969 2.05734375 -0.02835937 3.1171875 -0.04296875 C7.53538116 0.29556817 10.28417826 1.52685435 13.75 4.25 C17.7678042 9.2193894 19.51107528 14.40115571 19.0625 20.8125 C18.20078259 26.17013435 16.18367372 30.52912394 11.875 34 C11.00875 34.5878125 11.00875 34.5878125 10.125 35.1875 C10.125 35.8475 10.125 36.5075 10.125 37.1875 C11.91465547 38.55027086 11.91465547 38.55027086 14.125 39.8125 C15.23875 40.48152344 15.23875 40.48152344 16.375 41.1640625 C16.9525 41.50179687 17.53 41.83953125 18.125 42.1875 C16.4140625 46.0546875 16.4140625 46.0546875 13.8125 47.25 C11.125 47.1875 11.125 47.1875 8.3125 44.875 C6.125 42.1875 6.125 42.1875 6.125 40.1875 C5.25617187 40.01734375 4.38734375 39.8471875 3.4921875 39.671875 C-5.6394468 37.75157606 -11.38141104 36.12268405 -16.875 28.1875 C-18.93685331 22.00194008 -18.97229467 14.65010471 -16.1875 8.6875 C-12.29832357 2.05383382 -7.45746993 0.04649295 0 0 Z M-7.875 7.1875 C-10.91779017 11.96902742 -12.59754899 16.85821657 -11.3671875 22.52734375 C-9.6849887 28.02630739 -9.6849887 28.02630739 -5.875 32.1875 C-1.70650679 33.4208744 1.97080345 33.66423336 6 32 C9.91215328 28.66316338 11.51877568 26.02993328 12 20.875 C12.3336868 15.6611437 11.85408993 12.64501355 9.125 8.1875 C6.26672539 5.09103584 4.82600703 4.27512588 0.625 3.75 C-3.15556714 4.22257089 -4.9597525 4.75812708 -7.875 7.1875 Z " fill="#C04245" transform="translate(27.875,86.8125)"/>
<path d="M0 0 C2.31 0 4.62 0 7 0 C7.33 6.6 7.66 13.2 8 20 C9.98 20.33 11.96 20.66 14 21 C14.33 14.07 14.66 7.14 15 0 C17.31 0 19.62 0 22 0 C22.02886751 4.14581887 22.04675327 8.29161216 22.0625 12.4375 C22.07087891 13.62150391 22.07925781 14.80550781 22.08789062 16.02539062 C22.09272461 17.71245117 22.09272461 17.71245117 22.09765625 19.43359375 C22.10551147 20.99678345 22.10551147 20.99678345 22.11352539 22.59155273 C22 25 22 25 21 26 C18.66666667 26 16.33333333 26 14 26 C12.453125 26.3403125 12.453125 26.3403125 10.875 26.6875 C7.23045189 27.08364653 5.88501005 26.16375754 3 24 C0.47871644 21.47871644 0.70646931 20.48760987 0.5859375 16.9921875 C0.54726563 16.00605469 0.50859375 15.01992187 0.46875 14.00390625 C0.4378125 12.97136719 0.406875 11.93882813 0.375 10.875 C0.33632813 9.83472656 0.29765625 8.79445313 0.2578125 7.72265625 C0.16335234 5.14861689 0.07778786 2.57458845 0 0 Z " fill="#C44D50" transform="translate(51,98)"/>
<path d="M0 0 C2.38312703 1.89428046 3.6500559 3.30011179 5 6 C5 8.64 5 11.28 5 14 C-0.28 14 -5.56 14 -11 14 C-10.01 16.31 -9.02 18.62 -8 21 C-3.03448675 21.35606813 -3.03448675 21.35606813 1.4375 19.5 C1.953125 19.005 2.46875 18.51 3 18 C3.66 18.33 4.32 18.66 5 19 C4.9375 21.3125 4.9375 21.3125 4 24 C-0.33097885 26.6516197 -4.02153748 27.69999681 -9.06640625 26.74609375 C-13.00591412 25.22600081 -15.23140026 22.79538921 -17 19 C-17.99010311 13.30309905 -17.75963144 8.63180088 -15.3125 3.375 C-10.74074619 -1.32031473 -6.14628934 -1.81302677 0 0 Z M-8 3 C-10.28728734 4.83883881 -10.28728734 4.83883881 -10.125 7.625 C-10.08375 8.40875 -10.0425 9.1925 -10 10 C-7.03 10 -4.06 10 -1 10 C-1.66 8.02 -2.32 6.04 -3 4 C-5.39719432 3.32041397 -5.39719432 3.32041397 -8 3 Z " fill="#3B3735" transform="translate(153,98)"/>
<path d="M0 0 C2.20703125 1.34765625 2.20703125 1.34765625 4 4 C4.49754521 7.76021237 4.37486551 11.46561441 4.25 15.25 C4.23195313 16.28125 4.21390625 17.3125 4.1953125 18.375 C4.14822712 20.91761064 4.0824805 23.45833162 4 26 C2.02 26 0.04 26 -2 26 C-2 19.4 -2 12.8 -2 6 C-4.97 5.505 -4.97 5.505 -8 5 C-10.3968665 7.3968665 -10.28281133 8.07028314 -10.4140625 11.3515625 C-10.47207031 12.62773438 -10.47207031 12.62773438 -10.53125 13.9296875 C-10.5621875 14.81914063 -10.593125 15.70859375 -10.625 16.625 C-10.68300781 17.97078125 -10.68300781 17.97078125 -10.7421875 19.34375 C-10.83659357 21.5622927 -10.92216748 23.78082403 -11 26 C-12.98 26 -14.96 26 -17 26 C-17 17.42 -17 8.84 -17 0 C-14.69 0 -12.38 0 -10 0 C-6.19426871 -1.2685771 -3.89430952 -0.88817586 0 0 Z " fill="#BB3236" transform="translate(109,98)"/>
<path d="M0 0 C8.58 0 17.16 0 26 0 C26 1.65 26 3.3 26 5 C23.03 5 20.06 5 17 5 C17 15.56 17 26.12 17 37 C14.69 37 12.38 37 10 37 C10.33 26.44 10.66 15.88 11 5 C7.37 5 3.74 5 0 5 C0 3.35 0 1.7 0 0 Z " fill="#4D4948" transform="translate(112,87)"/>
<path d="M0 0 C11.69754931 0.86312014 11.69754931 0.86312014 15 3 C18.69135022 8.02433781 20.27239967 12.73480768 20 19 C18.93587713 24.35550361 17.10616679 29.25614204 13 33 C10.25 33.3125 10.25 33.3125 8 33 C8.30550781 32.42507812 8.61101563 31.85015625 8.92578125 31.2578125 C12.12819157 24.52692827 12.82105634 17.2247137 11 10 C9.75474823 7.1529721 8.4075293 4.98697355 6 3 C2.32573903 1.94844727 2.32573903 1.94844727 -1 2 C-0.67 1.34 -0.34 0.68 0 0 Z " fill="#C04144" transform="translate(27,88)"/>
<path d="M0 0 C0.66 0.33 1.32 0.66 2 1 C2.33 1.99 2.66 2.98 3 4 C3.33 3.67 3.66 3.34 4 3 C6.67058851 2.85884839 9.32432238 2.95752893 12 3 C12 3.99 12 4.98 12 6 C11.34 6 10.68 6 10 6 C10 6.99 10 7.98 10 9 C0.1 9 -9.8 9 -20 9 C-20 8.34 -20 7.68 -20 7 C-20.66 7 -21.32 7 -22 7 C-22 7.66 -22 8.32 -22 9 C-23.32 9 -24.64 9 -26 9 C-26 6.36 -26 3.72 -26 1 C-24.02 1 -22.04 1 -20 1 C-20 1.66 -20 2.32 -20 3 C-15.38 3 -10.76 3 -6 3 C-6 2.34 -6 1.68 -6 1 C-5.01 1 -4.02 1 -3 1 C-2.67 1.66 -2.34 2.32 -2 3 C-1.34 2.01 -0.68 1.02 0 0 Z M-17 6 C-16 8 -16 8 -16 8 Z " fill="#989898" transform="translate(178,129)"/>
<path d="M0 0 C0.8971875 0.309375 0.8971875 0.309375 1.8125 0.625 C1.4825 2.605 1.1525 4.585 0.8125 6.625 C2.4625 6.295 4.1125 5.965 5.8125 5.625 C5.8125 7.605 5.8125 9.585 5.8125 11.625 C4.1625 11.295 2.5125 10.965 0.8125 10.625 C1.1425 16.235 1.4725 21.845 1.8125 27.625 C3.1325 27.955 4.4525 28.285 5.8125 28.625 C5.8125 29.945 5.8125 31.265 5.8125 32.625 C0.4409507 33.96788732 0.4409507 33.96788732 -2.36621094 32.4362793 C-4.1875 30.625 -4.1875 30.625 -4.64160156 28.44848633 C-4.6206543 27.62630615 -4.59970703 26.80412598 -4.578125 25.95703125 C-4.56523437 25.06435547 -4.55234375 24.17167969 -4.5390625 23.25195312 C-4.50554687 22.32318359 -4.47203125 21.39441406 -4.4375 20.4375 C-4.41945312 19.49712891 -4.40140625 18.55675781 -4.3828125 17.58789062 C-4.3356655 15.26590111 -4.26988231 12.9459631 -4.1875 10.625 C-5.1775 10.955 -6.1675 11.285 -7.1875 11.625 C-7.1875 9.645 -7.1875 7.665 -7.1875 5.625 C-6.1975 5.955 -5.2075 6.285 -4.1875 6.625 C-4.5175 4.975 -4.8475 3.325 -5.1875 1.625 C-2.1875 -0.375 -2.1875 -0.375 0 0 Z " fill="#403C3A" transform="translate(168.1875,91.375)"/>
<path d="M0 0 C0.66 0.33 1.32 0.66 2 1 C2.59355614 3.64860427 2.74209269 6.29197322 3 9 C-5.66666667 9 -14.33333333 9 -23 9 C-23.99 6.69 -24.98 4.38 -26 2 C-25 1 -25 1 -22.49609375 0.90234375 C-20.98208984 0.91974609 -20.98208984 0.91974609 -19.4375 0.9375 C-18.42558594 0.94652344 -17.41367188 0.95554688 -16.37109375 0.96484375 C-15.19740234 0.98224609 -15.19740234 0.98224609 -14 1 C-14 1.66 -14 2.32 -14 3 C-11.69 3 -9.38 3 -7 3 C-7 2.34 -7 1.68 -7 1 C-5.68 1 -4.36 1 -3 1 C-3 1.66 -3 2.32 -3 3 C-2.34 3 -1.68 3 -1 3 C-0.67 2.01 -0.34 1.02 0 0 Z " fill="#B8B8B8" transform="translate(97,129)"/>
<path d="M0 0 C3.4375 1 3.4375 1 5.4375 2.625 C6.90731805 6.11581787 6.42163921 8.39148956 5.4375 12 C3.31878452 14.34572071 2.0349873 14.89543972 -1.0625 15.4375 C-3.5625 15 -3.5625 15 -5.875 13.4375 C-8.20476201 10.07228821 -8.13539582 8.01027077 -7.5625 4 C-5.30132583 0.38212133 -4.292718 0 0 0 Z " fill="#C75146" transform="translate(83.5625,78)"/>
<path d="M0 0 C5.28 0 10.56 0 16 0 C16 0.66 16 1.32 16 2 C16.66 2 17.32 2 18 2 C18 1.34 18 0.68 18 0 C19.32 0 20.64 0 22 0 C22 2.64 22 5.28 22 8 C18.35418313 8.02887512 14.70839537 8.04675585 11.0625 8.0625 C9.50112305 8.07506836 9.50112305 8.07506836 7.90820312 8.08789062 C6.91884766 8.09111328 5.92949219 8.09433594 4.91015625 8.09765625 C3.99371338 8.10289307 3.07727051 8.10812988 2.13305664 8.11352539 C0 8 0 8 -1 7 C-0.67 4.69 -0.34 2.38 0 0 Z M2 2 C2 3.32 2 4.64 2 6 C3.32 5.34 4.64 4.68 6 4 C4.68 3.34 3.36 2.68 2 2 Z M12 2 C13 6 13 6 13 6 Z " fill="#A3A2A3" transform="translate(128,130)"/>
<path d="M0 0 C1.98 0 3.96 0 6 0 C6 8.58 6 17.16 6 26 C4.02 26 2.04 26 0 26 C0 17.42 0 8.84 0 0 Z " fill="#C44B4F" transform="translate(79,98)"/>
<path d="M0 0 C2.64 0 5.28 0 8 0 C8.33 0.66 8.66 1.32 9 2 C12.96 2 16.92 2 21 2 C21.33 3.65 21.66 5.3 22 7 C21 8 21 8 18.95874023 8.11352539 C18.08419189 8.10828857 17.20964355 8.10305176 16.30859375 8.09765625 C15.36435547 8.09443359 14.42011719 8.09121094 13.44726562 8.08789062 C12.45404297 8.07951172 11.46082031 8.07113281 10.4375 8.0625 C9.44041016 8.05798828 8.44332031 8.05347656 7.41601562 8.04882812 C4.94395151 8.03700007 2.47200482 8.02051849 0 8 C-1.0546875 6.140625 -1.0546875 6.140625 -2 4 C-1.125 1.75 -1.125 1.75 0 0 Z M2 2 C2 3.32 2 4.64 2 6 C3.32 5.34 4.64 4.68 6 4 C4.68 3.34 3.36 2.68 2 2 Z " fill="#8A898A" transform="translate(103,130)"/>
<path d="M0 0 C0 3 0 3 -2 6 C-1.01 6.33 -0.02 6.66 1 7 C1 7.66 1 8.32 1 9 C2.78965547 10.36277086 2.78965547 10.36277086 5 11.625 C5.7425 12.07101563 6.485 12.51703125 7.25 12.9765625 C7.8275 13.31429687 8.405 13.65203125 9 14 C7.2890625 17.8671875 7.2890625 17.8671875 4.6875 19.0625 C2 19 2 19 -0.8125 16.6875 C-3 14 -3 14 -3 12 C-6.63 11.01 -10.26 10.02 -14 9 C-14 8.67 -14 8.34 -14 8 C-11.69 8 -9.38 8 -7 8 C-7 7.67 -7 7.34 -7 7 C-8.4540625 6.814375 -8.4540625 6.814375 -9.9375 6.625 C-10.948125 6.41875 -11.95875 6.2125 -13 6 C-13.33 5.34 -13.66 4.68 -14 4 C-12.783125 4.061875 -11.56625 4.12375 -10.3125 4.1875 C-6.41277726 4.2013288 -4.16206576 3.39550436 -1 1 C-0.67 0.67 -0.34 0.34 0 0 Z " fill="#C95A5D" transform="translate(37,115)"/>
<path d="M0 0 C2.97 0 5.94 0 9 0 C9.33 0.99 9.66 1.98 10 3 C12.31 3 14.62 3 17 3 C17 4.98 17 6.96 17 9 C11.72 9 6.44 9 1 9 C1 7.35 1 5.7 1 4 C0.34 4 -0.32 4 -1 4 C-0.67 2.68 -0.34 1.36 0 0 Z M5 4 C5 4.99 5 5.98 5 7 C5.66 7 6.32 7 7 7 C7 6.01 7 5.02 7 4 C6.34 4 5.68 4 5 4 Z " fill="#C1C1C1" transform="translate(53,129)"/>
<path d="M0 0 C2.31 0 4.62 0 7 0 C7.02886751 4.14581887 7.04675327 8.29161216 7.0625 12.4375 C7.07087891 13.62150391 7.07925781 14.80550781 7.08789062 16.02539062 C7.09272461 17.71245117 7.09272461 17.71245117 7.09765625 19.43359375 C7.10551147 20.99678345 7.10551147 20.99678345 7.11352539 22.59155273 C7 25 7 25 6 26 C3.66666667 26 1.33333333 26 -1 26 C-2.546875 26.3403125 -2.546875 26.3403125 -4.125 26.6875 C-7.72426979 27.07872498 -9.13922726 26.10350937 -12 24 C-9.85406554 24 -7.70807985 24.02348946 -5.5625 24.0625 C-2.18962907 24.13724731 -2.18962907 24.13724731 0.25 23.4375 C2 23 2 23 5 24 C5 16.41 5 8.82 5 1 C4.01 1 3.02 1 2 1 C2.03480469 2.19238281 2.06960937 3.38476562 2.10546875 4.61328125 C2.13360753 6.17967342 2.1609076 7.74608081 2.1875 9.3125 C2.22520508 10.49102539 2.22520508 10.49102539 2.26367188 11.69335938 C2.27817383 12.8293457 2.27817383 12.8293457 2.29296875 13.98828125 C2.31653442 15.03302612 2.31653442 15.03302612 2.34057617 16.09887695 C2 18 2 18 -1 21 C-0.67 14.07 -0.34 7.14 0 0 Z " fill="#D2787A" transform="translate(66,98)"/>
<path d="M0 0 C0 0.33 0 0.66 0 1 C-0.61488281 1.04898438 -1.22976562 1.09796875 -1.86328125 1.1484375 C-2.67152344 1.22320312 -3.47976562 1.29796875 -4.3125 1.375 C-5.51326172 1.47941406 -5.51326172 1.47941406 -6.73828125 1.5859375 C-9.27224441 1.89564426 -9.27224441 1.89564426 -12 4 C-12 3.01 -12 2.02 -12 1 C-12.99 1 -13.98 1 -15 1 C-15 8.59 -15 16.18 -15 24 C-14.01 24 -13.02 24 -12 24 C-12 18.72 -12 13.44 -12 8 C-11.67 8 -11.34 8 -11 8 C-11 13.94 -11 19.88 -11 26 C-12.98 26 -14.96 26 -17 26 C-17 17.42 -17 8.84 -17 0 C-14.69 0 -12.38 0 -10 0 C-6.30581799 -1.231394 -3.7943739 -0.64432764 0 0 Z " fill="#D17375" transform="translate(109,98)"/>
<path d="M0 0 C-0.33 0.66 -0.66 1.32 -1 2 C-1.99 1.67 -2.98 1.34 -4 1 C-3.67 1.7425 -3.34 2.485 -3 3.25 C-2 6 -2 6 -2 10 C-5.96 10 -9.92 10 -14 10 C-14 8.02 -14 6.04 -14 4 C-14.99 4.33 -15.98 4.66 -17 5 C-17.33 8.63 -17.66 12.26 -18 16 C-18.33 16 -18.66 16 -19 16 C-19.3585035 10.96103417 -19.54114683 7.12237862 -17.3125 2.5 C-12.50433898 -2.69801192 -6.38871371 -3.19435686 0 0 Z M-10 2 C-12.28728734 3.83883881 -12.28728734 3.83883881 -12.125 6.625 C-12.08375 7.40875 -12.0425 8.1925 -12 9 C-9.03 9 -6.06 9 -3 9 C-3.66 7.02 -4.32 5.04 -5 3 C-7.39719432 2.32041397 -7.39719432 2.32041397 -10 2 Z " fill="#6F6C6C" transform="translate(155,99)"/>
<path d="M0 0 C3.0625 0.1875 3.0625 0.1875 5.0625 2.1875 C5.3125 5.6875 5.3125 5.6875 5.0625 9.1875 C3.0625 11.1875 3.0625 11.1875 0.125 11.625 C-2.9375 11.1875 -2.9375 11.1875 -4.9375 9 C-5.9375 6.1875 -5.9375 6.1875 -5.1875 3.4375 C-3.39828431 0.21691176 -3.39828431 0.21691176 0 0 Z " fill="#E0904C" transform="translate(94.9375,71.8125)"/>
<path d="M0 0 C2.5 0.5625 2.5 0.5625 4.375 2.25 C5.80124388 5.18172354 5.54230389 6.51576554 4.5 9.5625 C2.5 11.5625 2.5 11.5625 -0.125 11.6875 C-0.90875 11.64625 -1.6925 11.605 -2.5 11.5625 C-2.5 10.9025 -2.5 10.2425 -2.5 9.5625 C-3.16 9.5625 -3.82 9.5625 -4.5 9.5625 C-5.66095535 6.71288233 -5.56567925 5.72304927 -4.375 2.8125 C-2.5 0.5625 -2.5 0.5625 0 0 Z " fill="#C65256" transform="translate(71.5,71.4375)"/>
<path d="M0 0 C0.99 0.33 1.98 0.66 3 1 C2.67 11.56 2.34 22.12 2 33 C-0.31 33 -2.62 33 -5 33 C-4.67 32.01 -4.34 31.02 -4 30 C-2.68 30.33 -1.36 30.66 0 31 C0 20.77 0 10.54 0 0 Z " fill="#757474" transform="translate(127,91)"/>
<path d="M0 0 C-0.33 1.98 -0.66 3.96 -1 6 C0.65 5.67 2.3 5.34 4 5 C4 6.98 4 8.96 4 11 C2.35 10.67 0.7 10.34 -1 10 C-0.67 15.61 -0.34 21.22 0 27 C1.32 27.33 2.64 27.66 4 28 C4 29.32 4 30.64 4 32 C1.1875 32.6875 1.1875 32.6875 -2 33 C-3.875 31.5625 -3.875 31.5625 -5 30 C-3.35 30 -1.7 30 0 30 C-0.66 29.34 -1.32 28.68 -2 28 C-2.22705078 26.02880859 -2.22705078 26.02880859 -2.1953125 23.6484375 C-2.18564453 22.37226562 -2.18564453 22.37226562 -2.17578125 21.0703125 C-2.15902344 20.18085937 -2.14226562 19.29140625 -2.125 18.375 C-2.11597656 17.4778125 -2.10695312 16.580625 -2.09765625 15.65625 C-2.0740497 13.43723414 -2.0411231 11.21874923 -2 9 C-0.35 9 1.3 9 3 9 C3 8.34 3 7.68 3 7 C1.35 7 -0.3 7 -2 7 C-2.33 5.02 -2.66 3.04 -3 1 C-4.98 1.99 -4.98 1.99 -7 3 C-6.67 2.01 -6.34 1.02 -6 0 C-3.50907189 -1.24546405 -2.58919267 -0.7767578 0 0 Z " fill="#807E7E" transform="translate(170,92)"/>
<path d="M0 0 C0.99 0 1.98 0 3 0 C3 7.59 3 15.18 3 23 C2.01 23 1.02 23 0 23 C-1.10048457 17.89701229 -0.94251169 13.27918151 -0.5625 8.125 C-0.51029297 7.34125 -0.45808594 6.5575 -0.40429688 5.75 C-0.27571149 3.8329088 -0.13871383 1.91638497 0 0 Z " fill="#B61F24" transform="translate(68,99)"/>
<path d="M0 0 C0.66 0.33 1.32 0.66 2 1 C2 8.26 2 15.52 2 23 C0.02 23 -1.96 23 -4 23 C-4 16.4 -4 9.8 -4 3 C-3.01 3.495 -3.01 3.495 -2 4 C-2 9.61 -2 15.22 -2 21 C-1.01 21 -0.02 21 1 21 C0.67 14.07 0.34 7.14 0 0 Z " fill="#D27678" transform="translate(111,101)"/>
<path d="M0 0 C0.99 0 1.98 0 3 0 C3 7.59 3 15.18 3 23 C2.01 23 1.02 23 0 23 C0 15.41 0 7.82 0 0 Z " fill="#B51F24" transform="translate(94,99)"/>
<path d="M0 0 C4.55555556 0.55555556 4.55555556 0.55555556 6 2 C6.25 4.4375 6.25 4.4375 6 7 C3 9 3 9 0.875 8.6875 C-1 8 -1 8 -2 7 C-2.1875 4.5625 -2.1875 4.5625 -2 2 C-1.34 1.34 -0.68 0.68 0 0 Z " fill="#EBB258" transform="translate(104,66)"/>
<path d="M0 0 C0.99 0.33 1.98 0.66 3 1 C2.9375 3.3125 2.9375 3.3125 2 6 C-3.31294783 9.2528252 -6.98146041 9.42812804 -13 8 C-13.66 7.01 -14.32 6.02 -15 5 C-14.44828125 5.16371094 -13.8965625 5.32742187 -13.328125 5.49609375 C-10.73385993 6.05760414 -8.40164589 6.09739008 -5.75 6.0625 C-4.41195312 6.04896484 -4.41195312 6.04896484 -3.046875 6.03515625 C-2.37140625 6.02355469 -1.6959375 6.01195313 -1 6 C-2.00836062 4.76732652 -2.00836062 4.76732652 -4.06640625 4.90234375 C-5.30197266 4.91974609 -5.30197266 4.91974609 -6.5625 4.9375 C-7.80193359 4.95103516 -7.80193359 4.95103516 -9.06640625 4.96484375 C-10.02353516 4.98224609 -10.02353516 4.98224609 -11 5 C-11 4.01 -11 3.02 -11 2 C-10.67 2.33 -10.34 2.66 -10 3 C-5.2045846 3.50610907 -5.2045846 3.50610907 -1.0625 1.5 C-0.711875 1.005 -0.36125 0.51 0 0 Z " fill="#838283" transform="translate(155,116)"/>
<path d="M0 0 C2.64 0 5.28 0 8 0 C8 0.99 8 1.98 8 3 C7.34 3 6.68 3 6 3 C6 3.99 6 4.98 6 6 C2.04 6 -1.92 6 -6 6 C-5.67 4.68 -5.34 3.36 -5 2 C-5 2.99 -5 3.98 -5 5 C-3.68 5 -2.36 5 -1 5 C-0.67 3.35 -0.34 1.7 0 0 Z " fill="#717172" transform="translate(182,132)"/>
<path d="M0 0 C1.5 1 1.5 1 3 3 C3 5.64 3 8.28 3 11 C-2.28 11 -7.56 11 -13 11 C-12.67 12.98 -12.34 14.96 -12 17 C-12.66 16.67 -13.32 16.34 -14 16 C-14 13.69 -14 11.38 -14 9 C-9.05 8.67 -4.1 8.34 1 8 C0.67 5.36 0.34 2.72 0 0 Z " fill="#6D6A69" transform="translate(155,101)"/>
<path d="M0 0 C0.66 0 1.32 0 2 0 C2.33 0.99 2.66 1.98 3 3 C3.66 3 4.32 3 5 3 C5.33 2.01 5.66 1.02 6 0 C6.66 0 7.32 0 8 0 C8.33 2.31 8.66 4.62 9 7 C3.06 7 -2.88 7 -9 7 C-9.33 5.68 -9.66 4.36 -10 3 C-9.34 3 -8.68 3 -8 3 C-8 3.99 -8 4.98 -8 6 C-7.34 6 -6.68 6 -6 6 C-5.67 5.01 -5.34 4.02 -5 3 C-5 3.99 -5 4.98 -5 6 C-3.02 6 -1.04 6 1 6 C0.67 4.02 0.34 2.04 0 0 Z " fill="#7D7C7D" transform="translate(91,131)"/>
<path d="M0 0 C0.66 0 1.32 0 2 0 C2.33 1.65 2.66 3.3 3 5 C3.66 5 4.32 5 5 5 C5 3.68 5 2.36 5 1 C4.34 0.67 3.68 0.34 3 0 C4.32 0 5.64 0 7 0 C9 2 9 2 10 7 C6.37 7 2.74 7 -1 7 C-0.67 4.69 -0.34 2.38 0 0 Z " fill="#7F7F80" transform="translate(55,131)"/>
<path d="M0 0 C3.3 0 6.6 0 10 0 C9.01 0.66 8.02 1.32 7 2 C6.74969023 4.58380177 6.74969023 4.58380177 7 7 C4.6739143 7.38063221 2.33944736 7.71269945 0 8 C-0.33 7.67 -0.66 7.34 -1 7 C-0.71269945 4.66055264 -0.38063221 2.3260857 0 0 Z M2 2 C2 3.32 2 4.64 2 6 C3.32 5.34 4.64 4.68 6 4 C4.68 3.34 3.36 2.68 2 2 Z " fill="#9D9C9C" transform="translate(128,130)"/>
<path d="M0 0 C1.32 0.33 2.64 0.66 4 1 C6.08878929 4.68024779 6.06126775 5.75492899 5 10 C0.38 10 -4.24 10 -9 10 C-9 9.67 -9 9.34 -9 9 C-5.37 9 -1.74 9 2 9 C1.34 6.03 0.68 3.06 0 0 Z " fill="#312D2B" transform="translate(151,100)"/>
<path d="M0 0 C1.02867188 -0.01417969 2.05734375 -0.02835937 3.1171875 -0.04296875 C6.17963488 0.19168631 8.35748861 0.89565428 11.125 2.1875 C8.50184968 3.49907516 6.89466564 3.08399988 4 2.75 C3.08992188 2.64816406 2.17984375 2.54632813 1.2421875 2.44140625 C0.54351562 2.35761719 -0.15515625 2.27382812 -0.875 2.1875 C1.435 2.8475 3.745 3.5075 6.125 4.1875 C3.18292996 5.65853502 0.3854856 5.1875 -2.875 5.1875 C-5.18536915 5.61604995 -5.18536915 5.61604995 -6.875 6.1875 C-6.215 5.1975 -5.555 4.2075 -4.875 3.1875 C-6.525 3.1875 -8.175 3.1875 -9.875 3.1875 C-7.93696083 -0.68857834 -3.85486419 0.02403282 0 0 Z " fill="#D2797B" transform="translate(27.875,86.8125)"/>
<path d="M0 0 C1.4540625 0.0309375 1.4540625 0.0309375 2.9375 0.0625 C4.19414978 2.96850261 4.9375 4.85854584 4.9375 8.0625 C2.9575 8.0625 0.9775 8.0625 -1.0625 8.0625 C-2.0525 5.7525 -3.0425 3.4425 -4.0625 1.0625 C-3.0625 0.0625 -3.0625 0.0625 0 0 Z " fill="#959495" transform="translate(75.0625,129.9375)"/>
<path d="M0 0 C1.98 0 3.96 0 6 0 C6.33 1.65 6.66 3.3 7 5 C6.01 5.33 5.02 5.66 4 6 C4 6.66 4 7.32 4 8 C2.68 8 1.36 8 0 8 C0 5.36 0 2.72 0 0 Z " fill="#A2A2A2" transform="translate(152,130)"/>
<path d="M0 0 C0.33 1.65 0.66 3.3 1 5 C-2.33333333 5 -5.66666667 5 -9 5 C-9 3.68 -9 2.36 -9 1 C-6.04335481 -0.4783226 -3.25770263 -0.06032783 0 0 Z " fill="#C2C1C1" transform="translate(124,132)"/>
<path d="M0 0 C0.68707555 2.49064888 1 4.37886292 1 7 C2.32 7.33 3.64 7.66 5 8 C0.38 8 -4.24 8 -9 8 C-9 7.67 -9 7.34 -9 7 C-7.02 7 -5.04 7 -3 7 C-3.33 5.02 -3.66 3.04 -4 1 C-2.68 0.67 -1.36 0.34 0 0 Z " fill="#818080" transform="translate(138,130)"/>
<path d="M0 0 C1.65 0.33 3.3 0.66 5 1 C4.67 2.65 4.34 4.3 4 6 C3.01 6.33 2.02 6.66 1 7 C0.01 6.01 -0.98 5.02 -2 4 C-1.34 2.68 -0.68 1.36 0 0 Z " fill="#DEA853" transform="translate(113,61)"/>
<path d="M0 0 C0.66 0.33 1.32 0.66 2 1 C2.40729228 3.32156597 2.74438677 5.6568787 3 8 C0.69 8 -1.62 8 -4 8 C-4 6.35 -4 4.7 -4 3 C-3.01 2.67 -2.02 2.34 -1 2 C-0.67 1.34 -0.34 0.68 0 0 Z " fill="#ABAAAA" transform="translate(178,129)"/>
<path d="M0 0 C1.65 0 3.3 0 5 0 C5 0.66 5 1.32 5 2 C5.99 2.33 6.98 2.66 8 3 C7.67 4.32 7.34 5.64 7 7 C6.34 7 5.68 7 5 7 C4.67 6.01 4.34 5.02 4 4 C2.68 4 1.36 4 0 4 C0 2.68 0 1.36 0 0 Z " fill="#A7A6A7" transform="translate(78,130)"/>
<path d="M0 0 C1.32 0 2.64 0 4 0 C4 1.98 4 3.96 4 6 C2.35 6 0.7 6 -1 6 C-1.33 4.68 -1.66 3.36 -2 2 C-1.34 2 -0.68 2 0 2 C0 1.34 0 0.68 0 0 Z " fill="#A1A0A0" transform="translate(66,132)"/>
<path d="M0 0 C2.64 0 5.28 0 8 0 C7.01 0.495 7.01 0.495 6 1 C6 1.99 6 2.98 6 4 C5.01 3.67 4.02 3.34 3 3 C2.01 4.485 2.01 4.485 1 6 C0.01 6.495 0.01 6.495 -1 7 C-2 4 -2 4 -1.0625 1.8125 C-0.5365625 0.9153125 -0.5365625 0.9153125 0 0 Z " fill="#BABABA" transform="translate(103,130)"/>
<path d="M0 0 C0 0.33 0 0.66 0 1 C-1.670625 1.433125 -1.670625 1.433125 -3.375 1.875 C-7.00291092 2.69241329 -7.00291092 2.69241329 -9 5 C-9.64767793 7.57061311 -9.64767793 7.57061311 -10 10 C-10.33 10 -10.66 10 -11 10 C-11.47945205 3.76712329 -11.47945205 3.76712329 -9.4375 0.5 C-6.01717697 -1.60481417 -3.80835623 -0.87885144 0 0 Z " fill="#D6817E" transform="translate(87,79)"/>
<path d="M0 0 C0.66 0 1.32 0 2 0 C2.33 2.31 2.66 4.62 3 7 C0.69 7 -1.62 7 -4 7 C-3.67 5.68 -3.34 4.36 -3 3 C-2.34 3 -1.68 3 -1 3 C-0.67 2.01 -0.34 1.02 0 0 Z " fill="#848485" transform="translate(97,131)"/>
<path d="M0 0 C1.98 0.495 1.98 0.495 4 1 C4 2.32 4 3.64 4 5 C2.35 5 0.7 5 -1 5 C-0.67 3.35 -0.34 1.7 0 0 Z " fill="#ADADAD" transform="translate(121,132)"/>
<path d="M0 0 C1.32 0 2.64 0 4 0 C4 2.31 4 4.62 4 7 C3.01 7 2.02 7 1 7 C0.67 4.69 0.34 2.38 0 0 Z " fill="#A3A3A6" transform="translate(146,130)"/>
<path d="M0 0 C0.99 0 1.98 0 3 0 C3 2.64 3 5.28 3 8 C2.01 7.67 1.02 7.34 0 7 C0.33 6.01 0.66 5.02 1 4 C0.01 4 -0.98 4 -2 4 C-2 3.34 -2 2.68 -2 2 C-1.34 2 -0.68 2 0 2 C0 1.34 0 0.68 0 0 Z " fill="#908F90" transform="translate(172,130)"/>
<path d="M0 0 C1.65 0 3.3 0 5 0 C4.01 0.66 3.02 1.32 2 2 C1.74969023 4.58380177 1.74969023 4.58380177 2 7 C1.01 7 0.02 7 -1 7 C-1.33 5.35 -1.66 3.7 -2 2 C-1.34 2 -0.68 2 0 2 C0 1.34 0 0.68 0 0 Z " fill="#C2C0C1" transform="translate(133,130)"/>
<path d="M0 0 C2.0625 0.4375 2.0625 0.4375 4 1 C4 2.32 4 3.64 4 5 C2.0625 4.6875 2.0625 4.6875 0 4 C-0.33 3.01 -0.66 2.02 -1 1 C-0.67 0.67 -0.34 0.34 0 0 Z " fill="#B5B4B4" transform="translate(182,132)"/>
<path d="M0 0 C1.65 0 3.3 0 5 0 C5 0.99 5 1.98 5 3 C4.34 3 3.68 3 3 3 C3 3.66 3 4.32 3 5 C2.34 5 1.68 5 1 5 C0.67 3.35 0.34 1.7 0 0 Z " fill="#787879" transform="translate(185,132)"/>
</svg>
