<?xml version="1.0" encoding="UTF-8"?>
<svg version="1.1" xmlns="http://www.w3.org/2000/svg" width="200" height="200">
<path d="M0 0 C66 0 132 0 200 0 C200 66 200 132 200 200 C134 200 68 200 0 200 C0 134 0 68 0 0 Z " fill="#FEFEFE" transform="translate(0,0)"/>
<path d="M0 0 C2 2 2 2 2.37597656 4.55688477 C1.86251311 9.25907638 0.05181149 12.8733261 -2.015625 17.08984375 C-2.42786316 17.95259415 -2.84010132 18.81534454 -3.26483154 19.70423889 C-4.58241293 22.45400708 -5.91623528 25.19555139 -7.25 27.9375 C-8.1325189 29.77751143 -9.01403999 31.6180018 -9.89453125 33.45898438 C-10.74651245 35.23219555 -11.59934943 37.00499585 -12.453125 38.77734375 C-12.84808167 39.5973436 -13.24303833 40.41734344 -13.64996338 41.26219177 C-15.93290001 45.95270047 -18.35942392 50.50072588 -21 55 C-23.6875 55.5 -23.6875 55.5 -27 55 C-31.59109455 48.56003827 -34.93062024 41.41290213 -38.375 34.3125 C-38.93316406 33.19810547 -39.49132812 32.08371094 -40.06640625 30.93554688 C-40.58847656 29.85982422 -41.11054687 28.78410156 -41.6484375 27.67578125 C-42.12458496 26.70552002 -42.60073242 25.73525879 -43.09130859 24.7355957 C-44.12377427 21.62738024 -44.04612072 20.07649481 -43 17 C-41 15 -41 15 -38.2421875 14.74609375 C-33.0090485 16.7699945 -31.55383375 21.22133272 -29.125 26.0625 C-28.62742187 27.01189453 -28.12984375 27.96128906 -27.6171875 28.93945312 C-26.39202654 31.2837515 -25.18760692 33.63651639 -24 36 C-23.49549316 34.94498291 -22.99098633 33.88996582 -22.47119141 32.80297852 C-20.60253916 28.89943697 -18.72585264 24.99980469 -16.84667969 21.10131836 C-16.03359865 19.41162417 -15.2227174 17.72086965 -14.4140625 16.02905273 C-13.25313102 13.60119786 -12.08441097 11.17723286 -10.9140625 8.75390625 C-10.55253082 7.99348526 -10.19099915 7.23306427 -9.81851196 6.44960022 C-7.19830956 1.05325222 -6.0826832 -0.45620124 0 0 Z " fill="#E60F26" transform="translate(147,74)"/>
<path d="M0 0 C3.4375 1.5625 3.4375 1.5625 6 4 C6.83337891 4.78117187 6.83337891 4.78117187 7.68359375 5.578125 C10.63361656 8.60309066 11.893503 10.38231743 12.625 14.625 C11.86189968 18.74574172 11.13332887 20.20171081 8 23 C4.61020888 23.67414519 1.31735995 23.56165867 -2.125 23.4375 C-3.04410156 23.43169922 -3.96320313 23.42589844 -4.91015625 23.41992188 C-11.70479619 23.29520381 -11.70479619 23.29520381 -14 21 C-13.44444444 16.44444444 -13.44444444 16.44444444 -12 15 C-9.46950598 14.92686433 -6.96695163 14.90752473 -4.4375 14.9375 C-3.72658203 14.94201172 -3.01566406 14.94652344 -2.28320312 14.95117188 C-0.52209987 14.96299136 1.23896036 14.98092737 3 15 C-0.11464507 11.38716919 -0.11464507 11.38716919 -4.28125 9.3359375 C-8.45417175 9.40940443 -10.51003655 9.67002462 -14.0625 12.0625 C-16.49484049 15.75024203 -16.62070813 17.65504309 -16 22 C-14.25271222 25.72803465 -14.25271222 25.72803465 -11 28 C-8.89044938 28.19738723 -8.89044938 28.19738723 -6.5625 28.1875 C-5.38880859 28.20876953 -5.38880859 28.20876953 -4.19140625 28.23046875 C-1.70794013 28.14086064 -1.70794013 28.14086064 1 26 C3.5625 25.75 3.5625 25.75 6 26 C6.66 26.66 7.32 27.32 8 28 C7.9375 30.375 7.9375 30.375 7 33 C1.44346807 38.1291064 -2.39993835 38.3506614 -9.796875 38.27734375 C-15.40210993 37.79201243 -18.20011024 35.01912806 -21.75 31 C-25.79428748 25.6076167 -26.87082164 21.69099669 -26 15 C-24.09768125 8.72348723 -20.2615048 4.74525834 -15 1 C-10.57867862 -1.21066069 -4.81263995 -0.41133675 0 0 Z " fill="#082A75" transform="translate(89,90)"/>
<path d="M0 0 C2.32365812 1.45913922 4.39994248 2.97416123 6.33984375 4.9140625 C6.52734375 7.3515625 6.52734375 7.3515625 6.33984375 9.9140625 C5.67984375 10.5740625 5.01984375 11.2340625 4.33984375 11.9140625 C1.15805326 11.6413376 -1.12381873 10.69940394 -4.03515625 9.3515625 C-7.87147233 7.83026474 -10.57653359 7.66404479 -14.66015625 7.9140625 C-14.66015625 8.9040625 -14.66015625 9.8940625 -14.66015625 10.9140625 C-13.01466797 11.49414062 -13.01466797 11.49414062 -11.3359375 12.0859375 C-9.88132778 12.61147392 -8.42691075 13.1375439 -6.97265625 13.6640625 C-6.25142578 13.91671875 -5.53019531 14.169375 -4.78710938 14.4296875 C-0.46180497 16.00970737 2.99175129 17.62986493 6.33984375 20.9140625 C7.6768646 25.1610699 7.71325787 27.10499858 5.83984375 31.1640625 C1.95715704 35.43501788 -1.15219723 36.62615904 -6.72265625 37.265625 C-14.08524613 37.58944261 -19.00339992 36.76044081 -24.66015625 31.9140625 C-25.66015625 30.9140625 -25.66015625 30.9140625 -25.91015625 28.4765625 C-25.82765625 27.6309375 -25.74515625 26.7853125 -25.66015625 25.9140625 C-22.66015625 23.9140625 -22.66015625 23.9140625 -20.84765625 24.1015625 C-18.66015625 24.9140625 -18.66015625 24.9140625 -15.84765625 26.4765625 C-12.13112579 28.15264486 -9.69548281 28.37089192 -5.66015625 27.9140625 C-3.96028689 26.45970597 -3.96028689 26.45970597 -2.66015625 24.9140625 C-3.34980469 24.74390625 -4.03945313 24.57375 -4.75 24.3984375 C-19.66597477 20.5517938 -19.66597477 20.5517938 -25.28515625 15.6015625 C-27.20046871 11.85799724 -26.87203947 9.9061484 -25.66015625 5.9140625 C-19.27036241 -1.85730839 -9.46047577 -3.8619857 0 0 Z " fill="#092A75" transform="translate(52.66015625,91.0859375)"/>
<path d="M0 0 C2.11457997 1.6606649 3.80744565 3.12865553 5.36328125 5.3203125 C5.42578125 8.6953125 5.42578125 8.6953125 4.36328125 11.3203125 C3.36328125 12.3203125 3.36328125 12.3203125 0.73828125 12.6953125 C-3.26924973 12.25003128 -4.82394367 10.9505394 -7.9375 8.56640625 C-13.64986429 4.37733911 -20.85842864 4.59883878 -27.63671875 5.3203125 C-34.82060919 7.50261091 -39.4354268 12.12182044 -43.07421875 18.5703125 C-44.89973421 21.61667741 -45.29254164 22.1895252 -48.76171875 23.5078125 C-51.63671875 23.3203125 -51.63671875 23.3203125 -53.57421875 22.3203125 C-55.35058493 18.97656439 -54.6390914 16.91706143 -53.63671875 13.3203125 C-48.09202301 3.5884155 -39.34074311 -3.10843879 -28.6796875 -6.2578125 C-18.33053256 -8.39492289 -8.79729148 -5.6042005 0 0 Z " fill="#082A75" transform="translate(156.63671875,62.6796875)"/>
<path d="M0 0 C3.65218586 0.71262163 4.43059998 2.51102896 6.5625 5.5 C8.85346255 9.73389438 10.80711064 14.12460503 12.8125 18.5 C13.64394531 20.2634375 13.64394531 20.2634375 14.4921875 22.0625 C15.27722656 23.7640625 15.27722656 23.7640625 16.078125 25.5 C16.55540039 26.53125 17.03267578 27.5625 17.52441406 28.625 C18.56998435 31.52072806 18.94170964 33.4557526 18.5625 36.5 C16.5625 38.5 16.5625 38.5 14.1875 38.9375 C11.5625 38.5 11.5625 38.5 9.6015625 36.390625 C7.4237991 33.3033742 5.86639598 30.25383023 4.3125 26.8125 C3.79171875 25.67425781 3.2709375 24.53601563 2.734375 23.36328125 C1.5625 20.5 1.5625 20.5 1.5625 18.5 C0.5725 18.5 -0.4175 18.5 -1.4375 18.5 C-1.69402344 19.34949219 -1.95054687 20.19898437 -2.21484375 21.07421875 C-3.51343554 24.71276508 -5.14582757 27.92544181 -7 31.3125 C-7.62003906 32.45332031 -8.24007812 33.59414062 -8.87890625 34.76953125 C-10.4375 37.5 -10.4375 37.5 -11.4375 38.5 C-13.875 38.6875 -13.875 38.6875 -16.4375 38.5 C-18.4375 36.5 -18.4375 36.5 -18.73364258 33.77416992 C-18.39290995 30.00700981 -17.35127186 27.51033603 -15.69921875 24.11328125 C-15.12623047 22.92798828 -14.55324219 21.74269531 -13.96289062 20.52148438 C-13.6610083 19.91264404 -13.35912598 19.30380371 -13.0480957 18.67651367 C-12.12553945 16.81358931 -11.22267781 14.94207075 -10.32226562 13.06835938 C-4.38006931 0.89847576 -4.38006931 0.89847576 0 0 Z " fill="#062874" transform="translate(154.4375,89.5)"/>
<path d="M0 0 C3.0625 1.875 3.0625 1.875 5 4 C5 4.66 5 5.32 5 6 C0.05 6.33 -4.9 6.66 -10 7 C-10.33 8.65 -10.66 10.3 -11 12 C-9.48578999 13.51421001 -8.07527232 13.21309856 -5.96484375 13.31640625 C-5.15595703 13.35830078 -4.34707031 13.40019531 -3.51367188 13.44335938 C-2.66353516 13.48267578 -1.81339844 13.52199219 -0.9375 13.5625 C-0.08349609 13.60568359 0.77050781 13.64886719 1.65039062 13.69335938 C3.76672037 13.79976702 5.88333813 13.90041731 8 14 C7 17 7 17 4 18.6875 C-0.27895856 20.33393056 -4.47918028 20.931255 -9 20 C-11.75569447 17.81840855 -13.43588747 16.12822506 -15 13 C-15.39447548 8.81855989 -15.45035186 6.69053952 -13.125 3.125 C-9.2453154 -0.7546846 -5.27045407 -0.68152423 0 0 Z " fill="#E7EBEF" transform="translate(87,99)"/>
<path d="M0 0 C1.23593891 3.70781672 0.5678132 4.67510253 -0.9375 8.1875 C-1.31777344 9.08855469 -1.69804688 9.98960938 -2.08984375 10.91796875 C-2.39019531 11.60503906 -2.69054687 12.29210937 -3 13 C-5.55162546 9.78425284 -6.83269511 6.95087809 -8 3 C-6.865625 2.690625 -5.73125 2.38125 -4.5625 2.0625 C-1.21224901 1.37075469 -1.21224901 1.37075469 0 0 Z " fill="#B61023" transform="translate(121,112)"/>
</svg>
