<?xml version="1.0" encoding="UTF-8"?>
<svg version="1.1" xmlns="http://www.w3.org/2000/svg" width="200" height="200">
<path d="M0 0 C59.07 0 118.14 0 179 0 C179 59.07 179 118.14 179 179 C119.93 179 60.86 179 0 179 C0 119.93 0 60.86 0 0 Z " fill="#FEFEFD" transform="translate(10,10)"/>
<path d="M0 0 C59.07 0 118.14 0 179 0 C179 24.09 179 48.18 179 73 C178.34 71.68 177.68 70.36 177 69 C174.47623334 65.44767305 174.47623334 65.44767305 171 63 C168.36160421 62.87947078 165.7450513 62.81437278 163.10546875 62.7890625 C161.49413057 62.76098814 159.88280258 62.73232363 158.27148438 62.703125 C155.7303909 62.66190614 153.18948655 62.62502063 150.64819336 62.59863281 C148.19605124 62.57096003 145.74477526 62.52508393 143.29296875 62.4765625 C142.53759323 62.47330963 141.78221771 62.47005676 141.00395203 62.46670532 C136.44697767 62.36096014 133.73074298 61.5833788 130 59 C127.41905535 58.74156703 127.41905535 58.74156703 124.625 59.125 C123.50222656 59.2384375 122.37945312 59.351875 121.22265625 59.46875 C117.89253558 59.872702 114.56965528 60.32678285 111.24609375 60.78125 C110.2288623 60.91901855 109.21163086 61.05678711 108.16357422 61.19873047 C106.12340193 61.47916983 104.08457258 61.76959073 102.04736328 62.07080078 C91.23811902 63.58990817 84.43506364 60.62453413 74.69921875 56.15039062 C68.11930355 53.08623674 68.11930355 53.08623674 61 53 C57.12246138 55.01439506 55.91697943 57.75157635 54.25 61.6875 C53.82203125 62.68136719 53.3940625 63.67523438 52.953125 64.69921875 C52.63859375 65.45847656 52.3240625 66.21773438 52 67 C51.71125 66.38511719 51.4225 65.77023438 51.125 65.13671875 C49.44295976 61.94201038 47.23604828 59.61802414 44 58 C35.81069877 58.19716072 27.63710351 59.5134313 19.5625 60.8125 C17.98952148 61.04163086 17.98952148 61.04163086 16.38476562 61.27539062 C8.85479458 62.40096396 8.85479458 62.40096396 3 67 C2.19657623 69.33130794 2.19657623 69.33130794 2.1875 71.75 C2.13980469 72.54921875 2.09210937 73.3484375 2.04296875 74.171875 C2.02878906 74.77515625 2.01460937 75.3784375 2 76 C1.34 76 0.68 76 0 76 C0 50.92 0 25.84 0 0 Z " fill="#FEFEFE" transform="translate(10,10)"/>
<path d="M0 0 C3.35792201 1.33905706 6.5338228 2.97936848 9.75 4.625 C18.15702979 8.62526802 23.75083425 9.95536055 33 8 C35.55754363 7.58984773 38.11872389 7.21195235 40.68164062 6.83691406 C42.43488672 6.57691491 44.18638517 6.30474476 45.93554688 6.01855469 C58.13819799 4.04929259 58.13819799 4.04929259 62.9375 6.5 C63.618125 6.995 64.29875 7.49 65 8 C63.95703125 9.46484375 63.95703125 9.46484375 62 11 C59.49814525 11.33456756 57.19572928 11.50832083 54.6875 11.5625 C47.01463921 11.87163385 39.58776536 12.77884401 32 14 C31.94375549 17.05878332 31.94375549 17.05878332 32.375 20.3125 C32.43190202 24.7264706 30.80041136 27.92115348 28.9375 31.875 C26.14786742 37.82902755 25.07822625 42.5860801 27 49 C27.63116252 50.35050216 28.28866263 51.68995368 29 53 C36.93873474 52.57988448 44.76092658 51.70206644 52.625 50.5625 C53.50188477 50.44028076 54.37876953 50.31806152 55.28222656 50.19213867 C56.52311035 50.00615112 56.52311035 50.00615112 57.7890625 49.81640625 C58.52850098 49.70756104 59.26793945 49.59871582 60.02978516 49.48657227 C62.30196912 49.04354068 62.30196912 49.04354068 65 47 C64.42439242 38.38551765 64.42439242 38.38551765 63.4375 29.8125 C62.9067101 25.18704515 62.91425589 20.64923645 63 16 C64.32 15.34 65.64 14.68 67 14 C67.08564209 14.62044189 67.17128418 15.24088379 67.25952148 15.88012695 C67.6492433 18.69133434 68.0433213 21.50191423 68.4375 24.3125 C68.63956055 25.77719727 68.63956055 25.77719727 68.84570312 27.27148438 C68.97783203 28.20927734 69.10996094 29.14707031 69.24609375 30.11328125 C69.42676392 31.40939331 69.42676392 31.40939331 69.61108398 32.73168945 C69.96777075 35.15558126 69.96777075 35.15558126 71 38 C71.40603893 42.60698012 71.54360209 46.69535498 69.75 51 C66.27362081 54.97300479 62.38860048 55.39833834 57.29296875 56.0703125 C56.64934891 56.15626678 56.00572906 56.24222107 55.34260559 56.33078003 C53.98398328 56.51059451 52.62489041 56.68688458 51.26538086 56.85986328 C49.20364015 57.12294052 47.14384934 57.39843963 45.08398438 57.67578125 C32.43780347 59.3343939 32.43780347 59.3343939 27 59 C24.1875 56.625 24.1875 56.625 22 54 C21.34 53.34 20.68 52.68 20 52 C19.525625 52.969375 19.05125 53.93875 18.5625 54.9375 C15.60100971 58.47684206 15.60100971 58.47684206 11.984375 58.9765625 C6.10309446 59.4475626 1.79814795 57.09044309 -3.3125 54.4375 C-5.05140895 53.54702575 -6.79730188 52.67002211 -8.55078125 51.80859375 C-9.31044189 51.41470459 -10.07010254 51.02081543 -10.8527832 50.61499023 C-12.99864911 49.76965432 -12.99864911 49.76965432 -15.02807617 50.76196289 C-16.00417847 51.37479126 -16.00417847 51.37479126 -17 52 C-22.03197029 54.84595041 -27.61655998 55.33784986 -33.25244141 56.28710938 C-35.23115704 56.62181268 -37.2074055 56.97099621 -39.18359375 57.3203125 C-51.98291755 59.51224563 -51.98291755 59.51224563 -58 59 C-63.23119177 55.24718851 -64.31329112 50.67125134 -65.43798828 44.65844727 C-69.58565857 19.44678199 -69.58565857 19.44678199 -68 14 C-62.80192807 7.4661107 -54.77475512 7.31647997 -47 6.1875 C-45.63254265 5.97109939 -44.2653508 5.75301403 -42.8984375 5.53320312 C-27.85732427 3.17932183 -27.85732427 3.17932183 -23.3125 5.1875 C-20.74444955 7.2002963 -19.48127407 9.11541365 -18 12 C-17.68546875 11.31292969 -17.3709375 10.62585938 -17.046875 9.91796875 C-16.61890625 9.01691406 -16.1909375 8.11585937 -15.75 7.1875 C-15.33234375 6.29417969 -14.9146875 5.40085937 -14.484375 4.48046875 C-10.72794974 -1.79671557 -6.65487255 -1.66503333 0 0 Z " fill="#0F9E46" transform="translate(80,63)"/>
<path d="M0 0 C3.15972791 3.15972791 3.16797838 6.47218932 3.25 10.8125 C3.2224268 15.52062429 1.91427026 18.69289191 0 23 C-0.48020127 25.91984448 -0.34602515 27.98463795 0 31 C1.87015094 33.43119623 3.28138345 34.64069173 6 36 C6 36.66 6 37.32 6 38 C0.0534802 39.58115555 -5.85384699 40.71685378 -11.9375 41.625 C-13.20110352 41.82609375 -13.20110352 41.82609375 -14.49023438 42.03125 C-20.05582288 42.87101547 -25.37186889 43.12494337 -31 43 C-35.11135762 31.25326394 -37.83280495 18.4920743 -37 6 C-34.36127206 3.36127206 -32.60155575 3.44620838 -28.92578125 2.9296875 C-27.70052734 2.75566406 -26.47527344 2.58164063 -25.21289062 2.40234375 C-23.92576172 2.22832031 -22.63863281 2.05429688 -21.3125 1.875 C-20.04470703 1.69324219 -18.77691406 1.51148437 -17.47070312 1.32421875 C-5.71201334 -0.31252195 -5.71201334 -0.31252195 0 0 Z " fill="#FDFCFC" transform="translate(54,73)"/>
<path d="M0 0 C4.33249547 1.08725718 8.3317408 2.87307722 12.43701172 4.61181641 C13.31228516 4.97210938 14.18755859 5.33240234 15.08935547 5.70361328 C15.92080078 6.05359375 16.75224609 6.40357422 17.60888672 6.76416016 C18.36782227 7.08247803 19.12675781 7.4007959 19.90869141 7.72875977 C21.68701172 8.67431641 21.68701172 8.67431641 22.68701172 10.67431641 C22.95813138 13.93151789 23.13553967 17.18111423 23.29467773 20.44506836 C23.49103228 24.18497621 23.84771148 27.69091972 24.62451172 31.36181641 C25.39560724 37.47126553 22.10425323 43.78838812 18.68701172 48.67431641 C11.06131045 51.21130969 2.66868984 46.27196221 -4.16455078 43.04150391 C-7.87235142 40.95370327 -9.99583899 39.45388137 -11.52392578 35.43212891 C-13.61784452 26.31893583 -12.09381401 17.97160596 -8.43798828 9.48681641 C-7.92494141 8.27638672 -7.41189453 7.06595703 -6.88330078 5.81884766 C-3.71618482 -0.52326267 -3.71618482 -0.52326267 0 0 Z " fill="#FBFDFC" transform="translate(75.31298828125,67.32568359375)"/>
<path d="M0 0 C4.66307014 -0.04937279 9.32598873 -0.08570627 13.98925781 -0.10986328 C15.57619883 -0.11993188 17.16312125 -0.13358767 18.75 -0.15087891 C21.02869247 -0.17509001 23.30714006 -0.18647422 25.5859375 -0.1953125 C26.29744965 -0.20563507 27.00896179 -0.21595764 27.74203491 -0.22659302 C29.49631665 -0.22699422 31.24996709 -0.12202209 33 0 C35.54565412 2.54565412 35.2472401 4.19175714 35.27789307 7.6640625 C35.2738446 8.43492188 35.26979614 9.20578125 35.265625 10 C35.26849518 11.18722656 35.26849518 11.18722656 35.27142334 12.3984375 C35.27278518 14.0729199 35.26908882 15.74741285 35.26074219 17.421875 C35.2500424 19.98982381 35.26063725 22.55707303 35.2734375 25.125 C35.2721159 26.75000155 35.26955351 28.37500266 35.265625 30 C35.26967346 30.77085938 35.27372192 31.54171875 35.27789307 32.3359375 C35.22992132 37.77007868 35.22992132 37.77007868 33 40 C30.41896694 40.17502995 27.94691837 40.23162279 25.3671875 40.1953125 C24.23943405 40.19106766 24.23943405 40.19106766 23.08889771 40.18673706 C20.68410422 40.17552874 18.27968119 40.15042352 15.875 40.125 C14.24609912 40.11497102 12.61719242 40.10584503 10.98828125 40.09765625 C6.99204444 40.07558735 2.99608506 40.04105351 -1 40 C-0.525625 39.566875 -0.05125 39.13375 0.4375 38.6875 C3.61806642 35.25248827 3.202513 31.34398873 3.1640625 26.94140625 C2.93079855 22.75931686 2.26067468 18.68842578 1.53515625 14.56640625 C0.80920277 9.72848268 0.40637701 4.87378936 0 0 Z " fill="#FDFDFB" transform="translate(147,77)"/>
<path d="M0 0 C0 4 0 4 -1 6 C-1.15660883 8.62380313 -1.2582908 11.22524852 -1.31640625 13.8515625 C-1.33718735 14.62559418 -1.35796844 15.39962585 -1.37937927 16.19711304 C-1.44483448 18.67298392 -1.50374087 21.14896202 -1.5625 23.625 C-1.60568907 25.30209448 -1.64930348 26.97917807 -1.69335938 28.65625 C-1.80051171 32.77072308 -1.90179045 36.88530414 -2 41 C-5.54073904 41.5067183 -9.08272111 42.00417029 -12.625 42.5 C-13.62402344 42.64308594 -14.62304688 42.78617188 -15.65234375 42.93359375 C-25.90544572 44.35952184 -25.90544572 44.35952184 -30 44 C-33.19798479 40.69173987 -33.90761436 36.41283027 -34.28125 31.94921875 C-33.80598034 26.96548827 -31.47940517 22.76188854 -29.375 18.28515625 C-27.21149637 13.11610355 -27.21951354 9.34145937 -29 4 C-26.66799861 2.83399931 -24.75286137 2.60013997 -22.16796875 2.24609375 C-21.20439453 2.11396484 -20.24082031 1.98183594 -19.24804688 1.84570312 C-18.23806641 1.71099609 -17.22808594 1.57628906 -16.1875 1.4375 C-14.68993164 1.22963867 -14.68993164 1.22963867 -13.16210938 1.01757812 C-8.73262413 0.41852049 -4.47717435 -0.07997649 0 0 Z " fill="#FAFCFC" transform="translate(139,73)"/>
<path d="M0 0 C0.82497482 -0.00902847 1.64994965 -0.01805695 2.49992371 -0.02735901 C4.24576183 -0.04186393 5.99165435 -0.05074885 7.73754883 -0.05444336 C10.39824061 -0.0663182 13.05659613 -0.11547896 15.71679688 -0.16601562 C17.4153533 -0.17548283 19.11392393 -0.18271644 20.8125 -0.1875 C21.60332474 -0.20703232 22.39414948 -0.22656464 23.2089386 -0.24668884 C27.05327302 -0.21556282 29.89955767 0.13221093 33.10742188 2.35546875 C36.44905648 6.38946706 36.46343307 9.08824909 36.3671875 14.1796875 C36.37055618 15.02402847 36.37392487 15.86836945 36.37739563 16.73829651 C36.37709739 18.51935939 36.36190473 20.30047433 36.33276367 22.08129883 C36.29313293 24.79734207 36.31204624 27.50848719 36.33789062 30.22460938 C36.33032949 31.95965424 36.31937398 33.69468832 36.3046875 35.4296875 C36.31516365 36.63932411 36.31516365 36.63932411 36.32585144 37.87339783 C36.22988406 41.73573513 35.84686914 44.65890463 33.61889648 47.88452148 C29.55960128 51.234106 26.80636001 51.21285309 21.69140625 51.09765625 C20.41422226 51.09915176 20.41422226 51.09915176 19.11123657 51.10067749 C17.31755196 51.0960097 15.52385262 51.07663206 13.73046875 51.04345703 C10.98188699 50.99611818 8.23716905 51.00235722 5.48828125 51.015625 C3.74346642 51.00447506 1.99866792 50.99025754 0.25390625 50.97265625 C-0.97895615 50.97539047 -0.97895615 50.97539047 -2.23672485 50.97817993 C-7.92872575 50.83623047 -7.92872575 50.83623047 -10.43505859 48.33349609 C-10.75168457 47.68590332 -11.06831055 47.03831055 -11.39453125 46.37109375 C-7.39801814 45.07329426 -3.32112627 45.16374175 0.8359375 45.08984375 C2.02247673 45.06222961 2.02247673 45.06222961 3.23298645 45.03405762 C6.6114878 44.95548151 9.99017857 44.88737629 13.36889648 44.81884766 C15.83718171 44.76727225 18.30528791 44.70999378 20.7734375 44.65234375 C21.54318405 44.63876831 22.3129306 44.62519287 23.10600281 44.61120605 C26.65221426 44.8479838 26.65221426 44.8479838 29.60546875 43.37109375 C29.70642439 40.71653182 29.74517873 38.08854199 29.73828125 35.43359375 C29.73923798 34.63832275 29.7401947 33.84305176 29.74118042 33.02368164 C29.74186218 31.33902915 29.74000818 29.65437404 29.73583984 27.96972656 C29.7304915 25.38210178 29.73578494 22.79465059 29.7421875 20.20703125 C29.74152672 18.57421836 29.74024555 16.94140559 29.73828125 15.30859375 C29.74030548 14.52943604 29.74232971 13.75027832 29.74441528 12.94750977 C30.06386455 9.36315175 30.06386455 9.36315175 28.60546875 6.37109375 C26.02357429 6.270179 23.46900375 6.23137876 20.88671875 6.23828125 C20.1136438 6.23732452 19.34056885 6.2363678 18.54406738 6.23538208 C16.90649331 6.23470034 15.26891656 6.23655418 13.63134766 6.24072266 C11.11614954 6.24607104 8.60113002 6.24077749 6.0859375 6.234375 C4.49869752 6.23503578 2.91145765 6.23631695 1.32421875 6.23828125 C0.56693481 6.23625702 -0.19034912 6.23423279 -0.97058105 6.23214722 C-4.47468688 5.92655691 -4.47468688 5.92655691 -7.39453125 7.37109375 C-8.05913153 14.18711061 -7.04755871 21.00734206 -6.10620117 27.74829102 C-5.12035787 34.88972939 -5.12035787 34.88972939 -5.39453125 38.37109375 C-7.08203125 40.18359375 -7.08203125 40.18359375 -9.39453125 41.37109375 C-11.06054193 41.41785033 -12.72869132 41.4235829 -14.39453125 41.37109375 C-14.46888347 36.62055864 -14.52322816 31.87036488 -14.55932617 27.11938477 C-14.57438001 25.50441586 -14.59482773 23.88948762 -14.62084961 22.2746582 C-14.65738411 19.9486282 -14.6742914 17.62314034 -14.6875 15.296875 C-14.70298386 14.57897293 -14.71846771 13.86107086 -14.73442078 13.12141418 C-14.73590095 8.67732046 -14.15082198 5.88771274 -11.39453125 2.37109375 C-7.58034943 -0.17169413 -4.42632642 0.02978685 0 0 Z " fill="#FBB00E" transform="translate(151.39453125,71.62890625)"/>
<path d="M0 0 C2.49455917 3.74183875 2.37606522 5.56243036 2 10 C0.5 13.4375 0.5 13.4375 -1 16 C-1.33 16 -1.66 16 -2 16 C-2.13277344 15.21753906 -2.26554687 14.43507813 -2.40234375 13.62890625 C-2.57894531 12.61699219 -2.75554688 11.60507813 -2.9375 10.5625 C-3.11152344 9.55316406 -3.28554688 8.54382813 -3.46484375 7.50390625 C-3.74751097 5.0712562 -3.74751097 5.0712562 -5 4 C-13.67871623 4.05067863 -22.30512667 5.22833641 -30.875 6.5 C-31.76098877 6.63051758 -32.64697754 6.76103516 -33.55981445 6.89550781 C-37.61019332 7.20970449 -37.61019332 7.20970449 -41 9 C-41.63183384 17.84567372 -39.68370524 26.35965566 -38 35 C-37.78730469 36.09570312 -37.57460938 37.19140625 -37.35546875 38.3203125 C-36.91412157 40.5492745 -36.4608899 42.77503511 -36 45 C-27.98505154 45.27908417 -20.35250975 44.19838511 -12.4375 43 C-11.14263672 42.80921875 -9.84777344 42.6184375 -8.51367188 42.421875 C-5.34154771 41.95366479 -2.17042387 41.47956527 1 41 C1.16677282 37.58343976 1.16677282 37.58343976 1 34 C0.34 33.34 -0.32 32.68 -1 32 C-0.69041608 26.73707342 0.79518485 22.69721489 3 18 C7.37279312 22.37279312 7.05201565 31.47864881 7.375 37.5 C6.92308794 41.71784588 5.95576455 43.01487355 3 46 C0.1796875 47.0390625 0.1796875 47.0390625 -3.125 47.625 C-4.35734375 47.85058594 -5.5896875 48.07617188 -6.859375 48.30859375 C-7.52388672 48.41929199 -8.18839844 48.52999023 -8.87304688 48.64404297 C-11.13347547 49.02233784 -13.38650122 49.4335287 -15.640625 49.84765625 C-17.21844312 50.12932864 -18.79656597 50.40929977 -20.375 50.6875 C-21.11121582 50.81914551 -21.84743164 50.95079102 -22.60595703 51.08642578 C-27.47051137 51.90065508 -32.06576634 52.28588907 -37 52 C-42.23119177 48.24718851 -43.31329112 43.67125134 -44.43798828 37.65844727 C-48.58565857 12.44678199 -48.58565857 12.44678199 -47 7 C-41.80192807 0.4661107 -33.77475512 0.31647997 -26 -0.8125 C-24.63254265 -1.02890061 -23.2653508 -1.24698597 -21.8984375 -1.46679688 C-5.39861476 -4.04896107 -5.39861476 -4.04896107 0 0 Z " fill="#F51320" transform="translate(59,70)"/>
<path d="M0 0 C0.66 0 1.32 0 2 0 C2.08564209 0.62044189 2.17128418 1.24088379 2.25952148 1.88012695 C2.6492433 4.69133434 3.0433213 7.50191423 3.4375 10.3125 C3.57220703 11.28896484 3.70691406 12.26542969 3.84570312 13.27148438 C3.97783203 14.20927734 4.10996094 15.14707031 4.24609375 16.11328125 C4.36654053 16.97735596 4.4869873 17.84143066 4.61108398 18.73168945 C4.96777075 21.15558126 4.96777075 21.15558126 6 24 C6.40603893 28.60698012 6.54360209 32.69535498 4.75 37 C1.27362081 40.97300479 -2.61139952 41.39833834 -7.70703125 42.0703125 C-8.35065109 42.15626678 -8.99427094 42.24222107 -9.65739441 42.33078003 C-11.01601672 42.51059451 -12.37510959 42.68688458 -13.73461914 42.85986328 C-15.79635985 43.12294052 -17.85615066 43.39843963 -19.91601562 43.67578125 C-32.493093 45.32533061 -32.493093 45.32533061 -38 45 C-41.20087489 42.43930008 -43.63384958 39.89102527 -45 36 C-44.3203125 33.640625 -44.3203125 33.640625 -43.125 31.25 C-42.73570313 30.45078125 -42.34640625 29.6515625 -41.9453125 28.828125 C-41.63335937 28.22484375 -41.32140625 27.6215625 -41 27 C-39.20931427 29.6860286 -38.33944209 31.6626589 -37.375 34.6875 C-37.11460938 35.49574219 -36.85421875 36.30398437 -36.5859375 37.13671875 C-36.39257812 37.75160156 -36.19921875 38.36648437 -36 39 C-28.06126526 38.57988448 -20.23907342 37.70206644 -12.375 36.5625 C-11.49811523 36.44028076 -10.62123047 36.31806152 -9.71777344 36.19213867 C-8.47688965 36.00615112 -8.47688965 36.00615112 -7.2109375 35.81640625 C-6.47149902 35.70756104 -5.73206055 35.59871582 -4.97021484 35.48657227 C-2.69803088 35.04354068 -2.69803088 35.04354068 0 33 C-0.57560758 24.38551765 -0.57560758 24.38551765 -1.5625 15.8125 C-2.087302 11.2392254 -2.50351422 6.59136691 -2 2 C-1.34 1.34 -0.68 0.68 0 0 Z " fill="#0C75B9" transform="translate(145,77)"/>
<path d="M0 0 C0.825 0.103125 1.65 0.20625 2.5 0.3125 C5.00990718 4.07736078 5.12030594 6.95731894 4.5 11.3125 C3.40187843 14.70204473 1.92434188 17.8579625 0.375 21.0625 C-0.03516357 21.93632324 -0.44532715 22.81014648 -0.86791992 23.71044922 C-1.6881689 25.45000096 -2.51539992 27.18628021 -3.35009766 28.91894531 C-4.35325023 31.00703615 -5.32915347 33.10451223 -6.29296875 35.2109375 C-9.9041664 42.87893045 -9.9041664 42.87893045 -12.29296875 44.6171875 C-17.28458699 46.18976811 -21.27095219 45.30264015 -25.8984375 43.125 C-26.87167969 42.67382812 -27.84492187 42.22265625 -28.84765625 41.7578125 C-30.34619141 41.04238281 -30.34619141 41.04238281 -31.875 40.3125 C-33.40833984 39.59707031 -33.40833984 39.59707031 -34.97265625 38.8671875 C-37.48672959 37.69238687 -39.99538242 36.50729347 -42.5 35.3125 C-42.17 33.6625 -41.84 32.0125 -41.5 30.3125 C-35.58659829 31.06359739 -30.41545711 33.99063116 -25.09375 36.51757812 C-19.55387944 39.11609367 -19.55387944 39.11609367 -13.5 39.3125 C-13.33709473 38.78100342 -13.17418945 38.24950684 -13.00634766 37.7019043 C-10.77416699 30.69158059 -7.77667471 24.15402285 -4.640625 17.50976562 C-2.6027061 13.09989807 -0.9652526 9.21369548 -0.5 4.3125 C-1.82 3.6525 -3.14 2.9925 -4.5 2.3125 C-2.5 0.3125 -2.5 0.3125 0 0 Z " fill="#0B9F47" transform="translate(107.5,76.6875)"/>
<path d="M0 0 C-1.0703125 1.46875 -1.0703125 1.46875 -3 3 C-6.0546875 3.40625 -6.0546875 3.40625 -9.875 3.5 C-20.02277559 3.88137847 -29.97617368 5.44583906 -40 7 C-40 7.66 -40 8.32 -40 9 C-39.34 9.33 -38.68 9.66 -38 10 C-37.6281307 15.09770828 -38.76636141 18.31465455 -41 22.875 C-41.556875 24.02742188 -42.11375 25.17984375 -42.6875 26.3671875 C-43.120625 27.23601562 -43.55375 28.10484375 -44 29 C-47.60032599 25.39967401 -47.36670706 19.89418625 -48 15 C-48.12246094 14.22140625 -48.24492188 13.4428125 -48.37109375 12.640625 C-48.6302613 9.91143198 -48.49083151 7.72183069 -46.92358398 5.41699219 C-41.08163835 -0.20906145 -34.2868458 -0.52877249 -26.5 -1.375 C-25.20707031 -1.53871094 -23.91414063 -1.70242187 -22.58203125 -1.87109375 C-5.45322724 -3.96598345 -5.45322724 -3.96598345 0 0 Z " fill="#0F77BB" transform="translate(145,71)"/>
<path d="M0 0 C2.5 0.25 2.5 0.25 4.5 2.25 C4.125 5.375 4.125 5.375 3.5 8.25 C0.625 8.875 0.625 8.875 -2.5 9.25 C-4.5 7.25 -4.5 7.25 -4.75 4.75 C-4.40058445 1.25584452 -3.49415548 0.34941555 0 0 Z " fill="#383737" transform="translate(88.5,127.75)"/>
<path d="M0 0 C3.125 0.375 3.125 0.375 6 1 C6.125 3.875 6.125 3.875 6 7 C5.34 7.66 4.68 8.32 4 9 C-0.55555556 8.44444444 -0.55555556 8.44444444 -2 7 C-2.1875 4.5625 -2.1875 4.5625 -2 2 C-1.34 1.34 -0.68 0.68 0 0 Z " fill="#232222" transform="translate(127,128)"/>
<path d="M0 0 C0.33 0 0.66 0 1 0 C1.33719047 2.56204544 1.66987153 5.12454318 2 7.6875 C2.09539062 8.40873047 2.19078125 9.12996094 2.2890625 9.87304688 C3.3426893 18.11391359 3.3426893 18.11391359 3 21 C2.01 21.66 1.02 22.32 0 23 C0 15.41 0 7.82 0 0 Z " fill="#DDECF4" transform="translate(143,89)"/>
<path d="M0 0 C0.66 0 1.32 0 2 0 C2 0.99 2 1.98 2 3 C2.99 3 3.98 3 5 3 C5 2.01 5 1.02 5 0 C5.66 0 6.32 0 7 0 C7 2.97 7 5.94 7 9 C6.67 7.68 6.34 6.36 6 5 C4.68 5 3.36 5 2 5 C2 6.32 2 7.64 2 9 C1.34 9 0.68 9 0 9 C0 6.03 0 3.06 0 0 Z " fill="#363536" transform="translate(105,128)"/>
<path d="M0 0 C2.475 0.495 2.475 0.495 5 1 C5.36923077 6.41538462 5.36923077 6.41538462 3.5 9.375 C3.005 9.91125 2.51 10.4475 2 11 C0.80712589 7.12315913 0 4.08378077 0 0 Z " fill="#EAF4F4" transform="translate(102,80)"/>
<path d="M0 0 C1.98 0 3.96 0 6 0 C4.125 4.75 4.125 4.75 3 7 C3.99 7 4.98 7 6 7 C6 7.66 6 8.32 6 9 C4.02 9 2.04 9 0 9 C1.875 4.25 1.875 4.25 3 2 C2.01 2 1.02 2 0 2 C0 1.34 0 0.68 0 0 Z " fill="#3A3939" transform="translate(66,128)"/>
<path d="M0 0 C1.32 0.66 2.64 1.32 4 2 C3.67 3.32 3.34 4.64 3 6 C1.35 5.67 -0.3 5.34 -2 5 C-1.125 1.125 -1.125 1.125 0 0 Z " fill="#DFDFDF" transform="translate(128,129)"/>
<path d="M0 0 C2.475 0.495 2.475 0.495 5 1 C4.67 2.32 4.34 3.64 4 5 C2.68 5 1.36 5 0 5 C0 3.35 0 1.7 0 0 Z " fill="#F4F4F4" transform="translate(86,130)"/>
</svg>
