<?xml version="1.0" encoding="UTF-8"?>
<svg version="1.1" xmlns="http://www.w3.org/2000/svg" width="200" height="200">
<path d="M0 0 C1.47668858 0.0133035 2.95331108 0.03716415 4.4296875 0.0703125 C5.18378906 0.07933594 5.93789063 0.08835937 6.71484375 0.09765625 C8.57826004 0.1212438 10.44151343 0.15711531 12.3046875 0.1953125 C12.6346875 1.5153125 12.9646875 2.8353125 13.3046875 4.1953125 C13.9646875 4.1953125 14.6246875 4.1953125 15.3046875 4.1953125 C15.9646875 2.8753125 16.6246875 1.5553125 17.3046875 0.1953125 C20.9346875 0.1953125 24.5646875 0.1953125 28.3046875 0.1953125 C28.9646875 2.1753125 29.6246875 4.1553125 30.3046875 6.1953125 C30.9646875 6.1953125 31.6246875 6.1953125 32.3046875 6.1953125 C32.6346875 4.2153125 32.9646875 2.2353125 33.3046875 0.1953125 C37.2646875 0.1953125 41.2246875 0.1953125 45.3046875 0.1953125 C45.9646875 1.8453125 46.6246875 3.4953125 47.3046875 5.1953125 C47.9646875 3.5453125 48.6246875 1.8953125 49.3046875 0.1953125 C53.59629797 0.13747408 57.88780895 0.1017713 62.1796875 0.0703125 C63.40300781 0.05355469 64.62632813 0.03679687 65.88671875 0.01953125 C67.05332031 0.01308594 68.21992187 0.00664063 69.421875 0 C70.50065918 -0.01047363 71.57944336 -0.02094727 72.69091797 -0.03173828 C75.3046875 0.1953125 75.3046875 0.1953125 77.3046875 2.1953125 C77.9646875 1.5353125 78.6246875 0.8753125 79.3046875 0.1953125 C82.9296875 0.0703125 82.9296875 0.0703125 86.3046875 0.1953125 C84.3046875 3.1953125 82.3046875 6.1953125 80.3046875 9.1953125 C81.60565224 12.87011834 81.60565224 12.87011834 83.3046875 16.1953125 C80.9946875 16.1953125 78.6846875 16.1953125 76.3046875 16.1953125 C75.8096875 15.2053125 75.8096875 15.2053125 75.3046875 14.1953125 C74.6446875 14.8553125 73.9846875 15.5153125 73.3046875 16.1953125 C68.84507507 16.70939476 64.35303802 16.61211919 59.8671875 16.6328125 C57.98676758 16.68211914 57.98676758 16.68211914 56.06835938 16.73242188 C54.86888672 16.73951172 53.66941406 16.74660156 52.43359375 16.75390625 C50.77952515 16.77408813 50.77952515 16.77408813 49.09204102 16.79467773 C46.3046875 16.1953125 46.3046875 16.1953125 44.42163086 13.66040039 C44.05303955 12.84692139 43.68444824 12.03344238 43.3046875 11.1953125 C42.9746875 12.8453125 42.6446875 14.4953125 42.3046875 16.1953125 C38.0146875 16.1953125 33.7246875 16.1953125 29.3046875 16.1953125 C28.6446875 14.5453125 27.9846875 12.8953125 27.3046875 11.1953125 C26.6446875 12.8453125 25.9846875 14.4953125 25.3046875 16.1953125 C23.6546875 16.1953125 22.0046875 16.1953125 20.3046875 16.1953125 C20.6346875 12.5653125 20.9646875 8.9353125 21.3046875 5.1953125 C18.20875915 8.7040313 16.56274127 11.68728649 15.3046875 16.1953125 C13.3246875 16.1953125 11.3446875 16.1953125 9.3046875 16.1953125 C9.33723958 14.17708333 9.36979167 12.15885417 9.40234375 10.140625 C9.43117992 8.11345846 9.43117992 8.11345846 8.3046875 6.1953125 C6.9846875 6.1953125 5.6646875 6.1953125 4.3046875 6.1953125 C4.9646875 6.8553125 5.6246875 7.5153125 6.3046875 8.1953125 C6.7421875 11.1328125 6.7421875 11.1328125 6.3046875 14.1953125 C4.2421875 16.1328125 4.2421875 16.1328125 1.3046875 17.1953125 C-5.01674107 16.87388393 -5.01674107 16.87388393 -7.6953125 14.1953125 C-7.6953125 12.8753125 -7.6953125 11.5553125 -7.6953125 10.1953125 C-6.7053125 9.8653125 -5.7153125 9.5353125 -4.6953125 9.1953125 C-4.9015625 8.0815625 -5.1078125 6.9678125 -5.3203125 5.8203125 C-5.4440625 4.6240625 -5.5678125 3.4278125 -5.6953125 2.1953125 C-3.6953125 0.1953125 -3.6953125 0.1953125 0 0 Z M54.3046875 2.1953125 C55.3046875 6.1953125 55.3046875 6.1953125 55.3046875 6.1953125 Z M37.3046875 4.1953125 C38.3046875 8.1953125 38.3046875 8.1953125 38.3046875 8.1953125 Z M65.2421875 3.6953125 C63.9428125 3.8603125 62.6434375 4.0253125 61.3046875 4.1953125 C61.3046875 4.8553125 61.3046875 5.5153125 61.3046875 6.1953125 C64.2746875 6.6903125 64.2746875 6.6903125 67.3046875 7.1953125 C67.3046875 8.1853125 67.3046875 9.1753125 67.3046875 10.1953125 C64.6646875 10.1953125 62.0246875 10.1953125 59.3046875 10.1953125 C59.3046875 10.8553125 59.3046875 11.5153125 59.3046875 12.1953125 C62.32923368 12.84804576 65.20495501 13.3446972 68.3046875 13.1953125 C70.93361536 10.93438435 70.93361536 10.93438435 72.3046875 8.1953125 C71.6446875 6.5453125 70.9846875 4.8953125 70.3046875 3.1953125 C68.60337984 3.1953125 66.92821778 3.48121342 65.2421875 3.6953125 Z M53.3046875 6.1953125 C53.3046875 7.8453125 53.3046875 9.4953125 53.3046875 11.1953125 C53.6346875 11.1953125 53.9646875 11.1953125 54.3046875 11.1953125 C54.3046875 9.5453125 54.3046875 7.8953125 54.3046875 6.1953125 C53.9746875 6.1953125 53.6446875 6.1953125 53.3046875 6.1953125 Z M36.3046875 9.1953125 C37.3046875 13.1953125 37.3046875 13.1953125 37.3046875 13.1953125 Z M-1.6953125 10.1953125 C-1.3653125 11.1853125 -1.0353125 12.1753125 -0.6953125 13.1953125 C-0.0353125 12.5353125 0.6246875 11.8753125 1.3046875 11.1953125 C0.3146875 10.8653125 -0.6753125 10.5353125 -1.6953125 10.1953125 Z " fill="#1A1819" transform="translate(50.6953125,81.8046875)"/>
<path d="M0 0 C2.2957243 -0.00718537 4.37293521 0.16755579 6.62109375 0.6171875 C6.95109375 1.6071875 7.28109375 2.5971875 7.62109375 3.6171875 C8.28109375 2.6271875 8.94109375 1.6371875 9.62109375 0.6171875 C12.26109375 0.6171875 14.90109375 0.6171875 17.62109375 0.6171875 C17.62109375 7.8771875 17.62109375 15.1371875 17.62109375 22.6171875 C14.98109375 22.6171875 12.34109375 22.6171875 9.62109375 22.6171875 C9.29109375 21.6271875 8.96109375 20.6371875 8.62109375 19.6171875 C7.96109375 20.6071875 7.30109375 21.5971875 6.62109375 22.6171875 C4.45703125 22.91015625 4.45703125 22.91015625 1.99609375 22.8046875 C0.77019531 22.76408203 0.77019531 22.76408203 -0.48046875 22.72265625 C-1.10695312 22.68785156 -1.7334375 22.65304688 -2.37890625 22.6171875 C-2.70890625 21.6271875 -3.03890625 20.6371875 -3.37890625 19.6171875 C-4.03890625 20.6071875 -4.69890625 21.5971875 -5.37890625 22.6171875 C-7.54296875 22.91015625 -7.54296875 22.91015625 -10.00390625 22.8046875 C-11.22980469 22.76408203 -11.22980469 22.76408203 -12.48046875 22.72265625 C-13.10695312 22.68785156 -13.7334375 22.65304688 -14.37890625 22.6171875 C-12.97240151 19.71440112 -11.54250434 16.82726813 -10.078125 13.953125 C-9.00662781 11.84954202 -7.96334668 9.73111834 -6.9609375 7.59375 C-3.5478015 0.92044768 -3.5478015 0.92044768 0 0 Z " fill="#463C6D" transform="translate(169.37890625,76.3828125)"/>
<path d="M0 0 C6.75 -0.125 6.75 -0.125 9 1 C10.54023996 1.06950541 12.08334988 1.08452357 13.625 1.0625 C14.44226563 1.05347656 15.25953125 1.04445313 16.1015625 1.03515625 C16.72804688 1.02355469 17.35453125 1.01195313 18 1 C22.01923077 7.21153846 22.01923077 7.21153846 21.9375 10.5625 C19.125 17.875 19.125 17.875 17 20 C14.66705225 20.04241723 12.33297433 20.04092937 10 20 C7.68964533 19.95665532 7.68964533 19.95665532 4.1875 20.5 C1.37878769 20.51537616 0.38053472 20.36542002 -1.671875 18.39453125 C-3.66935714 15.40391895 -4.9739751 13.06702099 -5.0625 9.4375 C-3.61517112 6.11715727 -1.88228467 3.09666188 0 0 Z M3 9 C4 12 4 12 4 12 Z M13 9 C14 12 14 12 14 12 Z " fill="#908E8F" transform="translate(17,80)"/>
<path d="M0 0 C1.47668858 0.0133035 2.95331108 0.03716415 4.4296875 0.0703125 C5.18378906 0.07933594 5.93789063 0.08835937 6.71484375 0.09765625 C8.57826004 0.1212438 10.44151343 0.15711531 12.3046875 0.1953125 C12.6346875 1.5153125 12.9646875 2.8353125 13.3046875 4.1953125 C13.9646875 4.1953125 14.6246875 4.1953125 15.3046875 4.1953125 C15.9646875 2.8753125 16.6246875 1.5553125 17.3046875 0.1953125 C20.9346875 0.1953125 24.5646875 0.1953125 28.3046875 0.1953125 C28.3046875 0.5253125 28.3046875 0.8553125 28.3046875 1.1953125 C26.6546875 1.1953125 25.0046875 1.1953125 23.3046875 1.1953125 C22.9746875 2.1853125 22.6446875 3.1753125 22.3046875 4.1953125 C21.04181538 5.65247264 19.77891408 7.10960757 18.515625 8.56640625 C16.77142331 10.91263885 16.03882662 13.39223586 15.3046875 16.1953125 C13.3246875 16.1953125 11.3446875 16.1953125 9.3046875 16.1953125 C9.33723958 14.17708333 9.36979167 12.15885417 9.40234375 10.140625 C9.43117992 8.11345846 9.43117992 8.11345846 8.3046875 6.1953125 C6.9846875 6.1953125 5.6646875 6.1953125 4.3046875 6.1953125 C4.9646875 6.8553125 5.6246875 7.5153125 6.3046875 8.1953125 C6.7421875 11.1328125 6.7421875 11.1328125 6.3046875 14.1953125 C4.2421875 16.1328125 4.2421875 16.1328125 1.3046875 17.1953125 C-5.01674107 16.87388393 -5.01674107 16.87388393 -7.6953125 14.1953125 C-7.6953125 12.8753125 -7.6953125 11.5553125 -7.6953125 10.1953125 C-6.7053125 9.8653125 -5.7153125 9.5353125 -4.6953125 9.1953125 C-4.9015625 8.0815625 -5.1078125 6.9678125 -5.3203125 5.8203125 C-5.4440625 4.6240625 -5.5678125 3.4278125 -5.6953125 2.1953125 C-3.6953125 0.1953125 -3.6953125 0.1953125 0 0 Z M-1.6953125 10.1953125 C-1.3653125 11.1853125 -1.0353125 12.1753125 -0.6953125 13.1953125 C-0.0353125 12.5353125 0.6246875 11.8753125 1.3046875 11.1953125 C0.3146875 10.8653125 -0.6753125 10.5353125 -1.6953125 10.1953125 Z " fill="#1D1B1C" transform="translate(50.6953125,81.8046875)"/>
<path d="M0 0 C1.19625 0.185625 2.3925 0.37125 3.625 0.5625 C4.83277619 8.15423606 0.61202024 13.36837927 -3.375 19.5625 C-4.035 19.2325 -4.695 18.9025 -5.375 18.5625 C-6.035 19.5525 -6.695 20.5425 -7.375 21.5625 C-9.5390625 21.85546875 -9.5390625 21.85546875 -12 21.75 C-13.22589844 21.70939453 -13.22589844 21.70939453 -14.4765625 21.66796875 C-15.10304687 21.63316406 -15.72953125 21.59835938 -16.375 21.5625 C-14.44756848 17.52309565 -12.44271521 13.5319441 -10.375 9.5625 C-9.89546875 8.63824219 -9.4159375 7.71398437 -8.921875 6.76171875 C-5.01177882 0.02647066 -5.01177882 0.02647066 0 0 Z " fill="#CE273C" transform="translate(171.375,77.4375)"/>
<path d="M0 0 C0.99 0 1.98 0 3 0 C3 0.99 3 1.98 3 3 C3.66 3 4.32 3 5 3 C5 2.01 5 1.02 5 0 C11.93 0 18.86 0 26 0 C26.66 2.31 27.32 4.62 28 7 C27.01 7 26.02 7 25 7 C24.67 6.67 24.34 6.34 24 6 C23.67 6.66 23.34 7.32 23 8 C22.34 8 21.68 8 21 8 C21 6.02 21 4.04 21 2 C20.34 2 19.68 2 19 2 C19 3.98 19 5.96 19 8 C18.34 8 17.68 8 17 8 C17 6.02 17 4.04 17 2 C16.01 2.33 15.02 2.66 14 3 C14 4.65 14 6.3 14 8 C9.38 8 4.76 8 0 8 C0 5.36 0 2.72 0 0 Z " fill="#463F41" transform="translate(72,111)"/>
<path d="M0 0 C7.59 0 15.18 0 23 0 C21 6 21 6 20 7 C17.66705225 7.04241723 15.33297433 7.04092937 13 7 C11.01907972 7 9.03943952 7.12448003 7.0625 7.25 C3.28343014 7.25685857 3.28343014 7.25685857 1 5.1875 C0 3 0 3 0 0 Z " fill="#696D84" transform="translate(14,93)"/>
<path d="M0 0 C3.96 0 7.92 0 12 0 C12 0.99 12 1.98 12 3 C9.69 3 7.38 3 5 3 C5 3.66 5 4.32 5 5 C7.31 5 9.62 5 12 5 C11.67 6.32 11.34 7.64 11 9 C7.92382812 9.29296875 7.92382812 9.29296875 4.84765625 9.5859375 C4.23792969 9.72257812 3.62820312 9.85921875 3 10 C2.67 10.66 2.34 11.32 2 12 C4.64 12 7.28 12 10 12 C10 12.66 10 13.32 10 14 C6.04 14 2.08 14 -2 14 C-2.17139041 8.25842123 -2.18918389 5.47295973 0 0 Z " fill="#0E0D0E" transform="translate(107,83)"/>
<path d="M0 0 C10.23 0 20.46 0 31 0 C31.33 1.65 31.66 3.3 32 5 C21.44 5 10.88 5 0 5 C0 3.35 0 1.7 0 0 Z M16 1 C17 3 17 3 17 3 Z " fill="#534B6F" transform="translate(155,101)"/>
<path d="M0 0 C1.67004829 0.31595508 3.33637583 0.65179959 5 1 C6.32 1 7.64 1 9 1 C9.33 1.33 9.66 1.66 10 2 C10.33 1.34 10.66 0.68 11 0 C13.64 0 16.28 0 19 0 C19 2.64 19 5.28 19 8 C12.9453125 8.1953125 12.9453125 8.1953125 11 8 C10.34 7.34 9.68 6.68 9 6 C8.67 6.66 8.34 7.32 8 8 C4.72724974 8 2.153368 7.70074844 -1 7 C-1.04254356 5.00045254 -1.04080783 2.99958364 -1 1 C-0.67 0.67 -0.34 0.34 0 0 Z M1 2 C1 3.32 1 4.64 1 6 C1.99 6 2.98 6 4 6 C3.67 4.68 3.34 3.36 3 2 C2.34 2 1.68 2 1 2 Z " fill="#4B4346" transform="translate(153,111)"/>
<path d="M0 0 C2.64 0 5.28 0 8 0 C8 7.26 8 14.52 8 22 C5.36 22 2.72 22 0 22 C-1.35384615 15.72307692 -1.35384615 15.72307692 0.4375 12.0625 C0.953125 11.381875 1.46875 10.70125 2 10 C2.33 10.66 2.66 11.32 3 12 C2.0625 14.125 2.0625 14.125 1 16 C4.2542015 13.16569547 5.5206753 11.31392226 6 7 C5.01 7.495 5.01 7.495 4 8 C4.66 6.02 5.32 4.04 6 2 C3.03 1.505 3.03 1.505 0 1 C0 0.67 0 0.34 0 0 Z " fill="#50496E" transform="translate(179,77)"/>
<path d="M0 0 C10 0 10 0 13.0625 0.5625 C15.92588543 1.27626304 15.92588543 1.27626304 18 0 C18 2.64 18 5.28 18 8 C17.34 8 16.68 8 16 8 C15.67 7.34 15.34 6.68 15 6 C14.67 6.66 14.34 7.32 14 8 C13.34 8 12.68 8 12 8 C11.67 6.35 11.34 4.7 11 3 C10.34 4.65 9.68 6.3 9 8 C8.34 8 7.68 8 7 8 C6.67 6.35 6.34 4.7 6 3 C5.67 4.32 5.34 5.64 5 7 C3.35 7.33 1.7 7.66 0 8 C-0.98120464 4.94736336 -0.98120464 3.05263664 0 0 Z " fill="#494245" transform="translate(30,111)"/>
<path d="M0 0 C2.64 0 5.28 0 8 0 C7.67 1.32 7.34 2.64 7 4 C7.33 4 7.66 4 8 4 C7.25531915 11.74468085 7.25531915 11.74468085 4 15 C3.34 15 2.68 15 2 15 C2 14.01 2 13.02 2 12 C1.34 12.66 0.68 13.32 0 14 C-0.66 14 -1.32 14 -2 14 C-1.690625 13.2575 -1.38125 12.515 -1.0625 11.75 C-0.1905075 9.49307824 0.47667007 7.3549847 1 5 C0.34 5 -0.32 5 -1 5 C-0.67 3.35 -0.34 1.7 0 0 Z " fill="#302B6C" transform="translate(178,78)"/>
<path d="M0 0 C1.98 0 3.96 0 6 0 C6 1.98 6 3.96 6 6 C7.15811388 3.05270463 7.15811388 3.05270463 7 0 C9 0 11 0 13 0 C12.814375 0.5775 12.62875 1.155 12.4375 1.75 C11.95976454 4.20692525 12.24270636 5.64397534 13 8 C12.360625 7.814375 11.72125 7.62875 11.0625 7.4375 C10.0415625 7.2209375 10.0415625 7.2209375 9 7 C8.67 7.33 8.34 7.66 8 8 C5.32941149 8.14115161 2.67567762 8.04247107 0 8 C0 5.36 0 2.72 0 0 Z " fill="#484043" transform="translate(56,111)"/>
<path d="M0 0 C7.59 0 15.18 0 23 0 C22.67 0.99 22.34 1.98 22 3 C14.74 3 7.48 3 0 3 C0 2.01 0 1.02 0 0 Z " fill="#248B85" transform="translate(14,93)"/>
<path d="M0 0 C8.33333333 0 16.66666667 0 25 0 C25 0.99 25 1.98 25 3 C16.75 3 8.5 3 0 3 C0 2.01 0 1.02 0 0 Z " fill="#D3373D" transform="translate(13,90)"/>
<path d="M0 0 C2.9375 0.375 2.9375 0.375 6 1 C6.33 1.66 6.66 2.32 7 3 C7.33 2.01 7.66 1.02 8 0 C8.99 0.33 9.98 0.66 11 1 C12.1875 4.5625 12.1875 4.5625 13 8 C12.34 8 11.68 8 11 8 C11 7.34 11 6.68 11 6 C10.01 6 9.02 6 8 6 C8 6.66 8 7.32 8 8 C5.36 8 2.72 8 0 8 C0 5.36 0 2.72 0 0 Z M2 2 C2 3.32 2 4.64 2 6 C2.66 6 3.32 6 4 6 C4 4.68 4 3.36 4 2 C3.34 2 2.68 2 2 2 Z " fill="#403A3D" transform="translate(108,111)"/>
<path d="M0 0 C1.671549 0.30791692 3.33805547 0.64386903 5 1 C5.99 1 6.98 1 8 1 C8 3.31 8 5.62 8 8 C4.72724974 8 2.153368 7.70074844 -1 7 C-1.04254356 5.00045254 -1.04080783 2.99958364 -1 1 C-0.67 0.67 -0.34 0.34 0 0 Z M1 2 C1 3.32 1 4.64 1 6 C1.99 6 2.98 6 4 6 C3.67 4.68 3.34 3.36 3 2 C2.34 2 1.68 2 1 2 Z " fill="#4C4447" transform="translate(153,111)"/>
<path d="M0 0 C0.66 0 1.32 0 2 0 C2.33 0.99 2.66 1.98 3 3 C3.33 2.01 3.66 1.02 4 0 C4.99 0.33 5.98 0.66 7 1 C8.1875 4.5625 8.1875 4.5625 9 8 C8.34 8 7.68 8 7 8 C7 7.34 7 6.68 7 6 C6.01 6 5.02 6 4 6 C4 6.66 4 7.32 4 8 C2.68 8 1.36 8 0 8 C0 5.36 0 2.72 0 0 Z " fill="#403A3D" transform="translate(180,111)"/>
<path d="M0 0 C0.66 0.33 1.32 0.66 2 1 C2.99 0.67 3.98 0.34 5 0 C5.042721 1.66611905 5.04063832 3.33382885 5 5 C4 6 4 6 1.93359375 6.09765625 C1.10988281 6.08605469 0.28617188 6.07445313 -0.5625 6.0625 C-1.38878906 6.05347656 -2.21507812 6.04445313 -3.06640625 6.03515625 C-3.70449219 6.02355469 -4.34257812 6.01195313 -5 6 C-4.1875 3.5625 -4.1875 3.5625 -3 1 C-2.01 0.67 -1.02 0.34 0 0 Z " fill="#3D366E" transform="translate(172,93)"/>
<path d="M0 0 C0.99 0 1.98 0 3 0 C3 0.99 3 1.98 3 3 C3.66 3 4.32 3 5 3 C5 2.34 5 1.68 5 1 C5.66 1 6.32 1 7 1 C7 2.98 7 4.96 7 7 C4.69 7.33 2.38 7.66 0 8 C0 5.36 0 2.72 0 0 Z " fill="#3E383A" transform="translate(72,111)"/>
<path d="M0 0 C2 0 4 0 6 0 C6 2.64 6 5.28 6 8 C4 8 2 8 0 8 C0 5.36 0 2.72 0 0 Z " fill="#463F42" transform="translate(138,111)"/>
<path d="M0 0 C1.134375 0.020625 2.26875 0.04125 3.4375 0.0625 C3.128125 0.64 2.81875 1.2175 2.5 1.8125 C1.51166636 3.90544184 0.9206387 5.80785275 0.4375 8.0625 C-1.2125 7.7325 -2.8625 7.4025 -4.5625 7.0625 C-4.60504356 5.06295254 -4.60330783 3.06208364 -4.5625 1.0625 C-3.5625 0.0625 -3.5625 0.0625 0 0 Z " fill="#4D4548" transform="translate(33.5625,110.9375)"/>
<path d="M0 0 C1.65 0.33 3.3 0.66 5 1 C5 2.98 5 4.96 5 7 C3.35 7.33 1.7 7.66 0 8 C-0.98120464 4.94736336 -0.98120464 3.05263664 0 0 Z " fill="#474043" transform="translate(174,111)"/>
<path d="M0 0 C1.66611905 -0.042721 3.33382885 -0.04063832 5 0 C6 1 6 1 6.125 4 C6 7 6 7 5 8 C3.33382885 8.04063832 1.66611905 8.042721 0 8 C0 5.36 0 2.72 0 0 Z M2 2 C2 3.32 2 4.64 2 6 C2.66 6 3.32 6 4 6 C4 4.68 4 3.36 4 2 C3.34 2 2.68 2 2 2 Z " fill="#433D3F" transform="translate(145,111)"/>
<path d="M0 0 C1 1 1 1 1.125 3.5 C1 6 1 6 0 7 C-2.5 7.125 -2.5 7.125 -5 7 C-6 6 -6 6 -6.0625 2.9375 C-6.041875 1.968125 -6.02125 0.99875 -6 0 C-3.49749232 -1.25125384 -2.59701335 -0.83774624 0 0 Z M-4 1 C-4 2.32 -4 3.64 -4 5 C-3.01 5 -2.02 5 -1 5 C-1 3.68 -1 2.36 -1 1 C-1.99 1 -2.98 1 -4 1 Z " fill="#453E41" transform="translate(106,112)"/>
<path d="M0 0 C1.98 0.99 1.98 0.99 4 2 C4.66 1.34 5.32 0.68 6 0 C6 2.64 6 5.28 6 8 C5.34 8 4.68 8 4 8 C3.67 7.34 3.34 6.68 3 6 C2.67 6.66 2.34 7.32 2 8 C1.34 8 0.68 8 0 8 C0 5.36 0 2.72 0 0 Z " fill="#423C3E" transform="translate(49,111)"/>
<path d="M0 0 C2.97 0 5.94 0 9 0 C9.28875 0.804375 9.5775 1.60875 9.875 2.4375 C10.73262568 5.1326468 10.73262568 5.1326468 13 6 C12.39816251 8.02045442 11.72693904 10.02111039 11 12 C10.01 12.495 10.01 12.495 9 13 C9.33 11.35 9.66 9.7 10 8 C9.01 8.66 8.02 9.32 7 10 C7.33 7.03 7.66 4.06 8 1 C5.36 1 2.72 1 0 1 C0 0.67 0 0.34 0 0 Z " fill="#684867" transform="translate(167,77)"/>
<path d="M0 0 C0.33 0.66 0.66 1.32 1 2 C0.0625 4.125 0.0625 4.125 -1 6 C0.65 4.68 2.3 3.36 4 2 C2.80100302 5.0831351 1.52299523 8.06279492 0 11 C0.66 11.33 1.32 11.66 2 12 C0.68 12 -0.64 12 -2 12 C-3.35384615 5.72307692 -3.35384615 5.72307692 -1.5625 2.0625 C-1.046875 1.381875 -0.53125 0.70125 0 0 Z " fill="#534B71" transform="translate(181,87)"/>
<path d="M0 0 C0.66 0 1.32 0 2 0 C3.25664978 2.90600261 4 4.79604584 4 8 C3.34 8 2.68 8 2 8 C2 7.34 2 6.68 2 6 C1.01 6 0.02 6 -1 6 C-1 6.66 -1 7.32 -1 8 C-1.66 8 -2.32 8 -3 8 C-1.125 1.125 -1.125 1.125 0 0 Z " fill="#453E41" transform="translate(128,111)"/>
<path d="M0 0 C2.64 0 5.28 0 8 0 C6.515 1.98 6.515 1.98 5 4 C5.66 4.33 6.32 4.66 7 5 C4.36 5 1.72 5 -1 5 C-0.67 3.35 -0.34 1.7 0 0 Z M2 1 C3 3 3 3 3 3 Z " fill="#5E556F" transform="translate(169,101)"/>
<path d="M0 0 C0 2.64 0 5.28 0 8 C-0.66 8 -1.32 8 -2 8 C-2.33 7.34 -2.66 6.68 -3 6 C-3.99 6.495 -3.99 6.495 -5 7 C-5 5.02 -5 3.04 -5 1 C-1.125 0 -1.125 0 0 0 Z " fill="#383335" transform="translate(48,111)"/>
<path d="M0 0 C1.65 0 3.3 0 5 0 C5.33 1.32 5.66 2.64 6 4 C4.35 4.33 2.7 4.66 1 5 C0.67 5.99 0.34 6.98 0 8 C0 5.36 0 2.72 0 0 Z " fill="#3F383B" transform="translate(12,111)"/>
<path d="M0 0 C2.97 0 5.94 0 9 0 C8.67 0.99 8.34 1.98 8 3 C5.69 3 3.38 3 1 3 C0.67 2.01 0.34 1.02 0 0 Z " fill="#2D598F" transform="translate(26,97)"/>
<path d="M0 0 C1.98 0 3.96 0 6 0 C6 0.66 6 1.32 6 2 C5.34 2 4.68 2 4 2 C4 3.98 4 5.96 4 8 C3.34 8 2.68 8 2 8 C2 6.02 2 4.04 2 2 C1.34 2 0.68 2 0 2 C0 1.34 0 0.68 0 0 Z " fill="#474042" transform="translate(18,111)"/>
<path d="M0 0 C1.98 0 3.96 0 6 0 C6 0.66 6 1.32 6 2 C5.34 2 4.68 2 4 2 C4 3.98 4 5.96 4 8 C3.34 8 2.68 8 2 8 C2 6.02 2 4.04 2 2 C1.34 2 0.68 2 0 2 C0 1.34 0 0.68 0 0 Z " fill="#423B3D" transform="translate(120,111)"/>
<path d="M0 0 C2.31 0 4.62 0 7 0 C7 0.99 7 1.98 7 3 C4.36 3 1.72 3 -1 3 C-0.67 2.01 -0.34 1.02 0 0 Z " fill="#2D588F" transform="translate(18,97)"/>
<path d="M0 0 C1.66666667 0 3.33333333 0 5 0 C5 1.98 5 3.96 5 6 C3.33333333 6 1.66666667 6 0 6 C0 4.02 0 2.04 0 0 Z " fill="#2B282B" transform="translate(160,112)"/>
<path d="M0 0 C0.33 0.66 0.66 1.32 1 2 C0.06553465 4.03144641 -0.93224776 6.03533587 -2 8 C-2.99 8 -3.98 8 -5 8 C-4.64950425 4.75791433 -4.43778819 3.38472296 -1.9375 1.1875 C-1.298125 0.795625 -0.65875 0.40375 0 0 Z " fill="#392E6B" transform="translate(177,84)"/>
<path d="M0 0 C0.33 0 0.66 0 1 0 C0.125 6.75 0.125 6.75 -1 9 C-1.99 9 -2.98 9 -4 9 C-2.80100302 5.9168649 -1.52299523 2.93720508 0 0 Z " fill="#2C276B" transform="translate(185,89)"/>
<path d="M0 0 C0.99 0.33 1.98 0.66 3 1 C2.67 2.32 2.34 3.64 2 5 C0.35 4.67 -1.3 4.34 -3 4 C-3 3.34 -3 2.68 -3 2 C-2.01 1.34 -1.02 0.68 0 0 Z " fill="#443E40" transform="translate(32,114)"/>
<path d="M0 0 C0.66 0 1.32 0 2 0 C2.66 2.64 3.32 5.28 4 8 C2.68 8 1.36 8 0 8 C0 5.36 0 2.72 0 0 Z " fill="#4F474A" transform="translate(180,111)"/>
<path d="M0 0 C0.66 0 1.32 0 2 0 C2 2.64 2 5.28 2 8 C1.34 8 0.68 8 0 8 C0 5.36 0 2.72 0 0 Z " fill="#4D474A" transform="translate(135,111)"/>
<path d="M0 0 C0.66 0 1.32 0 2 0 C2 0.66 2 1.32 2 2 C1.34 2 0.68 2 0 2 C0 1.34 0 0.68 0 0 Z " fill="#564C4F" transform="translate(23,117)"/>
</svg>
