<?xml version="1.0" encoding="UTF-8"?>
<svg version="1.1" xmlns="http://www.w3.org/2000/svg" width="200" height="200">
<path d="M0 0 C0.33 2.31 0.66 4.62 1 7 C1.66 6.34 2.32 5.68 3 5 C6.125 4.875 6.125 4.875 9 5 C9.33 6.65 9.66 8.3 10 10 C10.33 6.7 10.66 3.4 11 0 C13.475 0.495 13.475 0.495 16 1 C16.495 3.97 16.495 3.97 17 7 C17.66 6.34 18.32 5.68 19 5 C22.5 4.75 22.5 4.75 26 5 C26.66 5.66 27.32 6.32 28 7 C28.33 6.34 28.66 5.68 29 5 C30.62490954 4.97301811 32.24994633 4.95361243 33.875 4.9375 C35.23238281 4.92009766 35.23238281 4.92009766 36.6171875 4.90234375 C39 5 39 5 41 6 C41.66 5.67 42.32 5.34 43 5 C46.5 4.8125 46.5 4.8125 50 5 C50.99 5.99 50.99 5.99 52 7 C52.33 6.34 52.66 5.68 53 5 C55.32156597 4.59270772 57.6568787 4.25561323 60 4 C60.33 2.68 60.66 1.36 61 0 C62.65 0 64.3 0 66 0 C66.495 3.465 66.495 3.465 67 7 C67.66 6.34 68.32 5.68 69 5 C73.33643601 4.68462284 75.32653229 4.55102153 79 7 C79.66 6.34 80.32 5.68 81 5 C86.33333333 4.66666667 86.33333333 4.66666667 89 6 C88.7215625 6.8353125 88.7215625 6.8353125 88.4375 7.6875 C87.83463761 10.05608681 87.83463761 10.05608681 88.5625 12.625 C88.7790625 13.800625 88.7790625 13.800625 89 15 C87 17 87 17 83.5625 17.1875 C80 17 80 17 77 16 C76.505 16.495 76.505 16.495 76 17 C72.5625 17.1875 72.5625 17.1875 69 17 C68.01 16.01 68.01 16.01 67 15 C66.67 15.66 66.34 16.32 66 17 C64.35 17 62.7 17 61 17 C61 14.36 61 11.72 61 9 C60.34 9.33 59.68 9.66 59 10 C58.67 12.31 58.34 14.62 58 17 C50.74 17 43.48 17 36 17 C36 14.36 36 11.72 36 9 C35.34 9 34.68 9 34 9 C34 11.64 34 14.28 34 17 C32.35 17 30.7 17 29 17 C28.505 16.01 28.505 16.01 28 15 C27.34 15.66 26.68 16.32 26 17 C22.5 17.25 22.5 17.25 19 17 C18.34 16.34 17.68 15.68 17 15 C16.67 15.66 16.34 16.32 16 17 C9 17 2 17 -5 17 C-5.33 14.36 -5.66 11.72 -6 9 C-6.99 11.64 -7.98 14.28 -9 17 C-10.65 17 -12.3 17 -14 17 C-14.8394882 14.89828133 -15.67139656 12.79353375 -16.5 10.6875 C-16.9640625 9.51574219 -17.428125 8.34398438 -17.90625 7.13671875 C-19 4 -19 4 -19 1 C-17.35 1 -15.7 1 -14 1 C-13.34 2.98 -12.68 4.96 -12 7 C-11.608125 6.030625 -11.21625 5.06125 -10.8125 4.0625 C-9 1 -9 1 -6.5625 0.125 C-4.37720166 0.01840008 -2.18789679 0 0 0 Z M-5 3 C-4 5 -4 5 -4 5 Z M41 8 C41 8.66 41 9.32 41 10 C41.66 9.67 42.32 9.34 43 9 C42.34 8.67 41.68 8.34 41 8 Z M21 9 C21 10.32 21 11.64 21 13 C21.99 12.67 22.98 12.34 24 12 C23.67 11.01 23.34 10.02 23 9 C22.34 9 21.68 9 21 9 Z " fill="#575656" transform="translate(93,104)"/>
<path d="M0 0 C1.875 1.375 1.875 1.375 3 3 C3 3.99 3 4.98 3 6 C4.32 6 5.64 6 7 6 C7 7.32 7 8.64 7 10 C6.236875 10.45375 5.47375 10.9075 4.6875 11.375 C1.3341356 13.40261568 0.49892338 15.44991832 -1 19 C3.57478244 16.9785845 6.61831569 14.68006822 10 11 C10.99 11.33 11.98 11.66 13 12 C13 12.99 13 13.98 13 15 C13.804375 15.4125 14.60875 15.825 15.4375 16.25 C18 18 18 18 19.125 21.375 C19 25 19 25 16.625 27.6875 C15.75875 28.450625 14.8925 29.21375 14 30 C13.13880866 32.17346568 13.13880866 32.17346568 13 34 C10.8125 33.875 10.8125 33.875 8 33 C6.30911778 31.02043058 4.64169528 29.02054804 3 27 C0.83468832 26.05563651 0.83468832 26.05563651 -1 26 C1.00584207 30.75067859 2.65219627 32.41481941 7 35 C7 36.32 7 37.64 7 39 C5.68 39 4.36 39 3 39 C2.9175 39.598125 2.835 40.19625 2.75 40.8125 C1.74714695 43.73748806 0.74232413 44.5917795 -2 46 C-5.24162743 45.86768868 -7.24360053 45.55469295 -9.875 43.625 C-11 42 -11 42 -11 39 C-12.32 39 -13.64 39 -15 39 C-15 37.68 -15 36.36 -15 35 C-13.51338337 33.73960764 -12.02089671 32.48344043 -10.46875 31.3046875 C-8.44099904 29.50344064 -7.7346828 27.5713898 -7 25 C-10.2827046 27.01438691 -12.75527246 28.68329377 -15.125 31.75 C-16.053125 32.86375 -16.053125 32.86375 -17 34 C-18.32 34 -19.64 34 -21 34 C-21.061875 33.443125 -21.12375 32.88625 -21.1875 32.3125 C-21.88674217 29.71995178 -21.88674217 29.71995178 -24.625 27.6875 C-27 25 -27 25 -26.9375 21.3125 C-26 18 -26 18 -24 16 C-23.01 16 -22.02 16 -21 16 C-21 14.35 -21 12.7 -21 11 C-18.8125 11.125 -18.8125 11.125 -16 12 C-14.2856382 13.95927063 -12.61594832 15.95880212 -11 18 C-10.01 18.33 -9.02 18.66 -8 19 C-9.03596417 15.6095718 -9.7873535 14.1670794 -12.625 11.9375 C-13.40875 11.298125 -14.1925 10.65875 -15 10 C-15 8.68 -15 7.36 -15 6 C-13.68 6 -12.36 6 -11 6 C-10.9175 5.401875 -10.835 4.80375 -10.75 4.1875 C-8.86828872 -1.30082457 -5.06723148 -1.5093881 0 0 Z M-6 3 C-7.29633621 4.06645115 -7.29633621 4.06645115 -7.0625 6.5625 C-7.041875 7.366875 -7.02125 8.17125 -7 9 C-3.95086772 10.01111093 -3.95086772 10.01111093 -1 9 C-1 7.35 -1 5.7 -1 4 C-2.65614657 3.61781233 -4.32457024 3.28604898 -6 3 Z M-21 19 C-21.66 19.66 -22.32 20.32 -23 21 C-22.67958603 23.60280568 -22.67958603 23.60280568 -22 26 C-20.35 25.67 -18.7 25.34 -17 25 C-17 23.35 -17 21.7 -17 20 C-18.89179203 19.3185177 -18.89179203 19.3185177 -21 19 Z M11 19 C10.01 19.99 9.02 20.98 8 22 C8.66 23.32 9.32 24.64 10 26 C11.32 25.67 12.64 25.34 14 25 C14.33 23.68 14.66 22.36 15 21 C13.68 20.34 12.36 19.68 11 19 Z M-7 36 C-7 37.65 -7 39.3 -7 41 C-5.34385343 41.38218767 -3.67542976 41.71395102 -2 42 C-0.70366379 40.93354885 -0.70366379 40.93354885 -0.9375 38.4375 C-0.958125 37.633125 -0.97875 36.82875 -1 36 C-4.04913228 34.98888907 -4.04913228 34.98888907 -7 36 Z " fill="#F39200" transform="translate(37,78)"/>
<path d="M0 0 C1.65 0 3.3 0 5 0 C5 3.96 5 7.92 5 12 C5.66 12 6.32 12 7 12 C6.938125 11.236875 6.87625 10.47375 6.8125 9.6875 C7 7 7 7 8.125 5.1875 C10.87155972 3.44801218 12.81846974 3.60230872 16 4 C17.875 5.5 17.875 5.5 19 7 C19.34675781 6.50886719 19.69351563 6.01773438 20.05078125 5.51171875 C23.00245834 3.22254233 25.52009699 3.7115623 29.1875 3.8125 C31.09595703 3.85310547 31.09595703 3.85310547 33.04296875 3.89453125 C34.50669922 3.94673828 34.50669922 3.94673828 36 4 C36.495 5.98 36.495 5.98 37 8 C37.66 8 38.32 8 39 8 C39 6.68 39 5.36 39 4 C40.65 4 42.3 4 44 4 C41.37359551 17.62640449 41.37359551 17.62640449 38 21 C36.33382885 21.04063832 34.66611905 21.042721 33 21 C32.91773332 17.95613276 33.02391783 15.92824652 34 13 C33.505 11.515 33.505 11.515 33 10 C32.89042969 10.62648438 32.78085938 11.25296875 32.66796875 11.8984375 C32.50941406 12.71570313 32.35085937 13.53296875 32.1875 14.375 C32.03667969 15.18710938 31.88585937 15.99921875 31.73046875 16.8359375 C31 19 31 19 28 21 C23.92509248 21.33957563 22.46998729 21.31332486 19 19 C19.33 17.68 19.66 16.36 20 15 C17.80182317 14.88444995 17.80182317 14.88444995 15.125 16.0625 C11.87978753 17.03606374 11.08320679 16.89512455 8 16 C7.154375 16.20625 6.30875 16.4125 5.4375 16.625 C4.633125 16.74875 3.82875 16.8725 3 17 C1.1875 15.5625 1.1875 15.5625 0 14 C-0.70125 14.53625 -1.4025 15.0725 -2.125 15.625 C-5 17 -5 17 -8.25 16.25 C-11 15 -11 15 -12 14 C-12.45985401 7.7919708 -12.45985401 7.7919708 -10.875 5.0625 C-8.15050101 3.51861724 -6.07108055 3.6732893 -3 4 C-2.34 4.66 -1.68 5.32 -1 6 C-0.67 4.02 -0.34 2.04 0 0 Z M-7 8 C-7 9.32 -7 10.64 -7 12 C-6.01 11.67 -5.02 11.34 -4 11 C-4.33 10.01 -4.66 9.02 -5 8 C-5.66 8 -6.32 8 -7 8 Z M12 8 C12 9.32 12 10.64 12 12 C12.99 11.67 13.98 11.34 15 11 C14.67 10.01 14.34 9.02 14 8 C13.34 8 12.68 8 12 8 Z M25 8 C24.67 9.32 24.34 10.64 24 12 C24.99 12 25.98 12 27 12 C26.67 10.68 26.34 9.36 26 8 C25.67 8 25.34 8 25 8 Z M23 16 C27 17 27 17 27 17 Z " fill="#575656" transform="translate(146,80)"/>
<path d="M0 0 C1.875 1.375 1.875 1.375 3 3 C3 3.99 3 4.98 3 6 C4.32 6 5.64 6 7 6 C7 7.32 7 8.64 7 10 C6.278125 10.391875 5.55625 10.78375 4.8125 11.1875 C0.68495802 13.8474715 -0.86954587 17.6756314 -3 22 C-3.66 22 -4.32 22 -5 22 C-5.33 22.99 -5.66 23.98 -6 25 C-6.9075 25.433125 -7.815 25.86625 -8.75 26.3125 C-11.78175475 27.88668035 -12.6772 28.6105969 -14.625 31.1875 C-15.40875 32.115625 -16.1925 33.04375 -17 34 C-18.32 34 -19.64 34 -21 34 C-21.061875 33.443125 -21.12375 32.88625 -21.1875 32.3125 C-21.88674217 29.71995178 -21.88674217 29.71995178 -24.625 27.6875 C-27 25 -27 25 -26.9375 21.3125 C-26 18 -26 18 -24 16 C-23.01 16 -22.02 16 -21 16 C-21 14.35 -21 12.7 -21 11 C-18.8125 11.125 -18.8125 11.125 -16 12 C-14.2856382 13.95927063 -12.61594832 15.95880212 -11 18 C-10.01 18.33 -9.02 18.66 -8 19 C-9.03596417 15.6095718 -9.7873535 14.1670794 -12.625 11.9375 C-13.40875 11.298125 -14.1925 10.65875 -15 10 C-15 8.68 -15 7.36 -15 6 C-13.68 6 -12.36 6 -11 6 C-10.9175 5.401875 -10.835 4.80375 -10.75 4.1875 C-8.86828872 -1.30082457 -5.06723148 -1.5093881 0 0 Z M-6 3 C-7.29633621 4.06645115 -7.29633621 4.06645115 -7.0625 6.5625 C-7.041875 7.366875 -7.02125 8.17125 -7 9 C-3.95086772 10.01111093 -3.95086772 10.01111093 -1 9 C-1 7.35 -1 5.7 -1 4 C-2.65614657 3.61781233 -4.32457024 3.28604898 -6 3 Z M-21 19 C-21.66 19.66 -22.32 20.32 -23 21 C-22.67958603 23.60280568 -22.67958603 23.60280568 -22 26 C-20.35 25.67 -18.7 25.34 -17 25 C-17 23.35 -17 21.7 -17 20 C-18.89179203 19.3185177 -18.89179203 19.3185177 -21 19 Z " fill="#1FB0E6" transform="translate(37,78)"/>
<path d="M0 0 C1.65 0 3.3 0 5 0 C5.33 1.32 5.66 2.64 6 4 C6.804375 4.144375 7.60875 4.28875 8.4375 4.4375 C11 5 11 5 12 6 C12.07205511 7.68608966 12.08386068 9.37500659 12.0625 11.0625 C12.05347656 11.98160156 12.04445312 12.90070313 12.03515625 13.84765625 C12.02355469 14.55792969 12.01195312 15.26820312 12 16 C10.35 16 8.7 16 7 16 C6.67 13.69 6.34 11.38 6 9 C5.67 11.31 5.34 13.62 5 16 C3.9275 15.979375 2.855 15.95875 1.75 15.9375 C-1.76928459 15.80836843 -1.76928459 15.80836843 -4.0625 16.6875 C-6 17 -6 17 -8.9375 15.375 C-9.948125 14.92125 -10.95875 14.4675 -12 14 C-13.68496298 14.96885372 -15.35178756 15.96986723 -17 17 C-20.25 16.3125 -20.25 16.3125 -23 15 C-24.39935013 12.20129973 -24.25265405 10.09501208 -24 7 C-22.875 5.125 -22.875 5.125 -21 4 C-17.04269405 3.57901001 -14.39731629 3.90934382 -11 6 C-10.01 5.34 -9.02 4.68 -8 4 C-4.3125 4.375 -4.3125 4.375 -1 5 C-0.67 3.35 -0.34 1.7 0 0 Z M-6 8 C-6.33 9.32 -6.66 10.64 -7 12 C-4.69 12 -2.38 12 0 12 C-0.33 10.68 -0.66 9.36 -1 8 C-2.65 8 -4.3 8 -6 8 Z " fill="#575656" transform="translate(109,80)"/>
<path d="M0 0 C3 1 3 1 3.9921875 2.7421875 C4.42917969 3.79792969 4.42917969 3.79792969 4.875 4.875 C6.63258223 8.70353184 8.30057808 9.9447656 12 12 C12 13.32 12 14.64 12 16 C10.68 16 9.36 16 8 16 C7.9175 16.598125 7.835 17.19625 7.75 17.8125 C6.74714695 20.73748806 5.74232413 21.5917795 3 23 C-0.24162743 22.86768868 -2.24360053 22.55469295 -4.875 20.625 C-6 19 -6 19 -6 16 C-7.32 16 -8.64 16 -10 16 C-10 14.68 -10 13.36 -10 12 C-8.53329574 10.76144974 -7.06005521 9.5282141 -5.53125 8.3671875 C-3.22470349 6.30777097 -2.20958306 3.80113973 -1 1 C-0.67 0.67 -0.34 0.34 0 0 Z M-2 13 C-2 14.65 -2 16.3 -2 18 C-0.34385343 18.38218767 1.32457024 18.71395102 3 19 C4.29633621 17.93354885 4.29633621 17.93354885 4.0625 15.4375 C4.041875 14.633125 4.02125 13.82875 4 13 C0.95086772 11.98888907 0.95086772 11.98888907 -2 13 Z " fill="#E5007D" transform="translate(32,101)"/>
<path d="M0 0 C1.875 1.375 1.875 1.375 3 3 C3 3.99 3 4.98 3 6 C4.32 6 5.64 6 7 6 C7 7.32 7 8.64 7 10 C6.278125 10.391875 5.55625 10.78375 4.8125 11.1875 C0.68495802 13.8474715 -0.86954587 17.6756314 -3 22 C-6.50786217 20.83071261 -6.70754025 20.22191155 -8.4375 17.125 C-10.31761795 13.92310216 -12.01652669 12.20998023 -15 10 C-15 8.68 -15 7.36 -15 6 C-13.68 6 -12.36 6 -11 6 C-10.9175 5.401875 -10.835 4.80375 -10.75 4.1875 C-8.86828872 -1.30082457 -5.06723148 -1.5093881 0 0 Z M-6 3 C-7.29633621 4.06645115 -7.29633621 4.06645115 -7.0625 6.5625 C-7.041875 7.366875 -7.02125 8.17125 -7 9 C-3.95086772 10.01111093 -3.95086772 10.01111093 -1 9 C-1 7.35 -1 5.7 -1 4 C-2.65614657 3.61781233 -4.32457024 3.28604898 -6 3 Z " fill="#312782" transform="translate(37,78)"/>
<path d="M0 0 C4.62 0 9.24 0 14 0 C13.67 1.65 13.34 3.3 13 5 C11.68 5 10.36 5 9 5 C9 8.63 9 12.26 9 16 C7.35 16 5.7 16 4 16 C4 12.37 4 8.74 4 5 C2.68 5 1.36 5 0 5 C0 3.35 0 1.7 0 0 Z " fill="#575656" transform="translate(74,80)"/>
<path d="M0 0 C7.71484375 -0.09765625 7.71484375 -0.09765625 10 0 C11 1 11 1 11.09765625 3.50390625 C11.08605469 4.51324219 11.07445312 5.52257812 11.0625 6.5625 C11.05347656 7.57441406 11.04445312 8.58632812 11.03515625 9.62890625 C11.02355469 10.41136719 11.01195312 11.19382812 11 12 C9.68 12 8.36 12 7 12 C6.67 9.69 6.34 7.38 6 5 C5.34 7.31 4.68 9.62 4 12 C2.68 12 1.36 12 0 12 C0 8.04 0 4.08 0 0 Z " fill="#575656" transform="translate(122,84)"/>
</svg>
